#N struct 1003.vertgrid float x float y float w float h;
#N struct 1003.horizgrid float x float y float w float h float c;
#N struct 1003.vertline float x float y float h float c float n float
nvis;
#N struct 1003.note float x float y float w float h float id float
gid float vel float c float vis;
#N canvas 1315 104 1037 869 10;
#N canvas 398 118 1117 771 testfeld 1;
#X scalar 1003.vertgrid 90 40 14 671 \;;
#X scalar 1003.vertgrid 105 40 14 671 \;;
#X scalar 1003.vertgrid 120 40 14 671 \;;
#X scalar 1003.vertgrid 135 40 14 671 \;;
#X scalar 1003.vertgrid 150 40 14 671 \;;
#X scalar 1003.vertgrid 165 40 14 671 \;;
#X scalar 1003.vertgrid 180 40 14 671 \;;
#X scalar 1003.vertgrid 195 40 14 671 \;;
#X scalar 1003.vertgrid 210 40 14 671 \;;
#X scalar 1003.vertgrid 225 40 14 671 \;;
#X scalar 1003.vertgrid 240 40 14 671 \;;
#X scalar 1003.vertgrid 255 40 14 671 \;;
#X scalar 1003.vertgrid 270 40 14 671 \;;
#X scalar 1003.vertgrid 285 40 14 671 \;;
#X scalar 1003.vertgrid 300 40 14 671 \;;
#X scalar 1003.vertgrid 315 40 14 671 \;;
#X scalar 1003.vertgrid 330 40 14 671 \;;
#X scalar 1003.vertgrid 345 40 14 671 \;;
#X scalar 1003.vertgrid 360 40 14 671 \;;
#X scalar 1003.vertgrid 375 40 14 671 \;;
#X scalar 1003.vertgrid 390 40 14 671 \;;
#X scalar 1003.vertgrid 405 40 14 671 \;;
#X scalar 1003.vertgrid 420 40 14 671 \;;
#X scalar 1003.vertgrid 435 40 14 671 \;;
#X scalar 1003.vertgrid 450 40 14 671 \;;
#X scalar 1003.vertgrid 465 40 14 671 \;;
#X scalar 1003.vertgrid 480 40 14 671 \;;
#X scalar 1003.vertgrid 495 40 14 671 \;;
#X scalar 1003.vertgrid 510 40 14 671 \;;
#X scalar 1003.vertgrid 525 40 14 671 \;;
#X scalar 1003.vertgrid 540 40 14 671 \;;
#X scalar 1003.vertgrid 555 40 14 671 \;;
#X scalar 1003.vertgrid 570 40 14 671 \;;
#X scalar 1003.vertgrid 585 40 14 671 \;;
#X scalar 1003.vertgrid 600 40 14 671 \;;
#X scalar 1003.vertgrid 615 40 14 671 \;;
#X scalar 1003.vertgrid 630 40 14 671 \;;
#X scalar 1003.vertgrid 645 40 14 671 \;;
#X scalar 1003.vertgrid 660 40 14 671 \;;
#X scalar 1003.vertgrid 675 40 14 671 \;;
#X scalar 1003.vertgrid 690 40 14 671 \;;
#X scalar 1003.vertgrid 705 40 14 671 \;;
#X scalar 1003.vertgrid 720 40 14 671 \;;
#X scalar 1003.vertgrid 735 40 14 671 \;;
#X scalar 1003.vertgrid 750 40 14 671 \;;
#X scalar 1003.vertgrid 765 40 14 671 \;;
#X scalar 1003.vertgrid 780 40 14 671 \;;
#X scalar 1003.vertgrid 795 40 14 671 \;;
#X scalar 1003.vertgrid 810 40 14 671 \;;
#X scalar 1003.vertgrid 825 40 14 671 \;;
#X scalar 1003.vertgrid 840 40 14 671 \;;
#X scalar 1003.vertgrid 855 40 14 671 \;;
#X scalar 1003.vertgrid 870 40 14 671 \;;
#X scalar 1003.vertgrid 885 40 14 671 \;;
#X scalar 1003.vertgrid 900 40 14 671 \;;
#X scalar 1003.vertgrid 915 40 14 671 \;;
#X scalar 1003.vertgrid 930 40 14 671 \;;
#X scalar 1003.vertgrid 945 40 14 671 \;;
#X scalar 1003.vertgrid 960 40 14 671 \;;
#X scalar 1003.vertgrid 975 40 14 671 \;;
#X scalar 1003.vertgrid 990 40 14 671 \;;
#X scalar 1003.vertgrid 1005 40 14 671 \;;
#X scalar 1003.vertgrid 1020 40 14 671 \;;
#X scalar 1003.vertgrid 1035 40 14 671 \;;
#X scalar 1003.horizgrid 90 40 960 13 887 \;;
#X scalar 1003.horizgrid 90 54 960 13 777 \;;
#X scalar 1003.horizgrid 90 68 960 13 887 \;;
#X scalar 1003.horizgrid 90 82 960 13 777 \;;
#X scalar 1003.horizgrid 90 96 960 13 887 \;;
#X scalar 1003.horizgrid 90 110 960 13 777 \;;
#X scalar 1003.horizgrid 90 124 960 13 887 \;;
#X scalar 1003.horizgrid 90 138 960 13 887 \;;
#X scalar 1003.horizgrid 90 152 960 13 777 \;;
#X scalar 1003.horizgrid 90 166 960 13 887 \;;
#X scalar 1003.horizgrid 90 180 960 13 777 \;;
#X scalar 1003.horizgrid 90 194 960 13 887 \;;
#X scalar 1003.horizgrid 90 208 960 13 887 \;;
#X scalar 1003.horizgrid 90 222 960 13 777 \;;
#X scalar 1003.horizgrid 90 236 960 13 887 \;;
#X scalar 1003.horizgrid 90 250 960 13 777 \;;
#X scalar 1003.horizgrid 90 264 960 13 887 \;;
#X scalar 1003.horizgrid 90 278 960 13 777 \;;
#X scalar 1003.horizgrid 90 292 960 13 887 \;;
#X scalar 1003.horizgrid 90 306 960 13 887 \;;
#X scalar 1003.horizgrid 90 320 960 13 777 \;;
#X scalar 1003.horizgrid 90 334 960 13 887 \;;
#X scalar 1003.horizgrid 90 348 960 13 777 \;;
#X scalar 1003.horizgrid 90 362 960 13 887 \;;
#X scalar 1003.horizgrid 90 376 960 13 887 \;;
#X scalar 1003.horizgrid 90 390 960 13 777 \;;
#X scalar 1003.horizgrid 90 404 960 13 887 \;;
#X scalar 1003.horizgrid 90 418 960 13 777 \;;
#X scalar 1003.horizgrid 90 432 960 13 887 \;;
#X scalar 1003.horizgrid 90 446 960 13 777 \;;
#X scalar 1003.horizgrid 90 460 960 13 887 \;;
#X scalar 1003.horizgrid 90 474 960 13 887 \;;
#X scalar 1003.horizgrid 90 488 960 13 777 \;;
#X scalar 1003.horizgrid 90 502 960 13 887 \;;
#X scalar 1003.horizgrid 90 516 960 13 777 \;;
#X scalar 1003.horizgrid 90 530 960 13 887 \;;
#X scalar 1003.horizgrid 90 544 960 13 887 \;;
#X scalar 1003.horizgrid 90 558 960 13 777 \;;
#X scalar 1003.horizgrid 90 572 960 13 887 \;;
#X scalar 1003.horizgrid 90 586 960 13 777 \;;
#X scalar 1003.horizgrid 90 600 960 13 887 \;;
#X scalar 1003.horizgrid 90 614 960 13 777 \;;
#X scalar 1003.horizgrid 90 628 960 13 887 \;;
#X scalar 1003.horizgrid 90 642 960 13 887 \;;
#X scalar 1003.horizgrid 90 656 960 13 777 \;;
#X scalar 1003.horizgrid 90 670 960 13 887 \;;
#X scalar 1003.horizgrid 90 684 960 13 777 \;;
#X scalar 1003.horizgrid 90 698 960 13 887 \;;
#X scalar 1003.vertline 90 40 672 0 1 1 \;;
#X scalar 1003.vertline 105 40 672 888 1 0 \;;
#X scalar 1003.vertline 120 40 672 888 1 0 \;;
#X scalar 1003.vertline 135 40 672 888 1 0 \;;
#X scalar 1003.vertline 150 40 672 666 1 0 \;;
#X scalar 1003.vertline 165 40 672 888 1 0 \;;
#X scalar 1003.vertline 180 40 672 888 1 0 \;;
#X scalar 1003.vertline 195 40 672 888 1 0 \;;
#X scalar 1003.vertline 210 40 672 666 1 0 \;;
#X scalar 1003.vertline 225 40 672 888 1 0 \;;
#X scalar 1003.vertline 240 40 672 888 1 0 \;;
#X scalar 1003.vertline 255 40 672 888 1 0 \;;
#X scalar 1003.vertline 270 40 672 666 1 0 \;;
#X scalar 1003.vertline 285 40 672 888 1 0 \;;
#X scalar 1003.vertline 300 40 672 888 1 0 \;;
#X scalar 1003.vertline 315 40 672 888 1 0 \;;
#X scalar 1003.vertline 330 40 672 0 2 1 \;;
#X scalar 1003.vertline 345 40 672 888 2 0 \;;
#X scalar 1003.vertline 360 40 672 888 2 0 \;;
#X scalar 1003.vertline 375 40 672 888 2 0 \;;
#X scalar 1003.vertline 390 40 672 666 2 0 \;;
#X scalar 1003.vertline 405 40 672 888 2 0 \;;
#X scalar 1003.vertline 420 40 672 888 2 0 \;;
#X scalar 1003.vertline 435 40 672 888 2 0 \;;
#X scalar 1003.vertline 450 40 672 666 2 0 \;;
#X scalar 1003.vertline 465 40 672 888 2 0 \;;
#X scalar 1003.vertline 480 40 672 888 2 0 \;;
#X scalar 1003.vertline 495 40 672 888 2 0 \;;
#X scalar 1003.vertline 510 40 672 666 2 0 \;;
#X scalar 1003.vertline 525 40 672 888 2 0 \;;
#X scalar 1003.vertline 540 40 672 888 2 0 \;;
#X scalar 1003.vertline 555 40 672 888 2 0 \;;
#X scalar 1003.vertline 570 40 672 0 3 1 \;;
#X scalar 1003.vertline 585 40 672 888 3 0 \;;
#X scalar 1003.vertline 600 40 672 888 3 0 \;;
#X scalar 1003.vertline 615 40 672 888 3 0 \;;
#X scalar 1003.vertline 630 40 672 666 3 0 \;;
#X scalar 1003.vertline 645 40 672 888 3 0 \;;
#X scalar 1003.vertline 660 40 672 888 3 0 \;;
#X scalar 1003.vertline 675 40 672 888 3 0 \;;
#X scalar 1003.vertline 690 40 672 666 3 0 \;;
#X scalar 1003.vertline 705 40 672 888 3 0 \;;
#X scalar 1003.vertline 720 40 672 888 3 0 \;;
#X scalar 1003.vertline 735 40 672 888 3 0 \;;
#X scalar 1003.vertline 750 40 672 666 3 0 \;;
#X scalar 1003.vertline 765 40 672 888 3 0 \;;
#X scalar 1003.vertline 780 40 672 888 3 0 \;;
#X scalar 1003.vertline 795 40 672 888 3 0 \;;
#X scalar 1003.vertline 810 40 672 0 4 1 \;;
#X scalar 1003.vertline 825 40 672 888 4 0 \;;
#X scalar 1003.vertline 840 40 672 888 4 0 \;;
#X scalar 1003.vertline 855 40 672 888 4 0 \;;
#X scalar 1003.vertline 870 40 672 666 4 0 \;;
#X scalar 1003.vertline 885 40 672 888 4 0 \;;
#X scalar 1003.vertline 900 40 672 888 4 0 \;;
#X scalar 1003.vertline 915 40 672 888 4 0 \;;
#X scalar 1003.vertline 930 40 672 666 4 0 \;;
#X scalar 1003.vertline 945 40 672 888 4 0 \;;
#X scalar 1003.vertline 960 40 672 888 4 0 \;;
#X scalar 1003.vertline 975 40 672 888 4 0 \;;
#X scalar 1003.vertline 990 40 672 666 4 0 \;;
#X scalar 1003.vertline 1005 40 672 888 4 0 \;;
#X scalar 1003.vertline 1020 40 672 888 4 0 \;;
#X scalar 1003.vertline 1035 40 672 888 4 0 \;;
#X scalar 1003.vertline 1050 40 672 0 5 0 \;;
#X scalar 1003.note 270 306 60 13 0 0 96 600 0 \;;
#X scalar 1003.note 420 390 60 13 1 0 64 400 0 \;;
#X scalar 1003.note 645 264 60 13 2 0 105 700 0 \;;
#X scalar 1003.note 630 502 60 13 3 0 64 400 0 \;;
#X scalar 1003.note 405 530 60 13 4 0 119 800 0 \;;
#X scalar 1003.note 615 376 330 13 5 0 108 700 0 \;;
#X scalar 1003.note 195 460 60 13 1 0 113 700 0 \;;
#X scalar 1003.note 660 502 60 13 3 0 127 800 0 \;;
#X scalar 1003.note 435 236 60 13 6 0 123 800 0 \;;
#X scalar 1003.note 525 138 195 13 7 0 127 800 0 \;;
#X scalar 1003.note 570 222 360 13 8 0 127 800 0 \;;
#X scalar 1003.note 375 334 315 13 9 0 118 800 0 \;;
#X scalar 1003.note 450 418 135 13 10 0 64 400 0 \;;
#X scalar 1003.note 465 418 270 13 10 0 109 700 0 \;;
#X scalar 1003.note 405 418 150 13 8 0 64 400 0 \;;
#X scalar 1003.note 615 306 60 13 5 0 64 400 0 \;;
#X scalar 1003.note 225 292 60 13 0 0 64 400 0 \;;
#X scalar 1003.note 330 306 60 13 1 0 64 400 0 \;;
#X scalar 1003.note 480 250 60 13 2 0 64 400 0 \;;
#X scalar 1003.note 510 362 60 13 5 0 64 400 0 \;;
#X scalar 1003.note 285 460 45 13 0 0 64 400 0 \;;
#X scalar 1003.note 300 474 60 13 1 0 64 400 0 \;;
#X scalar 1003.note 450 446 60 13 2 0 64 400 0 \;;
#X scalar 1003.note 495 572 60 13 3 0 64 400 0 \;;
#X scalar 1003.note 615 404 60 13 4 0 64 400 0 \;;
#X scalar 1003.note 720 600 60 13 5 0 64 400 0 \;;
#X scalar 1003.note 825 656 60 13 6 0 64 400 0 \;;
#X scalar 1003.note 885 418 60 13 7 0 64 400 0 \;;
#X scalar 1003.note 735 264 60 13 8 0 64 400 0 \;;
#X scalar 1003.note 555 250 60 13 9 0 64 400 0 \;;
#X scalar 1003.note 435 264 60 13 10 0 64 400 0 \;;
#X scalar 1003.note 330 460 60 13 1 0 64 400 0 \;;
#X scalar 1003.note 645 418 60 13 0 0 64 400 0 \;;
#X scalar 1003.note 225 292 60 13 0 0 65 400 0 \;;
#X scalar 1003.note 285 292 15 13 1 0 64 400 0 \;;
#X scalar 1003.note 270 292 210 13 0 0 64 400 0 \;;
#X scalar 1003.note 255 292 420 13 0 0 64 400 0 \;;
#X scalar 1003.note 510 362 60 13 1 0 64 400 0 \;;
#X scalar 1003.note 435 292 60 13 0 0 127 800 0 \;;
#X scalar 1003.note 435 292 15 13 0 0 64 400 0 \;;
#X scalar 1003.note 495 292 15 13 1 0 64 400 0 \;;
#X scalar 1003.note 450 292 15 13 1 0 64 400 0 \;;
#X scalar 1003.note 480 292 15 13 2 0 64 400 0 \;;
#X scalar 1003.note 450 292 60 13 1 0 64 400 0 \;;
#X scalar 1003.note 345 264 165 13 0 0 64 400 0 \;;
#X restore 39 55 pd testfeld;
#X msg 632 305 clear;
#X obj 581 439 s pd-testfeld;
#X obj 67 773 s pd-testfeld;
#X obj 67 373 del 0;
#X obj 67 400 f;
#X msg 110 376 1;
#X msg 252 359 0;
#X obj 67 426 sel 1;
#N canvas 0 99 483 432 detect_double_click 0;
#X obj 91 101 -;
#X obj 90 76 t a a;
#X obj 19 23 inlet;
#X text 109 21 this detects two clicks on the same scalar within a
certain period.;
#X obj 19 75 t b b;
#X obj 19 99 del 300;
#X msg 19 122 0;
#X msg 52 123 1;
#X obj 19 48 t b a;
#X obj 91 166 spigot 0;
#X obj 91 203 outlet;
#X obj 91 126 sel 0;
#X connect 0 0 11 0;
#X connect 1 0 0 1;
#X connect 1 1 0 0;
#X connect 2 0 8 0;
#X connect 4 0 5 0;
#X connect 4 1 7 0;
#X connect 5 0 6 0;
#X connect 6 0 9 1;
#X connect 7 0 9 1;
#X connect 8 0 4 0;
#X connect 8 1 1 0;
#X connect 9 0 10 0;
#X connect 11 0 9 0;
#X restore 279 418 pd detect_double_click;
#X obj 252 277 unpack s p f;
#X obj 252 300 sel click;
#X msg 279 464 0;
#X obj 252 322 t b b;
#X obj 279 346 pointer;
#X obj 574 9 loadbang;
#X obj 574 32 \$0;
#X obj 581 238 r \$0.init;
#X obj 552 8 bng 15 250 50 0 empty empty empty 17 7 0 10 -262144 -1
-1;
#N canvas 133 127 401 394 create_horizgrid 0;
#X obj 16 86 t a b;
#X obj 16 109 until;
#X obj 16 132 f;
#X msg 54 110 0;
#X obj 67 150 + 1;
#X obj 16 62 f;
#X obj 49 62 r \$0.pitchrange;
#X text 229 320 x y w h c;
#X obj 16 271 pack f f f f f;
#N canvas 0 99 387 189 x 0;
#X obj 18 12 inlet;
#X obj 18 97 +;
#X obj 33 70 r \$0.canvasleftmargin;
#X msg 18 46 0;
#X obj 18 120 outlet;
#X connect 0 0 3 0;
#X connect 1 0 4 0;
#X connect 2 0 1 1;
#X connect 3 0 1 0;
#X restore 16 233 pd x;
#N canvas 0 99 405 280 y 0;
#X obj 42 123 * 14;
#X obj 42 199 +;
#X obj 57 173 r \$0.canvastopmargin;
#X obj 63 96 r \$0.stepvisheight;
#X obj 42 35 inlet;
#X obj 42 239 outlet;
#X connect 0 0 1 0;
#X connect 1 0 5 0;
#X connect 2 0 1 1;
#X connect 3 0 0 1;
#X connect 4 0 0 0;
#X restore 55 234 pd y;
#N canvas 0 99 418 249 w 0;
#X obj 16 17 inlet;
#X obj 16 194 outlet;
#X obj 16 103 f;
#X obj 31 77 r \$0.stepcount;
#X obj 31 127 r \$0.stepviswidth;
#X obj 16 155 *;
#X obj 16 45 b;
#X connect 0 0 6 0;
#X connect 2 0 5 0;
#X connect 3 0 2 1;
#X connect 4 0 5 1;
#X connect 5 0 1 0;
#X connect 6 0 2 0;
#X restore 92 234 pd w;
#N canvas 0 99 395 171 h 0;
#X obj 23 14 inlet;
#X obj 23 37 b;
#X obj 23 110 f;
#X obj 23 133 outlet;
#X obj 38 65 r \$0.stepvisheight;
#X obj 38 88 - 1;
#X connect 0 0 1 0;
#X connect 1 0 2 0;
#X connect 2 0 3 0;
#X connect 4 0 5 0;
#X connect 5 0 2 1;
#X restore 135 235 pd h;
#X obj 16 156 t a a;
#X obj 16 185 t a a a a a;
#N canvas 570 378 422 271 c 0;
#X obj 20 56 mod 12;
#X obj 20 80 sel 0 2 4 5 7 9 11;
#X obj 125 102 b;
#X obj 20 130 f 887;
#X obj 125 177 f 777;
#X obj 20 32 + 5;
#X obj 64 129 r \$0.stepkeycolor1;
#X obj 132 152 r \$0.stepkeycolor2;
#X obj 20 211 t a;
#X obj 20 7 inlet;
#X obj 20 238 outlet;
#X connect 0 0 1 0;
#X connect 1 0 3 0;
#X connect 1 1 3 0;
#X connect 1 2 3 0;
#X connect 1 3 3 0;
#X connect 1 4 3 0;
#X connect 1 5 3 0;
#X connect 1 6 3 0;
#X connect 1 7 2 0;
#X connect 2 0 4 0;
#X connect 3 0 8 0;
#X connect 4 0 8 0;
#X connect 5 0 0 0;
#X connect 6 0 3 1;
#X connect 7 0 4 1;
#X connect 8 0 10 0;
#X connect 9 0 5 0;
#X restore 171 234 pd c;
#X obj 16 294 list prepend \$0;
#X obj 16 10 inlet;
#X obj 16 35 b;
#X obj 16 343 outlet;
#X msg 16 320 scalar \$1.horizgrid \$2 \$3 \$4 \$5 \$6;
#X connect 0 0 1 0;
#X connect 0 1 3 0;
#X connect 1 0 2 0;
#X connect 2 0 13 0;
#X connect 3 0 2 1;
#X connect 4 0 2 1;
#X connect 5 0 0 0;
#X connect 6 0 5 1;
#X connect 8 0 16 0;
#X connect 9 0 8 0;
#X connect 10 0 8 1;
#X connect 11 0 8 2;
#X connect 12 0 8 3;
#X connect 13 0 14 0;
#X connect 13 1 4 0;
#X connect 14 0 9 0;
#X connect 14 1 10 0;
#X connect 14 2 11 0;
#X connect 14 3 12 0;
#X connect 14 4 15 0;
#X connect 15 0 8 4;
#X connect 16 0 20 0;
#X connect 17 0 18 0;
#X connect 18 0 5 0;
#X connect 20 0 19 0;
#X restore 598 358 pd create_horizgrid;
#N canvas 75 102 410 167 horizgrid-template 0;
#X obj 19 18 filledpolygon c c 1 0 0 0 h w h w 0;
#X obj 20 44 struct \$0.horizgrid float x float y float w float h float
c;
#X obj 20 73 s \$0.horizgrid.send;
#X connect 1 0 2 0;
#X restore 736 330 pd horizgrid-template;
#N canvas 60 99 380 157 vertgrid-template 0;
#X obj 19 18 filledpolygon 0 0 1 0 0 0 h w h w 0;
#X obj 19 42 struct \$0.vertgrid float x float y float w float h;
#X obj 19 66 s \$0.vertgrid.send;
#X connect 1 0 2 0;
#X restore 736 357 pd vertgrid-template;
#N canvas 133 127 401 394 create_vertgrid 0;
#X obj 16 86 t a b;
#X obj 16 109 until;
#X obj 16 132 f;
#X msg 54 110 0;
#X obj 67 150 + 1;
#X obj 16 62 f;
#N canvas 0 99 401 215 x 0;
#X obj 18 12 inlet;
#X obj 18 147 +;
#X obj 33 120 r \$0.canvasleftmargin;
#X obj 18 170 outlet;
#X obj 18 75 *;
#X obj 33 42 r \$0.stepviswidth;
#X connect 0 0 4 0;
#X connect 1 0 3 0;
#X connect 2 0 1 1;
#X connect 4 0 1 0;
#X connect 5 0 4 1;
#X restore 16 233 pd x;
#N canvas 0 99 405 280 y 0;
#X obj 42 199 +;
#X obj 57 173 r \$0.canvastopmargin;
#X obj 42 35 inlet;
#X obj 42 239 outlet;
#X msg 42 90 0;
#X connect 0 0 3 0;
#X connect 1 0 0 1;
#X connect 2 0 4 0;
#X connect 4 0 0 0;
#X restore 55 234 pd y;
#N canvas 0 99 418 249 w 0;
#X obj 16 17 inlet;
#X obj 16 194 outlet;
#X obj 31 90 r \$0.stepviswidth;
#X obj 16 45 b;
#X obj 16 155 f;
#X obj 31 113 - 1;
#X connect 0 0 3 0;
#X connect 2 0 5 0;
#X connect 3 0 4 0;
#X connect 4 0 1 0;
#X connect 5 0 4 1;
#X restore 92 234 pd w;
#N canvas 0 99 398 252 h 0;
#X obj 23 14 inlet;
#X obj 23 37 b;
#X obj 23 193 outlet;
#X obj 38 115 r \$0.stepvisheight;
#X obj 23 91 f;
#X obj 23 140 *;
#X obj 38 66 r \$0.pitchrange;
#X obj 23 163 - 1;
#X connect 0 0 1 0;
#X connect 1 0 4 0;
#X connect 3 0 5 1;
#X connect 4 0 5 0;
#X connect 5 0 7 0;
#X connect 6 0 4 1;
#X connect 7 0 2 0;
#X restore 135 235 pd h;
#X obj 16 156 t a a;
#X obj 16 294 list prepend \$0;
#X obj 16 10 inlet;
#X obj 16 35 b;
#X obj 16 343 outlet;
#X obj 46 60 r \$0.stepcount;
#X text 229 320 x y w h;
#X obj 16 271 pack f f f f;
#X obj 16 185 t a a a a;
#X msg 16 320 scalar \$1.vertgrid \$2 \$3 \$4 \$5;
#X connect 0 0 1 0;
#X connect 0 1 3 0;
#X connect 1 0 2 0;
#X connect 2 0 10 0;
#X connect 3 0 2 1;
#X connect 4 0 2 1;
#X connect 5 0 0 0;
#X connect 6 0 17 0;
#X connect 7 0 17 1;
#X connect 8 0 17 2;
#X connect 9 0 17 3;
#X connect 10 0 18 0;
#X connect 10 1 4 0;
#X connect 11 0 19 0;
#X connect 12 0 13 0;
#X connect 13 0 5 0;
#X connect 15 0 5 1;
#X connect 17 0 11 0;
#X connect 18 0 6 0;
#X connect 18 1 7 0;
#X connect 18 2 8 0;
#X connect 18 3 9 0;
#X connect 19 0 14 0;
#X restore 615 330 pd create_vertgrid;
#X obj 67 152 r \$0.horizgrid.send;
#X obj 67 175 route click;
#X obj 67 198 get \$0.horizgrid y;
#X obj 112 243 route click;
#X obj 112 220 r \$0.vertgrid.send;
#X obj 67 291 pack f f;
#X obj 112 266 get \$0.vertgrid x;
#N canvas 107 99 450 300 vertline-template 0;
#X obj 18 20 drawpolygon c 1 0 0 0 h;
#X obj 19 79 s \$0.vertline.send;
#X obj 165 20 drawnumber -v nvis n -3 -15 c;
#X obj 19 42 struct \$0.vertline float x float y float h float c float
n float nvis;
#X connect 3 0 1 0;
#X restore 736 384 pd vertline-template;
#X obj 581 278 t b b b b;
#N canvas 43 99 400 432 create_vertline 0;
#X obj 16 116 t a b;
#X obj 16 139 until;
#X obj 16 162 f;
#X msg 54 140 0;
#X obj 67 180 + 1;
#X obj 16 62 f;
#N canvas 0 99 401 215 x 0;
#X obj 18 12 inlet;
#X obj 18 147 +;
#X obj 33 120 r \$0.canvasleftmargin;
#X obj 18 170 outlet;
#X obj 18 75 *;
#X obj 33 42 r \$0.stepviswidth;
#X connect 0 0 4 0;
#X connect 1 0 3 0;
#X connect 2 0 1 1;
#X connect 4 0 1 0;
#X connect 5 0 4 1;
#X restore 16 263 pd x;
#N canvas 0 99 405 280 y 0;
#X obj 42 199 +;
#X obj 57 173 r \$0.canvastopmargin;
#X obj 42 35 inlet;
#X obj 42 239 outlet;
#X msg 42 90 0;
#X connect 0 0 3 0;
#X connect 1 0 0 1;
#X connect 2 0 4 0;
#X connect 4 0 0 0;
#X restore 55 264 pd y;
#X obj 16 186 t a a;
#X obj 16 324 list prepend \$0;
#X obj 16 10 inlet;
#X obj 16 35 b;
#X obj 16 373 outlet;
#X obj 46 60 r \$0.stepcount;
#N canvas 0 99 398 252 h 0;
#X obj 23 14 inlet;
#X obj 23 37 b;
#X obj 23 163 outlet;
#X obj 38 115 r \$0.stepvisheight;
#X obj 23 91 f;
#X obj 23 140 *;
#X obj 38 66 r \$0.pitchrange;
#X connect 0 0 1 0;
#X connect 1 0 4 0;
#X connect 3 0 5 1;
#X connect 4 0 5 0;
#X connect 5 0 2 0;
#X connect 6 0 4 1;
#X restore 96 266 pd h;
#N canvas 0 99 500 410 c 0;
#X obj 16 17 inlet;
#X obj 16 326 outlet;
#X obj 87 53 r \$0.griddivision;
#X obj 103 80 r \$0.gridsubdivision;
#X obj 87 131 *;
#X obj 16 161 mod;
#X obj 16 198 sel 0;
#X obj 58 205 r \$0.gridsubdivision;
#X obj 43 232 mod;
#X obj 43 261 sel 0;
#X msg 70 288 888;
#X msg 16 289 0;
#X obj 103 103 t b a;
#X msg 43 288 666;
#X connect 0 0 5 0;
#X connect 2 0 4 0;
#X connect 3 0 12 0;
#X connect 4 0 5 1;
#X connect 5 0 6 0;
#X connect 6 0 11 0;
#X connect 6 1 8 0;
#X connect 7 0 8 1;
#X connect 8 0 9 0;
#X connect 9 0 13 0;
#X connect 9 1 10 0;
#X connect 10 0 1 0;
#X connect 11 0 1 0;
#X connect 12 0 4 0;
#X connect 12 1 4 1;
#X connect 13 0 1 0;
#X restore 133 267 pd c;
#X obj 16 89 + 1;
#X text 46 89 one more for end line;
#X obj 16 215 t a a a a a;
#N canvas 0 99 429 340 n 0;
#X obj 20 26 inlet;
#X obj 20 265 outlet;
#X obj 113 30 r \$0.griddivision;
#X obj 129 57 r \$0.gridsubdivision;
#X obj 113 108 *;
#X obj 129 80 t b a;
#X obj 20 161 div;
#X obj 20 109 t a a;
#X obj 109 197 mod;
#X obj 109 225 == 0;
#X obj 109 268 outlet;
#X obj 20 184 + 1;
#X obj 170 115 r \$0.stepcount;
#X obj 78 174 sel;
#X msg 78 200 0;
#X connect 0 0 7 0;
#X connect 2 0 4 0;
#X connect 3 0 5 0;
#X connect 4 0 6 1;
#X connect 4 0 8 1;
#X connect 5 0 4 0;
#X connect 5 1 4 1;
#X connect 6 0 11 0;
#X connect 7 0 6 0;
#X connect 7 1 13 0;
#X connect 8 0 9 0;
#X connect 9 0 10 0;
#X connect 11 0 1 0;
#X connect 12 0 13 1;
#X connect 13 0 14 0;
#X connect 13 1 8 0;
#X connect 14 0 10 0;
#X restore 170 267 pd n nvis;
#X obj 16 301 pack f f f f f f;
#X text 249 349 x y h c n nvis;
#X msg 16 350 scalar \$1.vertline \$2 \$3 \$4 \$5 \$6 \$7;
#X connect 0 0 1 0;
#X connect 0 1 3 0;
#X connect 1 0 2 0;
#X connect 2 0 8 0;
#X connect 3 0 2 1;
#X connect 4 0 2 1;
#X connect 5 0 16 0;
#X connect 6 0 20 0;
#X connect 7 0 20 1;
#X connect 8 0 18 0;
#X connect 8 1 4 0;
#X connect 9 0 22 0;
#X connect 10 0 11 0;
#X connect 11 0 5 0;
#X connect 13 0 5 1;
#X connect 14 0 20 2;
#X connect 15 0 20 3;
#X connect 16 0 0 0;
#X connect 18 0 6 0;
#X connect 18 1 7 0;
#X connect 18 2 14 0;
#X connect 18 3 15 0;
#X connect 18 4 19 0;
#X connect 19 0 20 4;
#X connect 19 1 20 5;
#X connect 20 0 9 0;
#X connect 22 0 12 0;
#X restore 581 386 pd create_vertline;
#X obj 67 340 t b b a;
#X obj 67 453 list append;
#X msg 67 314 \$2 \$1;
#X msg 575 55 \; \$1.stepcount 64 \; \$1.pitchrange 48 \; \$1.stepviswidth
15 \; \$1.stepvisheight 14 \; \$1.canvastopmargin 40 \; \$1.canvasleftmargin
90 \; \$1.stepkeycolor1 887 \; \$1.stepkeycolor2 777 \; \$1.griddivision
4 \; \$1.gridsubdivision 4 \; \$1.init bang \;;
#N canvas 79 99 782 466 note-template 0;
#X obj 122 337 int;
#X obj 51 267 max 0;
#X obj 51 290 min 127;
#X obj 122 315 / 14.2;
#X obj 51 166 route click change;
#X obj 51 315 t a a;
#X obj 122 361 * 100;
#X obj 32 141 t a a a;
#X obj 32 34 drawnumber -v vis vel 1 -14 0;
#X obj 32 409 s \$0.note.send;
#X obj 32 104 struct \$0.note float x float y float w float h float
id float gid float vel float c float vis;
#X obj 51 189 t p p, f 48;
#X obj 51 235 t a b, f 36;
#X obj 264 353 f;
#X obj 279 295 r \$0.stepvisheight;
#X obj 279 318 - 1;
#X obj 51 212 get \$0.note vel w, f 24;
#X obj 51 386 set \$0.note vel c w h, f 48;
#X obj 226 265 r \$0.stepviswidth;
#X obj 193 289 div;
#X obj 193 312 *;
#X obj 32 54 filledpolygon -v vis c 444 1 0 0 0 h w h w 0;
#X obj 193 335 max;
#X connect 0 0 6 0;
#X connect 1 0 2 0;
#X connect 2 0 5 0;
#X connect 3 0 0 0;
#X connect 4 0 11 0;
#X connect 4 1 11 0;
#X connect 5 0 17 0;
#X connect 5 1 3 0;
#X connect 6 0 17 1;
#X connect 7 0 9 0;
#X connect 7 1 4 0;
#X connect 10 0 7 0;
#X connect 11 0 16 0;
#X connect 11 1 17 4;
#X connect 12 0 1 0;
#X connect 12 1 13 0;
#X connect 13 0 17 3;
#X connect 14 0 15 0;
#X connect 15 0 13 1;
#X connect 16 0 12 0;
#X connect 16 1 19 0;
#X connect 18 0 19 1;
#X connect 18 0 20 1;
#X connect 18 0 22 1;
#X connect 19 0 20 0;
#X connect 20 0 22 0;
#X connect 22 0 17 2;
#X restore 736 410 pd note-template;
#X obj 252 247 r \$0.note.send;
#X obj 279 372 get \$0.note id;
#X obj 279 533 set \$0.note vis;
#X obj 67 719 list prepend scalar \$0.note;
#X obj 67 742 list trim;
#X text 79 650 x y w h id gid vel c vis;
#N canvas 26 99 407 242 append.w 0;
#X obj 7 21 inlet;
#X obj 7 145 outlet;
#X obj 7 115 list append 30;
#X obj 88 20 r \$0.default.duration;
#X obj 88 90 *;
#X obj 103 61 r \$0.stepviswidth;
#X obj 225 19 r \$0.init;
#X msg 225 42 4;
#X connect 0 0 2 0;
#X connect 2 0 1 0;
#X connect 3 0 4 0;
#X connect 4 0 2 1;
#X connect 5 0 4 1;
#X connect 6 0 7 0;
#X connect 7 0 4 0;
#X restore 67 493 pd append.w;
#N canvas 26 99 432 235 append.h 0;
#X obj 7 21 inlet;
#X obj 7 159 outlet;
#X obj 7 88 list append 0;
#X obj 82 28 r \$0.stepvisheight;
#X obj 82 51 - 1;
#X connect 0 0 2 0;
#X connect 2 0 1 0;
#X connect 3 0 4 0;
#X connect 4 0 2 1;
#X restore 67 515 pd append.h;
#N canvas 26 99 410 257 append.id 0;
#X obj 7 21 inlet;
#X obj 7 180 outlet;
#X obj 7 56 t a b;
#X obj 7 154 list append 0;
#X obj 82 84 array min \$0.active;
#X obj 82 107 sel 0;
#X obj 82 130 f;
#X msg 116 137 note buffer full!;
#X obj 116 161 print ERROR;
#X connect 0 0 2 0;
#X connect 2 0 3 0;
#X connect 2 1 4 0;
#X connect 3 0 1 0;
#X connect 4 0 5 0;
#X connect 4 1 6 1;
#X connect 5 0 6 0;
#X connect 5 1 7 0;
#X connect 6 0 3 1;
#X connect 7 0 8 0;
#X restore 67 538 pd append.id;
#X text 74 470 x y;
#N canvas 135 99 416 204 append.gid 0;
#X obj 7 21 inlet;
#X obj 7 137 outlet;
#X obj 7 104 list append 0;
#X obj 82 36 r \$0.default.gid;
#X connect 0 0 2 0;
#X connect 2 0 1 0;
#X connect 3 0 2 1;
#X restore 67 561 pd append.gid;
#N canvas 26 99 395 215 append.vel 0;
#X obj 20 21 inlet;
#X obj 20 162 outlet;
#X obj 20 81 list append 64;
#X obj 101 43 r \$0.default.vel;
#X connect 0 0 2 0;
#X connect 2 0 1 0;
#X connect 3 0 2 1;
#X restore 67 584 pd append.vel;
#N canvas 26 99 450 300 append.c 0;
#X obj 7 21 inlet;
#X obj 7 152 outlet;
#X obj 94 39 r \$0.default.c;
#X obj 7 94 list append 400;
#X connect 0 0 3 0;
#X connect 2 0 3 1;
#X connect 3 0 1 0;
#X restore 67 608 pd append.c;
#N canvas 26 99 414 215 append.vis 0;
#X obj 7 21 inlet;
#X obj 7 126 outlet;
#X obj 7 81 list append 1;
#X connect 0 0 2 0;
#X connect 2 0 1 0;
#X restore 67 631 pd append.vis;
#X obj 835 38 array define \$0.step 1000;
#X obj 835 61 array define \$0.pitch 1000;
#X obj 835 107 array define \$0.velocity 1000;
#X obj 835 84 array define \$0.duration 1000;
#X obj 836 130 array define \$0.gid 1000;
#X obj 67 668 t a a;
#N canvas 0 99 588 480 add.note 0;
#X obj 19 11 inlet;
#X obj 19 57 unpack f f f f f f f f f, f 64;
#X obj 46 226 r \$0.canvasleftmargin;
#X obj 47 248 r \$0.stepviswidth;
#X obj 19 226 -;
#X obj 19 249 /;
#X obj 66 124 -;
#X obj 66 147 /;
#X obj 91 124 r \$0.canvastopmargin;
#X obj 91 147 r \$0.stepvisheight;
#X msg 66 171 83 \$1;
#X obj 66 194 -;
#X text 31 30 x y w h id gid vel c vis;
#X obj 141 88 r \$0.stepviswidth;
#X obj 114 88 /;
#X obj 19 304 pack f f f f f f f, f 64;
#X text 32 284 step . . pitch. . . duration . id . . . .gid . . . vel.
. .;
#X text 408 285 active;
#X msg 19 327 \$4 \$7 \$1 \$2 \$3 \$6 \$5;
#X obj 19 411 s \$0.active;
#X obj 106 411 s \$0.step;
#X obj 193 411 s \$0.pitch;
#X obj 280 411 s \$0.duration;
#X obj 367 411 s \$0.velocity;
#X obj 454 411 s \$0.gid;
#X obj 19 350 t a a a a a a, f 73;
#X msg 19 376 \$1 \$2;
#X msg 106 376 \$1 \$3;
#X msg 193 376 \$1 \$4;
#X msg 280 376 \$1 \$5;
#X msg 367 376 \$1 \$6;
#X msg 454 376 \$1 \$7;
#X connect 0 0 1 0;
#X connect 1 0 4 0;
#X connect 1 1 6 0;
#X connect 1 2 14 0;
#X connect 1 4 15 3;
#X connect 1 5 15 4;
#X connect 1 6 15 5;
#X connect 1 8 15 6;
#X connect 2 0 4 1;
#X connect 3 0 5 1;
#X connect 4 0 5 0;
#X connect 5 0 15 0;
#X connect 6 0 7 0;
#X connect 7 0 10 0;
#X connect 8 0 6 1;
#X connect 9 0 7 1;
#X connect 10 0 11 0;
#X connect 11 0 15 1;
#X connect 13 0 14 1;
#X connect 14 0 15 2;
#X connect 15 0 18 0;
#X connect 18 0 25 0;
#X connect 25 0 26 0;
#X connect 25 1 27 0;
#X connect 25 2 28 0;
#X connect 25 3 29 0;
#X connect 25 4 30 0;
#X connect 25 5 31 0;
#X connect 26 0 19 0;
#X connect 27 0 20 0;
#X connect 28 0 21 0;
#X connect 29 0 22 0;
#X connect 30 0 23 0;
#X connect 31 0 24 0;
#X restore 94 692 pd add.note;
#X obj 751 24 r \$0.init;
#X msg 751 47 const 0;
#X obj 279 395 t a a;
#X obj 279 441 t b b;
#X obj 319 463 f;
#X msg 319 486 \$1 0;
#X obj 319 509 s \$0.active;
#X obj 287 582 r \$0.note.send;
#X obj 287 605 route change;
#X obj 287 628 get \$0.note w id;
#X obj 287 701 change -1;
#X obj 407 680 sel 0;
#X obj 434 704 t b a;
#X msg 330 669 set -1;
#X obj 380 656 t a a;
#X obj 287 747 pack f f;
#X msg 287 770 \$2 \$1;
#X obj 287 724 /;
#X obj 316 724 r \$0.stepviswidth;
#X obj 287 795 s \$0.duration;
#X obj 487 582 r \$0.note.send;
#X obj 487 605 route change;
#X obj 487 701 change -1;
#X obj 619 680 sel 0;
#X obj 646 704 t b a;
#X msg 530 669 set -1;
#X obj 592 656 t a a;
#X obj 487 727 pack f f;
#X msg 487 750 \$2 \$1;
#X obj 487 628 get \$0.note vel id;
#X obj 487 795 s \$0.velocity;
#X obj 835 16 array define \$0.active 1000;
#X connect 1 0 2 0;
#X connect 4 0 5 0;
#X connect 5 0 8 0;
#X connect 6 0 5 1;
#X connect 7 0 5 1;
#X connect 8 0 34 0;
#X connect 9 0 62 0;
#X connect 10 0 11 0;
#X connect 10 1 14 1;
#X connect 10 1 40 1;
#X connect 11 0 13 0;
#X connect 12 0 40 0;
#X connect 13 0 7 0;
#X connect 13 1 14 0;
#X connect 14 0 39 0;
#X connect 15 0 16 0;
#X connect 16 0 36 0;
#X connect 17 0 31 0;
#X connect 18 0 16 0;
#X connect 19 0 2 0;
#X connect 22 0 2 0;
#X connect 23 0 24 0;
#X connect 24 0 25 0;
#X connect 25 0 28 0;
#X connect 26 0 29 0;
#X connect 27 0 26 0;
#X connect 28 0 35 0;
#X connect 29 0 28 1;
#X connect 31 0 32 0;
#X connect 31 1 19 0;
#X connect 31 2 22 0;
#X connect 31 3 1 0;
#X connect 32 0 2 0;
#X connect 33 0 4 0;
#X connect 33 1 6 0;
#X connect 33 2 34 1;
#X connect 34 0 44 0;
#X connect 35 0 33 0;
#X connect 38 0 10 0;
#X connect 39 0 61 0;
#X connect 41 0 42 0;
#X connect 42 0 3 0;
#X connect 44 0 45 0;
#X connect 45 0 46 0;
#X connect 46 0 48 0;
#X connect 48 0 49 0;
#X connect 49 0 50 0;
#X connect 50 0 51 0;
#X connect 51 0 57 0;
#X connect 57 0 41 0;
#X connect 57 1 58 0;
#X connect 59 0 60 0;
#X connect 60 0 52 0;
#X connect 60 0 53 0;
#X connect 60 0 55 0;
#X connect 60 0 54 0;
#X connect 60 0 56 0;
#X connect 60 0 90 0;
#X connect 61 0 9 0;
#X connect 61 1 63 1;
#X connect 62 0 12 0;
#X connect 62 1 63 0;
#X connect 63 0 64 0;
#X connect 64 0 65 0;
#X connect 66 0 67 0;
#X connect 67 0 68 0;
#X connect 68 0 69 0;
#X connect 68 1 73 0;
#X connect 69 0 76 0;
#X connect 70 1 71 0;
#X connect 71 0 72 0;
#X connect 71 1 70 1;
#X connect 72 0 69 0;
#X connect 73 0 74 1;
#X connect 73 1 70 0;
#X connect 74 0 75 0;
#X connect 75 0 78 0;
#X connect 76 0 74 0;
#X connect 77 0 76 1;
#X connect 79 0 80 0;
#X connect 80 0 88 0;
#X connect 81 0 86 0;
#X connect 82 1 83 0;
#X connect 83 0 84 0;
#X connect 83 1 82 1;
#X connect 84 0 81 0;
#X connect 85 0 86 1;
#X connect 85 1 82 0;
#X connect 86 0 87 0;
#X connect 87 0 89 0;
#X connect 88 0 81 0;
#X connect 88 1 85 0;
