#N struct 1003.vertgrid float x float y float w float h;
#N struct 1003.horizgrid float x float y float w float h float c;
#N struct 1003.vertline float x float y float h float c float n float
nvis;
#N struct 1003.note float x float y float w float h float id float
gid float vel float c float vis;
#N canvas 973 109 1045 815 10;
#N canvas 114 134 1062 731 testfeld 1;
#X scalar 1003.vertgrid 90 40 14 671 \;;
#X scalar 1003.vertgrid 105 40 14 671 \;;
#X scalar 1003.vertgrid 120 40 14 671 \;;
#X scalar 1003.vertgrid 135 40 14 671 \;;
#X scalar 1003.vertgrid 150 40 14 671 \;;
#X scalar 1003.vertgrid 165 40 14 671 \;;
#X scalar 1003.vertgrid 180 40 14 671 \;;
#X scalar 1003.vertgrid 195 40 14 671 \;;
#X scalar 1003.vertgrid 210 40 14 671 \;;
#X scalar 1003.vertgrid 225 40 14 671 \;;
#X scalar 1003.vertgrid 240 40 14 671 \;;
#X scalar 1003.vertgrid 255 40 14 671 \;;
#X scalar 1003.vertgrid 270 40 14 671 \;;
#X scalar 1003.vertgrid 285 40 14 671 \;;
#X scalar 1003.vertgrid 300 40 14 671 \;;
#X scalar 1003.vertgrid 315 40 14 671 \;;
#X scalar 1003.vertgrid 330 40 14 671 \;;
#X scalar 1003.vertgrid 345 40 14 671 \;;
#X scalar 1003.vertgrid 360 40 14 671 \;;
#X scalar 1003.vertgrid 375 40 14 671 \;;
#X scalar 1003.vertgrid 390 40 14 671 \;;
#X scalar 1003.vertgrid 405 40 14 671 \;;
#X scalar 1003.vertgrid 420 40 14 671 \;;
#X scalar 1003.vertgrid 435 40 14 671 \;;
#X scalar 1003.vertgrid 450 40 14 671 \;;
#X scalar 1003.vertgrid 465 40 14 671 \;;
#X scalar 1003.vertgrid 480 40 14 671 \;;
#X scalar 1003.vertgrid 495 40 14 671 \;;
#X scalar 1003.vertgrid 510 40 14 671 \;;
#X scalar 1003.vertgrid 525 40 14 671 \;;
#X scalar 1003.vertgrid 540 40 14 671 \;;
#X scalar 1003.vertgrid 555 40 14 671 \;;
#X scalar 1003.vertgrid 570 40 14 671 \;;
#X scalar 1003.vertgrid 585 40 14 671 \;;
#X scalar 1003.vertgrid 600 40 14 671 \;;
#X scalar 1003.vertgrid 615 40 14 671 \;;
#X scalar 1003.vertgrid 630 40 14 671 \;;
#X scalar 1003.vertgrid 645 40 14 671 \;;
#X scalar 1003.vertgrid 660 40 14 671 \;;
#X scalar 1003.vertgrid 675 40 14 671 \;;
#X scalar 1003.vertgrid 690 40 14 671 \;;
#X scalar 1003.vertgrid 705 40 14 671 \;;
#X scalar 1003.vertgrid 720 40 14 671 \;;
#X scalar 1003.vertgrid 735 40 14 671 \;;
#X scalar 1003.vertgrid 750 40 14 671 \;;
#X scalar 1003.vertgrid 765 40 14 671 \;;
#X scalar 1003.vertgrid 780 40 14 671 \;;
#X scalar 1003.vertgrid 795 40 14 671 \;;
#X scalar 1003.vertgrid 810 40 14 671 \;;
#X scalar 1003.vertgrid 825 40 14 671 \;;
#X scalar 1003.vertgrid 840 40 14 671 \;;
#X scalar 1003.vertgrid 855 40 14 671 \;;
#X scalar 1003.vertgrid 870 40 14 671 \;;
#X scalar 1003.vertgrid 885 40 14 671 \;;
#X scalar 1003.vertgrid 900 40 14 671 \;;
#X scalar 1003.vertgrid 915 40 14 671 \;;
#X scalar 1003.vertgrid 930 40 14 671 \;;
#X scalar 1003.vertgrid 945 40 14 671 \;;
#X scalar 1003.vertgrid 960 40 14 671 \;;
#X scalar 1003.vertgrid 975 40 14 671 \;;
#X scalar 1003.vertgrid 990 40 14 671 \;;
#X scalar 1003.vertgrid 1005 40 14 671 \;;
#X scalar 1003.vertgrid 1020 40 14 671 \;;
#X scalar 1003.vertgrid 1035 40 14 671 \;;
#X scalar 1003.horizgrid 90 40 960 13 887 \;;
#X scalar 1003.horizgrid 90 54 960 13 777 \;;
#X scalar 1003.horizgrid 90 68 960 13 887 \;;
#X scalar 1003.horizgrid 90 82 960 13 777 \;;
#X scalar 1003.horizgrid 90 96 960 13 887 \;;
#X scalar 1003.horizgrid 90 110 960 13 777 \;;
#X scalar 1003.horizgrid 90 124 960 13 887 \;;
#X scalar 1003.horizgrid 90 138 960 13 887 \;;
#X scalar 1003.horizgrid 90 152 960 13 777 \;;
#X scalar 1003.horizgrid 90 166 960 13 887 \;;
#X scalar 1003.horizgrid 90 180 960 13 777 \;;
#X scalar 1003.horizgrid 90 194 960 13 887 \;;
#X scalar 1003.horizgrid 90 208 960 13 887 \;;
#X scalar 1003.horizgrid 90 222 960 13 777 \;;
#X scalar 1003.horizgrid 90 236 960 13 887 \;;
#X scalar 1003.horizgrid 90 250 960 13 777 \;;
#X scalar 1003.horizgrid 90 264 960 13 887 \;;
#X scalar 1003.horizgrid 90 278 960 13 777 \;;
#X scalar 1003.horizgrid 90 292 960 13 887 \;;
#X scalar 1003.horizgrid 90 306 960 13 887 \;;
#X scalar 1003.horizgrid 90 320 960 13 777 \;;
#X scalar 1003.horizgrid 90 334 960 13 887 \;;
#X scalar 1003.horizgrid 90 348 960 13 777 \;;
#X scalar 1003.horizgrid 90 362 960 13 887 \;;
#X scalar 1003.horizgrid 90 376 960 13 887 \;;
#X scalar 1003.horizgrid 90 390 960 13 777 \;;
#X scalar 1003.horizgrid 90 404 960 13 887 \;;
#X scalar 1003.horizgrid 90 418 960 13 777 \;;
#X scalar 1003.horizgrid 90 432 960 13 887 \;;
#X scalar 1003.horizgrid 90 446 960 13 777 \;;
#X scalar 1003.horizgrid 90 460 960 13 887 \;;
#X scalar 1003.horizgrid 90 474 960 13 887 \;;
#X scalar 1003.horizgrid 90 488 960 13 777 \;;
#X scalar 1003.horizgrid 90 502 960 13 887 \;;
#X scalar 1003.horizgrid 90 516 960 13 777 \;;
#X scalar 1003.horizgrid 90 530 960 13 887 \;;
#X scalar 1003.horizgrid 90 544 960 13 887 \;;
#X scalar 1003.horizgrid 90 558 960 13 777 \;;
#X scalar 1003.horizgrid 90 572 960 13 887 \;;
#X scalar 1003.horizgrid 90 586 960 13 777 \;;
#X scalar 1003.horizgrid 90 600 960 13 887 \;;
#X scalar 1003.horizgrid 90 614 960 13 777 \;;
#X scalar 1003.horizgrid 90 628 960 13 887 \;;
#X scalar 1003.horizgrid 90 642 960 13 887 \;;
#X scalar 1003.horizgrid 90 656 960 13 777 \;;
#X scalar 1003.horizgrid 90 670 960 13 887 \;;
#X scalar 1003.horizgrid 90 684 960 13 777 \;;
#X scalar 1003.horizgrid 90 698 960 13 887 \;;
#X scalar 1003.vertline 90 40 672 0 1 1 \;;
#X scalar 1003.vertline 105 40 672 888 1 0 \;;
#X scalar 1003.vertline 120 40 672 888 1 0 \;;
#X scalar 1003.vertline 135 40 672 888 1 0 \;;
#X scalar 1003.vertline 150 40 672 666 1 0 \;;
#X scalar 1003.vertline 165 40 672 888 1 0 \;;
#X scalar 1003.vertline 180 40 672 888 1 0 \;;
#X scalar 1003.vertline 195 40 672 888 1 0 \;;
#X scalar 1003.vertline 210 40 672 666 1 0 \;;
#X scalar 1003.vertline 225 40 672 888 1 0 \;;
#X scalar 1003.vertline 240 40 672 888 1 0 \;;
#X scalar 1003.vertline 255 40 672 888 1 0 \;;
#X scalar 1003.vertline 270 40 672 666 1 0 \;;
#X scalar 1003.vertline 285 40 672 888 1 0 \;;
#X scalar 1003.vertline 300 40 672 888 1 0 \;;
#X scalar 1003.vertline 315 40 672 888 1 0 \;;
#X scalar 1003.vertline 330 40 672 0 2 1 \;;
#X scalar 1003.vertline 345 40 672 888 2 0 \;;
#X scalar 1003.vertline 360 40 672 888 2 0 \;;
#X scalar 1003.vertline 375 40 672 888 2 0 \;;
#X scalar 1003.vertline 390 40 672 666 2 0 \;;
#X scalar 1003.vertline 405 40 672 888 2 0 \;;
#X scalar 1003.vertline 420 40 672 888 2 0 \;;
#X scalar 1003.vertline 435 40 672 888 2 0 \;;
#X scalar 1003.vertline 450 40 672 666 2 0 \;;
#X scalar 1003.vertline 465 40 672 888 2 0 \;;
#X scalar 1003.vertline 480 40 672 888 2 0 \;;
#X scalar 1003.vertline 495 40 672 888 2 0 \;;
#X scalar 1003.vertline 510 40 672 666 2 0 \;;
#X scalar 1003.vertline 525 40 672 888 2 0 \;;
#X scalar 1003.vertline 540 40 672 888 2 0 \;;
#X scalar 1003.vertline 555 40 672 888 2 0 \;;
#X scalar 1003.vertline 570 40 672 0 3 1 \;;
#X scalar 1003.vertline 585 40 672 888 3 0 \;;
#X scalar 1003.vertline 600 40 672 888 3 0 \;;
#X scalar 1003.vertline 615 40 672 888 3 0 \;;
#X scalar 1003.vertline 630 40 672 666 3 0 \;;
#X scalar 1003.vertline 645 40 672 888 3 0 \;;
#X scalar 1003.vertline 660 40 672 888 3 0 \;;
#X scalar 1003.vertline 675 40 672 888 3 0 \;;
#X scalar 1003.vertline 690 40 672 666 3 0 \;;
#X scalar 1003.vertline 705 40 672 888 3 0 \;;
#X scalar 1003.vertline 720 40 672 888 3 0 \;;
#X scalar 1003.vertline 735 40 672 888 3 0 \;;
#X scalar 1003.vertline 750 40 672 666 3 0 \;;
#X scalar 1003.vertline 765 40 672 888 3 0 \;;
#X scalar 1003.vertline 780 40 672 888 3 0 \;;
#X scalar 1003.vertline 795 40 672 888 3 0 \;;
#X scalar 1003.vertline 810 40 672 0 4 1 \;;
#X scalar 1003.vertline 825 40 672 888 4 0 \;;
#X scalar 1003.vertline 840 40 672 888 4 0 \;;
#X scalar 1003.vertline 855 40 672 888 4 0 \;;
#X scalar 1003.vertline 870 40 672 666 4 0 \;;
#X scalar 1003.vertline 885 40 672 888 4 0 \;;
#X scalar 1003.vertline 900 40 672 888 4 0 \;;
#X scalar 1003.vertline 915 40 672 888 4 0 \;;
#X scalar 1003.vertline 930 40 672 666 4 0 \;;
#X scalar 1003.vertline 945 40 672 888 4 0 \;;
#X scalar 1003.vertline 960 40 672 888 4 0 \;;
#X scalar 1003.vertline 975 40 672 888 4 0 \;;
#X scalar 1003.vertline 990 40 672 666 4 0 \;;
#X scalar 1003.vertline 1005 40 672 888 4 0 \;;
#X scalar 1003.vertline 1020 40 672 888 4 0 \;;
#X scalar 1003.vertline 1035 40 672 888 4 0 \;;
#X scalar 1003.vertline 1050 40 672 0 5 0 \;;
#X scalar 1003.note 330 348 15 13 0 0 127 800 0 \;;
#X scalar 1003.note 345 348 60 13 1 0 64 400 0 \;;
#X scalar 1003.note 405 348 60 13 2 0 64 400 0 \;;
#X scalar 1003.note 345 348 15 13 3 0 102 700 0 \;;
#X scalar 1003.note 360 348 15 13 4 0 127 800 0 \;;
#X scalar 1003.note 375 348 45 13 5 0 64 400 0 \;;
#X scalar 1003.note 435 348 60 13 6 0 64 400 0 \;;
#X scalar 1003.note 420 348 60 13 7 0 64 400 0 \;;
#X scalar 1003.note 375 348 15 13 8 0 112 700 0 \;;
#X scalar 1003.note 90 516 60 13 9 0 64 400 0 \;;
#X scalar 1003.note 90 474 60 13 10 0 64 400 0 \;;
#X scalar 1003.note 90 460 60 13 11 0 64 400 0 \;;
#X scalar 1003.note 90 530 60 13 12 0 64 400 0 \;;
#X scalar 1003.note 90 474 60 13 13 0 64 400 0 \;;
#X scalar 1003.note 90 432 60 13 14 0 64 400 0 \;;
#X scalar 1003.note 90 376 60 13 15 0 64 400 0 \;;
#X scalar 1003.note 90 334 60 13 16 0 64 400 0 \;;
#X scalar 1003.note 165 530 60 13 17 0 64 400 0 \;;
#X scalar 1003.note 150 530 180 13 18 0 111 700 0 \;;
#X scalar 1003.note 150 474 60 13 19 0 64 400 0 \;;
#X scalar 1003.note 150 460 180 13 20 0 93 600 0 \;;
#X scalar 1003.note 150 474 180 13 21 0 86 600 0 \;;
#X scalar 1003.note 150 404 180 13 22 0 107 700 0 \;;
#X scalar 1003.note 330 348 60 13 23 0 64 400 0 \;;
#X scalar 1003.note 210 530 60 13 24 0 64 400 0 \;;
#X scalar 1003.note 330 348 135 13 25 0 64 400 0 \;;
#X scalar 1003.note 465 418 60 13 26 0 64 400 0 \;;
#X scalar 1003.note 90 516 60 13 27 0 64 400 0 \;;
#X scalar 1003.note 90 530 30 13 28 0 64 400 1 \;;
#X scalar 1003.note 120 502 30 13 29 0 64 400 1 \;;
#X scalar 1003.note 150 474 30 13 30 0 64 400 1 \;;
#X scalar 1003.note 180 460 30 13 31 0 64 400 1 \;;
#X scalar 1003.note 210 432 60 13 32 0 64 400 1 \;;
#X scalar 1003.note 270 432 60 13 33 0 64 400 1 \;;
#X scalar 1003.note 330 404 30 13 34 0 64 400 1 \;;
#X scalar 1003.note 360 404 30 13 35 0 64 400 1 \;;
#X scalar 1003.note 405 404 45 13 36 0 64 400 0 \;;
#X scalar 1003.note 450 404 60 13 37 0 64 400 0 \;;
#X scalar 1003.note 390 404 30 13 38 0 64 400 1 \;;
#X scalar 1003.note 435 404 60 13 39 0 64 400 0 \;;
#X scalar 1003.note 420 404 30 13 40 0 64 400 1 \;;
#X scalar 1003.note 450 432 120 13 41 0 64 400 1 \;;
#X scalar 1003.note 570 446 30 13 42 0 64 400 0 \;;
#X scalar 1003.note 600 446 30 13 43 0 64 400 0 \;;
#X scalar 1003.note 630 446 30 13 44 0 64 400 0 \;;
#X scalar 1003.note 660 446 30 13 45 0 64 400 0 \;;
#X scalar 1003.note 570 460 60 13 46 0 64 400 0 \;;
#X scalar 1003.note 570 460 60 13 47 0 64 400 0 \;;
#X scalar 1003.note 600 460 60 13 48 0 64 400 0 \;;
#X scalar 1003.note 630 460 30 13 49 0 64 400 1 \;;
#X scalar 1003.note 570 460 30 13 50 0 64 400 1 \;;
#X scalar 1003.note 600 460 30 13 51 0 64 400 1 \;;
#X scalar 1003.note 675 460 60 13 52 0 64 400 0 \;;
#X scalar 1003.note 660 460 30 13 53 0 64 400 1 \;;
#X scalar 1003.note 690 474 60 13 54 0 64 400 1 \;;
#X scalar 1003.note 750 474 60 13 55 0 64 400 1 \;;
#X scalar 1003.note 810 502 30 13 56 0 64 400 1 \;;
#X scalar 1003.note 855 502 60 13 57 0 64 400 0 \;;
#X scalar 1003.note 840 502 30 13 58 0 64 400 1 \;;
#X scalar 1003.note 870 502 30 13 59 0 64 400 1 \;;
#X scalar 1003.note 900 502 30 13 60 0 64 400 1 \;;
#X scalar 1003.note 930 530 120 13 61 0 64 400 1 \;;
#X scalar 1003.note 330 222 225 13 62 0 88 600 0 \;;
#X scalar 1003.note 240 180 60 13 63 0 64 400 0 \;;
#X scalar 1003.note 255 180 60 13 64 0 64 400 0 \;;
#X restore 39 55 pd testfeld;
#X msg 622 275 clear;
#X obj 571 409 s pd-testfeld;
#X obj 67 733 s pd-testfeld;
#X obj 67 373 del 0;
#X obj 67 400 f;
#X msg 110 376 1;
#X msg 252 359 0;
#X obj 67 426 sel 1;
#N canvas 0 99 483 432 detect_double_click 0;
#X obj 91 101 -;
#X obj 90 76 t a a;
#X obj 19 23 inlet;
#X text 109 21 this detects two clicks on the same scalar within a
certain period.;
#X obj 19 75 t b b;
#X obj 19 99 del 300;
#X msg 19 122 0;
#X msg 52 123 1;
#X obj 19 48 t b a;
#X obj 91 166 spigot 0;
#X obj 91 203 outlet;
#X obj 91 126 sel 0;
#X connect 0 0 11 0;
#X connect 1 0 0 1;
#X connect 1 1 0 0;
#X connect 2 0 8 0;
#X connect 4 0 5 0;
#X connect 4 1 7 0;
#X connect 5 0 6 0;
#X connect 6 0 9 1;
#X connect 7 0 9 1;
#X connect 8 0 4 0;
#X connect 8 1 1 0;
#X connect 9 0 10 0;
#X connect 11 0 9 0;
#X restore 279 398 pd detect_double_click;
#X obj 252 277 unpack s p f;
#X obj 252 300 sel click;
#X msg 279 421 0;
#X obj 252 322 t b b;
#X obj 279 346 pointer;
#X obj 835 17 array define \$0.active 1000;
#X obj 835 38 array define \$0.step 1000;
#X obj 835 61 array define \$0.pitch 1000;
#X obj 835 84 array define \$0.length 1000;
#X obj 835 107 array define \$0.velocity 1000;
#X obj 673 17 loadbang;
#X obj 673 40 \$0;
#X obj 571 208 r \$0.init;
#X obj 651 16 bng 15 250 50 0 empty empty empty 17 7 0 10 -262144 -1
-1;
#N canvas 133 127 401 394 create_horizgrid 0;
#X obj 16 86 t a b;
#X obj 16 109 until;
#X obj 16 132 f;
#X msg 54 110 0;
#X obj 67 150 + 1;
#X obj 16 62 f;
#X obj 49 62 r \$0.pitchrange;
#X text 229 320 x y w h c;
#X obj 16 271 pack f f f f f;
#N canvas 0 99 387 189 x 0;
#X obj 18 12 inlet;
#X obj 18 97 +;
#X obj 33 70 r \$0.canvasleftmargin;
#X msg 18 46 0;
#X obj 18 120 outlet;
#X connect 0 0 3 0;
#X connect 1 0 4 0;
#X connect 2 0 1 1;
#X connect 3 0 1 0;
#X restore 16 233 pd x;
#N canvas 0 99 405 280 y 0;
#X obj 42 123 * 14;
#X obj 42 199 +;
#X obj 57 173 r \$0.canvastopmargin;
#X obj 63 96 r \$0.stepvisheight;
#X obj 42 35 inlet;
#X obj 42 239 outlet;
#X connect 0 0 1 0;
#X connect 1 0 5 0;
#X connect 2 0 1 1;
#X connect 3 0 0 1;
#X connect 4 0 0 0;
#X restore 55 234 pd y;
#N canvas 0 99 418 249 w 0;
#X obj 16 17 inlet;
#X obj 16 194 outlet;
#X obj 16 103 f;
#X obj 31 77 r \$0.stepcount;
#X obj 31 127 r \$0.stepviswidth;
#X obj 16 155 *;
#X obj 16 45 b;
#X connect 0 0 6 0;
#X connect 2 0 5 0;
#X connect 3 0 2 1;
#X connect 4 0 5 1;
#X connect 5 0 1 0;
#X connect 6 0 2 0;
#X restore 92 234 pd w;
#N canvas 0 99 395 171 h 0;
#X obj 23 14 inlet;
#X obj 23 37 b;
#X obj 23 110 f;
#X obj 23 133 outlet;
#X obj 38 65 r \$0.stepvisheight;
#X obj 38 88 - 1;
#X connect 0 0 1 0;
#X connect 1 0 2 0;
#X connect 2 0 3 0;
#X connect 4 0 5 0;
#X connect 5 0 2 1;
#X restore 135 235 pd h;
#X obj 16 156 t a a;
#X obj 16 185 t a a a a a;
#N canvas 570 378 422 271 c 0;
#X obj 20 56 mod 12;
#X obj 20 80 sel 0 2 4 5 7 9 11;
#X obj 125 102 b;
#X obj 20 130 f 887;
#X obj 125 177 f 777;
#X obj 20 32 + 5;
#X obj 64 129 r \$0.stepkeycolor1;
#X obj 132 152 r \$0.stepkeycolor2;
#X obj 20 211 t a;
#X obj 20 7 inlet;
#X obj 20 238 outlet;
#X connect 0 0 1 0;
#X connect 1 0 3 0;
#X connect 1 1 3 0;
#X connect 1 2 3 0;
#X connect 1 3 3 0;
#X connect 1 4 3 0;
#X connect 1 5 3 0;
#X connect 1 6 3 0;
#X connect 1 7 2 0;
#X connect 2 0 4 0;
#X connect 3 0 8 0;
#X connect 4 0 8 0;
#X connect 5 0 0 0;
#X connect 6 0 3 1;
#X connect 7 0 4 1;
#X connect 8 0 10 0;
#X connect 9 0 5 0;
#X restore 171 234 pd c;
#X obj 16 294 list prepend \$0;
#X obj 16 10 inlet;
#X obj 16 35 b;
#X obj 16 343 outlet;
#X msg 16 320 scalar \$1.horizgrid \$2 \$3 \$4 \$5 \$6;
#X connect 0 0 1 0;
#X connect 0 1 3 0;
#X connect 1 0 2 0;
#X connect 2 0 13 0;
#X connect 3 0 2 1;
#X connect 4 0 2 1;
#X connect 5 0 0 0;
#X connect 6 0 5 1;
#X connect 8 0 16 0;
#X connect 9 0 8 0;
#X connect 10 0 8 1;
#X connect 11 0 8 2;
#X connect 12 0 8 3;
#X connect 13 0 14 0;
#X connect 13 1 4 0;
#X connect 14 0 9 0;
#X connect 14 1 10 0;
#X connect 14 2 11 0;
#X connect 14 3 12 0;
#X connect 14 4 15 0;
#X connect 15 0 8 4;
#X connect 16 0 20 0;
#X connect 17 0 18 0;
#X connect 18 0 5 0;
#X connect 20 0 19 0;
#X restore 588 328 pd create_horizgrid;
#N canvas 75 102 410 167 horizgrid-template 0;
#X obj 19 18 filledpolygon c c 1 0 0 0 h w h w 0;
#X obj 20 44 struct \$0.horizgrid float x float y float w float h float
c;
#X obj 20 73 s \$0.horizgrid.send;
#X connect 1 0 2 0;
#X restore 737 294 pd horizgrid-template;
#N canvas 60 99 380 157 vertgrid-template 0;
#X obj 19 18 filledpolygon 0 0 1 0 0 0 h w h w 0;
#X obj 19 42 struct \$0.vertgrid float x float y float w float h;
#X obj 19 66 s \$0.vertgrid.send;
#X connect 1 0 2 0;
#X restore 736 321 pd vertgrid-template;
#N canvas 133 127 401 394 create_vertgrid 0;
#X obj 16 86 t a b;
#X obj 16 109 until;
#X obj 16 132 f;
#X msg 54 110 0;
#X obj 67 150 + 1;
#X obj 16 62 f;
#N canvas 0 99 401 215 x 0;
#X obj 18 12 inlet;
#X obj 18 147 +;
#X obj 33 120 r \$0.canvasleftmargin;
#X obj 18 170 outlet;
#X obj 18 75 *;
#X obj 33 42 r \$0.stepviswidth;
#X connect 0 0 4 0;
#X connect 1 0 3 0;
#X connect 2 0 1 1;
#X connect 4 0 1 0;
#X connect 5 0 4 1;
#X restore 16 233 pd x;
#N canvas 0 99 405 280 y 0;
#X obj 42 199 +;
#X obj 57 173 r \$0.canvastopmargin;
#X obj 42 35 inlet;
#X obj 42 239 outlet;
#X msg 42 90 0;
#X connect 0 0 3 0;
#X connect 1 0 0 1;
#X connect 2 0 4 0;
#X connect 4 0 0 0;
#X restore 55 234 pd y;
#N canvas 0 99 418 249 w 0;
#X obj 16 17 inlet;
#X obj 16 194 outlet;
#X obj 31 90 r \$0.stepviswidth;
#X obj 16 45 b;
#X obj 16 155 f;
#X obj 31 113 - 1;
#X connect 0 0 3 0;
#X connect 2 0 5 0;
#X connect 3 0 4 0;
#X connect 4 0 1 0;
#X connect 5 0 4 1;
#X restore 92 234 pd w;
#N canvas 0 99 398 252 h 0;
#X obj 23 14 inlet;
#X obj 23 37 b;
#X obj 23 193 outlet;
#X obj 38 115 r \$0.stepvisheight;
#X obj 23 91 f;
#X obj 23 140 *;
#X obj 38 66 r \$0.pitchrange;
#X obj 23 163 - 1;
#X connect 0 0 1 0;
#X connect 1 0 4 0;
#X connect 3 0 5 1;
#X connect 4 0 5 0;
#X connect 5 0 7 0;
#X connect 6 0 4 1;
#X connect 7 0 2 0;
#X restore 135 235 pd h;
#X obj 16 156 t a a;
#X obj 16 294 list prepend \$0;
#X obj 16 10 inlet;
#X obj 16 35 b;
#X obj 16 343 outlet;
#X obj 46 60 r \$0.stepcount;
#X text 229 320 x y w h;
#X obj 16 271 pack f f f f;
#X obj 16 185 t a a a a;
#X msg 16 320 scalar \$1.vertgrid \$2 \$3 \$4 \$5;
#X connect 0 0 1 0;
#X connect 0 1 3 0;
#X connect 1 0 2 0;
#X connect 2 0 10 0;
#X connect 3 0 2 1;
#X connect 4 0 2 1;
#X connect 5 0 0 0;
#X connect 6 0 17 0;
#X connect 7 0 17 1;
#X connect 8 0 17 2;
#X connect 9 0 17 3;
#X connect 10 0 18 0;
#X connect 10 1 4 0;
#X connect 11 0 19 0;
#X connect 12 0 13 0;
#X connect 13 0 5 0;
#X connect 15 0 5 1;
#X connect 17 0 11 0;
#X connect 18 0 6 0;
#X connect 18 1 7 0;
#X connect 18 2 8 0;
#X connect 18 3 9 0;
#X connect 19 0 14 0;
#X restore 605 300 pd create_vertgrid;
#X obj 67 152 r \$0.horizgrid.send;
#X obj 67 175 route click;
#X obj 67 198 get \$0.horizgrid y;
#X obj 112 243 route click;
#X obj 112 220 r \$0.vertgrid.send;
#X obj 67 291 pack f f;
#X obj 112 266 get \$0.vertgrid x;
#N canvas 107 99 450 300 vertline-template 0;
#X obj 18 20 drawpolygon c 1 0 0 0 h;
#X obj 19 79 s \$0.vertline.send;
#X obj 165 20 drawnumber -v nvis n -3 -15 c;
#X obj 19 42 struct \$0.vertline float x float y float h float c float
n float nvis;
#X connect 3 0 1 0;
#X restore 736 348 pd vertline-template;
#X obj 571 248 t b b b b;
#N canvas 43 99 400 432 create_vertline 0;
#X obj 16 116 t a b;
#X obj 16 139 until;
#X obj 16 162 f;
#X msg 54 140 0;
#X obj 67 180 + 1;
#X obj 16 62 f;
#N canvas 0 99 401 215 x 0;
#X obj 18 12 inlet;
#X obj 18 147 +;
#X obj 33 120 r \$0.canvasleftmargin;
#X obj 18 170 outlet;
#X obj 18 75 *;
#X obj 33 42 r \$0.stepviswidth;
#X connect 0 0 4 0;
#X connect 1 0 3 0;
#X connect 2 0 1 1;
#X connect 4 0 1 0;
#X connect 5 0 4 1;
#X restore 16 263 pd x;
#N canvas 0 99 405 280 y 0;
#X obj 42 199 +;
#X obj 57 173 r \$0.canvastopmargin;
#X obj 42 35 inlet;
#X obj 42 239 outlet;
#X msg 42 90 0;
#X connect 0 0 3 0;
#X connect 1 0 0 1;
#X connect 2 0 4 0;
#X connect 4 0 0 0;
#X restore 55 264 pd y;
#X obj 16 186 t a a;
#X obj 16 324 list prepend \$0;
#X obj 16 10 inlet;
#X obj 16 35 b;
#X obj 16 373 outlet;
#X obj 46 60 r \$0.stepcount;
#N canvas 0 99 398 252 h 0;
#X obj 23 14 inlet;
#X obj 23 37 b;
#X obj 23 163 outlet;
#X obj 38 115 r \$0.stepvisheight;
#X obj 23 91 f;
#X obj 23 140 *;
#X obj 38 66 r \$0.pitchrange;
#X connect 0 0 1 0;
#X connect 1 0 4 0;
#X connect 3 0 5 1;
#X connect 4 0 5 0;
#X connect 5 0 2 0;
#X connect 6 0 4 1;
#X restore 96 266 pd h;
#N canvas 0 99 500 410 c 0;
#X obj 16 17 inlet;
#X obj 16 326 outlet;
#X obj 87 53 r \$0.griddivision;
#X obj 103 80 r \$0.gridsubdivision;
#X obj 87 131 *;
#X obj 16 161 mod;
#X obj 16 198 sel 0;
#X obj 58 205 r \$0.gridsubdivision;
#X obj 43 232 mod;
#X obj 43 261 sel 0;
#X msg 70 288 888;
#X msg 16 289 0;
#X obj 103 103 t b a;
#X msg 43 288 666;
#X connect 0 0 5 0;
#X connect 2 0 4 0;
#X connect 3 0 12 0;
#X connect 4 0 5 1;
#X connect 5 0 6 0;
#X connect 6 0 11 0;
#X connect 6 1 8 0;
#X connect 7 0 8 1;
#X connect 8 0 9 0;
#X connect 9 0 13 0;
#X connect 9 1 10 0;
#X connect 10 0 1 0;
#X connect 11 0 1 0;
#X connect 12 0 4 0;
#X connect 12 1 4 1;
#X connect 13 0 1 0;
#X restore 133 267 pd c;
#X obj 16 89 + 1;
#X text 46 89 one more for end line;
#X obj 16 215 t a a a a a;
#N canvas 0 99 429 340 n 0;
#X obj 20 26 inlet;
#X obj 20 265 outlet;
#X obj 113 30 r \$0.griddivision;
#X obj 129 57 r \$0.gridsubdivision;
#X obj 113 108 *;
#X obj 129 80 t b a;
#X obj 20 161 div;
#X obj 20 109 t a a;
#X obj 109 197 mod;
#X obj 109 225 == 0;
#X obj 109 268 outlet;
#X obj 20 184 + 1;
#X obj 170 115 r \$0.stepcount;
#X obj 78 174 sel;
#X msg 78 200 0;
#X connect 0 0 7 0;
#X connect 2 0 4 0;
#X connect 3 0 5 0;
#X connect 4 0 6 1;
#X connect 4 0 8 1;
#X connect 5 0 4 0;
#X connect 5 1 4 1;
#X connect 6 0 11 0;
#X connect 7 0 6 0;
#X connect 7 1 13 0;
#X connect 8 0 9 0;
#X connect 9 0 10 0;
#X connect 11 0 1 0;
#X connect 12 0 13 1;
#X connect 13 0 14 0;
#X connect 13 1 8 0;
#X connect 14 0 10 0;
#X restore 170 267 pd n nvis;
#X obj 16 301 pack f f f f f f;
#X text 249 349 x y h c n nvis;
#X msg 16 350 scalar \$1.vertline \$2 \$3 \$4 \$5 \$6 \$7;
#X connect 0 0 1 0;
#X connect 0 1 3 0;
#X connect 1 0 2 0;
#X connect 2 0 8 0;
#X connect 3 0 2 1;
#X connect 4 0 2 1;
#X connect 5 0 16 0;
#X connect 6 0 20 0;
#X connect 7 0 20 1;
#X connect 8 0 18 0;
#X connect 8 1 4 0;
#X connect 9 0 22 0;
#X connect 10 0 11 0;
#X connect 11 0 5 0;
#X connect 13 0 5 1;
#X connect 14 0 20 2;
#X connect 15 0 20 3;
#X connect 16 0 0 0;
#X connect 18 0 6 0;
#X connect 18 1 7 0;
#X connect 18 2 14 0;
#X connect 18 3 15 0;
#X connect 18 4 19 0;
#X connect 19 0 20 4;
#X connect 19 1 20 5;
#X connect 20 0 9 0;
#X connect 22 0 12 0;
#X restore 571 356 pd create_vertline;
#X obj 67 340 t b b a;
#X obj 67 453 list append;
#X msg 67 314 \$2 \$1;
#X msg 674 63 \; \$1.stepcount 64 \; \$1.pitchrange 48 \; \$1.stepviswidth
15 \; \$1.stepvisheight 14 \; \$1.canvastopmargin 40 \; \$1.canvasleftmargin
90 \; \$1.stepkeycolor1 887 \; \$1.stepkeycolor2 777 \; \$1.griddivision
4 \; \$1.gridsubdivision 4 \; \$1.init bang \;;
#N canvas 79 99 782 466 note-template 0;
#X obj 122 337 int;
#X obj 51 267 max 0;
#X obj 51 290 min 127;
#X obj 122 315 / 14.2;
#X obj 51 166 route click change;
#X obj 51 315 t a a;
#X obj 122 361 * 100;
#X obj 32 141 t a a a;
#X obj 32 34 drawnumber -v vis vel 1 -14 0;
#X obj 32 409 s \$0.note.send;
#X obj 32 104 struct \$0.note float x float y float w float h float
id float gid float vel float c float vis;
#X obj 51 189 t p p, f 48;
#X obj 51 235 t a b, f 36;
#X obj 264 353 f;
#X obj 279 295 r \$0.stepvisheight;
#X obj 279 318 - 1;
#X obj 51 212 get \$0.note vel w, f 24;
#X obj 51 386 set \$0.note vel c w h, f 48;
#X obj 226 265 r \$0.stepviswidth;
#X obj 193 289 div;
#X obj 193 312 *;
#X obj 32 54 filledpolygon -v vis c 444 1 0 0 0 h w h w 0;
#X obj 193 335 max;
#X connect 0 0 6 0;
#X connect 1 0 2 0;
#X connect 2 0 5 0;
#X connect 3 0 0 0;
#X connect 4 0 11 0;
#X connect 4 1 11 0;
#X connect 5 0 17 0;
#X connect 5 1 3 0;
#X connect 6 0 17 1;
#X connect 7 0 9 0;
#X connect 7 1 4 0;
#X connect 10 0 7 0;
#X connect 11 0 16 0;
#X connect 11 1 17 4;
#X connect 12 0 1 0;
#X connect 12 1 13 0;
#X connect 13 0 17 3;
#X connect 14 0 15 0;
#X connect 15 0 13 1;
#X connect 16 0 12 0;
#X connect 16 1 19 0;
#X connect 18 0 19 1;
#X connect 18 0 20 1;
#X connect 18 0 22 1;
#X connect 19 0 20 0;
#X connect 20 0 22 0;
#X connect 22 0 17 2;
#X restore 734 395 pd note-template;
#X obj 252 247 r \$0.note.send;
#X obj 279 372 get \$0.note id;
#X obj 279 469 set \$0.note vis;
#X obj 67 679 list prepend scalar \$0.note;
#X obj 67 702 list trim;
#X text 80 653 x y w h id gid vel c vis;
#N canvas 26 99 407 242 append.w 0;
#X obj 7 21 inlet;
#X obj 7 145 outlet;
#X obj 7 115 list append 30;
#X obj 88 20 r \$0.default.duration;
#X obj 88 90 *;
#X obj 103 61 r \$0.stepviswidth;
#X obj 225 19 r \$0.init;
#X msg 225 42 4;
#X connect 0 0 2 0;
#X connect 2 0 1 0;
#X connect 3 0 4 0;
#X connect 4 0 2 1;
#X connect 5 0 4 1;
#X connect 6 0 7 0;
#X connect 7 0 4 0;
#X restore 67 493 pd append.w;
#N canvas 26 99 432 235 append.h 0;
#X obj 7 21 inlet;
#X obj 7 159 outlet;
#X obj 7 88 list append 0;
#X obj 82 28 r \$0.stepvisheight;
#X obj 82 51 - 1;
#X connect 0 0 2 0;
#X connect 2 0 1 0;
#X connect 3 0 4 0;
#X connect 4 0 2 1;
#X restore 67 515 pd append.h;
#N canvas 26 99 410 257 append.id 0;
#X obj 7 21 inlet;
#X obj 7 180 outlet;
#X obj 75 41 r \$0.init;
#X obj 7 56 t a b;
#X obj 60 99 f;
#X obj 60 122 t a a;
#X obj 113 112 + 1;
#X msg 75 64 0;
#X obj 7 154 list append 0;
#X connect 0 0 3 0;
#X connect 2 0 7 0;
#X connect 3 0 8 0;
#X connect 3 1 4 0;
#X connect 4 0 5 0;
#X connect 5 0 8 1;
#X connect 5 1 6 0;
#X connect 6 0 4 1;
#X connect 7 0 4 1;
#X connect 8 0 1 0;
#X restore 67 538 pd append.id;
#X text 74 470 x y;
#N canvas 135 99 416 204 append.gid 0;
#X obj 7 21 inlet;
#X obj 7 137 outlet;
#X obj 7 104 list append 0;
#X obj 82 36 r \$0.default.gid;
#X connect 0 0 2 0;
#X connect 2 0 1 0;
#X connect 3 0 2 1;
#X restore 67 561 pd append.gid;
#N canvas 26 99 395 215 append.vel 0;
#X obj 20 21 inlet;
#X obj 20 162 outlet;
#X obj 20 81 list append 64;
#X obj 101 43 r \$0.default.vel;
#X connect 0 0 2 0;
#X connect 2 0 1 0;
#X connect 3 0 2 1;
#X restore 67 584 pd append.vel;
#N canvas 26 99 450 300 append.c 0;
#X obj 7 21 inlet;
#X obj 7 152 outlet;
#X obj 94 39 r \$0.default.c;
#X obj 7 94 list append 400;
#X connect 0 0 3 0;
#X connect 2 0 3 1;
#X connect 3 0 1 0;
#X restore 67 608 pd append.c;
#N canvas 26 99 414 215 append.vis 0;
#X obj 7 21 inlet;
#X obj 7 126 outlet;
#X obj 7 81 list append 1;
#X connect 0 0 2 0;
#X connect 2 0 1 0;
#X restore 67 631 pd append.vis;
#X connect 1 0 2 0;
#X connect 4 0 5 0;
#X connect 5 0 8 0;
#X connect 6 0 5 1;
#X connect 7 0 5 1;
#X connect 8 0 39 0;
#X connect 9 0 12 0;
#X connect 10 0 11 0;
#X connect 10 1 14 1;
#X connect 10 1 45 1;
#X connect 11 0 13 0;
#X connect 12 0 45 0;
#X connect 13 0 7 0;
#X connect 13 1 14 0;
#X connect 14 0 44 0;
#X connect 21 0 41 0;
#X connect 22 0 36 0;
#X connect 23 0 21 0;
#X connect 24 0 2 0;
#X connect 27 0 2 0;
#X connect 28 0 29 0;
#X connect 29 0 30 0;
#X connect 30 0 33 0;
#X connect 31 0 34 0;
#X connect 32 0 31 0;
#X connect 33 0 40 0;
#X connect 34 0 33 1;
#X connect 36 0 37 0;
#X connect 36 1 24 0;
#X connect 36 2 27 0;
#X connect 36 3 1 0;
#X connect 37 0 2 0;
#X connect 38 0 4 0;
#X connect 38 1 6 0;
#X connect 38 2 39 1;
#X connect 39 0 49 0;
#X connect 40 0 38 0;
#X connect 43 0 10 0;
#X connect 44 0 9 0;
#X connect 46 0 47 0;
#X connect 47 0 3 0;
#X connect 49 0 50 0;
#X connect 50 0 51 0;
#X connect 51 0 53 0;
#X connect 53 0 54 0;
#X connect 54 0 55 0;
#X connect 55 0 56 0;
#X connect 56 0 46 0;
