#N struct 1003.vertgrid float x float y float w float h;
#N struct 1003.horizgrid float x float y float w float h float c;
#N struct 1003.vertline float x float y float h float c float n float
nvis;
#N struct 1003.gid.button float x float y float clr float hl float
gid;
#N struct 1003.vel float x float y float value;
#N struct 1003.dur float x float y float value;
#N struct 1003.note float x float y float w float h float id float
gid float vel float c float vis;
#N canvas 0 99 1116 959 10;
#X msg 644 365 clear;
#X obj 437 15 loadbang;
#X obj 437 38 \$0;
#X obj 581 298 r \$0.init;
#X obj 416 14 bng 15 250 50 0 empty empty empty 17 7 0 10 -262144 -1
-1;
#N canvas 133 127 401 394 create_horizgrid 0;
#X obj 16 86 t a b;
#X obj 16 109 until;
#X obj 16 132 f;
#X msg 54 110 0;
#X obj 67 150 + 1;
#X obj 16 62 f;
#X obj 49 62 r \$0.pitchrange;
#X text 229 320 x y w h c;
#X obj 16 271 pack f f f f f;
#N canvas 0 99 387 189 x 0;
#X obj 18 12 inlet;
#X obj 18 97 +;
#X obj 33 70 r \$0.canvasleftmargin;
#X msg 18 46 0;
#X obj 18 120 outlet;
#X connect 0 0 3 0;
#X connect 1 0 4 0;
#X connect 2 0 1 1;
#X connect 3 0 1 0;
#X restore 16 233 pd x;
#N canvas 0 99 405 280 y 0;
#X obj 42 123 * 14;
#X obj 42 199 +;
#X obj 57 173 r \$0.canvastopmargin;
#X obj 63 96 r \$0.stepvisheight;
#X obj 42 35 inlet;
#X obj 42 239 outlet;
#X connect 0 0 1 0;
#X connect 1 0 5 0;
#X connect 2 0 1 1;
#X connect 3 0 0 1;
#X connect 4 0 0 0;
#X restore 55 234 pd y;
#N canvas 0 99 418 249 w 0;
#X obj 16 17 inlet;
#X obj 16 194 outlet;
#X obj 16 103 f;
#X obj 31 77 r \$0.stepcount;
#X obj 31 127 r \$0.stepviswidth;
#X obj 16 155 *;
#X obj 16 45 b;
#X connect 0 0 6 0;
#X connect 2 0 5 0;
#X connect 3 0 2 1;
#X connect 4 0 5 1;
#X connect 5 0 1 0;
#X connect 6 0 2 0;
#X restore 92 234 pd w;
#N canvas 0 99 395 171 h 0;
#X obj 23 14 inlet;
#X obj 23 37 b;
#X obj 23 110 f;
#X obj 23 133 outlet;
#X obj 38 65 r \$0.stepvisheight;
#X obj 38 88 - 1;
#X connect 0 0 1 0;
#X connect 1 0 2 0;
#X connect 2 0 3 0;
#X connect 4 0 5 0;
#X connect 5 0 2 1;
#X restore 135 235 pd h;
#X obj 16 156 t a a;
#X obj 16 185 t a a a a a;
#N canvas 570 378 422 271 c 0;
#X obj 20 56 mod 12;
#X obj 20 80 sel 0 2 4 5 7 9 11;
#X obj 125 102 b;
#X obj 20 130 f 887;
#X obj 125 177 f 777;
#X obj 20 32 + 5;
#X obj 64 129 r \$0.stepkeycolor1;
#X obj 132 152 r \$0.stepkeycolor2;
#X obj 20 211 t a;
#X obj 20 7 inlet;
#X obj 20 238 outlet;
#X connect 0 0 1 0;
#X connect 1 0 3 0;
#X connect 1 1 3 0;
#X connect 1 2 3 0;
#X connect 1 3 3 0;
#X connect 1 4 3 0;
#X connect 1 5 3 0;
#X connect 1 6 3 0;
#X connect 1 7 2 0;
#X connect 2 0 4 0;
#X connect 3 0 8 0;
#X connect 4 0 8 0;
#X connect 5 0 0 0;
#X connect 6 0 3 1;
#X connect 7 0 4 1;
#X connect 8 0 10 0;
#X connect 9 0 5 0;
#X restore 171 234 pd c;
#X obj 16 294 list prepend \$0;
#X obj 16 10 inlet;
#X obj 16 35 b;
#X obj 16 343 outlet;
#X msg 16 320 scalar \$1.horizgrid \$2 \$3 \$4 \$5 \$6;
#X connect 0 0 1 0;
#X connect 0 1 3 0;
#X connect 1 0 2 0;
#X connect 2 0 13 0;
#X connect 3 0 2 1;
#X connect 4 0 2 1;
#X connect 5 0 0 0;
#X connect 6 0 5 1;
#X connect 8 0 16 0;
#X connect 9 0 8 0;
#X connect 10 0 8 1;
#X connect 11 0 8 2;
#X connect 12 0 8 3;
#X connect 13 0 14 0;
#X connect 13 1 4 0;
#X connect 14 0 9 0;
#X connect 14 1 10 0;
#X connect 14 2 11 0;
#X connect 14 3 12 0;
#X connect 14 4 15 0;
#X connect 15 0 8 4;
#X connect 16 0 20 0;
#X connect 17 0 18 0;
#X connect 18 0 5 0;
#X connect 20 0 19 0;
#X restore 612 418 pd create_horizgrid;
#N canvas 64 134 618 459 horizgrid-template 0;
#X obj 19 18 filledpolygon c c 1 0 0 0 h w h w 0;
#X obj 20 44 struct \$0.horizgrid float x float y float w float h float
c;
#X obj 20 73 s \$0.horizgrid.send;
#X obj 22 126 route change;
#X obj 22 149 t p p, f 20;
#X obj 79 357 - 1;
#X obj 22 195 t b b, f 10;
#X obj 22 103 r \$0.horizgrid.send;
#X obj 22 388 set \$0.horizgrid w h;
#X obj 79 335 f;
#X obj 22 322 - 1;
#X obj 22 299 *;
#X obj 22 252 f;
#X obj 37 224 r \$0.stepcount;
#X obj 22 170 get \$0.horizgrid w;
#X obj 37 276 r \$0.stepviswidth;
#X obj 94 310 r \$0.stepvisheight;
#X connect 1 0 2 0;
#X connect 3 0 4 0;
#X connect 4 0 14 0;
#X connect 4 1 8 2;
#X connect 5 0 8 1;
#X connect 6 0 12 0;
#X connect 6 1 9 0;
#X connect 7 0 3 0;
#X connect 9 0 5 0;
#X connect 10 0 8 0;
#X connect 11 0 10 0;
#X connect 12 0 11 0;
#X connect 13 0 12 1;
#X connect 14 0 6 0;
#X connect 15 0 11 1;
#X connect 16 0 9 1;
#X restore 754 418 pd horizgrid-template;
#N canvas 60 99 831 488 vertgrid-template 0;
#X obj 19 18 filledpolygon 0 0 1 0 0 0 h w h w 0;
#X obj 19 42 struct \$0.vertgrid float x float y float w float h;
#X obj 19 66 s \$0.vertgrid.send;
#X obj 92 310 r \$0.stepvisheight;
#X obj 77 286 f;
#X obj 77 335 *;
#X obj 92 261 r \$0.pitchrange;
#X obj 22 103 r \$0.vertgrid.send;
#X obj 22 126 route change;
#X obj 22 170 get \$0.vertgrid w;
#X obj 22 149 t p p, f 19;
#X obj 77 358 - 1;
#X obj 22 388 set \$0.vertgrid w h;
#X obj 37 223 r \$0.stepviswidth;
#X obj 22 269 f;
#X obj 37 246 - 1;
#X obj 22 195 t b b, f 10;
#X connect 1 0 2 0;
#X connect 3 0 5 1;
#X connect 4 0 5 0;
#X connect 5 0 11 0;
#X connect 6 0 4 1;
#X connect 7 0 8 0;
#X connect 8 0 10 0;
#X connect 9 0 16 0;
#X connect 10 0 9 0;
#X connect 10 1 12 2;
#X connect 11 0 12 1;
#X connect 13 0 15 0;
#X connect 14 0 12 0;
#X connect 15 0 14 1;
#X connect 16 0 14 0;
#X connect 16 1 4 0;
#X restore 754 390 pd vertgrid-template;
#N canvas 133 127 401 394 create_vertgrid 0;
#X obj 16 86 t a b;
#X obj 16 109 until;
#X obj 16 132 f;
#X msg 54 110 0;
#X obj 67 150 + 1;
#X obj 16 62 f;
#N canvas 0 99 401 215 x 0;
#X obj 18 12 inlet;
#X obj 18 147 +;
#X obj 33 120 r \$0.canvasleftmargin;
#X obj 18 170 outlet;
#X obj 18 75 *;
#X obj 33 42 r \$0.stepviswidth;
#X connect 0 0 4 0;
#X connect 1 0 3 0;
#X connect 2 0 1 1;
#X connect 4 0 1 0;
#X connect 5 0 4 1;
#X restore 16 233 pd x;
#N canvas 0 99 405 280 y 0;
#X obj 42 199 +;
#X obj 57 173 r \$0.canvastopmargin;
#X obj 42 35 inlet;
#X obj 42 239 outlet;
#X msg 42 90 0;
#X connect 0 0 3 0;
#X connect 1 0 0 1;
#X connect 2 0 4 0;
#X connect 4 0 0 0;
#X restore 55 234 pd y;
#N canvas 0 99 418 249 w 0;
#X obj 16 17 inlet;
#X obj 16 194 outlet;
#X obj 31 90 r \$0.stepviswidth;
#X obj 16 45 b;
#X obj 16 155 f;
#X obj 31 113 - 1;
#X connect 0 0 3 0;
#X connect 2 0 5 0;
#X connect 3 0 4 0;
#X connect 4 0 1 0;
#X connect 5 0 4 1;
#X restore 92 234 pd w;
#N canvas 0 99 398 252 h 0;
#X obj 23 14 inlet;
#X obj 23 37 b;
#X obj 23 193 outlet;
#X obj 38 115 r \$0.stepvisheight;
#X obj 23 91 f;
#X obj 23 140 *;
#X obj 38 66 r \$0.pitchrange;
#X obj 23 163 - 1;
#X connect 0 0 1 0;
#X connect 1 0 4 0;
#X connect 3 0 5 1;
#X connect 4 0 5 0;
#X connect 5 0 7 0;
#X connect 6 0 4 1;
#X connect 7 0 2 0;
#X restore 135 235 pd h;
#X obj 16 156 t a a;
#X obj 16 294 list prepend \$0;
#X obj 16 10 inlet;
#X obj 16 35 b;
#X obj 16 343 outlet;
#X obj 46 60 r \$0.stepcount;
#X text 229 320 x y w h;
#X obj 16 271 pack f f f f;
#X obj 16 185 t a a a a;
#X msg 16 320 scalar \$1.vertgrid \$2 \$3 \$4 \$5;
#X connect 0 0 1 0;
#X connect 0 1 3 0;
#X connect 1 0 2 0;
#X connect 2 0 10 0;
#X connect 3 0 2 1;
#X connect 4 0 2 1;
#X connect 5 0 0 0;
#X connect 6 0 17 0;
#X connect 7 0 17 1;
#X connect 8 0 17 2;
#X connect 9 0 17 3;
#X connect 10 0 18 0;
#X connect 10 1 4 0;
#X connect 11 0 19 0;
#X connect 12 0 13 0;
#X connect 13 0 5 0;
#X connect 15 0 5 1;
#X connect 17 0 11 0;
#X connect 18 0 6 0;
#X connect 18 1 7 0;
#X connect 18 2 8 0;
#X connect 18 3 9 0;
#X connect 19 0 14 0;
#X restore 628 390 pd create_vertgrid;
#N canvas 107 99 450 300 vertline-template 0;
#X obj 18 20 drawpolygon c 1 0 0 0 h;
#X obj 19 79 s \$0.vertline.send;
#X obj 165 20 drawnumber -v nvis n -3 -15 c;
#X obj 19 42 struct \$0.vertline float x float y float h float c float
n float nvis;
#X connect 3 0 1 0;
#X restore 754 446 pd vertline-template;
#N canvas 43 99 400 432 create_vertline 0;
#X obj 16 116 t a b;
#X obj 16 139 until;
#X obj 16 162 f;
#X msg 54 140 0;
#X obj 67 180 + 1;
#X obj 16 62 f;
#N canvas 0 99 401 215 x 0;
#X obj 18 12 inlet;
#X obj 18 147 +;
#X obj 33 120 r \$0.canvasleftmargin;
#X obj 18 170 outlet;
#X obj 18 75 *;
#X obj 33 42 r \$0.stepviswidth;
#X connect 0 0 4 0;
#X connect 1 0 3 0;
#X connect 2 0 1 1;
#X connect 4 0 1 0;
#X connect 5 0 4 1;
#X restore 16 263 pd x;
#N canvas 0 99 405 280 y 0;
#X obj 42 199 +;
#X obj 57 173 r \$0.canvastopmargin;
#X obj 42 35 inlet;
#X obj 42 239 outlet;
#X msg 42 90 0;
#X connect 0 0 3 0;
#X connect 1 0 0 1;
#X connect 2 0 4 0;
#X connect 4 0 0 0;
#X restore 55 264 pd y;
#X obj 16 186 t a a;
#X obj 16 324 list prepend \$0;
#X obj 16 10 inlet;
#X obj 16 35 b;
#X obj 16 373 outlet;
#X obj 46 60 r \$0.stepcount;
#N canvas 0 99 398 252 h 0;
#X obj 23 14 inlet;
#X obj 23 37 b;
#X obj 23 163 outlet;
#X obj 38 115 r \$0.stepvisheight;
#X obj 23 91 f;
#X obj 23 140 *;
#X obj 38 66 r \$0.pitchrange;
#X connect 0 0 1 0;
#X connect 1 0 4 0;
#X connect 3 0 5 1;
#X connect 4 0 5 0;
#X connect 5 0 2 0;
#X connect 6 0 4 1;
#X restore 96 266 pd h;
#N canvas 0 99 500 410 c 0;
#X obj 16 17 inlet;
#X obj 16 326 outlet;
#X obj 87 53 r \$0.griddivision;
#X obj 103 80 r \$0.gridsubdivision;
#X obj 87 131 *;
#X obj 16 161 mod;
#X obj 16 198 sel 0;
#X obj 58 205 r \$0.gridsubdivision;
#X obj 43 232 mod;
#X obj 43 261 sel 0;
#X msg 70 288 888;
#X msg 16 289 0;
#X obj 103 103 t b a;
#X msg 43 288 666;
#X connect 0 0 5 0;
#X connect 2 0 4 0;
#X connect 3 0 12 0;
#X connect 4 0 5 1;
#X connect 5 0 6 0;
#X connect 6 0 11 0;
#X connect 6 1 8 0;
#X connect 7 0 8 1;
#X connect 8 0 9 0;
#X connect 9 0 13 0;
#X connect 9 1 10 0;
#X connect 10 0 1 0;
#X connect 11 0 1 0;
#X connect 12 0 4 0;
#X connect 12 1 4 1;
#X connect 13 0 1 0;
#X restore 133 267 pd c;
#X obj 16 89 + 1;
#X text 46 89 one more for end line;
#X obj 16 215 t a a a a a;
#N canvas 0 99 429 340 n 0;
#X obj 20 26 inlet;
#X obj 20 265 outlet;
#X obj 113 30 r \$0.griddivision;
#X obj 129 57 r \$0.gridsubdivision;
#X obj 113 108 *;
#X obj 129 80 t b a;
#X obj 20 161 div;
#X obj 20 109 t a a;
#X obj 109 197 mod;
#X obj 109 225 == 0;
#X obj 109 268 outlet;
#X obj 20 184 + 1;
#X obj 170 115 r \$0.stepcount;
#X obj 78 174 sel;
#X msg 78 200 0;
#X connect 0 0 7 0;
#X connect 2 0 4 0;
#X connect 3 0 5 0;
#X connect 4 0 6 1;
#X connect 4 0 8 1;
#X connect 5 0 4 0;
#X connect 5 1 4 1;
#X connect 6 0 11 0;
#X connect 7 0 6 0;
#X connect 7 1 13 0;
#X connect 8 0 9 0;
#X connect 9 0 10 0;
#X connect 11 0 1 0;
#X connect 12 0 13 1;
#X connect 13 0 14 0;
#X connect 13 1 8 0;
#X connect 14 0 10 0;
#X restore 170 267 pd n nvis;
#X obj 16 301 pack f f f f f f;
#X text 249 349 x y h c n nvis;
#X msg 16 350 scalar \$1.vertline \$2 \$3 \$4 \$5 \$6 \$7;
#X connect 0 0 1 0;
#X connect 0 1 3 0;
#X connect 1 0 2 0;
#X connect 2 0 8 0;
#X connect 3 0 2 1;
#X connect 4 0 2 1;
#X connect 5 0 16 0;
#X connect 6 0 20 0;
#X connect 7 0 20 1;
#X connect 8 0 18 0;
#X connect 8 1 4 0;
#X connect 9 0 22 0;
#X connect 10 0 11 0;
#X connect 11 0 5 0;
#X connect 13 0 5 1;
#X connect 14 0 20 2;
#X connect 15 0 20 3;
#X connect 16 0 0 0;
#X connect 18 0 6 0;
#X connect 18 1 7 0;
#X connect 18 2 14 0;
#X connect 18 3 15 0;
#X connect 18 4 19 0;
#X connect 19 0 20 4;
#X connect 19 1 20 5;
#X connect 20 0 9 0;
#X connect 22 0 12 0;
#X restore 596 446 pd create_vertline;
#N canvas 79 99 782 466 note-template 0;
#X obj 121 264 max 0;
#X obj 121 287 min 127;
#X obj 51 166 route click change;
#X obj 121 312 t a a;
#X obj 32 141 t a a a;
#X obj 32 34 drawnumber -v vis vel 1 -14 0;
#X obj 32 429 s \$0.note.send;
#X obj 32 104 struct \$0.note float x float y float w float h float
id float gid float vel float c float vis;
#X obj 51 189 t p p, f 48;
#X obj 51 235 t a b, f 36;
#X obj 264 353 f;
#X obj 279 295 r \$0.stepvisheight;
#X obj 279 318 - 1;
#X obj 226 265 r \$0.stepviswidth;
#X obj 193 289 div;
#X obj 193 312 *;
#X obj 32 54 filledpolygon -v vis c 444 1 0 0 0 h w h w 0;
#X obj 193 335 max;
#N canvas 645 450 401 207 get.gid.clr 0;
#X obj 11 15 inlet;
#X obj 30 74 s \$0.gid2lr.get;
#X obj 30 98 r \$0.gid2lr.set;
#X obj 11 42 t b a b;
#X obj 11 131 list append;
#X obj 11 154 outlet;
#X connect 0 0 3 0;
#X connect 2 0 4 1;
#X connect 3 0 4 0;
#X connect 3 1 1 0;
#X connect 3 2 4 1;
#X connect 4 0 5 0;
#X restore 51 335 pd get.gid.clr;
#N canvas 320 203 446 363 clr.* 0;
#X obj 28 62 t a a a;
#X obj 28 112 div 100;
#X obj 78 113 mod 100;
#X obj 78 136 div 10;
#X obj 128 112 mod 10;
#X obj 28 165 *;
#X obj 28 188 int;
#X obj 78 165 *;
#X obj 78 188 int;
#X obj 128 165 *;
#X obj 128 188 int;
#X obj 230 103 inlet;
#X obj 28 212 min 9;
#X obj 78 212 min 9;
#X obj 128 212 min 9;
#X obj 28 235 * 100;
#X obj 78 235 * 10;
#X obj 128 235 * 1;
#X obj 28 262 +;
#X obj 28 285 +;
#X obj 28 311 outlet;
#X obj 28 24 inlet;
#X connect 0 0 1 0;
#X connect 0 1 2 0;
#X connect 0 2 4 0;
#X connect 1 0 5 0;
#X connect 2 0 3 0;
#X connect 3 0 7 0;
#X connect 4 0 9 0;
#X connect 5 0 6 0;
#X connect 6 0 12 0;
#X connect 7 0 8 0;
#X connect 8 0 13 0;
#X connect 9 0 10 0;
#X connect 10 0 14 0;
#X connect 11 0 9 1;
#X connect 11 0 7 1;
#X connect 11 0 5 1;
#X connect 12 0 15 0;
#X connect 13 0 16 0;
#X connect 14 0 17 0;
#X connect 15 0 18 0;
#X connect 16 0 18 1;
#X connect 17 0 19 1;
#X connect 18 0 19 0;
#X connect 19 0 20 0;
#X connect 21 0 0 0;
#X restore 51 369 pd clr.*;
#X obj 121 361 / 113;
#X obj 51 212 get \$0.note gid vel w, f 24;
#X obj 51 406 set \$0.note c vel w h, f 48;
#X connect 0 0 1 0;
#X connect 1 0 3 0;
#X connect 2 0 8 0;
#X connect 2 1 8 0;
#X connect 3 0 20 0;
#X connect 3 1 22 1;
#X connect 4 0 6 0;
#X connect 4 1 2 0;
#X connect 7 0 4 0;
#X connect 8 0 21 0;
#X connect 8 1 22 4;
#X connect 9 0 18 0;
#X connect 9 1 10 0;
#X connect 10 0 22 3;
#X connect 11 0 12 0;
#X connect 12 0 10 1;
#X connect 13 0 14 1;
#X connect 13 0 15 1;
#X connect 13 0 17 1;
#X connect 14 0 15 0;
#X connect 15 0 17 0;
#X connect 17 0 22 2;
#X connect 18 0 19 0;
#X connect 19 0 22 0;
#X connect 20 0 19 1;
#X connect 21 0 9 0;
#X connect 21 1 0 0;
#X connect 21 2 14 0;
#X restore 759 341 pd note-template;
#X obj 835 38 array define \$0.step 1000;
#X obj 835 61 array define \$0.pitch 1000;
#X obj 835 107 array define \$0.velocity 1000;
#X obj 835 84 array define \$0.duration 1000;
#X obj 836 130 array define \$0.gid 1000;
#X obj 751 24 r \$0.init;
#X msg 751 47 const 0;
#X obj 287 582 r \$0.note.send;
#X obj 287 605 route change;
#X obj 287 628 get \$0.note w id;
#X obj 287 701 change -1;
#X obj 407 680 sel 0;
#X obj 434 704 t b a;
#X msg 330 669 set -1;
#X obj 380 656 t a a;
#X obj 287 747 pack f f;
#X msg 287 770 \$2 \$1;
#X obj 287 724 /;
#X obj 316 724 r \$0.stepviswidth;
#X obj 287 795 s \$0.duration;
#X obj 487 582 r \$0.note.send;
#X obj 487 605 route change;
#X obj 487 701 change -1;
#X obj 619 680 sel 0;
#X obj 646 704 t b a;
#X msg 530 669 set -1;
#X obj 592 656 t a a;
#X obj 487 727 pack f f;
#X msg 487 750 \$2 \$1;
#X obj 487 628 get \$0.note vel id;
#X obj 487 795 s \$0.velocity;
#X obj 835 16 array define \$0.active 1000;
#X obj 581 338 t b b b b b;
#X obj 745 568 route click;
#X obj 745 616 s \$0.default.gid;
#X msg 437 61 \; \$1.stepcount 64 \; \$1.pitchrange 48 \; \$1.stepviswidth
15 \; \$1.stepvisheight 14 \; \$1.canvastopmargin 60 \; \$1.canvasleftmargin
90 \; \$1.stepkeycolor1 887 \; \$1.stepkeycolor2 777 \; \$1.griddivision
4 \; \$1.gridsubdivision 4 \; \$1.gidcolorlist 800 880 80 88 8 808
\; \$1.default.vel 64 \; \$1.default.gid 0 \; \$1.default.dur 4 \;
\$1.init bang \;;
#N canvas 617 363 640 399 create_guis 0;
#X obj 12 76 route click;
#X obj 12 99 t b p p b;
#X obj 63 145 pointer;
#X obj 63 168 t b p;
#X msg 63 197 1;
#X msg 12 191 3;
#X obj 238 36 inlet;
#X obj 255 210 outlet;
#X obj 16 346 list store;
#X msg 16 320 get \$1 1;
#X obj 16 371 s \$0.gid2lr.set;
#X obj 16 292 r \$0.gid2lr.get;
#X obj 80 318 r \$0.gidcolorlist;
#N canvas 0 99 439 518 create.gid.buttons 0;
#X obj 60 316 r \$0.canvasleftmargin;
#X obj 28 120 f;
#X obj 28 143 t a a;
#X obj 28 417 list prepend \$0;
#X msg 70 95 0;
#X obj 81 126 + 1;
#X obj 28 317 * 30;
#X obj 28 340 +;
#X obj 62 199 == 0;
#X obj 62 224 sel 0 1;
#X msg 62 254 1;
#X msg 91 253 3;
#N canvas 645 450 401 207 get.gid.clr 0;
#X obj 11 15 inlet;
#X obj 30 74 s \$0.gid2lr.get;
#X obj 30 98 r \$0.gid2lr.set;
#X obj 11 42 t b a b;
#X obj 11 131 list append;
#X obj 11 154 outlet;
#X connect 0 0 3 0;
#X connect 2 0 4 1;
#X connect 3 0 4 0;
#X connect 3 1 1 0;
#X connect 3 2 4 1;
#X connect 4 0 5 0;
#X restore 45 291 pd get.gid.clr;
#X obj 109 41 r \$0.gidcolorlist;
#X obj 109 64 list length;
#X obj 28 65 t a b;
#X obj 28 39 f;
#X obj 28 91 until;
#X text 49 391 x clr hl gid;
#X obj 28 170 t a a a a;
#X obj 28 370 pack f f f f, f 23;
#X obj 28 468 outlet;
#X obj 28 12 inlet;
#X msg 28 445 scalar \$1.gid.button \$2 20 \$3 \$4 \$5;
#X obj 60 339 + 200;
#X connect 0 0 24 0;
#X connect 1 0 2 0;
#X connect 2 0 19 0;
#X connect 2 1 5 0;
#X connect 3 0 23 0;
#X connect 4 0 1 1;
#X connect 5 0 1 1;
#X connect 6 0 7 0;
#X connect 7 0 20 0;
#X connect 8 0 9 0;
#X connect 9 0 10 0;
#X connect 9 1 11 0;
#X connect 10 0 20 2;
#X connect 11 0 20 2;
#X connect 12 0 20 1;
#X connect 13 0 14 0;
#X connect 14 0 16 1;
#X connect 15 0 17 0;
#X connect 15 1 4 0;
#X connect 16 0 15 0;
#X connect 17 0 1 0;
#X connect 19 0 6 0;
#X connect 19 1 12 0;
#X connect 19 2 8 0;
#X connect 19 3 20 3;
#X connect 20 0 3 0;
#X connect 22 0 16 0;
#X connect 23 0 21 0;
#X connect 24 0 7 1;
#X restore 289 106 pd create.gid.buttons;
#N canvas 0 99 450 300 create.vel.number 0;
#X obj 24 21 inlet;
#X obj 24 201 outlet;
#X obj 68 23 r \$0.canvasleftmargin;
#X obj 24 90 f;
#X obj 68 46 + 0;
#X obj 69 96 r \$0.default.vel;
#X obj 24 125 pack f f;
#X obj 24 149 list prepend \$0;
#X msg 24 172 scalar \$1.vel \$2 20 \$3;
#X connect 0 0 3 0;
#X connect 2 0 4 0;
#X connect 3 0 6 0;
#X connect 4 0 3 1;
#X connect 5 0 6 1;
#X connect 6 0 7 0;
#X connect 7 0 8 0;
#X connect 8 0 1 0;
#X restore 272 135 pd create.vel.number;
#N canvas 0 99 450 300 create.dur.number 0;
#X obj 24 21 inlet;
#X obj 24 216 outlet;
#X obj 68 23 r \$0.canvasleftmargin;
#X obj 24 90 f;
#X obj 24 125 pack f f;
#X obj 24 149 list prepend \$0;
#X msg 24 172 scalar \$1.dur \$2 20 \$3;
#X obj 69 96 r \$0.default.dur;
#X obj 68 46 + 100;
#X connect 0 0 3 0;
#X connect 2 0 8 0;
#X connect 3 0 4 0;
#X connect 4 0 5 0;
#X connect 5 0 6 0;
#X connect 6 0 1 0;
#X connect 7 0 4 1;
#X connect 8 0 3 1;
#X restore 255 163 pd create.dur.number;
#X obj 12 52 r \$0.gid.button.send;
#X obj 12 249 set \$0.gid.button hl;
#N canvas 106 186 401 297 init.pointer 0;
#X obj 17 79 until;
#X msg 17 102 next;
#X obj 17 138 pointer \$0.gid.button;
#X obj 80 188 get \$0.gid.button gid;
#X obj 17 51 t b b;
#X obj 17 14 inlet;
#X obj 80 219 sel 0;
#X obj 126 219 r \$0.default.gid;
#X obj 17 254 outlet;
#X obj 68 54 \$0;
#X msg 68 80 traverse pd-\$1.display;
#X connect 0 0 1 0;
#X connect 1 0 2 0;
#X connect 2 0 3 0;
#X connect 2 0 8 0;
#X connect 2 2 0 1;
#X connect 3 0 6 0;
#X connect 4 0 0 0;
#X connect 4 1 9 0;
#X connect 5 0 4 0;
#X connect 6 0 0 1;
#X connect 7 0 6 1;
#X connect 9 0 10 0;
#X connect 10 0 2 0;
#X restore 102 119 pd init.pointer;
#X obj 238 64 t b b b b;
#X connect 0 0 1 0;
#X connect 1 0 5 0;
#X connect 1 1 17 1;
#X connect 1 2 2 1;
#X connect 1 3 2 0;
#X connect 2 0 3 0;
#X connect 3 0 4 0;
#X connect 3 1 17 1;
#X connect 4 0 17 0;
#X connect 5 0 17 0;
#X connect 6 0 19 0;
#X connect 8 0 10 0;
#X connect 9 0 8 0;
#X connect 11 0 9 0;
#X connect 12 0 8 1;
#X connect 13 0 7 0;
#X connect 14 0 7 0;
#X connect 15 0 7 0;
#X connect 16 0 0 0;
#X connect 18 0 2 1;
#X connect 19 0 18 0;
#X connect 19 1 15 0;
#X connect 19 2 14 0;
#X connect 19 3 13 0;
#X restore 581 475 pd create_guis;
#N canvas 0 99 416 185 gui-templates 0;
#N canvas 0 99 408 150 gid.button-template 0;
#X obj 17 26 filledpolygon clr 0 hl 0 0 0 15 15 15 15 0;
#X obj 16 99 s \$0.gid.button.send;
#X obj 16 60 struct \$0.gid.button float x float y float clr float
hl float gid;
#X connect 2 0 1 0;
#X restore 7 19 pd gid.button-template;
#N canvas 195 247 418 274 vel-template 0;
#X obj 14 11 drawnumber value 0 0 0 velocity=;
#X obj 14 230 s \$0.vel.send;
#X obj 99 138 max 0;
#X obj 99 161 min 127;
#X obj 14 35 struct \$0.vel float x float y float value;
#X obj 14 58 t a a;
#X obj 99 114 get \$0.vel value;
#X obj 99 69 route change;
#X obj 99 92 t p p;
#X obj 99 186 set \$0.vel value;
#X connect 2 0 3 0;
#X connect 3 0 9 0;
#X connect 4 0 5 0;
#X connect 5 0 1 0;
#X connect 5 1 7 0;
#X connect 6 0 2 0;
#X connect 7 0 8 0;
#X connect 8 0 6 0;
#X connect 8 1 9 1;
#X restore 8 48 pd vel-template;
#N canvas 0 99 404 252 dur-template 0;
#X obj 14 35 struct \$0.dur float x float y float value;
#X obj 14 11 drawnumber value 0 0 0 duration=;
#X obj 99 138 max 0;
#X obj 99 161 min 127;
#X obj 14 58 t a a;
#X obj 99 69 route change;
#X obj 99 92 t p p;
#X obj 99 114 get \$0.dur value;
#X obj 99 186 set \$0.dur value;
#X obj 14 230 s \$0.dur.send;
#X obj 155 159 r \$0.stepcount;
#X connect 0 0 4 0;
#X connect 2 0 3 0;
#X connect 3 0 8 0;
#X connect 4 0 9 0;
#X connect 4 1 5 0;
#X connect 5 0 6 0;
#X connect 6 0 7 0;
#X connect 6 1 8 1;
#X connect 7 0 2 0;
#X connect 10 0 3 1;
#X restore 8 76 pd dur-template;
#X restore 754 475 pd gui-templates;
#X obj 745 655 r \$0.vel.send;
#X obj 745 701 get \$0.vel value;
#X obj 745 726 s \$0.default.vel;
#X obj 745 678 route change;
#X obj 855 678 route change;
#X obj 855 655 r \$0.dur.send;
#X obj 855 701 get \$0.dur value;
#X obj 855 726 s \$0.default.dur;
#X obj 745 545 r \$0.gid.button.send;
#X obj 745 591 get \$0.gid.button gid;
#N canvas 0 99 627 397 sequencer.part 0;
#X obj 443 64 text define sandbox;
#X obj 56 174 text insert sandbox;
#X msg 104 130 100000;
#X obj 104 94 loadbang;
#X obj 341 272 text search sandbox > 0;
#X obj 345 143 text delete sandbox;
#X msg 348 106 -1;
#X msg 56 44 0 60 90 0 \, 0 64 90 1 \, 2 67 90 2 \, 4 60 0 3 \, 4 67
0 4 \, 8 64 0 5;
#X msg 286 197 3 48 127;
#X obj 286 225 t a a;
#X msg 341 247 \$1;
#X msg 353 197 10 48 0;
#X obj 286 346 text insert sandbox;
#X obj 341 295 sel -1;
#X msg 341 320 1e+09;
#X connect 2 0 1 1;
#X connect 3 0 2 0;
#X connect 4 0 13 0;
#X connect 6 0 5 0;
#X connect 7 0 1 0;
#X connect 8 0 9 0;
#X connect 9 0 12 0;
#X connect 9 1 10 0;
#X connect 10 0 4 0;
#X connect 11 0 9 0;
#X connect 13 0 14 0;
#X connect 13 1 12 1;
#X connect 14 0 12 1;
#X restore 256 39 pd sequencer.part;
#X obj 28 16 pianorollseq-display \$0.display;
#X obj 581 524 s \$0.display;
#X obj 704 164 r \$0.display;
#X obj 704 247 s pd-\$0.display;
#X obj 730 195 tgl 15 0 empty empty empty 17 7 0 10 -262144 -1 -1 1
1;
#X msg 730 215 vis \$1;
#N canvas 189 388 927 595 note.create 0;
#X obj 6 8 r \$0.global.receive;
#X obj 6 31 route note;
#X obj 6 54 route create;
#X text 95 56 step pitch vel dur gid;
#X obj 119 183 s \$0.active;
#X obj 196 183 s \$0.step;
#X obj 259 183 s \$0.pitch;
#X obj 417 183 s \$0.duration;
#X obj 328 183 s \$0.velocity;
#X obj 508 183 s \$0.gid;
#N canvas 0 99 391 254 prepend.id 0;
#X obj 32 58 t a b;
#X obj 113 86 array min \$0.active;
#X obj 113 109 sel 0;
#X obj 113 132 f;
#X msg 147 139 note buffer full!;
#X obj 147 163 print ERROR;
#X obj 32 22 inlet;
#X obj 32 190 outlet;
#X obj 32 156 list prepend 0;
#X connect 0 0 8 0;
#X connect 0 1 1 0;
#X connect 1 0 2 0;
#X connect 1 1 3 1;
#X connect 2 0 3 0;
#X connect 2 1 4 0;
#X connect 3 0 8 1;
#X connect 4 0 5 0;
#X connect 6 0 0 0;
#X connect 8 0 7 0;
#X restore 6 77 pd prepend.id;
#X msg 119 148 \$1 1;
#X obj 6 100 t a a;
#X msg 196 148 \$1 \$2;
#X msg 259 148 \$1 \$3;
#X msg 328 148 \$1 \$4;
#X msg 417 148 \$1 \$5;
#X msg 508 148 \$1 \$6;
#X text 20 389 x y w h id gid vel c vis;
#X obj 6 419 list prepend scalar \$0.note;
#X obj 6 442 list trim;
#X obj 6 473 s \$0.display;
#N canvas 26 99 407 242 w 0;
#X obj 7 21 inlet;
#X obj 7 145 outlet;
#X obj 7 100 *;
#X obj 22 71 r \$0.stepviswidth;
#X msg 7 44 \$5;
#X connect 0 0 4 0;
#X connect 2 0 1 0;
#X connect 3 0 2 1;
#X connect 4 0 2 0;
#X restore 86 291 pd w;
#N canvas 26 99 432 235 h 0;
#X obj 7 21 inlet;
#X obj 7 159 outlet;
#X obj 82 28 r \$0.stepvisheight;
#X obj 82 51 - 1;
#X obj 7 88 f;
#X obj 7 44 b;
#X connect 0 0 5 0;
#X connect 2 0 3 0;
#X connect 3 0 4 1;
#X connect 4 0 1 0;
#X connect 5 0 4 0;
#X restore 126 291 pd h;
#N canvas 26 99 410 257 id 0;
#X obj 7 21 inlet;
#X obj 7 211 outlet;
#X msg 7 93 \$1;
#X connect 0 0 2 0;
#X connect 2 0 1 0;
#X restore 166 291 pd id;
#N canvas 135 99 416 204 gid 0;
#X obj 7 21 inlet;
#X obj 7 137 outlet;
#X msg 7 72 \$6;
#X connect 0 0 2 0;
#X connect 2 0 1 0;
#X restore 207 291 pd gid;
#N canvas 25 99 396 215 vel 0;
#X obj 20 21 inlet;
#X obj 20 162 outlet;
#X msg 20 76 \$4;
#X connect 0 0 2 0;
#X connect 2 0 1 0;
#X restore 257 291 pd vel;
#N canvas 26 99 427 356 c 0;
#X obj 7 21 inlet;
#X obj 7 262 outlet;
#N canvas 645 450 401 207 get.gid.clr 0;
#X obj 11 15 inlet;
#X obj 30 74 s \$0.gid2lr.get;
#X obj 30 98 r \$0.gid2lr.set;
#X obj 11 42 t b a b;
#X obj 11 131 list append;
#X obj 11 154 outlet;
#X connect 0 0 3 0;
#X connect 2 0 4 1;
#X connect 3 0 4 0;
#X connect 3 1 1 0;
#X connect 3 2 4 1;
#X connect 4 0 5 0;
#X restore 7 113 pd get.gid.clr;
#N canvas 320 203 446 363 clr.* 0;
#X obj 28 62 t a a a;
#X obj 28 112 div 100;
#X obj 78 113 mod 100;
#X obj 78 136 div 10;
#X obj 128 112 mod 10;
#X obj 28 165 *;
#X obj 28 188 int;
#X obj 78 165 *;
#X obj 78 188 int;
#X obj 128 165 *;
#X obj 128 188 int;
#X obj 230 103 inlet;
#X obj 28 212 min 9;
#X obj 78 212 min 9;
#X obj 128 212 min 9;
#X obj 28 235 * 100;
#X obj 78 235 * 10;
#X obj 128 235 * 1;
#X obj 28 262 +;
#X obj 28 285 +;
#X obj 28 311 outlet;
#X obj 28 24 inlet;
#X connect 0 0 1 0;
#X connect 0 1 2 0;
#X connect 0 2 4 0;
#X connect 1 0 5 0;
#X connect 2 0 3 0;
#X connect 3 0 7 0;
#X connect 4 0 9 0;
#X connect 5 0 6 0;
#X connect 6 0 12 0;
#X connect 7 0 8 0;
#X connect 8 0 13 0;
#X connect 9 0 10 0;
#X connect 10 0 14 0;
#X connect 11 0 9 1;
#X connect 11 0 7 1;
#X connect 11 0 5 1;
#X connect 12 0 15 0;
#X connect 13 0 16 0;
#X connect 14 0 17 0;
#X connect 15 0 18 0;
#X connect 16 0 18 1;
#X connect 17 0 19 1;
#X connect 18 0 19 0;
#X connect 19 0 20 0;
#X connect 21 0 0 0;
#X restore 7 221 pd clr.*;
#X obj 7 182 f;
#X obj 128 131 t b a;
#X obj 128 108 / 113;
#X obj 7 44 t a a;
#X msg 7 82 \$6;
#X msg 128 82 \$4;
#X connect 0 0 7 0;
#X connect 2 0 4 0;
#X connect 3 0 1 0;
#X connect 4 0 3 0;
#X connect 5 0 4 0;
#X connect 5 1 3 1;
#X connect 6 0 5 0;
#X connect 7 0 8 0;
#X connect 7 1 9 0;
#X connect 8 0 2 0;
#X connect 9 0 6 0;
#X restore 307 291 pd c;
#N canvas 26 99 414 215 vis 0;
#X obj 7 21 inlet;
#X obj 7 126 outlet;
#X msg 7 74 1;
#X obj 7 44 b;
#X connect 0 0 3 0;
#X connect 2 0 1 0;
#X connect 3 0 2 0;
#X restore 347 291 pd vis;
#N canvas 26 99 407 242 x 0;
#X obj 7 21 inlet;
#X obj 7 185 outlet;
#X obj 41 120 r \$0.stepviswidth;
#X obj 7 121 *;
#X obj 7 154 +;
#X obj 40 154 r \$0.canvasleftmargin;
#X msg 7 44 \$2;
#X connect 0 0 6 0;
#X connect 2 0 3 1;
#X connect 3 0 4 0;
#X connect 4 0 1 0;
#X connect 5 0 4 1;
#X connect 6 0 3 0;
#X restore 6 291 pd x;
#N canvas 26 294 432 235 y 0;
#X obj 7 21 inlet;
#X obj 7 169 outlet;
#X obj 7 101 *;
#X obj 7 134 +;
#X obj 41 100 r \$0.stepvisheight;
#X obj 40 134 r \$0.canvastopmargin;
#X obj 7 73 -;
#X msg 7 48 83 \$3;
#X connect 0 0 7 0;
#X connect 2 0 3 0;
#X connect 3 0 1 0;
#X connect 4 0 2 1;
#X connect 5 0 3 1;
#X connect 6 0 2 0;
#X connect 7 0 6 0;
#X restore 46 291 pd y;
#X obj 6 252 t a a a a a a a a a, f 57;
#X obj 6 355 pack f f f f f f f f f, f 57;
#X connect 0 0 1 0;
#X connect 1 0 2 0;
#X connect 2 0 10 0;
#X connect 10 0 12 0;
#X connect 11 0 4 0;
#X connect 12 0 31 0;
#X connect 12 1 11 0;
#X connect 12 1 13 0;
#X connect 12 1 14 0;
#X connect 12 1 15 0;
#X connect 12 1 16 0;
#X connect 12 1 17 0;
#X connect 13 0 5 0;
#X connect 14 0 6 0;
#X connect 15 0 8 0;
#X connect 16 0 7 0;
#X connect 17 0 9 0;
#X connect 19 0 20 0;
#X connect 20 0 21 0;
#X connect 22 0 32 2;
#X connect 23 0 32 3;
#X connect 24 0 32 4;
#X connect 25 0 32 5;
#X connect 26 0 32 6;
#X connect 27 0 32 7;
#X connect 28 0 32 8;
#X connect 29 0 32 0;
#X connect 30 0 32 1;
#X connect 31 0 29 0;
#X connect 31 1 30 0;
#X connect 31 2 22 0;
#X connect 31 3 23 0;
#X connect 31 4 24 0;
#X connect 31 5 25 0;
#X connect 31 6 26 0;
#X connect 31 7 27 0;
#X connect 31 8 28 0;
#X connect 32 0 19 0;
#X restore 42 117 pd note.create;
#N canvas 134 99 462 498 note.create.delete.msg 0;
#X obj 29 235 del 0;
#X obj 29 262 f;
#X msg 72 238 1;
#X msg 254 191 0;
#X obj 29 288 sel 1;
#N canvas 0 99 483 432 detect_double_click 0;
#X obj 91 101 -;
#X obj 90 76 t a a;
#X obj 19 23 inlet;
#X text 109 21 this detects two clicks on the same scalar within a
certain period.;
#X obj 19 75 t b b;
#X obj 19 99 del 300;
#X msg 19 122 0;
#X msg 52 123 1;
#X obj 19 48 t b a;
#X obj 91 166 spigot 0;
#X obj 91 203 outlet;
#X obj 91 126 sel 0;
#X connect 0 0 11 0;
#X connect 1 0 0 1;
#X connect 1 1 0 0;
#X connect 2 0 8 0;
#X connect 4 0 5 0;
#X connect 4 1 7 0;
#X connect 5 0 6 0;
#X connect 6 0 9 1;
#X connect 7 0 9 1;
#X connect 8 0 4 0;
#X connect 8 1 1 0;
#X connect 9 0 10 0;
#X connect 11 0 9 0;
#X restore 281 250 pd detect_double_click;
#X obj 254 109 unpack s p f;
#X obj 254 132 sel click;
#X msg 281 296 0;
#X obj 254 154 t b b;
#X obj 281 178 pointer;
#X obj 29 14 r \$0.horizgrid.send;
#X obj 29 37 route click;
#X obj 29 60 get \$0.horizgrid y;
#X obj 74 105 route click;
#X obj 74 82 r \$0.vertgrid.send;
#X obj 29 153 pack f f;
#X obj 74 128 get \$0.vertgrid x;
#X obj 29 202 t b b a;
#X obj 29 315 list append;
#X msg 29 176 \$2 \$1;
#X obj 254 79 r \$0.note.send;
#X obj 281 204 get \$0.note id;
#X obj 281 365 set \$0.note vis;
#X text 103 318 x y;
#X obj 281 227 t a a;
#X obj 281 273 t b b;
#X obj 321 295 f;
#X msg 321 318 \$1 0;
#X obj 321 341 s \$0.active;
#N canvas 93 100 413 278 convert.to.step.pitch 0;
#X obj 17 17 inlet;
#X obj 17 230 outlet;
#X obj 17 44 unpack f f;
#X obj 17 92 -;
#X obj 45 92 r \$0.canvasleftmargin;
#X obj 17 116 /;
#X obj 45 116 r \$0.stepviswidth;
#X obj 187 92 -;
#X obj 187 116 /;
#X obj 215 92 r \$0.canvastopmargin;
#X obj 215 116 r \$0.stepvisheight;
#X msg 187 141 83 \$1;
#X obj 187 164 -;
#X obj 17 189 pack f f;
#X connect 0 0 2 0;
#X connect 2 0 3 0;
#X connect 2 1 7 0;
#X connect 3 0 5 0;
#X connect 4 0 3 1;
#X connect 5 0 13 0;
#X connect 6 0 5 1;
#X connect 7 0 8 0;
#X connect 8 0 11 0;
#X connect 9 0 7 1;
#X connect 10 0 8 1;
#X connect 11 0 12 0;
#X connect 12 0 13 1;
#X connect 13 0 1 0;
#X restore 29 338 pd convert.to.step.pitch;
#X text 72 357 step pitch;
#N canvas 0 132 318 251 append.vel.dur.gid 0;
#X obj 12 18 inlet;
#X obj 12 199 outlet;
#X obj 95 55 r \$0.default.vel;
#X obj 95 85 r \$0.default.dur;
#X obj 95 115 r \$0.default.gid;
#X obj 12 73 list append;
#X obj 12 103 list append;
#X obj 12 133 list append;
#X connect 0 0 5 0;
#X connect 2 0 5 1;
#X connect 3 0 6 1;
#X connect 4 0 7 1;
#X connect 5 0 6 0;
#X connect 6 0 7 0;
#X connect 7 0 1 0;
#X restore 29 374 pd append.vel.dur.gid;
#X text 33 393 step pitch vel dur gid;
#X obj 29 409 list prepend note create;
#X obj 29 432 list trim;
#X obj 29 455 s \$0.global.send;
#X connect 0 0 1 0;
#X connect 1 0 4 0;
#X connect 2 0 1 1;
#X connect 3 0 1 1;
#X connect 4 0 19 0;
#X connect 5 0 26 0;
#X connect 6 0 7 0;
#X connect 6 1 10 1;
#X connect 6 1 23 1;
#X connect 7 0 9 0;
#X connect 8 0 23 0;
#X connect 9 0 3 0;
#X connect 9 1 10 0;
#X connect 10 0 22 0;
#X connect 11 0 12 0;
#X connect 12 0 13 0;
#X connect 13 0 16 0;
#X connect 14 0 17 0;
#X connect 15 0 14 0;
#X connect 16 0 20 0;
#X connect 17 0 16 1;
#X connect 18 0 0 0;
#X connect 18 1 2 0;
#X connect 18 2 19 1;
#X connect 19 0 30 0;
#X connect 20 0 18 0;
#X connect 21 0 6 0;
#X connect 22 0 25 0;
#X connect 25 0 5 0;
#X connect 25 1 27 1;
#X connect 26 0 8 0;
#X connect 26 1 27 0;
#X connect 27 0 28 0;
#X connect 28 0 29 0;
#X connect 30 0 32 0;
#X connect 32 0 34 0;
#X connect 34 0 35 0;
#X connect 35 0 36 0;
#X restore 41 76 pd note.create.delete.msg;
#X obj 258 91 r \$0.global.send;
#X obj 258 160 s \$0.global.receive;
#X obj 258 114 t a a;
#X obj 285 138 print ACTIONS;
#X connect 0 0 62 0;
#X connect 1 0 2 0;
#X connect 2 0 47 0;
#X connect 3 0 44 0;
#X connect 4 0 2 0;
#X connect 5 0 62 0;
#X connect 8 0 62 0;
#X connect 10 0 62 0;
#X connect 17 0 18 0;
#X connect 18 0 12 0;
#X connect 18 0 13 0;
#X connect 18 0 15 0;
#X connect 18 0 14 0;
#X connect 18 0 16 0;
#X connect 18 0 43 0;
#X connect 19 0 20 0;
#X connect 20 0 21 0;
#X connect 21 0 22 0;
#X connect 21 1 26 0;
#X connect 22 0 29 0;
#X connect 23 1 24 0;
#X connect 24 0 25 0;
#X connect 24 1 23 1;
#X connect 25 0 22 0;
#X connect 26 0 27 1;
#X connect 26 1 23 0;
#X connect 27 0 28 0;
#X connect 28 0 31 0;
#X connect 29 0 27 0;
#X connect 30 0 29 1;
#X connect 32 0 33 0;
#X connect 33 0 41 0;
#X connect 34 0 39 0;
#X connect 35 1 36 0;
#X connect 36 0 37 0;
#X connect 36 1 35 1;
#X connect 37 0 34 0;
#X connect 38 0 39 1;
#X connect 38 1 35 0;
#X connect 39 0 40 0;
#X connect 40 0 42 0;
#X connect 41 0 34 0;
#X connect 41 1 38 0;
#X connect 44 0 48 0;
#X connect 44 1 10 0;
#X connect 44 2 5 0;
#X connect 44 3 8 0;
#X connect 44 4 0 0;
#X connect 45 0 59 0;
#X connect 48 0 62 0;
#X connect 50 0 53 0;
#X connect 51 0 52 0;
#X connect 53 0 51 0;
#X connect 54 0 56 0;
#X connect 55 0 54 0;
#X connect 56 0 57 0;
#X connect 58 0 45 0;
#X connect 59 0 46 0;
#X connect 63 0 64 0;
#X connect 65 0 66 0;
#X connect 66 0 64 0;
#X connect 69 0 71 0;
#X connect 71 0 70 0;
#X connect 71 1 72 0;
