#N struct 1003.vertgrid float x float y float w float h;
#N struct 1003.horizgrid float x float y float w float h float c;
#N struct 1003.vertline float x float y float h float c float n float
nvis;
#N struct 1003.gid.button float x float y float clr float hl float
gid;
#N struct 1003.vel float x float y float value;
#N struct 1003.dur float x float y float value;
#N struct 1003.show.selector float x float y float hilite float id
symbol label;
#N struct 1003.note float x float y float w float h float id float
gid float vel float c float vis;
#N canvas 0 99 1037 563 10;
#X msg 644 365 clear;
#X obj 437 15 loadbang;
#X obj 437 38 \$0;
#X obj 581 298 r \$0.init;
#X obj 416 14 bng 15 250 50 0 empty empty empty 17 7 0 10 -262144 -1
-1;
#N canvas 133 127 401 394 create_horizgrid 0;
#X obj 16 86 t a b;
#X obj 16 109 until;
#X obj 16 132 f;
#X msg 54 110 0;
#X obj 67 150 + 1;
#X obj 16 62 f;
#X obj 49 62 r \$0.pitchrange;
#X text 229 320 x y w h c;
#X obj 16 271 pack f f f f f;
#N canvas 0 99 387 189 x 0;
#X obj 18 12 inlet;
#X obj 18 97 +;
#X obj 33 70 r \$0.canvasleftmargin;
#X msg 18 46 0;
#X obj 18 120 outlet;
#X connect 0 0 3 0;
#X connect 1 0 4 0;
#X connect 2 0 1 1;
#X connect 3 0 1 0;
#X restore 16 233 pd x;
#N canvas 0 99 405 280 y 0;
#X obj 42 123 * 14;
#X obj 42 199 +;
#X obj 57 173 r \$0.canvastopmargin;
#X obj 63 96 r \$0.stepvisheight;
#X obj 42 35 inlet;
#X obj 42 239 outlet;
#X connect 0 0 1 0;
#X connect 1 0 5 0;
#X connect 2 0 1 1;
#X connect 3 0 0 1;
#X connect 4 0 0 0;
#X restore 55 234 pd y;
#N canvas 0 99 418 249 w 0;
#X obj 16 17 inlet;
#X obj 16 194 outlet;
#X obj 16 103 f;
#X obj 31 77 r \$0.stepcount;
#X obj 31 127 r \$0.stepviswidth;
#X obj 16 155 *;
#X obj 16 45 b;
#X connect 0 0 6 0;
#X connect 2 0 5 0;
#X connect 3 0 2 1;
#X connect 4 0 5 1;
#X connect 5 0 1 0;
#X connect 6 0 2 0;
#X restore 92 234 pd w;
#N canvas 0 99 395 171 h 0;
#X obj 23 14 inlet;
#X obj 23 37 b;
#X obj 23 110 f;
#X obj 23 133 outlet;
#X obj 38 65 r \$0.stepvisheight;
#X obj 38 88 - 1;
#X connect 0 0 1 0;
#X connect 1 0 2 0;
#X connect 2 0 3 0;
#X connect 4 0 5 0;
#X connect 5 0 2 1;
#X restore 135 235 pd h;
#X obj 16 156 t a a;
#X obj 16 185 t a a a a a;
#N canvas 570 378 422 271 c 0;
#X obj 20 56 mod 12;
#X obj 20 80 sel 0 2 4 5 7 9 11;
#X obj 125 102 b;
#X obj 20 130 f 887;
#X obj 125 177 f 777;
#X obj 20 32 + 5;
#X obj 64 129 r \$0.stepkeycolor1;
#X obj 132 152 r \$0.stepkeycolor2;
#X obj 20 211 t a;
#X obj 20 7 inlet;
#X obj 20 238 outlet;
#X connect 0 0 1 0;
#X connect 1 0 3 0;
#X connect 1 1 3 0;
#X connect 1 2 3 0;
#X connect 1 3 3 0;
#X connect 1 4 3 0;
#X connect 1 5 3 0;
#X connect 1 6 3 0;
#X connect 1 7 2 0;
#X connect 2 0 4 0;
#X connect 3 0 8 0;
#X connect 4 0 8 0;
#X connect 5 0 0 0;
#X connect 6 0 3 1;
#X connect 7 0 4 1;
#X connect 8 0 10 0;
#X connect 9 0 5 0;
#X restore 171 234 pd c;
#X obj 16 294 list prepend \$0;
#X obj 16 10 inlet;
#X obj 16 35 b;
#X obj 16 343 outlet;
#X msg 16 320 scalar \$1.horizgrid \$2 \$3 \$4 \$5 \$6;
#X connect 0 0 1 0;
#X connect 0 1 3 0;
#X connect 1 0 2 0;
#X connect 2 0 13 0;
#X connect 3 0 2 1;
#X connect 4 0 2 1;
#X connect 5 0 0 0;
#X connect 6 0 5 1;
#X connect 8 0 16 0;
#X connect 9 0 8 0;
#X connect 10 0 8 1;
#X connect 11 0 8 2;
#X connect 12 0 8 3;
#X connect 13 0 14 0;
#X connect 13 1 4 0;
#X connect 14 0 9 0;
#X connect 14 1 10 0;
#X connect 14 2 11 0;
#X connect 14 3 12 0;
#X connect 14 4 15 0;
#X connect 15 0 8 4;
#X connect 16 0 20 0;
#X connect 17 0 18 0;
#X connect 18 0 5 0;
#X connect 20 0 19 0;
#X restore 612 418 pd create_horizgrid;
#N canvas 64 134 618 459 horizgrid-template 0;
#X obj 19 18 filledpolygon c c 1 0 0 0 h w h w 0;
#X obj 20 44 struct \$0.horizgrid float x float y float w float h float
c;
#X obj 20 73 s \$0.horizgrid.send;
#X obj 22 126 route change;
#X obj 22 149 t p p, f 20;
#X obj 79 357 - 1;
#X obj 22 195 t b b, f 10;
#X obj 22 103 r \$0.horizgrid.send;
#X obj 22 388 set \$0.horizgrid w h;
#X obj 79 335 f;
#X obj 22 322 - 1;
#X obj 22 299 *;
#X obj 22 252 f;
#X obj 37 224 r \$0.stepcount;
#X obj 22 170 get \$0.horizgrid w;
#X obj 37 276 r \$0.stepviswidth;
#X obj 94 310 r \$0.stepvisheight;
#X connect 1 0 2 0;
#X connect 3 0 4 0;
#X connect 4 0 14 0;
#X connect 4 1 8 2;
#X connect 5 0 8 1;
#X connect 6 0 12 0;
#X connect 6 1 9 0;
#X connect 7 0 3 0;
#X connect 9 0 5 0;
#X connect 10 0 8 0;
#X connect 11 0 10 0;
#X connect 12 0 11 0;
#X connect 13 0 12 1;
#X connect 14 0 6 0;
#X connect 15 0 11 1;
#X connect 16 0 9 1;
#X restore 754 418 pd horizgrid-template;
#N canvas 60 99 831 488 vertgrid-template 0;
#X obj 19 18 filledpolygon 0 0 1 0 0 0 h w h w 0;
#X obj 19 42 struct \$0.vertgrid float x float y float w float h;
#X obj 19 66 s \$0.vertgrid.send;
#X obj 92 310 r \$0.stepvisheight;
#X obj 77 286 f;
#X obj 77 335 *;
#X obj 92 261 r \$0.pitchrange;
#X obj 22 103 r \$0.vertgrid.send;
#X obj 22 126 route change;
#X obj 22 170 get \$0.vertgrid w;
#X obj 22 149 t p p, f 19;
#X obj 77 358 - 1;
#X obj 22 388 set \$0.vertgrid w h;
#X obj 37 223 r \$0.stepviswidth;
#X obj 22 269 f;
#X obj 37 246 - 1;
#X obj 22 195 t b b, f 10;
#X connect 1 0 2 0;
#X connect 3 0 5 1;
#X connect 4 0 5 0;
#X connect 5 0 11 0;
#X connect 6 0 4 1;
#X connect 7 0 8 0;
#X connect 8 0 10 0;
#X connect 9 0 16 0;
#X connect 10 0 9 0;
#X connect 10 1 12 2;
#X connect 11 0 12 1;
#X connect 13 0 15 0;
#X connect 14 0 12 0;
#X connect 15 0 14 1;
#X connect 16 0 14 0;
#X connect 16 1 4 0;
#X restore 754 390 pd vertgrid-template;
#N canvas 133 127 401 394 create_vertgrid 0;
#X obj 16 86 t a b;
#X obj 16 109 until;
#X obj 16 132 f;
#X msg 54 110 0;
#X obj 67 150 + 1;
#X obj 16 62 f;
#N canvas 0 99 401 215 x 0;
#X obj 18 12 inlet;
#X obj 18 147 +;
#X obj 33 120 r \$0.canvasleftmargin;
#X obj 18 170 outlet;
#X obj 18 75 *;
#X obj 33 42 r \$0.stepviswidth;
#X connect 0 0 4 0;
#X connect 1 0 3 0;
#X connect 2 0 1 1;
#X connect 4 0 1 0;
#X connect 5 0 4 1;
#X restore 16 233 pd x;
#N canvas 0 99 405 280 y 0;
#X obj 42 199 +;
#X obj 57 173 r \$0.canvastopmargin;
#X obj 42 35 inlet;
#X obj 42 239 outlet;
#X msg 42 90 0;
#X connect 0 0 3 0;
#X connect 1 0 0 1;
#X connect 2 0 4 0;
#X connect 4 0 0 0;
#X restore 55 234 pd y;
#N canvas 0 99 418 249 w 0;
#X obj 16 17 inlet;
#X obj 16 194 outlet;
#X obj 31 90 r \$0.stepviswidth;
#X obj 16 45 b;
#X obj 16 155 f;
#X obj 31 113 - 1;
#X connect 0 0 3 0;
#X connect 2 0 5 0;
#X connect 3 0 4 0;
#X connect 4 0 1 0;
#X connect 5 0 4 1;
#X restore 92 234 pd w;
#N canvas 0 99 398 252 h 0;
#X obj 23 14 inlet;
#X obj 23 37 b;
#X obj 23 193 outlet;
#X obj 38 115 r \$0.stepvisheight;
#X obj 23 91 f;
#X obj 23 140 *;
#X obj 38 66 r \$0.pitchrange;
#X obj 23 163 - 1;
#X connect 0 0 1 0;
#X connect 1 0 4 0;
#X connect 3 0 5 1;
#X connect 4 0 5 0;
#X connect 5 0 7 0;
#X connect 6 0 4 1;
#X connect 7 0 2 0;
#X restore 135 235 pd h;
#X obj 16 156 t a a;
#X obj 16 294 list prepend \$0;
#X obj 16 10 inlet;
#X obj 16 35 b;
#X obj 16 343 outlet;
#X obj 46 60 r \$0.stepcount;
#X text 229 320 x y w h;
#X obj 16 271 pack f f f f;
#X obj 16 185 t a a a a;
#X msg 16 320 scalar \$1.vertgrid \$2 \$3 \$4 \$5;
#X connect 0 0 1 0;
#X connect 0 1 3 0;
#X connect 1 0 2 0;
#X connect 2 0 10 0;
#X connect 3 0 2 1;
#X connect 4 0 2 1;
#X connect 5 0 0 0;
#X connect 6 0 17 0;
#X connect 7 0 17 1;
#X connect 8 0 17 2;
#X connect 9 0 17 3;
#X connect 10 0 18 0;
#X connect 10 1 4 0;
#X connect 11 0 19 0;
#X connect 12 0 13 0;
#X connect 13 0 5 0;
#X connect 15 0 5 1;
#X connect 17 0 11 0;
#X connect 18 0 6 0;
#X connect 18 1 7 0;
#X connect 18 2 8 0;
#X connect 18 3 9 0;
#X connect 19 0 14 0;
#X restore 628 390 pd create_vertgrid;
#N canvas 107 99 450 300 vertline-template 0;
#X obj 18 20 drawpolygon c 1 0 0 0 h;
#X obj 19 79 s \$0.vertline.send;
#X obj 165 20 drawnumber -v nvis n -3 -15 c;
#X obj 19 42 struct \$0.vertline float x float y float h float c float
n float nvis;
#X connect 3 0 1 0;
#X restore 754 446 pd vertline-template;
#N canvas 43 99 400 432 create_vertline 0;
#X obj 16 116 t a b;
#X obj 16 139 until;
#X obj 16 162 f;
#X msg 54 140 0;
#X obj 67 180 + 1;
#X obj 16 62 f;
#N canvas 0 99 401 215 x 0;
#X obj 18 12 inlet;
#X obj 18 147 +;
#X obj 33 120 r \$0.canvasleftmargin;
#X obj 18 170 outlet;
#X obj 18 75 *;
#X obj 33 42 r \$0.stepviswidth;
#X connect 0 0 4 0;
#X connect 1 0 3 0;
#X connect 2 0 1 1;
#X connect 4 0 1 0;
#X connect 5 0 4 1;
#X restore 16 263 pd x;
#N canvas 0 99 405 280 y 0;
#X obj 42 199 +;
#X obj 57 173 r \$0.canvastopmargin;
#X obj 42 35 inlet;
#X obj 42 239 outlet;
#X msg 42 90 0;
#X connect 0 0 3 0;
#X connect 1 0 0 1;
#X connect 2 0 4 0;
#X connect 4 0 0 0;
#X restore 55 264 pd y;
#X obj 16 186 t a a;
#X obj 16 324 list prepend \$0;
#X obj 16 10 inlet;
#X obj 16 35 b;
#X obj 16 373 outlet;
#X obj 46 60 r \$0.stepcount;
#N canvas 0 99 398 252 h 0;
#X obj 23 14 inlet;
#X obj 23 37 b;
#X obj 23 163 outlet;
#X obj 38 115 r \$0.stepvisheight;
#X obj 23 91 f;
#X obj 23 140 *;
#X obj 38 66 r \$0.pitchrange;
#X connect 0 0 1 0;
#X connect 1 0 4 0;
#X connect 3 0 5 1;
#X connect 4 0 5 0;
#X connect 5 0 2 0;
#X connect 6 0 4 1;
#X restore 96 266 pd h;
#N canvas 0 99 500 410 c 0;
#X obj 16 17 inlet;
#X obj 16 326 outlet;
#X obj 87 53 r \$0.griddivision;
#X obj 103 80 r \$0.gridsubdivision;
#X obj 87 131 *;
#X obj 16 161 mod;
#X obj 16 198 sel 0;
#X obj 58 205 r \$0.gridsubdivision;
#X obj 43 232 mod;
#X obj 43 261 sel 0;
#X msg 70 288 888;
#X msg 16 289 0;
#X obj 103 103 t b a;
#X msg 43 288 666;
#X connect 0 0 5 0;
#X connect 2 0 4 0;
#X connect 3 0 12 0;
#X connect 4 0 5 1;
#X connect 5 0 6 0;
#X connect 6 0 11 0;
#X connect 6 1 8 0;
#X connect 7 0 8 1;
#X connect 8 0 9 0;
#X connect 9 0 13 0;
#X connect 9 1 10 0;
#X connect 10 0 1 0;
#X connect 11 0 1 0;
#X connect 12 0 4 0;
#X connect 12 1 4 1;
#X connect 13 0 1 0;
#X restore 133 267 pd c;
#X obj 16 89 + 1;
#X text 46 89 one more for end line;
#X obj 16 215 t a a a a a;
#N canvas 0 99 429 340 n 0;
#X obj 20 26 inlet;
#X obj 20 265 outlet;
#X obj 113 30 r \$0.griddivision;
#X obj 129 57 r \$0.gridsubdivision;
#X obj 113 108 *;
#X obj 129 80 t b a;
#X obj 20 161 div;
#X obj 20 109 t a a;
#X obj 109 197 mod;
#X obj 109 225 == 0;
#X obj 109 268 outlet;
#X obj 20 184 + 1;
#X obj 170 115 r \$0.stepcount;
#X obj 78 174 sel;
#X msg 78 200 0;
#X connect 0 0 7 0;
#X connect 2 0 4 0;
#X connect 3 0 5 0;
#X connect 4 0 6 1;
#X connect 4 0 8 1;
#X connect 5 0 4 0;
#X connect 5 1 4 1;
#X connect 6 0 11 0;
#X connect 7 0 6 0;
#X connect 7 1 13 0;
#X connect 8 0 9 0;
#X connect 9 0 10 0;
#X connect 11 0 1 0;
#X connect 12 0 13 1;
#X connect 13 0 14 0;
#X connect 13 1 8 0;
#X connect 14 0 10 0;
#X restore 170 267 pd n nvis;
#X obj 16 301 pack f f f f f f;
#X text 249 349 x y h c n nvis;
#X msg 16 350 scalar \$1.vertline \$2 \$3 \$4 \$5 \$6 \$7;
#X connect 0 0 1 0;
#X connect 0 1 3 0;
#X connect 1 0 2 0;
#X connect 2 0 8 0;
#X connect 3 0 2 1;
#X connect 4 0 2 1;
#X connect 5 0 16 0;
#X connect 6 0 20 0;
#X connect 7 0 20 1;
#X connect 8 0 18 0;
#X connect 8 1 4 0;
#X connect 9 0 22 0;
#X connect 10 0 11 0;
#X connect 11 0 5 0;
#X connect 13 0 5 1;
#X connect 14 0 20 2;
#X connect 15 0 20 3;
#X connect 16 0 0 0;
#X connect 18 0 6 0;
#X connect 18 1 7 0;
#X connect 18 2 14 0;
#X connect 18 3 15 0;
#X connect 18 4 19 0;
#X connect 19 0 20 4;
#X connect 19 1 20 5;
#X connect 20 0 9 0;
#X connect 22 0 12 0;
#X restore 596 446 pd create_vertline;
#N canvas 79 99 767 573 note-template 0;
#X obj 121 264 max 0;
#X obj 121 287 min 127;
#X obj 51 166 route click change;
#X obj 121 312 t a a;
#X obj 32 141 t a a a;
#X obj 32 429 s \$0.note.send;
#X obj 32 104 struct \$0.note float x float y float w float h float
id float gid float vel float c float vis;
#X obj 51 189 t p p, f 48;
#X obj 51 235 t a b, f 36;
#X obj 264 353 f;
#X obj 279 295 r \$0.stepvisheight;
#X obj 279 318 - 1;
#X obj 226 265 r \$0.stepviswidth;
#X obj 193 289 div;
#X obj 193 312 *;
#X obj 32 54 filledpolygon -v vis c 444 1 0 0 0 h w h w 0;
#X obj 193 335 max;
#N canvas 645 450 401 207 get.gid.clr 0;
#X obj 11 15 inlet;
#X obj 30 74 s \$0.gid2lr.get;
#X obj 30 98 r \$0.gid2lr.set;
#X obj 11 42 t b a b;
#X obj 11 131 list append;
#X obj 11 154 outlet;
#X connect 0 0 3 0;
#X connect 2 0 4 1;
#X connect 3 0 4 0;
#X connect 3 1 1 0;
#X connect 3 2 4 1;
#X connect 4 0 5 0;
#X restore 64 335 pd get.gid.clr;
#N canvas 320 203 446 363 clr.* 0;
#X obj 28 62 t a a a;
#X obj 28 112 div 100;
#X obj 78 113 mod 100;
#X obj 78 136 div 10;
#X obj 128 112 mod 10;
#X obj 28 165 *;
#X obj 28 188 int;
#X obj 78 165 *;
#X obj 78 188 int;
#X obj 128 165 *;
#X obj 128 188 int;
#X obj 230 103 inlet;
#X obj 28 212 min 9;
#X obj 78 212 min 9;
#X obj 128 212 min 9;
#X obj 28 235 * 100;
#X obj 78 235 * 10;
#X obj 128 235 * 1;
#X obj 28 262 +;
#X obj 28 285 +;
#X obj 28 311 outlet;
#X obj 28 24 inlet;
#X connect 0 0 1 0;
#X connect 0 1 2 0;
#X connect 0 2 4 0;
#X connect 1 0 5 0;
#X connect 2 0 3 0;
#X connect 3 0 7 0;
#X connect 4 0 9 0;
#X connect 5 0 6 0;
#X connect 6 0 12 0;
#X connect 7 0 8 0;
#X connect 8 0 13 0;
#X connect 9 0 10 0;
#X connect 10 0 14 0;
#X connect 11 0 9 1;
#X connect 11 0 7 1;
#X connect 11 0 5 1;
#X connect 12 0 15 0;
#X connect 13 0 16 0;
#X connect 14 0 17 0;
#X connect 15 0 18 0;
#X connect 16 0 18 1;
#X connect 17 0 19 1;
#X connect 18 0 19 0;
#X connect 19 0 20 0;
#X connect 21 0 0 0;
#X restore 64 369 pd clr.*;
#X obj 121 361 / 113;
#X obj 51 212 get \$0.note gid vel w, f 24;
#X obj 469 34 r \$0.default.show;
#X obj 469 163 == 1;
#X obj 496 93 == 2;
#X obj 469 57 t a a;
#X text 596 36 show note properties:;
#X text 609 53 0 = none;
#X text 609 68 1 = velocity;
#X text 609 83 2 = gid;
#X obj 478 260 hradio 20 1 0 3 empty empty empty 0 -8 0 10 -262144
-1 -1 0;
#X obj 478 291 s \$0.default.show;
#N canvas 149 210 387 235 range 0;
#X obj 33 104 min;
#X obj 86 64 r \$0.gidcolorlist;
#X obj 86 87 list length;
#X obj 86 110 - 1;
#X obj 33 22 inlet;
#X obj 33 45 max 0;
#X obj 33 127 outlet;
#X connect 0 0 6 0;
#X connect 1 0 2 0;
#X connect 2 0 3 0;
#X connect 3 0 0 1;
#X connect 4 0 5 0;
#X connect 5 0 0 0;
#X restore 51 279 pd range;
#X obj 51 406 set \$0.note gid c vel w h, f 48;
#X obj 51 302 t a a;
#X obj 496 120 drawnumber gid 3 1 999;
#X obj 469 190 drawnumber vel 3 1 999;
#X connect 0 0 1 0;
#X connect 1 0 3 0;
#X connect 2 0 7 0;
#X connect 2 1 7 0;
#X connect 3 0 19 0;
#X connect 3 1 32 2;
#X connect 4 0 5 0;
#X connect 4 1 2 0;
#X connect 6 0 4 0;
#X connect 7 0 20 0;
#X connect 7 1 32 5;
#X connect 8 0 31 0;
#X connect 8 1 9 0;
#X connect 9 0 32 4;
#X connect 10 0 11 0;
#X connect 11 0 9 1;
#X connect 12 0 13 1;
#X connect 12 0 14 1;
#X connect 12 0 16 1;
#X connect 13 0 14 0;
#X connect 14 0 16 0;
#X connect 16 0 32 3;
#X connect 17 0 18 0;
#X connect 18 0 32 1;
#X connect 19 0 18 1;
#X connect 20 0 8 0;
#X connect 20 1 0 0;
#X connect 20 2 13 0;
#X connect 21 0 24 0;
#X connect 22 0 35 0;
#X connect 23 0 34 0;
#X connect 24 0 22 0;
#X connect 24 1 23 0;
#X connect 29 0 30 0;
#X connect 31 0 33 0;
#X connect 33 0 32 0;
#X connect 33 1 17 0;
#X restore 759 341 pd note-template;
#X obj 835 38 array define \$0.step 1000;
#X obj 835 61 array define \$0.pitch 1000;
#X obj 835 107 array define \$0.velocity 1000;
#X obj 835 84 array define \$0.duration 1000;
#X obj 836 130 array define \$0.gid 1000;
#X obj 751 24 r \$0.init;
#X msg 751 47 const 0;
#X obj 835 16 array define \$0.active 1000;
#X obj 581 338 t b b b b b;
#N canvas 617 363 640 399 create_guis 0;
#X obj 356 33 inlet;
#X obj 404 294 outlet;
#X obj 16 346 list store;
#X msg 16 320 get \$1 1;
#X obj 16 371 s \$0.gid2lr.set;
#X obj 16 292 r \$0.gid2lr.get;
#X obj 80 318 r \$0.gidcolorlist;
#N canvas 0 99 439 518 create.gid.buttons 0;
#X obj 60 316 r \$0.canvasleftmargin;
#X obj 28 120 f;
#X obj 28 143 t a a;
#X obj 28 417 list prepend \$0;
#X msg 70 95 0;
#X obj 81 126 + 1;
#X obj 28 317 * 30;
#X obj 28 340 +;
#X msg 62 254 1;
#N canvas 645 450 401 207 get.gid.clr 0;
#X obj 11 15 inlet;
#X obj 30 74 s \$0.gid2lr.get;
#X obj 30 98 r \$0.gid2lr.set;
#X obj 11 42 t b a b;
#X obj 11 131 list append;
#X obj 11 154 outlet;
#X connect 0 0 3 0;
#X connect 2 0 4 1;
#X connect 3 0 4 0;
#X connect 3 1 1 0;
#X connect 3 2 4 1;
#X connect 4 0 5 0;
#X restore 45 291 pd get.gid.clr;
#X obj 109 41 r \$0.gidcolorlist;
#X obj 109 64 list length;
#X obj 28 65 t a b;
#X obj 28 39 f;
#X obj 28 91 until;
#X text 49 391 x clr hl gid;
#X obj 28 370 pack f f f f, f 23;
#X obj 28 468 outlet;
#X obj 28 12 inlet;
#X msg 28 445 scalar \$1.gid.button \$2 20 \$3 \$4 \$5;
#X obj 60 339 + 200;
#X obj 28 170 t a a b a;
#X connect 0 0 20 0;
#X connect 1 0 2 0;
#X connect 2 0 21 0;
#X connect 2 1 5 0;
#X connect 3 0 19 0;
#X connect 4 0 1 1;
#X connect 5 0 1 1;
#X connect 6 0 7 0;
#X connect 7 0 16 0;
#X connect 8 0 16 2;
#X connect 9 0 16 1;
#X connect 10 0 11 0;
#X connect 11 0 13 1;
#X connect 12 0 14 0;
#X connect 12 1 4 0;
#X connect 13 0 12 0;
#X connect 14 0 1 0;
#X connect 16 0 3 0;
#X connect 18 0 13 0;
#X connect 19 0 17 0;
#X connect 20 0 7 1;
#X connect 21 0 6 0;
#X connect 21 1 9 0;
#X connect 21 2 8 0;
#X connect 21 3 16 3;
#X restore 426 103 pd create.gid.buttons;
#N canvas 0 99 450 300 create.vel.number 0;
#X obj 24 21 inlet;
#X obj 24 201 outlet;
#X obj 68 23 r \$0.canvasleftmargin;
#X obj 24 90 f;
#X obj 68 46 + 0;
#X obj 69 96 r \$0.default.vel;
#X obj 24 125 pack f f;
#X obj 24 149 list prepend \$0;
#X msg 24 172 scalar \$1.vel \$2 20 \$3;
#X connect 0 0 3 0;
#X connect 2 0 4 0;
#X connect 3 0 6 0;
#X connect 4 0 3 1;
#X connect 5 0 6 1;
#X connect 6 0 7 0;
#X connect 7 0 8 0;
#X connect 8 0 1 0;
#X restore 409 132 pd create.vel.number;
#N canvas 0 99 450 300 create.dur.number 0;
#X obj 24 21 inlet;
#X obj 24 216 outlet;
#X obj 68 23 r \$0.canvasleftmargin;
#X obj 24 90 f;
#X obj 24 125 pack f f;
#X obj 24 149 list prepend \$0;
#X msg 24 172 scalar \$1.dur \$2 20 \$3;
#X obj 69 96 r \$0.default.dur;
#X obj 68 46 + 100;
#X connect 0 0 3 0;
#X connect 2 0 8 0;
#X connect 3 0 4 0;
#X connect 4 0 5 0;
#X connect 5 0 6 0;
#X connect 6 0 1 0;
#X connect 7 0 4 1;
#X connect 8 0 3 1;
#X restore 392 160 pd create.dur.number;
#N canvas 0 99 400 241 create.show.selector 0;
#X obj 7 7 inlet;
#X obj 7 139 outlet;
#X obj 7 78 list prepend \$0;
#X msg 7 44 490 0 none \, 545 1 velocity \, 600 2 gid;
#X msg 7 106 scalar \$1.show.selector \$2 20 555 \$3 \$4;
#X connect 0 0 3 0;
#X connect 2 0 4 0;
#X connect 3 0 2 0;
#X connect 4 0 1 0;
#X restore 362 190 pd create.show.selector;
#X obj 356 61 t b b b b b;
#N canvas 0 99 450 300 gid.state 0;
#X obj 12 76 route click;
#X obj 12 99 t b p p b;
#X obj 63 145 pointer;
#X obj 63 168 t b p;
#X msg 63 217 1;
#X msg 12 211 3;
#X obj 12 52 r \$0.gid.button.send;
#X obj 12 249 set \$0.gid.button hl;
#N canvas 357 99 390 345 init.pointer 0;
#X obj 17 79 until;
#X msg 17 102 next;
#X obj 17 138 pointer \$0.gid.button;
#X obj 17 188 get \$0.gid.button gid;
#X obj 17 51 t b b;
#X obj 17 14 inlet;
#X obj 17 219 sel 0;
#X obj 63 219 r \$0.default.gid;
#X obj 17 294 outlet;
#X obj 68 54 \$0;
#X msg 68 80 traverse pd-\$1.display;
#X obj 17 242 t b b, f 23;
#X obj 17 161 t p p;
#X obj 17 265 pointer;
#X connect 0 0 1 0;
#X connect 1 0 2 0;
#X connect 2 0 12 0;
#X connect 2 2 0 1;
#X connect 3 0 6 0;
#X connect 4 0 0 0;
#X connect 4 1 9 0;
#X connect 5 0 4 0;
#X connect 6 0 11 0;
#X connect 7 0 6 1;
#X connect 9 0 10 0;
#X connect 10 0 2 0;
#X connect 11 0 13 0;
#X connect 11 1 0 1;
#X connect 12 0 3 0;
#X connect 12 1 13 1;
#X connect 13 0 8 0;
#X restore 181 93 pd init.pointer;
#X obj 181 66 inlet;
#X obj 181 116 t p b p;
#X connect 0 0 1 0;
#X connect 1 0 5 0;
#X connect 1 1 7 1;
#X connect 1 2 2 1;
#X connect 1 3 2 0;
#X connect 2 0 3 0;
#X connect 3 0 4 0;
#X connect 3 1 7 1;
#X connect 4 0 7 0;
#X connect 5 0 7 0;
#X connect 6 0 0 0;
#X connect 8 0 10 0;
#X connect 9 0 8 0;
#X connect 10 0 2 1;
#X connect 10 1 5 0;
#X connect 10 2 7 1;
#X restore 55 135 pd gid.state;
#N canvas 33 502 450 300 show.selector.state 0;
#X obj 12 76 route click;
#X obj 12 99 t b p p b;
#X obj 63 145 pointer;
#X obj 63 168 t b p;
#N canvas 246 399 398 338 init.pointer 0;
#X obj 17 79 until;
#X msg 17 102 next;
#X obj 17 51 t b b;
#X obj 17 14 inlet;
#X obj 17 217 sel 0;
#X obj 17 290 outlet;
#X obj 68 54 \$0;
#X msg 68 80 traverse pd-\$1.display;
#X obj 17 138 pointer \$0.show.selector;
#X obj 17 188 get \$0.show.selector id;
#X obj 58 215 r \$0.default.show;
#X obj 17 161 t p p;
#X obj 17 240 t b b, f 21;
#X obj 17 263 pointer;
#X connect 0 0 1 0;
#X connect 1 0 8 0;
#X connect 2 0 0 0;
#X connect 2 1 6 0;
#X connect 3 0 2 0;
#X connect 4 0 12 0;
#X connect 6 0 7 0;
#X connect 7 0 8 0;
#X connect 8 0 11 0;
#X connect 8 2 0 1;
#X connect 9 0 4 0;
#X connect 10 0 4 1;
#X connect 11 0 9 0;
#X connect 11 1 13 1;
#X connect 12 0 13 0;
#X connect 12 1 0 1;
#X connect 13 0 5 0;
#X restore 191 97 pd init.pointer;
#X obj 191 69 inlet;
#X obj 12 52 r \$0.show.selector.send;
#X msg 63 197 555;
#X msg 12 195 0;
#X obj 12 249 set \$0.show.selector hilite;
#X obj 191 120 t p b p;
#X connect 0 0 1 0;
#X connect 1 0 8 0;
#X connect 1 1 9 1;
#X connect 1 2 2 1;
#X connect 1 3 2 0;
#X connect 2 0 3 0;
#X connect 3 0 7 0;
#X connect 3 1 9 1;
#X connect 4 0 10 0;
#X connect 5 0 4 0;
#X connect 6 0 0 0;
#X connect 7 0 9 0;
#X connect 8 0 9 0;
#X connect 10 0 2 1;
#X connect 10 1 8 0;
#X connect 10 2 9 1;
#X restore 53 169 pd show.selector.state;
#X connect 0 0 11 0;
#X connect 2 0 4 0;
#X connect 3 0 2 0;
#X connect 5 0 3 0;
#X connect 6 0 2 1;
#X connect 7 0 1 0;
#X connect 8 0 1 0;
#X connect 9 0 1 0;
#X connect 10 0 1 0;
#X connect 11 0 12 0;
#X connect 11 0 13 0;
#X connect 11 1 10 0;
#X connect 11 2 9 0;
#X connect 11 3 8 0;
#X connect 11 4 7 0;
#X restore 581 475 pd create_guis;
#N canvas 0 99 813 177 gui-templates 0;
#N canvas 0 99 408 150 gid.button-template 0;
#X obj 17 26 filledpolygon clr 0 hl 0 0 0 15 15 15 15 0;
#X obj 16 99 s \$0.gid.button.send;
#X obj 16 60 struct \$0.gid.button float x float y float clr float
hl float gid;
#X connect 2 0 1 0;
#X restore 7 19 pd gid.button-template;
#N canvas 195 247 418 274 vel-template 0;
#X obj 14 11 drawnumber value 0 0 0 velocity=;
#X obj 14 230 s \$0.vel.send;
#X obj 99 138 max 0;
#X obj 99 161 min 127;
#X obj 14 35 struct \$0.vel float x float y float value;
#X obj 14 58 t a a;
#X obj 99 114 get \$0.vel value;
#X obj 99 69 route change;
#X obj 99 92 t p p;
#X obj 99 186 set \$0.vel value;
#X connect 2 0 3 0;
#X connect 3 0 9 0;
#X connect 4 0 5 0;
#X connect 5 0 1 0;
#X connect 5 1 7 0;
#X connect 6 0 2 0;
#X connect 7 0 8 0;
#X connect 8 0 6 0;
#X connect 8 1 9 1;
#X restore 8 48 pd vel-template;
#N canvas 0 99 404 252 dur-template 0;
#X obj 14 35 struct \$0.dur float x float y float value;
#X obj 14 11 drawnumber value 0 0 0 duration=;
#X obj 99 138 max 0;
#X obj 99 161 min 127;
#X obj 14 58 t a a;
#X obj 99 69 route change;
#X obj 99 92 t p p;
#X obj 99 114 get \$0.dur value;
#X obj 99 186 set \$0.dur value;
#X obj 14 230 s \$0.dur.send;
#X obj 155 159 r \$0.stepcount;
#X connect 0 0 4 0;
#X connect 2 0 3 0;
#X connect 3 0 8 0;
#X connect 4 0 9 0;
#X connect 4 1 5 0;
#X connect 5 0 6 0;
#X connect 6 0 7 0;
#X connect 6 1 8 1;
#X connect 7 0 2 0;
#X connect 10 0 3 1;
#X restore 8 76 pd dur-template;
#N canvas 489 158 450 300 show.selector-template 0;
#X obj 22 149 s \$0.show.selector.send;
#X obj 21 25 filledpolygon 777 hilite 2 0 0 0 15 55 15 55 0;
#X obj 22 53 drawsymbol label 2 1 hilite;
#X obj 22 108 struct \$0.show.selector float x float y float hilite
float id symbol label;
#X connect 3 0 0 0;
#X restore 9 102 pd show.selector-template;
#X obj 464 59 route click;
#X obj 464 107 s \$0.default.gid;
#X obj 333 35 r \$0.vel.send;
#X obj 333 81 get \$0.vel value;
#X obj 333 106 s \$0.default.vel;
#X obj 333 58 route change;
#X obj 209 55 route change;
#X obj 209 32 r \$0.dur.send;
#X obj 209 78 get \$0.dur value;
#X obj 209 103 s \$0.default.dur;
#X obj 464 36 r \$0.gid.button.send;
#X obj 464 82 get \$0.gid.button gid;
#X obj 612 60 route click;
#X obj 612 37 r \$0.show.selector.send;
#X obj 612 83 get \$0.show.selector id;
#X obj 612 108 s \$0.default.show;
#X connect 4 0 15 0;
#X connect 6 0 9 0;
#X connect 7 0 8 0;
#X connect 9 0 7 0;
#X connect 10 0 12 0;
#X connect 11 0 10 0;
#X connect 12 0 13 0;
#X connect 14 0 4 0;
#X connect 15 0 5 0;
#X connect 16 0 18 0;
#X connect 17 0 16 0;
#X connect 18 0 19 0;
#X restore 754 475 pd gui-templates;
#X obj 28 16 pianorollseq-display \$0.display;
#X obj 581 524 s \$0.display;
#X obj 704 164 r \$0.display;
#X obj 704 247 s pd-\$0.display;
#X obj 730 195 tgl 15 0 empty empty empty 17 7 0 10 -262144 -1 -1 1
1;
#X msg 730 215 vis \$1;
#N canvas 179 380 927 595 note.create 0;
#X obj 6 8 r \$0.global.receive;
#X obj 6 31 route note;
#X obj 6 54 route create;
#X text 95 56 step pitch vel dur gid;
#X obj 119 183 s \$0.active;
#X obj 196 183 s \$0.step;
#X obj 259 183 s \$0.pitch;
#X obj 417 183 s \$0.duration;
#X obj 328 183 s \$0.velocity;
#X obj 508 183 s \$0.gid;
#N canvas 0 99 391 254 prepend.id 0;
#X obj 32 58 t a b;
#X obj 113 86 array min \$0.active;
#X obj 113 109 sel 0;
#X obj 113 132 f;
#X msg 147 139 note buffer full!;
#X obj 147 163 print ERROR;
#X obj 32 22 inlet;
#X obj 32 190 outlet;
#X obj 32 156 list prepend 0;
#X connect 0 0 8 0;
#X connect 0 1 1 0;
#X connect 1 0 2 0;
#X connect 1 1 3 1;
#X connect 2 0 3 0;
#X connect 2 1 4 0;
#X connect 3 0 8 1;
#X connect 4 0 5 0;
#X connect 6 0 0 0;
#X connect 8 0 7 0;
#X restore 6 77 pd prepend.id;
#X msg 119 148 \$1 1;
#X obj 6 100 t a a;
#X msg 196 148 \$1 \$2;
#X msg 259 148 \$1 \$3;
#X msg 328 148 \$1 \$4;
#X msg 417 148 \$1 \$5;
#X msg 508 148 \$1 \$6;
#X text 20 389 x y w h id gid vel c vis;
#X obj 6 419 list prepend scalar \$0.note;
#X obj 6 442 list trim;
#X obj 6 473 s \$0.display;
#N canvas 26 99 407 242 w 0;
#X obj 7 21 inlet;
#X obj 7 145 outlet;
#X obj 7 100 *;
#X obj 22 71 r \$0.stepviswidth;
#X msg 7 44 \$5;
#X connect 0 0 4 0;
#X connect 2 0 1 0;
#X connect 3 0 2 1;
#X connect 4 0 2 0;
#X restore 86 291 pd w;
#N canvas 26 99 432 235 h 0;
#X obj 7 21 inlet;
#X obj 7 159 outlet;
#X obj 82 28 r \$0.stepvisheight;
#X obj 82 51 - 1;
#X obj 7 88 f;
#X obj 7 44 b;
#X connect 0 0 5 0;
#X connect 2 0 3 0;
#X connect 3 0 4 1;
#X connect 4 0 1 0;
#X connect 5 0 4 0;
#X restore 126 291 pd h;
#N canvas 26 99 410 257 id 0;
#X obj 7 21 inlet;
#X obj 7 211 outlet;
#X msg 7 93 \$1;
#X connect 0 0 2 0;
#X connect 2 0 1 0;
#X restore 166 291 pd id;
#N canvas 135 99 416 204 gid 0;
#X obj 7 21 inlet;
#X obj 7 137 outlet;
#X msg 7 72 \$6;
#X connect 0 0 2 0;
#X connect 2 0 1 0;
#X restore 207 291 pd gid;
#N canvas 25 99 396 215 vel 0;
#X obj 20 21 inlet;
#X obj 20 162 outlet;
#X msg 20 76 \$4;
#X connect 0 0 2 0;
#X connect 2 0 1 0;
#X restore 257 291 pd vel;
#N canvas 26 99 427 356 c 0;
#X obj 7 21 inlet;
#X obj 7 262 outlet;
#N canvas 645 450 401 207 get.gid.clr 0;
#X obj 11 15 inlet;
#X obj 30 74 s \$0.gid2lr.get;
#X obj 30 98 r \$0.gid2lr.set;
#X obj 11 42 t b a b;
#X obj 11 131 list append;
#X obj 11 154 outlet;
#X connect 0 0 3 0;
#X connect 2 0 4 1;
#X connect 3 0 4 0;
#X connect 3 1 1 0;
#X connect 3 2 4 1;
#X connect 4 0 5 0;
#X restore 7 113 pd get.gid.clr;
#N canvas 320 203 446 363 clr.* 0;
#X obj 28 62 t a a a;
#X obj 28 112 div 100;
#X obj 78 113 mod 100;
#X obj 78 136 div 10;
#X obj 128 112 mod 10;
#X obj 28 165 *;
#X obj 28 188 int;
#X obj 78 165 *;
#X obj 78 188 int;
#X obj 128 165 *;
#X obj 128 188 int;
#X obj 230 103 inlet;
#X obj 28 212 min 9;
#X obj 78 212 min 9;
#X obj 128 212 min 9;
#X obj 28 235 * 100;
#X obj 78 235 * 10;
#X obj 128 235 * 1;
#X obj 28 262 +;
#X obj 28 285 +;
#X obj 28 311 outlet;
#X obj 28 24 inlet;
#X connect 0 0 1 0;
#X connect 0 1 2 0;
#X connect 0 2 4 0;
#X connect 1 0 5 0;
#X connect 2 0 3 0;
#X connect 3 0 7 0;
#X connect 4 0 9 0;
#X connect 5 0 6 0;
#X connect 6 0 12 0;
#X connect 7 0 8 0;
#X connect 8 0 13 0;
#X connect 9 0 10 0;
#X connect 10 0 14 0;
#X connect 11 0 9 1;
#X connect 11 0 7 1;
#X connect 11 0 5 1;
#X connect 12 0 15 0;
#X connect 13 0 16 0;
#X connect 14 0 17 0;
#X connect 15 0 18 0;
#X connect 16 0 18 1;
#X connect 17 0 19 1;
#X connect 18 0 19 0;
#X connect 19 0 20 0;
#X connect 21 0 0 0;
#X restore 7 221 pd clr.*;
#X obj 7 182 f;
#X obj 128 131 t b a;
#X obj 128 108 / 113;
#X obj 7 44 t a a;
#X msg 7 82 \$6;
#X msg 128 82 \$4;
#X connect 0 0 7 0;
#X connect 2 0 4 0;
#X connect 3 0 1 0;
#X connect 4 0 3 0;
#X connect 5 0 4 0;
#X connect 5 1 3 1;
#X connect 6 0 5 0;
#X connect 7 0 8 0;
#X connect 7 1 9 0;
#X connect 8 0 2 0;
#X connect 9 0 6 0;
#X restore 307 291 pd c;
#N canvas 26 99 414 215 vis 0;
#X obj 7 21 inlet;
#X obj 7 126 outlet;
#X msg 7 74 1;
#X obj 7 44 b;
#X connect 0 0 3 0;
#X connect 2 0 1 0;
#X connect 3 0 2 0;
#X restore 347 291 pd vis;
#N canvas 26 99 407 242 x 0;
#X obj 7 21 inlet;
#X obj 7 185 outlet;
#X obj 41 120 r \$0.stepviswidth;
#X obj 7 121 *;
#X obj 7 154 +;
#X obj 40 154 r \$0.canvasleftmargin;
#X msg 7 44 \$2;
#X connect 0 0 6 0;
#X connect 2 0 3 1;
#X connect 3 0 4 0;
#X connect 4 0 1 0;
#X connect 5 0 4 1;
#X connect 6 0 3 0;
#X restore 6 291 pd x;
#N canvas 26 294 432 235 y 0;
#X obj 7 21 inlet;
#X obj 7 169 outlet;
#X obj 7 101 *;
#X obj 7 134 +;
#X obj 41 100 r \$0.stepvisheight;
#X obj 40 134 r \$0.canvastopmargin;
#X obj 7 73 -;
#X msg 7 48 83 \$3;
#X connect 0 0 7 0;
#X connect 2 0 3 0;
#X connect 3 0 1 0;
#X connect 4 0 2 1;
#X connect 5 0 3 1;
#X connect 6 0 2 0;
#X connect 7 0 6 0;
#X restore 46 291 pd y;
#X obj 6 252 t a a a a a a a a a, f 57;
#X obj 6 355 pack f f f f f f f f f, f 57;
#X connect 0 0 1 0;
#X connect 1 0 2 0;
#X connect 2 0 10 0;
#X connect 10 0 12 0;
#X connect 11 0 4 0;
#X connect 12 0 31 0;
#X connect 12 1 11 0;
#X connect 12 1 13 0;
#X connect 12 1 14 0;
#X connect 12 1 15 0;
#X connect 12 1 16 0;
#X connect 12 1 17 0;
#X connect 13 0 5 0;
#X connect 14 0 6 0;
#X connect 15 0 8 0;
#X connect 16 0 7 0;
#X connect 17 0 9 0;
#X connect 19 0 20 0;
#X connect 20 0 21 0;
#X connect 22 0 32 2;
#X connect 23 0 32 3;
#X connect 24 0 32 4;
#X connect 25 0 32 5;
#X connect 26 0 32 6;
#X connect 27 0 32 7;
#X connect 28 0 32 8;
#X connect 29 0 32 0;
#X connect 30 0 32 1;
#X connect 31 0 29 0;
#X connect 31 1 30 0;
#X connect 31 2 22 0;
#X connect 31 3 23 0;
#X connect 31 4 24 0;
#X connect 31 5 25 0;
#X connect 31 6 26 0;
#X connect 31 7 27 0;
#X connect 31 8 28 0;
#X connect 32 0 19 0;
#X restore 43 264 pd note.create;
#X obj 258 91 r \$0.global.send;
#X obj 258 160 s \$0.global.receive;
#X obj 258 114 t a a;
#X obj 285 138 print ACTIONS;
#N canvas 260 321 300 366 note.delete 0;
#X obj 6 8 r \$0.global.receive;
#X obj 6 31 route note;
#X obj 6 54 route delete;
#X obj 6 292 s \$0.active;
#X msg 6 265 \$1 0;
#N canvas 126 411 388 279 resolve.note 0;
#X obj 39 95 r \$0.resolve.note.receive;
#X obj 39 72 s \$0.resolve.note.send;
#X obj 20 224 pointer;
#X obj 20 17 inlet;
#X obj 20 46 t b a b;
#X obj 20 174 f;
#X obj 20 197 sel 1;
#X obj 39 118 t b p;
#X msg 39 142 1;
#X msg 107 141 0;
#X obj 20 247 outlet;
#X connect 0 0 7 0;
#X connect 2 0 10 0;
#X connect 3 0 4 0;
#X connect 4 0 5 0;
#X connect 4 1 1 0;
#X connect 4 2 9 0;
#X connect 5 0 6 0;
#X connect 6 0 2 0;
#X connect 7 0 8 0;
#X connect 7 1 2 1;
#X connect 8 0 5 1;
#X connect 9 0 5 1;
#X restore 6 101 pd resolve.note;
#X obj 6 138 t p p;
#X obj 6 186 get \$0.note id;
#X obj 133 300 set \$0.note x y vis;
#X obj 133 251 t b b b p, f 19;
#X msg 170 275 5;
#X msg 133 274 5;
#X msg 207 274 0;
#X connect 0 0 1 0;
#X connect 1 0 2 0;
#X connect 2 0 5 0;
#X connect 4 0 3 0;
#X connect 5 0 6 0;
#X connect 6 0 7 0;
#X connect 6 1 9 0;
#X connect 7 0 4 0;
#X connect 9 0 11 0;
#X connect 9 1 10 0;
#X connect 9 2 12 0;
#X connect 9 3 8 3;
#X connect 10 0 8 1;
#X connect 11 0 8 0;
#X connect 12 0 8 2;
#X restore 43 287 pd note.delete;
#X text 50 69 generate events;
#X text 42 205 process events;
#N canvas 0 99 406 517 note.change.duration 0;
#X obj 14 19 r \$0.note.send;
#X obj 14 246 change -1;
#X obj 107 164 t a a;
#X obj 14 108 /;
#X obj 43 108 r \$0.stepviswidth;
#X obj 134 190 tabread \$0.duration;
#X msg 134 215 set \$1;
#X obj 107 284 t a a;
#X obj 107 327 tabread \$0.step;
#X obj 134 306 tabread \$0.pitch;
#X obj 107 353 pack f f;
#X obj 14 376 list prepend;
#X obj 14 404 list prepend note change duration;
#X obj 14 427 list trim;
#X obj 14 455 s \$0.global.send;
#X obj 107 138 change -1;
#X obj 14 85 get \$0.note w;
#X obj 14 42 route change click;
#X obj 108 76 get \$0.note id;
#X connect 0 0 17 0;
#X connect 1 0 11 0;
#X connect 2 0 7 0;
#X connect 2 1 5 0;
#X connect 3 0 1 0;
#X connect 4 0 3 1;
#X connect 5 0 6 0;
#X connect 6 0 1 0;
#X connect 7 0 8 0;
#X connect 7 1 9 0;
#X connect 8 0 10 0;
#X connect 9 0 10 1;
#X connect 10 0 11 1;
#X connect 11 0 12 0;
#X connect 12 0 13 0;
#X connect 13 0 14 0;
#X connect 15 0 2 0;
#X connect 16 0 3 0;
#X connect 17 0 16 0;
#X connect 17 1 18 0;
#X connect 18 0 15 0;
#X restore 38 118 pd note.change.duration;
#N canvas 134 99 590 523 note.create/delete 0;
#X obj 29 235 del 0;
#X obj 29 262 f;
#X msg 72 238 1;
#X msg 254 191 0;
#X obj 29 288 sel 1;
#N canvas 0 99 483 432 detect_double_click 0;
#X obj 91 101 -;
#X obj 90 76 t a a;
#X obj 19 23 inlet;
#X text 109 21 this detects two clicks on the same scalar within a
certain period.;
#X obj 19 75 t b b;
#X obj 19 99 del 300;
#X msg 19 122 0;
#X msg 52 123 1;
#X obj 19 48 t b a;
#X obj 91 166 spigot 0;
#X obj 91 203 outlet;
#X obj 91 126 sel 0;
#X connect 0 0 11 0;
#X connect 1 0 0 1;
#X connect 1 1 0 0;
#X connect 2 0 8 0;
#X connect 4 0 5 0;
#X connect 4 1 7 0;
#X connect 5 0 6 0;
#X connect 6 0 9 1;
#X connect 7 0 9 1;
#X connect 8 0 4 0;
#X connect 8 1 1 0;
#X connect 9 0 10 0;
#X connect 11 0 9 0;
#X restore 281 255 pd detect_double_click;
#X obj 254 109 unpack s p f;
#X obj 254 132 sel click;
#X obj 254 154 t b b;
#X obj 281 178 pointer;
#X obj 29 14 r \$0.horizgrid.send;
#X obj 29 37 route click;
#X obj 29 60 get \$0.horizgrid y;
#X obj 74 105 route click;
#X obj 74 82 r \$0.vertgrid.send;
#X obj 29 153 pack f f;
#X obj 74 128 get \$0.vertgrid x;
#X obj 29 202 t b b a;
#X obj 29 315 list append;
#X msg 29 176 \$2 \$1;
#X obj 254 79 r \$0.note.send;
#X text 103 318 x y;
#X obj 281 301 f;
#N canvas 93 100 413 278 convert.to.step.pitch 0;
#X obj 17 17 inlet;
#X obj 17 230 outlet;
#X obj 17 44 unpack f f;
#X obj 17 92 -;
#X obj 45 92 r \$0.canvasleftmargin;
#X obj 17 116 /;
#X obj 45 116 r \$0.stepviswidth;
#X obj 187 92 -;
#X obj 187 116 /;
#X obj 215 92 r \$0.canvastopmargin;
#X obj 215 116 r \$0.stepvisheight;
#X msg 187 141 83 \$1;
#X obj 187 164 -;
#X obj 17 189 pack f f;
#X connect 0 0 2 0;
#X connect 2 0 3 0;
#X connect 2 1 7 0;
#X connect 3 0 5 0;
#X connect 4 0 3 1;
#X connect 5 0 13 0;
#X connect 6 0 5 1;
#X connect 7 0 8 0;
#X connect 8 0 11 0;
#X connect 9 0 7 1;
#X connect 10 0 8 1;
#X connect 11 0 12 0;
#X connect 12 0 13 1;
#X connect 13 0 1 0;
#X restore 29 338 pd convert.to.step.pitch;
#X text 72 357 step pitch;
#N canvas 0 132 318 251 append.vel.dur.gid 0;
#X obj 12 18 inlet;
#X obj 12 199 outlet;
#X obj 95 55 r \$0.default.vel;
#X obj 95 85 r \$0.default.dur;
#X obj 95 115 r \$0.default.gid;
#X obj 12 73 list append;
#X obj 12 103 list append;
#X obj 12 133 list append;
#X connect 0 0 5 0;
#X connect 2 0 5 1;
#X connect 3 0 6 1;
#X connect 4 0 7 1;
#X connect 5 0 6 0;
#X connect 6 0 7 0;
#X connect 7 0 1 0;
#X restore 29 374 pd append.vel.dur.gid;
#X text 33 393 step pitch vel dur gid;
#X obj 29 409 list prepend note create;
#X obj 29 432 list trim;
#X obj 29 455 s \$0.global.send;
#X obj 281 209 get \$0.note id;
#X obj 281 278 b;
#X obj 281 232 t a a;
#X obj 281 327 t a a;
#X obj 281 397 pack f f;
#X obj 281 373 tabread \$0.step;
#X obj 308 352 tabread \$0.pitch;
#X obj 281 442 list trim;
#X obj 281 465 s \$0.global.send;
#X obj 281 419 list prepend note delete;
#X connect 0 0 1 0;
#X connect 1 0 4 0;
#X connect 2 0 1 1;
#X connect 3 0 1 1;
#X connect 4 0 18 0;
#X connect 5 0 31 0;
#X connect 6 0 7 0;
#X connect 6 1 9 1;
#X connect 7 0 8 0;
#X connect 8 0 3 0;
#X connect 8 1 9 0;
#X connect 9 0 30 0;
#X connect 10 0 11 0;
#X connect 11 0 12 0;
#X connect 12 0 15 0;
#X connect 13 0 16 0;
#X connect 14 0 13 0;
#X connect 15 0 19 0;
#X connect 16 0 15 1;
#X connect 17 0 0 0;
#X connect 17 1 2 0;
#X connect 17 2 18 1;
#X connect 18 0 23 0;
#X connect 19 0 17 0;
#X connect 20 0 6 0;
#X connect 22 0 33 0;
#X connect 23 0 25 0;
#X connect 25 0 27 0;
#X connect 27 0 28 0;
#X connect 28 0 29 0;
#X connect 30 0 32 0;
#X connect 31 0 22 0;
#X connect 32 0 5 0;
#X connect 32 1 22 1;
#X connect 33 0 35 0;
#X connect 33 1 36 0;
#X connect 34 0 39 0;
#X connect 35 0 34 0;
#X connect 36 0 34 1;
#X connect 37 0 38 0;
#X connect 39 0 37 0;
#X restore 39 93 pd note.create/delete;
#N canvas 0 99 406 517 note.change.velocity 0;
#X obj 14 19 r \$0.note.send;
#X obj 14 42 route change;
#X obj 14 226 change -1;
#X obj 120 144 t a a;
#X msg 147 195 set \$1;
#X obj 120 264 t a a;
#X obj 120 307 tabread \$0.step;
#X obj 147 286 tabread \$0.pitch;
#X obj 120 333 pack f f;
#X obj 14 356 list prepend;
#X obj 14 407 list trim;
#X obj 14 435 s \$0.global.send;
#X obj 120 118 change -1;
#X obj 14 65 get \$0.note vel id;
#X obj 147 170 tabread \$0.velocity;
#X obj 14 384 list prepend note change velocity;
#X connect 0 0 1 0;
#X connect 1 0 13 0;
#X connect 2 0 9 0;
#X connect 3 0 5 0;
#X connect 3 1 14 0;
#X connect 4 0 2 0;
#X connect 5 0 6 0;
#X connect 5 1 7 0;
#X connect 6 0 8 0;
#X connect 7 0 8 1;
#X connect 8 0 9 1;
#X connect 9 0 15 0;
#X connect 10 0 11 0;
#X connect 12 0 3 0;
#X connect 13 0 2 0;
#X connect 13 1 12 0;
#X connect 14 0 4 0;
#X connect 15 0 10 0;
#X restore 38 143 pd note.change.velocity;
#N canvas 258 157 507 554 resolve.note 0;
#X obj 40 226 pointer \$0.note;
#X msg 90 193 traverse pd-\$1.display;
#X obj 40 164 until;
#X msg 40 187 next;
#X obj 40 135 t b b;
#X obj 90 167 f \$0;
#N canvas 26 99 407 242 x 0;
#X obj 7 21 inlet;
#X obj 7 185 outlet;
#X obj 41 120 r \$0.stepviswidth;
#X obj 7 121 *;
#X obj 7 154 +;
#X obj 40 154 r \$0.canvasleftmargin;
#X connect 0 0 3 0;
#X connect 2 0 3 1;
#X connect 3 0 4 0;
#X connect 4 0 1 0;
#X connect 5 0 4 1;
#X restore 281 191 pd x;
#N canvas 26 294 432 235 y 0;
#X obj 7 21 inlet;
#X obj 7 169 outlet;
#X obj 7 101 *;
#X obj 7 134 +;
#X obj 41 100 r \$0.stepvisheight;
#X obj 40 134 r \$0.canvastopmargin;
#X obj 7 73 -;
#X msg 7 48 83 \$1;
#X connect 0 0 7 0;
#X connect 2 0 3 0;
#X connect 3 0 1 0;
#X connect 4 0 2 1;
#X connect 5 0 3 1;
#X connect 6 0 2 0;
#X connect 7 0 6 0;
#X restore 338 191 pd y;
#X obj 281 140 unpack f f;
#X obj 40 305 get \$0.note x y id;
#X obj 40 382 f;
#X obj 40 346 sel 0;
#X obj 40 405 sel 0;
#X obj 187 347 print ERROR;
#X obj 40 460 pointer;
#X obj 187 297 list append;
#X obj 40 95 t b a a;
#X text 26 11 This takes "step pitch" coordinates and returns a pointer
to the note (or prints a 'not found' error);
#X obj 40 63 r \$0.resolve.note.send;
#X obj 40 488 s \$0.resolve.note.receive;
#X obj 127 258 t b b b;
#X msg 187 322 note (\$1 \$2) not found;
#X obj 40 249 t p p;
#X obj 40 428 t b b, f 20;
#X connect 0 0 22 0;
#X connect 0 2 20 0;
#X connect 1 0 0 0;
#X connect 2 0 3 0;
#X connect 3 0 0 0;
#X connect 4 0 2 0;
#X connect 4 1 5 0;
#X connect 5 0 1 0;
#X connect 6 0 11 1;
#X connect 7 0 12 1;
#X connect 8 0 6 0;
#X connect 8 1 7 0;
#X connect 9 0 11 0;
#X connect 9 1 10 1;
#X connect 10 0 12 0;
#X connect 11 0 10 0;
#X connect 12 0 23 0;
#X connect 14 0 19 0;
#X connect 15 0 21 0;
#X connect 16 0 4 0;
#X connect 16 1 15 1;
#X connect 16 2 8 0;
#X connect 18 0 16 0;
#X connect 20 0 2 1;
#X connect 20 2 15 0;
#X connect 21 0 13 0;
#X connect 22 0 9 0;
#X connect 22 1 14 1;
#X connect 23 0 14 0;
#X connect 23 1 2 1;
#X restore 42 237 pd resolve.note;
#N canvas 132 109 397 442 note.change.duration 0;
#X obj 6 8 r \$0.global.receive;
#X obj 6 31 route note;
#N canvas 126 411 388 279 resolve.note 0;
#X obj 39 95 r \$0.resolve.note.receive;
#X obj 39 72 s \$0.resolve.note.send;
#X obj 20 224 pointer;
#X obj 20 17 inlet;
#X obj 20 46 t b a b;
#X obj 20 174 f;
#X obj 20 197 sel 1;
#X obj 39 118 t b p;
#X msg 39 142 1;
#X msg 107 141 0;
#X obj 20 247 outlet;
#X connect 0 0 7 0;
#X connect 2 0 10 0;
#X connect 3 0 4 0;
#X connect 4 0 5 0;
#X connect 4 1 1 0;
#X connect 4 2 9 0;
#X connect 5 0 6 0;
#X connect 6 0 2 0;
#X connect 7 0 8 0;
#X connect 7 1 2 1;
#X connect 8 0 5 1;
#X connect 9 0 5 1;
#X restore 152 212 pd resolve.note;
#X obj 152 240 t p p;
#X obj 152 268 get \$0.note id;
#X obj 6 54 route change;
#X obj 6 77 route duration;
#X obj 6 100 t a a;
#X msg 6 162 \$3;
#X msg 152 186 \$1 \$2;
#X obj 6 261 t a a;
#X obj 6 317 pack f f;
#X msg 6 351 \$2 \$1;
#X obj 6 379 s \$0.duration;
#X obj 127 379 set \$0.note w;
#X obj 159 322 r \$0.stepviswidth;
#X obj 127 321 *;
#X connect 0 0 1 0;
#X connect 1 0 5 0;
#X connect 2 0 3 0;
#X connect 3 0 4 0;
#X connect 3 1 14 1;
#X connect 4 0 11 1;
#X connect 5 0 6 0;
#X connect 6 0 7 0;
#X connect 7 0 8 0;
#X connect 7 1 9 0;
#X connect 8 0 10 0;
#X connect 9 0 2 0;
#X connect 10 0 11 0;
#X connect 10 1 16 0;
#X connect 11 0 12 0;
#X connect 12 0 13 0;
#X connect 15 0 16 1;
#X connect 16 0 14 0;
#X restore 43 310 pd note.change.duration;
#X obj 234 392 s \$0.global.receive;
#X msg 266 332 note change duration 0 63 \$1;
#N canvas 202 202 535 609 note.change.velocity 0;
#X obj 6 8 r \$0.global.receive;
#X obj 6 31 route note;
#N canvas 126 411 388 279 resolve.note 0;
#X obj 39 95 r \$0.resolve.note.receive;
#X obj 39 72 s \$0.resolve.note.send;
#X obj 20 224 pointer;
#X obj 20 17 inlet;
#X obj 20 46 t b a b;
#X obj 20 174 f;
#X obj 20 197 sel 1;
#X obj 39 118 t b p;
#X msg 39 142 1;
#X msg 107 141 0;
#X obj 20 247 outlet;
#X connect 0 0 7 0;
#X connect 2 0 10 0;
#X connect 3 0 4 0;
#X connect 4 0 5 0;
#X connect 4 1 1 0;
#X connect 4 2 9 0;
#X connect 5 0 6 0;
#X connect 6 0 2 0;
#X connect 7 0 8 0;
#X connect 7 1 2 1;
#X connect 8 0 5 1;
#X connect 9 0 5 1;
#X restore 51 169 pd resolve.note;
#X obj 51 197 t p p;
#X obj 6 54 route change;
#X obj 6 100 t a a;
#X msg 6 162 \$3;
#X msg 51 143 \$1 \$2;
#X obj 6 317 pack f f;
#X msg 6 351 \$2 \$1;
#X obj 6 77 route velocity;
#X obj 6 417 s \$0.velocity;
#N canvas 645 450 401 207 get.gid.clr 0;
#X obj 11 15 inlet;
#X obj 30 74 s \$0.gid2lr.get;
#X obj 30 98 r \$0.gid2lr.set;
#X obj 11 42 t b a b;
#X obj 11 131 list append;
#X obj 11 154 outlet;
#X connect 0 0 3 0;
#X connect 2 0 4 1;
#X connect 3 0 4 0;
#X connect 3 1 1 0;
#X connect 3 2 4 1;
#X connect 4 0 5 0;
#X restore 141 345 pd get.gid.clr;
#N canvas 320 203 446 363 clr.* 0;
#X obj 28 62 t a a a;
#X obj 28 112 div 100;
#X obj 78 113 mod 100;
#X obj 78 136 div 10;
#X obj 128 112 mod 10;
#X obj 28 165 *;
#X obj 28 188 int;
#X obj 78 165 *;
#X obj 78 188 int;
#X obj 128 165 *;
#X obj 128 188 int;
#X obj 230 103 inlet;
#X obj 28 212 min 9;
#X obj 78 212 min 9;
#X obj 128 212 min 9;
#X obj 28 235 * 100;
#X obj 78 235 * 10;
#X obj 128 235 * 1;
#X obj 28 262 +;
#X obj 28 285 +;
#X obj 28 311 outlet;
#X obj 28 24 inlet;
#X connect 0 0 1 0;
#X connect 0 1 2 0;
#X connect 0 2 4 0;
#X connect 1 0 5 0;
#X connect 2 0 3 0;
#X connect 3 0 7 0;
#X connect 4 0 9 0;
#X connect 5 0 6 0;
#X connect 6 0 12 0;
#X connect 7 0 8 0;
#X connect 8 0 13 0;
#X connect 9 0 10 0;
#X connect 10 0 14 0;
#X connect 11 0 9 1;
#X connect 11 0 7 1;
#X connect 11 0 5 1;
#X connect 12 0 15 0;
#X connect 13 0 16 0;
#X connect 14 0 17 0;
#X connect 15 0 18 0;
#X connect 16 0 18 1;
#X connect 17 0 19 1;
#X connect 18 0 19 0;
#X connect 19 0 20 0;
#X connect 21 0 0 0;
#X restore 141 379 pd clr.*;
#X obj 187 318 / 113;
#X obj 51 224 get \$0.note id gid;
#X obj 92 416 set \$0.note vel c;
#X obj 6 261 t a a a;
#X obj 141 317 f;
#X obj 141 291 t b a;
#X connect 0 0 1 0;
#X connect 1 0 4 0;
#X connect 2 0 3 0;
#X connect 3 0 15 0;
#X connect 3 1 16 2;
#X connect 4 0 10 0;
#X connect 5 0 6 0;
#X connect 5 1 7 0;
#X connect 6 0 17 0;
#X connect 7 0 2 0;
#X connect 8 0 9 0;
#X connect 9 0 11 0;
#X connect 10 0 5 0;
#X connect 12 0 13 0;
#X connect 13 0 16 1;
#X connect 14 0 13 1;
#X connect 15 0 8 1;
#X connect 15 1 18 1;
#X connect 17 0 8 0;
#X connect 17 1 16 0;
#X connect 17 2 19 0;
#X connect 18 0 12 0;
#X connect 19 0 18 0;
#X connect 19 1 14 0;
#X restore 43 333 pd note.change.velocity;
#X msg 234 298 note change velocity 16 72 120;
#N canvas 0 99 406 517 note.change.gid 0;
#X obj 14 19 r \$0.note.send;
#X obj 14 42 route change;
#X obj 14 226 change -1;
#X obj 119 144 t a a;
#X msg 146 195 set \$1;
#X obj 119 264 t a a;
#X obj 119 307 tabread \$0.step;
#X obj 146 286 tabread \$0.pitch;
#X obj 119 333 pack f f;
#X obj 14 356 list prepend;
#X obj 14 407 list trim;
#X obj 14 435 s \$0.global.send;
#X obj 119 118 change -1;
#X obj 146 170 tabread \$0.gid;
#X obj 14 384 list prepend note change gid;
#X obj 14 65 get \$0.note gid id;
#X connect 0 0 1 0;
#X connect 1 0 15 0;
#X connect 2 0 9 0;
#X connect 3 0 5 0;
#X connect 3 1 13 0;
#X connect 4 0 2 0;
#X connect 5 0 6 0;
#X connect 5 1 7 0;
#X connect 6 0 8 0;
#X connect 7 0 8 1;
#X connect 8 0 9 1;
#X connect 9 0 14 0;
#X connect 10 0 11 0;
#X connect 12 0 3 0;
#X connect 13 0 4 0;
#X connect 14 0 10 0;
#X connect 15 0 2 0;
#X connect 15 1 12 0;
#X restore 38 167 pd note.change.gid;
#N canvas 202 202 535 609 note.change.gid 0;
#X obj 6 8 r \$0.global.receive;
#X obj 6 31 route note;
#N canvas 126 411 388 279 resolve.note 0;
#X obj 39 95 r \$0.resolve.note.receive;
#X obj 39 72 s \$0.resolve.note.send;
#X obj 20 224 pointer;
#X obj 20 17 inlet;
#X obj 20 46 t b a b;
#X obj 20 174 f;
#X obj 20 197 sel 1;
#X obj 39 118 t b p;
#X msg 39 142 1;
#X msg 107 141 0;
#X obj 20 247 outlet;
#X connect 0 0 7 0;
#X connect 2 0 10 0;
#X connect 3 0 4 0;
#X connect 4 0 5 0;
#X connect 4 1 1 0;
#X connect 4 2 9 0;
#X connect 5 0 6 0;
#X connect 6 0 2 0;
#X connect 7 0 8 0;
#X connect 7 1 2 1;
#X connect 8 0 5 1;
#X connect 9 0 5 1;
#X restore 51 169 pd resolve.note;
#X obj 51 197 t p p;
#X obj 6 54 route change;
#X obj 6 100 t a a;
#X msg 6 162 \$3;
#X msg 51 143 \$1 \$2;
#X obj 6 317 pack f f;
#X msg 6 351 \$2 \$1;
#N canvas 645 450 401 207 get.gid.clr 0;
#X obj 11 15 inlet;
#X obj 30 74 s \$0.gid2lr.get;
#X obj 30 98 r \$0.gid2lr.set;
#X obj 11 42 t b a b;
#X obj 11 131 list append;
#X obj 11 154 outlet;
#X connect 0 0 3 0;
#X connect 2 0 4 1;
#X connect 3 0 4 0;
#X connect 3 1 1 0;
#X connect 3 2 4 1;
#X connect 4 0 5 0;
#X restore 141 345 pd get.gid.clr;
#N canvas 320 203 446 363 clr.* 0;
#X obj 28 62 t a a a;
#X obj 28 112 div 100;
#X obj 78 113 mod 100;
#X obj 78 136 div 10;
#X obj 128 112 mod 10;
#X obj 28 165 *;
#X obj 28 188 int;
#X obj 78 165 *;
#X obj 78 188 int;
#X obj 128 165 *;
#X obj 128 188 int;
#X obj 230 103 inlet;
#X obj 28 212 min 9;
#X obj 78 212 min 9;
#X obj 128 212 min 9;
#X obj 28 235 * 100;
#X obj 78 235 * 10;
#X obj 128 235 * 1;
#X obj 28 262 +;
#X obj 28 285 +;
#X obj 28 311 outlet;
#X obj 28 24 inlet;
#X connect 0 0 1 0;
#X connect 0 1 2 0;
#X connect 0 2 4 0;
#X connect 1 0 5 0;
#X connect 2 0 3 0;
#X connect 3 0 7 0;
#X connect 4 0 9 0;
#X connect 5 0 6 0;
#X connect 6 0 12 0;
#X connect 7 0 8 0;
#X connect 8 0 13 0;
#X connect 9 0 10 0;
#X connect 10 0 14 0;
#X connect 11 0 9 1;
#X connect 11 0 7 1;
#X connect 11 0 5 1;
#X connect 12 0 15 0;
#X connect 13 0 16 0;
#X connect 14 0 17 0;
#X connect 15 0 18 0;
#X connect 16 0 18 1;
#X connect 17 0 19 1;
#X connect 18 0 19 0;
#X connect 19 0 20 0;
#X connect 21 0 0 0;
#X restore 141 379 pd clr.*;
#X obj 187 318 / 113;
#X obj 6 261 t a a a;
#X obj 6 77 route gid;
#X obj 6 417 s \$0.gid;
#X obj 92 416 set \$0.note gid c;
#X obj 51 224 get \$0.note id vel;
#X connect 0 0 1 0;
#X connect 1 0 4 0;
#X connect 2 0 3 0;
#X connect 3 0 17 0;
#X connect 3 1 16 2;
#X connect 4 0 14 0;
#X connect 5 0 6 0;
#X connect 5 1 7 0;
#X connect 6 0 13 0;
#X connect 7 0 2 0;
#X connect 8 0 9 0;
#X connect 9 0 15 0;
#X connect 10 0 11 0;
#X connect 11 0 16 1;
#X connect 12 0 11 1;
#X connect 13 0 8 0;
#X connect 13 1 16 0;
#X connect 13 2 10 0;
#X connect 14 0 5 0;
#X connect 17 0 8 1;
#X connect 17 1 12 0;
#X restore 43 356 pd note.change.gid;
#X msg 283 358 note change gid 16 58 4;
#X msg 437 61 \; \$1.stepcount 64 \; \$1.pitchrange 48 \; \$1.stepviswidth
15 \; \$1.stepvisheight 14 \; \$1.canvastopmargin 60 \; \$1.canvasleftmargin
90 \; \$1.stepkeycolor1 887 \; \$1.stepkeycolor2 777 \; \$1.griddivision
4 \; \$1.gridsubdivision 4 \; \$1.gidcolorlist 800 840 80 88 8 808
\; \$1.default.vel 64 \; \$1.default.gid 0 \; \$1.default.dur 4 \;
\$1.default.show 0 \; \$1.init bang \;;
#X obj 78 465 text define \$0.sequence;
#N canvas 412 166 561 399 sequencer 0;
#N canvas 0 256 338 287 note.create 0;
#X obj 24 16 r \$0.global.receive;
#X obj 24 39 route note;
#X obj 24 62 route create;
#X msg 124 173 \$1 \$2 \$3;
#X msg 24 123 \$1 \$4;
#X obj 24 146 +;
#X obj 24 85 t a a a;
#X obj 24 173 pack f f 0;
#X msg 68 125 \$2;
#X obj 24 235 s \$0.sequencer.event.add.pre;
#X obj 124 205 s \$0.sequencer.event.add.post;
#X connect 0 0 1 0;
#X connect 1 0 2 0;
#X connect 2 0 6 0;
#X connect 3 0 10 0;
#X connect 4 0 5 0;
#X connect 5 0 7 0;
#X connect 6 0 4 0;
#X connect 6 1 8 0;
#X connect 6 2 3 0;
#X connect 7 0 9 0;
#X connect 8 0 7 1;
#X restore 13 19 pd note.create;
#N canvas 0 99 415 397 note.delete 0;
#X obj 24 16 r \$0.global.receive;
#X obj 24 39 route note;
#X obj 24 62 route delete;
#N canvas 126 411 388 279 resolve.note 0;
#X obj 39 95 r \$0.resolve.note.receive;
#X obj 39 72 s \$0.resolve.note.send;
#X obj 20 224 pointer;
#X obj 20 17 inlet;
#X obj 20 46 t b a b;
#X obj 20 174 f;
#X obj 20 197 sel 1;
#X obj 39 118 t b p;
#X msg 39 142 1;
#X msg 107 141 0;
#X obj 20 247 outlet;
#X connect 0 0 7 0;
#X connect 2 0 10 0;
#X connect 3 0 4 0;
#X connect 4 0 5 0;
#X connect 4 1 1 0;
#X connect 4 2 9 0;
#X connect 5 0 6 0;
#X connect 6 0 2 0;
#X connect 7 0 8 0;
#X connect 7 1 2 1;
#X connect 8 0 5 1;
#X connect 9 0 5 1;
#X restore 102 141 pd resolve.note;
#X obj 102 166 get \$0.note id;
#X obj 102 189 tabread \$0.duration;
#X msg 83 209 \$1;
#X obj 83 236 +;
#X obj 83 115 t a a a;
#X obj 83 262 pack f f;
#X msg 127 233 \$2;
#X obj 24 85 t a a;
#X obj 24 297 s \$0.sequencer.event.remove;
#X connect 0 0 1 0;
#X connect 1 0 2 0;
#X connect 2 0 11 0;
#X connect 3 0 4 0;
#X connect 4 0 5 0;
#X connect 5 0 7 1;
#X connect 6 0 7 0;
#X connect 7 0 9 0;
#X connect 8 0 6 0;
#X connect 8 1 3 0;
#X connect 8 2 10 0;
#X connect 9 0 12 0;
#X connect 10 0 9 1;
#X connect 11 0 12 0;
#X connect 11 1 8 0;
#X restore 13 42 pd note.delete;
#N canvas 0 99 463 481 note.change.duration 0;
#X obj 24 16 r \$0.global.receive;
#X obj 24 39 route note;
#N canvas 126 411 388 279 resolve.note 0;
#X obj 39 95 r \$0.resolve.note.receive;
#X obj 39 72 s \$0.resolve.note.send;
#X obj 20 224 pointer;
#X obj 20 17 inlet;
#X obj 20 46 t b a b;
#X obj 20 174 f;
#X obj 20 197 sel 1;
#X obj 39 118 t b p;
#X msg 39 142 1;
#X msg 107 141 0;
#X obj 20 247 outlet;
#X connect 0 0 7 0;
#X connect 2 0 10 0;
#X connect 3 0 4 0;
#X connect 4 0 5 0;
#X connect 4 1 1 0;
#X connect 4 2 9 0;
#X connect 5 0 6 0;
#X connect 6 0 2 0;
#X connect 7 0 8 0;
#X connect 7 1 2 1;
#X connect 8 0 5 1;
#X connect 9 0 5 1;
#X restore 215 221 pd resolve.note;
#X obj 215 246 get \$0.note id;
#X obj 215 269 tabread \$0.duration;
#X msg 196 289 \$1;
#X obj 196 316 +;
#X obj 196 195 t a a a;
#X obj 196 342 pack f f;
#X msg 240 313 \$2;
#X obj 24 109 t a a;
#X obj 24 62 route change;
#X obj 24 85 route duration;
#X msg 196 163 \$1 \$2;
#X obj 24 173 t a a;
#X msg 24 196 \$1 \$3;
#X obj 24 219 +;
#X obj 24 250 pack f f 0;
#X msg 56 224 \$2;
#X obj 196 369 s \$0.sequencer.event.remove;
#X obj 24 278 s \$0.sequencer.event.add.pre;
#X connect 0 0 1 0;
#X connect 1 0 11 0;
#X connect 2 0 3 0;
#X connect 3 0 4 0;
#X connect 4 0 6 1;
#X connect 5 0 6 0;
#X connect 6 0 8 0;
#X connect 7 0 5 0;
#X connect 7 1 2 0;
#X connect 7 2 9 0;
#X connect 8 0 19 0;
#X connect 9 0 8 1;
#X connect 10 0 14 0;
#X connect 10 1 13 0;
#X connect 11 0 12 0;
#X connect 12 0 10 0;
#X connect 13 0 7 0;
#X connect 14 0 15 0;
#X connect 14 1 18 0;
#X connect 15 0 16 0;
#X connect 16 0 17 0;
#X connect 17 0 20 0;
#X connect 18 0 17 1;
#X restore 13 66 pd note.change.duration;
#N canvas 604 608 577 279 event.add 0;
#X obj 16 37 t a a;
#X msg 71 59 \$1;
#X obj 71 107 sel -1;
#X msg 71 132 1e+09;
#X obj 16 158 text insert \$0.sequence;
#X obj 71 84 text search \$0.sequence > 0;
#X obj 16 11 r \$0.sequencer.event.add.post;
#X obj 256 37 t a a;
#X msg 311 59 \$1;
#X obj 311 127 sel -1;
#X msg 311 152 1e+09;
#X obj 256 184 text insert \$0.sequence;
#X obj 256 11 r \$0.sequencer.event.add.pre;
#X obj 311 104 text search \$0.sequence > 0;
#X obj 311 82 - 1;
#X connect 0 0 4 0;
#X connect 0 1 1 0;
#X connect 1 0 5 0;
#X connect 2 0 3 0;
#X connect 2 1 4 1;
#X connect 3 0 4 1;
#X connect 5 0 2 0;
#X connect 6 0 0 0;
#X connect 7 0 11 0;
#X connect 7 1 8 0;
#X connect 8 0 14 0;
#X connect 9 0 10 0;
#X connect 9 1 11 1;
#X connect 10 0 11 1;
#X connect 12 0 7 0;
#X connect 13 0 9 0;
#X connect 14 0 13 0;
#X restore 237 29 pd event.add;
#N canvas 604 641 359 230 event.remove 0;
#X obj 14 50 text search \$0.sequence 0 1;
#X obj 14 73 text delete \$0.sequence;
#X obj 14 11 r \$0.sequencer.event.remove;
#X connect 0 0 1 0;
#X connect 2 0 0 0;
#X restore 237 52 pd event.remove;
#X obj 33 168 r \$0.init;
#X msg 33 191 -1;
#X obj 33 214 text delete \$0.sequence;
#N canvas 0 99 463 327 note.change.velocity 0;
#X obj 24 16 r \$0.global.receive;
#X obj 24 39 route note;
#X obj 24 62 route change;
#X msg 63 157 \$1 \$2;
#X obj 24 85 route velocity;
#X obj 63 188 text search \$0.sequence 0 1;
#X obj 24 108 t a a;
#X msg 24 131 \$3;
#X obj 24 266 text set \$0.sequence;
#X obj 63 211 t a b;
#X msg 102 234 2;
#X connect 0 0 1 0;
#X connect 1 0 2 0;
#X connect 2 0 4 0;
#X connect 3 0 5 0;
#X connect 4 0 6 0;
#X connect 5 0 9 0;
#X connect 6 0 7 0;
#X connect 6 1 3 0;
#X connect 7 0 8 0;
#X connect 9 0 8 1;
#X connect 9 1 10 0;
#X connect 10 0 8 2;
#X restore 13 88 pd note.change.velocity;
#X obj 291 138 metro 200;
#X obj 291 161 f;
#X obj 291 184 mod 64;
#X obj 291 207 t a a;
#X obj 357 187 + 1;
#X obj 303 107 tgl 15 0 empty empty empty 17 7 0 10 -262144 -1 -1 0
1;
#X msg 395 127 0;
#X floatatom 346 104 5 0 0 0 - - -, f 5;
#X obj 291 328 print PLAY;
#N canvas 0 99 415 481 play.notes.by.index 0;
#X obj 18 77 text search \$0.sequence 0;
#X obj 96 100 text search \$0.sequence > 0;
#X obj 18 52 t a a;
#X obj 18 98 sel -1;
#X obj 51 174 pack f f;
#X obj 51 200 t a a;
#X obj 51 248 -;
#X obj 51 271 until;
#X obj 51 297 f;
#X obj 51 320 t a a;
#X obj 112 302 + 1;
#X obj 90 344 loadbang;
#X msg 90 370 1;
#X msg 129 368 2;
#X obj 51 397 text get \$0.sequence;
#X obj 96 123 sel -1;
#X msg 51 225 \$2 \$1;
#X msg 120 240 \$1;
#X obj 96 147 text size \$0.sequence;
#X obj 18 17 inlet;
#X obj 51 420 outlet;
#X connect 0 0 3 0;
#X connect 1 0 15 0;
#X connect 2 0 0 0;
#X connect 2 1 1 0;
#X connect 3 1 4 0;
#X connect 4 0 5 0;
#X connect 5 0 16 0;
#X connect 5 1 17 0;
#X connect 6 0 7 0;
#X connect 7 0 8 0;
#X connect 8 0 9 0;
#X connect 9 0 14 0;
#X connect 9 1 10 0;
#X connect 10 0 8 1;
#X connect 11 0 12 0;
#X connect 11 0 13 0;
#X connect 12 0 14 1;
#X connect 13 0 14 2;
#X connect 14 0 20 0;
#X connect 15 0 18 0;
#X connect 15 1 4 1;
#X connect 16 0 6 0;
#X connect 17 0 8 1;
#X connect 18 0 4 1;
#X connect 19 0 2 0;
#X restore 291 255 pd play.notes.by.index;
#X floatatom 291 230 5 0 0 0 - - -, f 5;
#X obj 291 278 s PLAY;
#X obj 291 301 r PLAY;
#X connect 5 0 6 0;
#X connect 6 0 7 0;
#X connect 9 0 10 0;
#X connect 10 0 11 0;
#X connect 11 0 12 0;
#X connect 12 0 19 0;
#X connect 12 1 13 0;
#X connect 13 0 10 1;
#X connect 14 0 9 0;
#X connect 15 0 10 1;
#X connect 16 0 9 1;
#X connect 18 0 20 0;
#X connect 19 0 18 0;
#X connect 21 0 17 0;
#X restore 79 440 pd sequencer;
#X connect 0 0 24 0;
#X connect 1 0 2 0;
#X connect 2 0 49 0;
#X connect 3 0 20 0;
#X connect 4 0 2 0;
#X connect 5 0 24 0;
#X connect 8 0 24 0;
#X connect 10 0 24 0;
#X connect 17 0 18 0;
#X connect 18 0 12 0;
#X connect 18 0 13 0;
#X connect 18 0 15 0;
#X connect 18 0 14 0;
#X connect 18 0 16 0;
#X connect 18 0 19 0;
#X connect 20 0 21 0;
#X connect 20 1 10 0;
#X connect 20 2 5 0;
#X connect 20 3 8 0;
#X connect 20 4 0 0;
#X connect 21 0 24 0;
#X connect 25 0 26 0;
#X connect 27 0 28 0;
#X connect 28 0 26 0;
#X connect 30 0 32 0;
#X connect 32 0 31 0;
#X connect 32 1 33 0;
#X connect 43 0 42 0;
#X connect 45 0 42 0;
#X connect 48 0 42 0;
