#N struct raster float x float y float color;
#N canvas 715 99 1119 678 10;
#N canvas 74 206 614 573 testfeld 1;
#X scalar raster 4 4 887 \;;
#X scalar raster 19 4 887 \;;
#X scalar raster 34 4 887 \;;
#X scalar raster 49 4 887 \;;
#X scalar raster 64 4 887 \;;
#X scalar raster 79 4 887 \;;
#X scalar raster 94 4 887 \;;
#X scalar raster 109 4 887 \;;
#X scalar raster 124 4 887 \;;
#X scalar raster 139 4 887 \;;
#X scalar raster 154 4 887 \;;
#X scalar raster 169 4 887 \;;
#X scalar raster 184 4 887 \;;
#X scalar raster 199 4 887 \;;
#X scalar raster 214 4 887 \;;
#X scalar raster 229 4 887 \;;
#X scalar raster 244 4 887 \;;
#X scalar raster 259 4 887 \;;
#X scalar raster 274 4 887 \;;
#X scalar raster 289 4 887 \;;
#X scalar raster 304 4 887 \;;
#X scalar raster 319 4 887 \;;
#X scalar raster 334 4 887 \;;
#X scalar raster 349 4 887 \;;
#X scalar raster 364 4 887 \;;
#X scalar raster 379 4 887 \;;
#X scalar raster 394 4 887 \;;
#X scalar raster 409 4 887 \;;
#X scalar raster 424 4 887 \;;
#X scalar raster 439 4 887 \;;
#X scalar raster 454 4 887 \;;
#X scalar raster 469 4 887 \;;
#X scalar raster 484 4 887 \;;
#X scalar raster 499 4 887 \;;
#X scalar raster 514 4 887 \;;
#X scalar raster 529 4 887 \;;
#X scalar raster 544 4 887 \;;
#X scalar raster 559 4 887 \;;
#X scalar raster 574 4 887 \;;
#X scalar raster 589 4 887 \;;
#X scalar raster 4 18 777 \;;
#X scalar raster 19 18 777 \;;
#X scalar raster 34 18 777 \;;
#X scalar raster 49 18 777 \;;
#X scalar raster 64 18 777 \;;
#X scalar raster 79 18 777 \;;
#X scalar raster 94 18 777 \;;
#X scalar raster 109 18 777 \;;
#X scalar raster 124 18 777 \;;
#X scalar raster 139 18 777 \;;
#X scalar raster 154 18 777 \;;
#X scalar raster 169 18 777 \;;
#X scalar raster 184 18 777 \;;
#X scalar raster 199 18 777 \;;
#X scalar raster 214 18 777 \;;
#X scalar raster 229 18 777 \;;
#X scalar raster 244 18 777 \;;
#X scalar raster 259 18 777 \;;
#X scalar raster 274 18 777 \;;
#X scalar raster 289 18 777 \;;
#X scalar raster 304 18 777 \;;
#X scalar raster 319 18 777 \;;
#X scalar raster 334 18 777 \;;
#X scalar raster 349 18 777 \;;
#X scalar raster 364 18 777 \;;
#X scalar raster 379 18 777 \;;
#X scalar raster 394 18 777 \;;
#X scalar raster 409 18 777 \;;
#X scalar raster 424 18 777 \;;
#X scalar raster 439 18 777 \;;
#X scalar raster 454 18 777 \;;
#X scalar raster 469 18 777 \;;
#X scalar raster 484 18 777 \;;
#X scalar raster 499 18 777 \;;
#X scalar raster 514 18 777 \;;
#X scalar raster 529 18 777 \;;
#X scalar raster 544 18 777 \;;
#X scalar raster 559 18 777 \;;
#X scalar raster 574 18 777 \;;
#X scalar raster 589 18 777 \;;
#X scalar raster 4 32 887 \;;
#X scalar raster 19 32 887 \;;
#X scalar raster 34 32 887 \;;
#X scalar raster 49 32 887 \;;
#X scalar raster 64 32 887 \;;
#X scalar raster 79 32 887 \;;
#X scalar raster 94 32 887 \;;
#X scalar raster 109 32 887 \;;
#X scalar raster 124 32 887 \;;
#X scalar raster 139 32 887 \;;
#X scalar raster 154 32 887 \;;
#X scalar raster 169 32 887 \;;
#X scalar raster 184 32 887 \;;
#X scalar raster 199 32 887 \;;
#X scalar raster 214 32 887 \;;
#X scalar raster 229 32 887 \;;
#X scalar raster 244 32 887 \;;
#X scalar raster 259 32 887 \;;
#X scalar raster 274 32 887 \;;
#X scalar raster 289 32 887 \;;
#X scalar raster 304 32 887 \;;
#X scalar raster 319 32 887 \;;
#X scalar raster 334 32 887 \;;
#X scalar raster 349 32 887 \;;
#X scalar raster 364 32 887 \;;
#X scalar raster 379 32 887 \;;
#X scalar raster 394 32 887 \;;
#X scalar raster 409 32 887 \;;
#X scalar raster 424 32 887 \;;
#X scalar raster 439 32 887 \;;
#X scalar raster 454 32 887 \;;
#X scalar raster 469 32 887 \;;
#X scalar raster 484 32 887 \;;
#X scalar raster 499 32 887 \;;
#X scalar raster 514 32 887 \;;
#X scalar raster 529 32 887 \;;
#X scalar raster 544 32 887 \;;
#X scalar raster 559 32 887 \;;
#X scalar raster 574 32 887 \;;
#X scalar raster 589 32 887 \;;
#X scalar raster 4 46 777 \;;
#X scalar raster 19 46 777 \;;
#X scalar raster 34 46 777 \;;
#X scalar raster 49 46 777 \;;
#X scalar raster 64 46 777 \;;
#X scalar raster 79 46 777 \;;
#X scalar raster 94 46 777 \;;
#X scalar raster 109 46 777 \;;
#X scalar raster 124 46 777 \;;
#X scalar raster 139 46 777 \;;
#X scalar raster 154 46 777 \;;
#X scalar raster 169 46 777 \;;
#X scalar raster 184 46 777 \;;
#X scalar raster 199 46 777 \;;
#X scalar raster 214 46 777 \;;
#X scalar raster 229 46 777 \;;
#X scalar raster 244 46 777 \;;
#X scalar raster 259 46 777 \;;
#X scalar raster 274 46 777 \;;
#X scalar raster 289 46 777 \;;
#X scalar raster 304 46 777 \;;
#X scalar raster 319 46 777 \;;
#X scalar raster 334 46 777 \;;
#X scalar raster 349 46 777 \;;
#X scalar raster 364 46 777 \;;
#X scalar raster 379 46 777 \;;
#X scalar raster 394 46 777 \;;
#X scalar raster 409 46 777 \;;
#X scalar raster 424 46 777 \;;
#X scalar raster 439 46 777 \;;
#X scalar raster 454 46 777 \;;
#X scalar raster 469 46 777 \;;
#X scalar raster 484 46 777 \;;
#X scalar raster 499 46 777 \;;
#X scalar raster 514 46 777 \;;
#X scalar raster 529 46 777 \;;
#X scalar raster 544 46 777 \;;
#X scalar raster 559 46 777 \;;
#X scalar raster 574 46 777 \;;
#X scalar raster 589 46 777 \;;
#X scalar raster 4 60 887 \;;
#X scalar raster 19 60 887 \;;
#X scalar raster 34 60 887 \;;
#X scalar raster 49 60 887 \;;
#X scalar raster 64 60 887 \;;
#X scalar raster 79 60 887 \;;
#X scalar raster 94 60 887 \;;
#X scalar raster 109 60 887 \;;
#X scalar raster 124 60 887 \;;
#X scalar raster 139 60 887 \;;
#X scalar raster 154 60 887 \;;
#X scalar raster 169 60 887 \;;
#X scalar raster 184 60 887 \;;
#X scalar raster 199 60 887 \;;
#X scalar raster 214 60 887 \;;
#X scalar raster 229 60 887 \;;
#X scalar raster 244 60 887 \;;
#X scalar raster 259 60 887 \;;
#X scalar raster 274 60 887 \;;
#X scalar raster 289 60 887 \;;
#X scalar raster 304 60 887 \;;
#X scalar raster 319 60 887 \;;
#X scalar raster 334 60 887 \;;
#X scalar raster 349 60 887 \;;
#X scalar raster 364 60 887 \;;
#X scalar raster 379 60 887 \;;
#X scalar raster 394 60 887 \;;
#X scalar raster 409 60 887 \;;
#X scalar raster 424 60 887 \;;
#X scalar raster 439 60 887 \;;
#X scalar raster 454 60 887 \;;
#X scalar raster 469 60 887 \;;
#X scalar raster 484 60 887 \;;
#X scalar raster 499 60 887 \;;
#X scalar raster 514 60 887 \;;
#X scalar raster 529 60 887 \;;
#X scalar raster 544 60 887 \;;
#X scalar raster 559 60 887 \;;
#X scalar raster 574 60 887 \;;
#X scalar raster 589 60 887 \;;
#X scalar raster 4 74 887 \;;
#X scalar raster 19 74 887 \;;
#X scalar raster 34 74 887 \;;
#X scalar raster 49 74 887 \;;
#X scalar raster 64 74 887 \;;
#X scalar raster 79 74 887 \;;
#X scalar raster 94 74 887 \;;
#X scalar raster 109 74 887 \;;
#X scalar raster 124 74 887 \;;
#X scalar raster 139 74 887 \;;
#X scalar raster 154 74 887 \;;
#X scalar raster 169 74 887 \;;
#X scalar raster 184 74 887 \;;
#X scalar raster 199 74 887 \;;
#X scalar raster 214 74 887 \;;
#X scalar raster 229 74 887 \;;
#X scalar raster 244 74 887 \;;
#X scalar raster 259 74 887 \;;
#X scalar raster 274 74 887 \;;
#X scalar raster 289 74 887 \;;
#X scalar raster 304 74 887 \;;
#X scalar raster 319 74 887 \;;
#X scalar raster 334 74 887 \;;
#X scalar raster 349 74 887 \;;
#X scalar raster 364 74 887 \;;
#X scalar raster 379 74 887 \;;
#X scalar raster 394 74 887 \;;
#X scalar raster 409 74 887 \;;
#X scalar raster 424 74 887 \;;
#X scalar raster 439 74 887 \;;
#X scalar raster 454 74 887 \;;
#X scalar raster 469 74 887 \;;
#X scalar raster 484 74 887 \;;
#X scalar raster 499 74 887 \;;
#X scalar raster 514 74 887 \;;
#X scalar raster 529 74 887 \;;
#X scalar raster 544 74 887 \;;
#X scalar raster 559 74 887 \;;
#X scalar raster 574 74 887 \;;
#X scalar raster 589 74 887 \;;
#X scalar raster 4 88 777 \;;
#X scalar raster 19 88 777 \;;
#X scalar raster 34 88 777 \;;
#X scalar raster 49 88 777 \;;
#X scalar raster 64 88 777 \;;
#X scalar raster 79 88 777 \;;
#X scalar raster 94 88 777 \;;
#X scalar raster 109 88 777 \;;
#X scalar raster 124 88 777 \;;
#X scalar raster 139 88 777 \;;
#X scalar raster 154 88 777 \;;
#X scalar raster 169 88 777 \;;
#X scalar raster 184 88 777 \;;
#X scalar raster 199 88 777 \;;
#X scalar raster 214 88 777 \;;
#X scalar raster 229 88 777 \;;
#X scalar raster 244 88 777 \;;
#X scalar raster 259 88 777 \;;
#X scalar raster 274 88 777 \;;
#X scalar raster 289 88 777 \;;
#X scalar raster 304 88 777 \;;
#X scalar raster 319 88 777 \;;
#X scalar raster 334 88 777 \;;
#X scalar raster 349 88 777 \;;
#X scalar raster 364 88 777 \;;
#X scalar raster 379 88 777 \;;
#X scalar raster 394 88 777 \;;
#X scalar raster 409 88 777 \;;
#X scalar raster 424 88 777 \;;
#X scalar raster 439 88 777 \;;
#X scalar raster 454 88 777 \;;
#X scalar raster 469 88 777 \;;
#X scalar raster 484 88 777 \;;
#X scalar raster 499 88 777 \;;
#X scalar raster 514 88 777 \;;
#X scalar raster 529 88 777 \;;
#X scalar raster 544 88 777 \;;
#X scalar raster 559 88 777 \;;
#X scalar raster 574 88 777 \;;
#X scalar raster 589 88 777 \;;
#X scalar raster 4 102 887 \;;
#X scalar raster 19 102 887 \;;
#X scalar raster 34 102 887 \;;
#X scalar raster 49 102 887 \;;
#X scalar raster 64 102 887 \;;
#X scalar raster 79 102 887 \;;
#X scalar raster 94 102 887 \;;
#X scalar raster 109 102 887 \;;
#X scalar raster 124 102 887 \;;
#X scalar raster 139 102 887 \;;
#X scalar raster 154 102 887 \;;
#X scalar raster 169 102 887 \;;
#X scalar raster 184 102 887 \;;
#X scalar raster 199 102 887 \;;
#X scalar raster 214 102 887 \;;
#X scalar raster 229 102 887 \;;
#X scalar raster 244 102 887 \;;
#X scalar raster 259 102 887 \;;
#X scalar raster 274 102 887 \;;
#X scalar raster 289 102 887 \;;
#X scalar raster 304 102 887 \;;
#X scalar raster 319 102 887 \;;
#X scalar raster 334 102 887 \;;
#X scalar raster 349 102 887 \;;
#X scalar raster 364 102 887 \;;
#X scalar raster 379 102 887 \;;
#X scalar raster 394 102 887 \;;
#X scalar raster 409 102 887 \;;
#X scalar raster 424 102 887 \;;
#X scalar raster 439 102 887 \;;
#X scalar raster 454 102 887 \;;
#X scalar raster 469 102 887 \;;
#X scalar raster 484 102 887 \;;
#X scalar raster 499 102 887 \;;
#X scalar raster 514 102 887 \;;
#X scalar raster 529 102 887 \;;
#X scalar raster 544 102 887 \;;
#X scalar raster 559 102 887 \;;
#X scalar raster 574 102 887 \;;
#X scalar raster 589 102 887 \;;
#X scalar raster 4 116 777 \;;
#X scalar raster 19 116 777 \;;
#X scalar raster 34 116 777 \;;
#X scalar raster 49 116 777 \;;
#X scalar raster 64 116 777 \;;
#X scalar raster 79 116 777 \;;
#X scalar raster 94 116 777 \;;
#X scalar raster 109 116 777 \;;
#X scalar raster 124 116 777 \;;
#X scalar raster 139 116 777 \;;
#X scalar raster 154 116 777 \;;
#X scalar raster 169 116 777 \;;
#X scalar raster 184 116 777 \;;
#X scalar raster 199 116 777 \;;
#X scalar raster 214 116 777 \;;
#X scalar raster 229 116 777 \;;
#X scalar raster 244 116 777 \;;
#X scalar raster 259 116 777 \;;
#X scalar raster 274 116 777 \;;
#X scalar raster 289 116 777 \;;
#X scalar raster 304 116 777 \;;
#X scalar raster 319 116 777 \;;
#X scalar raster 334 116 777 \;;
#X scalar raster 349 116 777 \;;
#X scalar raster 364 116 777 \;;
#X scalar raster 379 116 777 \;;
#X scalar raster 394 116 777 \;;
#X scalar raster 409 116 777 \;;
#X scalar raster 424 116 777 \;;
#X scalar raster 439 116 777 \;;
#X scalar raster 454 116 777 \;;
#X scalar raster 469 116 777 \;;
#X scalar raster 484 116 777 \;;
#X scalar raster 499 116 777 \;;
#X scalar raster 514 116 777 \;;
#X scalar raster 529 116 777 \;;
#X scalar raster 544 116 777 \;;
#X scalar raster 559 116 777 \;;
#X scalar raster 574 116 777 \;;
#X scalar raster 589 116 777 \;;
#X scalar raster 4 130 887 \;;
#X scalar raster 19 130 887 \;;
#X scalar raster 34 130 887 \;;
#X scalar raster 49 130 887 \;;
#X scalar raster 64 130 887 \;;
#X scalar raster 79 130 887 \;;
#X scalar raster 94 130 887 \;;
#X scalar raster 109 130 887 \;;
#X scalar raster 124 130 887 \;;
#X scalar raster 139 130 887 \;;
#X scalar raster 154 130 887 \;;
#X scalar raster 169 130 887 \;;
#X scalar raster 184 130 887 \;;
#X scalar raster 199 130 887 \;;
#X scalar raster 214 130 887 \;;
#X scalar raster 229 130 887 \;;
#X scalar raster 244 130 887 \;;
#X scalar raster 259 130 887 \;;
#X scalar raster 274 130 887 \;;
#X scalar raster 289 130 887 \;;
#X scalar raster 304 130 887 \;;
#X scalar raster 319 130 887 \;;
#X scalar raster 334 130 887 \;;
#X scalar raster 349 130 887 \;;
#X scalar raster 364 130 887 \;;
#X scalar raster 379 130 887 \;;
#X scalar raster 394 130 887 \;;
#X scalar raster 409 130 887 \;;
#X scalar raster 424 130 887 \;;
#X scalar raster 439 130 887 \;;
#X scalar raster 454 130 887 \;;
#X scalar raster 469 130 887 \;;
#X scalar raster 484 130 887 \;;
#X scalar raster 499 130 887 \;;
#X scalar raster 514 130 887 \;;
#X scalar raster 529 130 887 \;;
#X scalar raster 544 130 887 \;;
#X scalar raster 559 130 887 \;;
#X scalar raster 574 130 887 \;;
#X scalar raster 589 130 887 \;;
#X scalar raster 4 144 777 \;;
#X scalar raster 19 144 777 \;;
#X scalar raster 34 144 777 \;;
#X scalar raster 49 144 777 \;;
#X scalar raster 64 144 777 \;;
#X scalar raster 79 144 777 \;;
#X scalar raster 94 144 777 \;;
#X scalar raster 109 144 777 \;;
#X scalar raster 124 144 777 \;;
#X scalar raster 139 144 777 \;;
#X scalar raster 154 144 777 \;;
#X scalar raster 169 144 777 \;;
#X scalar raster 184 144 777 \;;
#X scalar raster 199 144 777 \;;
#X scalar raster 214 144 777 \;;
#X scalar raster 229 144 777 \;;
#X scalar raster 244 144 777 \;;
#X scalar raster 259 144 777 \;;
#X scalar raster 274 144 777 \;;
#X scalar raster 289 144 777 \;;
#X scalar raster 304 144 777 \;;
#X scalar raster 319 144 777 \;;
#X scalar raster 334 144 777 \;;
#X scalar raster 349 144 777 \;;
#X scalar raster 364 144 777 \;;
#X scalar raster 379 144 777 \;;
#X scalar raster 394 144 777 \;;
#X scalar raster 409 144 777 \;;
#X scalar raster 424 144 777 \;;
#X scalar raster 439 144 777 \;;
#X scalar raster 454 144 777 \;;
#X scalar raster 469 144 777 \;;
#X scalar raster 484 144 777 \;;
#X scalar raster 499 144 777 \;;
#X scalar raster 514 144 777 \;;
#X scalar raster 529 144 777 \;;
#X scalar raster 544 144 777 \;;
#X scalar raster 559 144 777 \;;
#X scalar raster 574 144 777 \;;
#X scalar raster 589 144 777 \;;
#X scalar raster 4 158 887 \;;
#X scalar raster 19 158 887 \;;
#X scalar raster 34 158 887 \;;
#X scalar raster 49 158 887 \;;
#X scalar raster 64 158 887 \;;
#X scalar raster 79 158 887 \;;
#X scalar raster 94 158 887 \;;
#X scalar raster 109 158 887 \;;
#X scalar raster 124 158 887 \;;
#X scalar raster 139 158 887 \;;
#X scalar raster 154 158 887 \;;
#X scalar raster 169 158 887 \;;
#X scalar raster 184 158 887 \;;
#X scalar raster 199 158 887 \;;
#X scalar raster 214 158 887 \;;
#X scalar raster 229 158 887 \;;
#X scalar raster 244 158 887 \;;
#X scalar raster 259 158 887 \;;
#X scalar raster 274 158 887 \;;
#X scalar raster 289 158 887 \;;
#X scalar raster 304 158 887 \;;
#X scalar raster 319 158 887 \;;
#X scalar raster 334 158 887 \;;
#X scalar raster 349 158 887 \;;
#X scalar raster 364 158 887 \;;
#X scalar raster 379 158 887 \;;
#X scalar raster 394 158 887 \;;
#X scalar raster 409 158 887 \;;
#X scalar raster 424 158 887 \;;
#X scalar raster 439 158 887 \;;
#X scalar raster 454 158 887 \;;
#X scalar raster 469 158 887 \;;
#X scalar raster 484 158 887 \;;
#X scalar raster 499 158 887 \;;
#X scalar raster 514 158 887 \;;
#X scalar raster 529 158 887 \;;
#X scalar raster 544 158 887 \;;
#X scalar raster 559 158 887 \;;
#X scalar raster 574 158 887 \;;
#X scalar raster 589 158 887 \;;
#X scalar raster 4 172 887 \;;
#X scalar raster 19 172 887 \;;
#X scalar raster 34 172 887 \;;
#X scalar raster 49 172 887 \;;
#X scalar raster 64 172 887 \;;
#X scalar raster 79 172 887 \;;
#X scalar raster 94 172 887 \;;
#X scalar raster 109 172 887 \;;
#X scalar raster 124 172 887 \;;
#X scalar raster 139 172 887 \;;
#X scalar raster 154 172 887 \;;
#X scalar raster 169 172 887 \;;
#X scalar raster 184 172 887 \;;
#X scalar raster 199 172 887 \;;
#X scalar raster 214 172 887 \;;
#X scalar raster 229 172 887 \;;
#X scalar raster 244 172 887 \;;
#X scalar raster 259 172 887 \;;
#X scalar raster 274 172 887 \;;
#X scalar raster 289 172 887 \;;
#X scalar raster 304 172 887 \;;
#X scalar raster 319 172 887 \;;
#X scalar raster 334 172 887 \;;
#X scalar raster 349 172 887 \;;
#X scalar raster 364 172 887 \;;
#X scalar raster 379 172 887 \;;
#X scalar raster 394 172 887 \;;
#X scalar raster 409 172 887 \;;
#X scalar raster 424 172 887 \;;
#X scalar raster 439 172 887 \;;
#X scalar raster 454 172 887 \;;
#X scalar raster 469 172 887 \;;
#X scalar raster 484 172 887 \;;
#X scalar raster 499 172 887 \;;
#X scalar raster 514 172 887 \;;
#X scalar raster 529 172 887 \;;
#X scalar raster 544 172 887 \;;
#X scalar raster 559 172 887 \;;
#X scalar raster 574 172 887 \;;
#X scalar raster 589 172 887 \;;
#X scalar raster 4 186 777 \;;
#X scalar raster 19 186 777 \;;
#X scalar raster 34 186 777 \;;
#X scalar raster 49 186 777 \;;
#X scalar raster 64 186 777 \;;
#X scalar raster 79 186 777 \;;
#X scalar raster 94 186 777 \;;
#X scalar raster 109 186 777 \;;
#X scalar raster 124 186 777 \;;
#X scalar raster 139 186 777 \;;
#X scalar raster 154 186 777 \;;
#X scalar raster 169 186 777 \;;
#X scalar raster 184 186 777 \;;
#X scalar raster 199 186 777 \;;
#X scalar raster 214 186 777 \;;
#X scalar raster 229 186 777 \;;
#X scalar raster 244 186 777 \;;
#X scalar raster 259 186 777 \;;
#X scalar raster 274 186 777 \;;
#X scalar raster 289 186 777 \;;
#X scalar raster 304 186 777 \;;
#X scalar raster 319 186 777 \;;
#X scalar raster 334 186 777 \;;
#X scalar raster 349 186 777 \;;
#X scalar raster 364 186 777 \;;
#X scalar raster 379 186 777 \;;
#X scalar raster 394 186 777 \;;
#X scalar raster 409 186 777 \;;
#X scalar raster 424 186 777 \;;
#X scalar raster 439 186 777 \;;
#X scalar raster 454 186 777 \;;
#X scalar raster 469 186 777 \;;
#X scalar raster 484 186 777 \;;
#X scalar raster 499 186 777 \;;
#X scalar raster 514 186 777 \;;
#X scalar raster 529 186 777 \;;
#X scalar raster 544 186 777 \;;
#X scalar raster 559 186 777 \;;
#X scalar raster 574 186 777 \;;
#X scalar raster 589 186 777 \;;
#X scalar raster 4 200 887 \;;
#X scalar raster 19 200 887 \;;
#X scalar raster 34 200 887 \;;
#X scalar raster 49 200 887 \;;
#X scalar raster 64 200 887 \;;
#X scalar raster 79 200 887 \;;
#X scalar raster 94 200 887 \;;
#X scalar raster 109 200 887 \;;
#X scalar raster 124 200 887 \;;
#X scalar raster 139 200 887 \;;
#X scalar raster 154 200 887 \;;
#X scalar raster 169 200 887 \;;
#X scalar raster 184 200 887 \;;
#X scalar raster 199 200 887 \;;
#X scalar raster 214 200 887 \;;
#X scalar raster 229 200 887 \;;
#X scalar raster 244 200 887 \;;
#X scalar raster 259 200 887 \;;
#X scalar raster 274 200 887 \;;
#X scalar raster 289 200 887 \;;
#X scalar raster 304 200 887 \;;
#X scalar raster 319 200 887 \;;
#X scalar raster 334 200 887 \;;
#X scalar raster 349 200 887 \;;
#X scalar raster 364 200 887 \;;
#X scalar raster 379 200 887 \;;
#X scalar raster 394 200 887 \;;
#X scalar raster 409 200 887 \;;
#X scalar raster 424 200 887 \;;
#X scalar raster 439 200 887 \;;
#X scalar raster 454 200 887 \;;
#X scalar raster 469 200 887 \;;
#X scalar raster 484 200 887 \;;
#X scalar raster 499 200 887 \;;
#X scalar raster 514 200 887 \;;
#X scalar raster 529 200 887 \;;
#X scalar raster 544 200 887 \;;
#X scalar raster 559 200 887 \;;
#X scalar raster 574 200 887 \;;
#X scalar raster 589 200 887 \;;
#X scalar raster 4 214 777 \;;
#X scalar raster 19 214 777 \;;
#X scalar raster 34 214 777 \;;
#X scalar raster 49 214 777 \;;
#X scalar raster 64 214 777 \;;
#X scalar raster 79 214 777 \;;
#X scalar raster 94 214 777 \;;
#X scalar raster 110 214 777 \;;
#X scalar raster 124 214 777 \;;
#X scalar raster 139 214 777 \;;
#X scalar raster 154 214 777 \;;
#X scalar raster 169 214 777 \;;
#X scalar raster 184 214 777 \;;
#X scalar raster 199 214 777 \;;
#X scalar raster 214 214 777 \;;
#X scalar raster 229 214 777 \;;
#X scalar raster 244 214 777 \;;
#X scalar raster 259 214 777 \;;
#X scalar raster 274 214 777 \;;
#X scalar raster 289 214 777 \;;
#X scalar raster 304 214 777 \;;
#X scalar raster 319 214 777 \;;
#X scalar raster 334 214 777 \;;
#X scalar raster 349 214 777 \;;
#X scalar raster 364 214 777 \;;
#X scalar raster 379 214 777 \;;
#X scalar raster 394 214 777 \;;
#X scalar raster 409 214 777 \;;
#X scalar raster 424 214 777 \;;
#X scalar raster 439 214 777 \;;
#X scalar raster 454 214 777 \;;
#X scalar raster 469 214 777 \;;
#X scalar raster 484 214 777 \;;
#X scalar raster 499 214 777 \;;
#X scalar raster 514 214 777 \;;
#X scalar raster 529 214 777 \;;
#X scalar raster 544 214 777 \;;
#X scalar raster 559 214 777 \;;
#X scalar raster 574 214 777 \;;
#X scalar raster 589 214 777 \;;
#X scalar raster 4 228 887 \;;
#X scalar raster 19 228 887 \;;
#X scalar raster 34 228 887 \;;
#X scalar raster 49 228 887 \;;
#X scalar raster 64 228 887 \;;
#X scalar raster 79 228 887 \;;
#X scalar raster 94 228 887 \;;
#X scalar raster 109 228 887 \;;
#X scalar raster 126 232 887 \;;
#X scalar raster 139 228 887 \;;
#X scalar raster 154 228 887 \;;
#X scalar raster 169 228 887 \;;
#X scalar raster 183 232 887 \;;
#X scalar raster 199 228 887 \;;
#X scalar raster 214 228 887 \;;
#X scalar raster 229 228 887 \;;
#X scalar raster 244 228 887 \;;
#X scalar raster 259 228 887 \;;
#X scalar raster 274 228 887 \;;
#X scalar raster 289 228 887 \;;
#X scalar raster 304 228 887 \;;
#X scalar raster 319 228 887 \;;
#X scalar raster 334 228 887 \;;
#X scalar raster 349 228 887 \;;
#X scalar raster 364 228 887 \;;
#X scalar raster 379 228 887 \;;
#X scalar raster 394 228 887 \;;
#X scalar raster 409 228 887 \;;
#X scalar raster 424 228 887 \;;
#X scalar raster 439 228 887 \;;
#X scalar raster 454 228 887 \;;
#X scalar raster 469 228 887 \;;
#X scalar raster 484 228 887 \;;
#X scalar raster 499 228 887 \;;
#X scalar raster 514 228 887 \;;
#X scalar raster 529 228 887 \;;
#X scalar raster 544 228 887 \;;
#X scalar raster 559 228 887 \;;
#X scalar raster 574 228 887 \;;
#X scalar raster 589 228 887 \;;
#X scalar raster 4 242 887 \;;
#X scalar raster 19 242 887 \;;
#X scalar raster 34 242 887 \;;
#X scalar raster 49 242 887 \;;
#X scalar raster 64 242 887 \;;
#X scalar raster 79 242 887 \;;
#X scalar raster 94 242 887 \;;
#X scalar raster 109 242 887 \;;
#X scalar raster 124 242 887 \;;
#X scalar raster 139 242 887 \;;
#X scalar raster 154 242 887 \;;
#X scalar raster 169 242 887 \;;
#X scalar raster 184 242 887 \;;
#X scalar raster 199 242 887 \;;
#X scalar raster 214 242 887 \;;
#X scalar raster 229 242 887 \;;
#X scalar raster 244 242 887 \;;
#X scalar raster 259 242 887 \;;
#X scalar raster 274 242 887 \;;
#X scalar raster 289 242 887 \;;
#X scalar raster 304 242 887 \;;
#X scalar raster 319 242 887 \;;
#X scalar raster 334 242 887 \;;
#X scalar raster 349 242 887 \;;
#X scalar raster 364 242 887 \;;
#X scalar raster 379 242 887 \;;
#X scalar raster 394 242 887 \;;
#X scalar raster 409 242 887 \;;
#X scalar raster 424 242 887 \;;
#X scalar raster 439 242 887 \;;
#X scalar raster 454 242 887 \;;
#X scalar raster 469 242 887 \;;
#X scalar raster 484 242 887 \;;
#X scalar raster 499 242 887 \;;
#X scalar raster 514 242 887 \;;
#X scalar raster 529 242 887 \;;
#X scalar raster 544 242 887 \;;
#X scalar raster 559 242 887 \;;
#X scalar raster 574 242 887 \;;
#X scalar raster 589 242 887 \;;
#X scalar raster 4 256 777 \;;
#X scalar raster 19 256 777 \;;
#X scalar raster 34 256 777 \;;
#X scalar raster 49 256 777 \;;
#X scalar raster 64 256 777 \;;
#X scalar raster 79 256 777 \;;
#X scalar raster 94 256 777 \;;
#X scalar raster 109 256 777 \;;
#X scalar raster 124 256 777 \;;
#X scalar raster 139 256 777 \;;
#X scalar raster 154 256 777 \;;
#X scalar raster 169 256 777 \;;
#X scalar raster 184 256 777 \;;
#X scalar raster 199 256 777 \;;
#X scalar raster 214 256 777 \;;
#X scalar raster 229 256 777 \;;
#X scalar raster 244 256 777 \;;
#X scalar raster 259 256 777 \;;
#X scalar raster 274 256 777 \;;
#X scalar raster 289 256 777 \;;
#X scalar raster 304 256 777 \;;
#X scalar raster 319 256 777 \;;
#X scalar raster 334 256 777 \;;
#X scalar raster 349 256 777 \;;
#X scalar raster 364 256 777 \;;
#X scalar raster 379 256 777 \;;
#X scalar raster 394 256 777 \;;
#X scalar raster 409 256 777 \;;
#X scalar raster 424 256 777 \;;
#X scalar raster 439 256 777 \;;
#X scalar raster 454 256 777 \;;
#X scalar raster 469 256 777 \;;
#X scalar raster 484 256 777 \;;
#X scalar raster 499 256 777 \;;
#X scalar raster 514 256 777 \;;
#X scalar raster 529 256 777 \;;
#X scalar raster 544 256 777 \;;
#X scalar raster 559 256 777 \;;
#X scalar raster 574 256 777 \;;
#X scalar raster 589 256 777 \;;
#X scalar raster 4 270 887 \;;
#X scalar raster 19 270 887 \;;
#X scalar raster 34 270 887 \;;
#X scalar raster 49 270 887 \;;
#X scalar raster 64 270 887 \;;
#X scalar raster 79 270 887 \;;
#X scalar raster 94 270 887 \;;
#X scalar raster 109 270 887 \;;
#X scalar raster 124 270 887 \;;
#X scalar raster 139 270 887 \;;
#X scalar raster 154 270 887 \;;
#X scalar raster 169 270 887 \;;
#X scalar raster 184 270 887 \;;
#X scalar raster 199 270 887 \;;
#X scalar raster 214 270 887 \;;
#X scalar raster 229 270 887 \;;
#X scalar raster 244 270 887 \;;
#X scalar raster 259 270 887 \;;
#X scalar raster 274 270 887 \;;
#X scalar raster 289 270 887 \;;
#X scalar raster 304 270 887 \;;
#X scalar raster 319 270 887 \;;
#X scalar raster 334 270 887 \;;
#X scalar raster 349 270 887 \;;
#X scalar raster 364 270 887 \;;
#X scalar raster 379 270 887 \;;
#X scalar raster 394 270 887 \;;
#X scalar raster 409 270 887 \;;
#X scalar raster 424 270 887 \;;
#X scalar raster 439 270 887 \;;
#X scalar raster 454 270 887 \;;
#X scalar raster 469 270 887 \;;
#X scalar raster 484 270 887 \;;
#X scalar raster 499 270 887 \;;
#X scalar raster 514 270 887 \;;
#X scalar raster 529 270 887 \;;
#X scalar raster 544 270 887 \;;
#X scalar raster 559 270 887 \;;
#X scalar raster 574 270 887 \;;
#X scalar raster 589 270 887 \;;
#X scalar raster 4 284 777 \;;
#X scalar raster 19 284 777 \;;
#X scalar raster 34 284 777 \;;
#X scalar raster 49 284 777 \;;
#X scalar raster 64 284 777 \;;
#X scalar raster 79 284 777 \;;
#X scalar raster 94 284 777 \;;
#X scalar raster 109 284 777 \;;
#X scalar raster 124 284 777 \;;
#X scalar raster 139 284 777 \;;
#X scalar raster 154 284 777 \;;
#X scalar raster 169 284 777 \;;
#X scalar raster 184 284 777 \;;
#X scalar raster 199 284 777 \;;
#X scalar raster 214 284 777 \;;
#X scalar raster 229 284 777 \;;
#X scalar raster 244 284 777 \;;
#X scalar raster 259 284 777 \;;
#X scalar raster 274 284 777 \;;
#X scalar raster 289 284 777 \;;
#X scalar raster 304 284 777 \;;
#X scalar raster 319 284 777 \;;
#X scalar raster 334 284 777 \;;
#X scalar raster 349 284 777 \;;
#X scalar raster 364 284 777 \;;
#X scalar raster 379 284 777 \;;
#X scalar raster 394 284 777 \;;
#X scalar raster 409 284 777 \;;
#X scalar raster 424 284 777 \;;
#X scalar raster 439 284 777 \;;
#X scalar raster 454 284 777 \;;
#X scalar raster 469 284 777 \;;
#X scalar raster 484 284 777 \;;
#X scalar raster 499 284 777 \;;
#X scalar raster 514 284 777 \;;
#X scalar raster 529 284 777 \;;
#X scalar raster 544 284 777 \;;
#X scalar raster 559 284 777 \;;
#X scalar raster 574 284 777 \;;
#X scalar raster 589 284 777 \;;
#X scalar raster 4 298 887 \;;
#X scalar raster 19 298 887 \;;
#X scalar raster 34 298 887 \;;
#X scalar raster 49 298 887 \;;
#X scalar raster 64 298 887 \;;
#X scalar raster 79 298 887 \;;
#X scalar raster 94 298 887 \;;
#X scalar raster 109 298 887 \;;
#X scalar raster 124 298 887 \;;
#X scalar raster 139 298 887 \;;
#X scalar raster 154 298 887 \;;
#X scalar raster 169 298 887 \;;
#X scalar raster 184 298 887 \;;
#X scalar raster 199 298 887 \;;
#X scalar raster 214 298 887 \;;
#X scalar raster 229 298 887 \;;
#X scalar raster 244 298 887 \;;
#X scalar raster 259 298 887 \;;
#X scalar raster 274 298 887 \;;
#X scalar raster 289 298 887 \;;
#X scalar raster 304 298 887 \;;
#X scalar raster 319 298 887 \;;
#X scalar raster 334 298 887 \;;
#X scalar raster 349 298 887 \;;
#X scalar raster 364 298 887 \;;
#X scalar raster 379 298 887 \;;
#X scalar raster 394 298 887 \;;
#X scalar raster 409 298 887 \;;
#X scalar raster 424 298 887 \;;
#X scalar raster 439 298 887 \;;
#X scalar raster 454 298 887 \;;
#X scalar raster 469 298 887 \;;
#X scalar raster 484 298 887 \;;
#X scalar raster 499 298 887 \;;
#X scalar raster 514 298 887 \;;
#X scalar raster 529 298 887 \;;
#X scalar raster 544 298 887 \;;
#X scalar raster 559 298 887 \;;
#X scalar raster 574 298 887 \;;
#X scalar raster 589 298 887 \;;
#X scalar raster 4 312 777 \;;
#X scalar raster 19 312 777 \;;
#X scalar raster 34 312 777 \;;
#X scalar raster 49 312 777 \;;
#X scalar raster 64 312 777 \;;
#X scalar raster 79 312 777 \;;
#X scalar raster 94 312 777 \;;
#X scalar raster 109 312 777 \;;
#X scalar raster 124 312 777 \;;
#X scalar raster 139 312 777 \;;
#X scalar raster 154 312 777 \;;
#X scalar raster 169 312 777 \;;
#X scalar raster 184 312 777 \;;
#X scalar raster 199 312 777 \;;
#X scalar raster 214 312 777 \;;
#X scalar raster 229 312 777 \;;
#X scalar raster 244 312 777 \;;
#X scalar raster 259 312 777 \;;
#X scalar raster 274 312 777 \;;
#X scalar raster 289 312 777 \;;
#X scalar raster 304 312 777 \;;
#X scalar raster 319 312 777 \;;
#X scalar raster 334 312 777 \;;
#X scalar raster 349 312 777 \;;
#X scalar raster 364 312 777 \;;
#X scalar raster 379 312 777 \;;
#X scalar raster 394 312 777 \;;
#X scalar raster 409 312 777 \;;
#X scalar raster 424 312 777 \;;
#X scalar raster 439 312 777 \;;
#X scalar raster 454 312 777 \;;
#X scalar raster 469 312 777 \;;
#X scalar raster 484 312 777 \;;
#X scalar raster 499 312 777 \;;
#X scalar raster 514 312 777 \;;
#X scalar raster 529 312 777 \;;
#X scalar raster 544 312 777 \;;
#X scalar raster 559 312 777 \;;
#X scalar raster 574 312 777 \;;
#X scalar raster 589 312 777 \;;
#X scalar raster 4 326 887 \;;
#X scalar raster 19 326 887 \;;
#X scalar raster 34 326 887 \;;
#X scalar raster 49 326 887 \;;
#X scalar raster 64 326 887 \;;
#X scalar raster 79 326 887 \;;
#X scalar raster 94 326 887 \;;
#X scalar raster 109 326 887 \;;
#X scalar raster 124 326 887 \;;
#X scalar raster 139 326 887 \;;
#X scalar raster 154 326 887 \;;
#X scalar raster 169 326 887 \;;
#X scalar raster 183 328 887 \;;
#X scalar raster 199 326 887 \;;
#X scalar raster 214 326 887 \;;
#X scalar raster 229 326 887 \;;
#X scalar raster 244 326 887 \;;
#X scalar raster 259 326 887 \;;
#X scalar raster 274 326 887 \;;
#X scalar raster 289 326 887 \;;
#X scalar raster 304 326 887 \;;
#X scalar raster 319 326 887 \;;
#X scalar raster 334 326 887 \;;
#X scalar raster 349 326 887 \;;
#X scalar raster 364 326 887 \;;
#X scalar raster 379 326 887 \;;
#X scalar raster 394 326 887 \;;
#X scalar raster 409 326 887 \;;
#X scalar raster 424 326 887 \;;
#X scalar raster 439 326 887 \;;
#X scalar raster 454 326 887 \;;
#X scalar raster 469 326 887 \;;
#X scalar raster 484 326 887 \;;
#X scalar raster 499 326 887 \;;
#X scalar raster 514 326 887 \;;
#X scalar raster 529 326 887 \;;
#X scalar raster 544 326 887 \;;
#X scalar raster 559 326 887 \;;
#X scalar raster 574 326 887 \;;
#X scalar raster 589 326 887 \;;
#X scalar raster 4 340 887 \;;
#X scalar raster 19 340 887 \;;
#X scalar raster 34 340 887 \;;
#X scalar raster 49 340 887 \;;
#X scalar raster 64 340 887 \;;
#X scalar raster 79 340 887 \;;
#X scalar raster 94 340 887 \;;
#X scalar raster 109 340 887 \;;
#X scalar raster 124 340 887 \;;
#X scalar raster 139 340 887 \;;
#X scalar raster 154 340 887 \;;
#X scalar raster 169 340 887 \;;
#X scalar raster 184 340 887 \;;
#X scalar raster 199 340 887 \;;
#X scalar raster 214 340 887 \;;
#X scalar raster 229 340 887 \;;
#X scalar raster 244 340 887 \;;
#X scalar raster 259 340 887 \;;
#X scalar raster 274 340 887 \;;
#X scalar raster 289 340 887 \;;
#X scalar raster 304 340 887 \;;
#X scalar raster 319 340 887 \;;
#X scalar raster 334 340 887 \;;
#X scalar raster 349 340 887 \;;
#X scalar raster 364 340 887 \;;
#X scalar raster 379 340 887 \;;
#X scalar raster 394 340 887 \;;
#X scalar raster 409 340 887 \;;
#X scalar raster 424 340 887 \;;
#X scalar raster 439 340 887 \;;
#X scalar raster 454 340 887 \;;
#X scalar raster 469 340 887 \;;
#X scalar raster 484 340 887 \;;
#X scalar raster 499 340 887 \;;
#X scalar raster 514 340 887 \;;
#X scalar raster 529 340 887 \;;
#X scalar raster 544 340 887 \;;
#X scalar raster 559 340 887 \;;
#X scalar raster 574 340 887 \;;
#X scalar raster 589 340 887 \;;
#X scalar raster 4 354 777 \;;
#X scalar raster 19 354 777 \;;
#X scalar raster 34 354 777 \;;
#X scalar raster 49 354 777 \;;
#X scalar raster 64 354 777 \;;
#X scalar raster 79 354 777 \;;
#X scalar raster 94 354 777 \;;
#X scalar raster 109 354 777 \;;
#X scalar raster 124 354 777 \;;
#X scalar raster 139 354 777 \;;
#X scalar raster 154 354 777 \;;
#X scalar raster 169 354 777 \;;
#X scalar raster 184 354 777 \;;
#X scalar raster 199 354 777 \;;
#X scalar raster 214 354 777 \;;
#X scalar raster 229 354 777 \;;
#X scalar raster 244 354 777 \;;
#X scalar raster 259 354 777 \;;
#X scalar raster 274 354 777 \;;
#X scalar raster 289 354 777 \;;
#X scalar raster 304 354 777 \;;
#X scalar raster 319 354 777 \;;
#X scalar raster 334 354 777 \;;
#X scalar raster 349 354 777 \;;
#X scalar raster 364 354 777 \;;
#X scalar raster 379 354 777 \;;
#X scalar raster 394 354 777 \;;
#X scalar raster 409 354 777 \;;
#X scalar raster 424 354 777 \;;
#X scalar raster 439 354 777 \;;
#X scalar raster 454 354 777 \;;
#X scalar raster 469 354 777 \;;
#X scalar raster 484 354 777 \;;
#X scalar raster 499 354 777 \;;
#X scalar raster 514 354 777 \;;
#X scalar raster 529 354 777 \;;
#X scalar raster 544 354 777 \;;
#X scalar raster 559 354 777 \;;
#X scalar raster 574 354 777 \;;
#X scalar raster 589 354 777 \;;
#X scalar raster 4 368 887 \;;
#X scalar raster 19 368 887 \;;
#X scalar raster 34 368 887 \;;
#X scalar raster 49 368 887 \;;
#X scalar raster 64 368 887 \;;
#X scalar raster 79 368 887 \;;
#X scalar raster 94 368 887 \;;
#X scalar raster 109 368 887 \;;
#X scalar raster 124 368 887 \;;
#X scalar raster 139 368 887 \;;
#X scalar raster 154 368 887 \;;
#X scalar raster 169 368 887 \;;
#X scalar raster 184 368 887 \;;
#X scalar raster 199 368 887 \;;
#X scalar raster 214 368 887 \;;
#X scalar raster 229 368 887 \;;
#X scalar raster 244 368 887 \;;
#X scalar raster 259 368 887 \;;
#X scalar raster 274 368 887 \;;
#X scalar raster 289 368 887 \;;
#X scalar raster 304 368 887 \;;
#X scalar raster 319 368 887 \;;
#X scalar raster 334 368 887 \;;
#X scalar raster 349 368 887 \;;
#X scalar raster 364 368 887 \;;
#X scalar raster 379 368 887 \;;
#X scalar raster 394 368 887 \;;
#X scalar raster 409 368 887 \;;
#X scalar raster 424 368 887 \;;
#X scalar raster 439 368 887 \;;
#X scalar raster 454 368 887 \;;
#X scalar raster 469 368 887 \;;
#X scalar raster 484 368 887 \;;
#X scalar raster 499 368 887 \;;
#X scalar raster 514 368 887 \;;
#X scalar raster 529 368 887 \;;
#X scalar raster 544 368 887 \;;
#X scalar raster 559 368 887 \;;
#X scalar raster 574 368 887 \;;
#X scalar raster 589 368 887 \;;
#X scalar raster 4 382 777 \;;
#X scalar raster 19 382 777 \;;
#X scalar raster 34 382 777 \;;
#X scalar raster 49 382 777 \;;
#X scalar raster 64 382 777 \;;
#X scalar raster 79 382 777 \;;
#X scalar raster 94 382 777 \;;
#X scalar raster 109 382 777 \;;
#X scalar raster 124 382 777 \;;
#X scalar raster 139 382 777 \;;
#X scalar raster 154 382 777 \;;
#X scalar raster 169 382 777 \;;
#X scalar raster 184 382 777 \;;
#X scalar raster 199 382 777 \;;
#X scalar raster 214 382 777 \;;
#X scalar raster 229 382 777 \;;
#X scalar raster 244 382 777 \;;
#X scalar raster 259 382 777 \;;
#X scalar raster 274 382 777 \;;
#X scalar raster 289 382 777 \;;
#X scalar raster 304 382 777 \;;
#X scalar raster 319 382 777 \;;
#X scalar raster 334 382 777 \;;
#X scalar raster 349 382 777 \;;
#X scalar raster 364 382 777 \;;
#X scalar raster 379 382 777 \;;
#X scalar raster 394 382 777 \;;
#X scalar raster 409 382 777 \;;
#X scalar raster 424 382 777 \;;
#X scalar raster 439 382 777 \;;
#X scalar raster 454 382 777 \;;
#X scalar raster 469 382 777 \;;
#X scalar raster 484 382 777 \;;
#X scalar raster 499 382 777 \;;
#X scalar raster 514 382 777 \;;
#X scalar raster 529 382 777 \;;
#X scalar raster 544 382 777 \;;
#X scalar raster 559 382 777 \;;
#X scalar raster 574 382 777 \;;
#X scalar raster 589 382 777 \;;
#X scalar raster 4 396 887 \;;
#X scalar raster 19 396 887 \;;
#X scalar raster 34 396 887 \;;
#X scalar raster 49 396 887 \;;
#X scalar raster 64 396 887 \;;
#X scalar raster 79 396 887 \;;
#X scalar raster 94 396 887 \;;
#X scalar raster 109 396 887 \;;
#X scalar raster 124 396 887 \;;
#X scalar raster 139 396 887 \;;
#X scalar raster 154 396 887 \;;
#X scalar raster 169 396 887 \;;
#X scalar raster 184 396 887 \;;
#X scalar raster 199 396 887 \;;
#X scalar raster 214 396 887 \;;
#X scalar raster 229 396 887 \;;
#X scalar raster 244 396 887 \;;
#X scalar raster 259 396 887 \;;
#X scalar raster 274 396 887 \;;
#X scalar raster 289 396 887 \;;
#X scalar raster 304 396 887 \;;
#X scalar raster 319 396 887 \;;
#X scalar raster 334 396 887 \;;
#X scalar raster 349 396 887 \;;
#X scalar raster 364 396 887 \;;
#X scalar raster 379 396 887 \;;
#X scalar raster 394 396 887 \;;
#X scalar raster 409 396 887 \;;
#X scalar raster 424 396 887 \;;
#X scalar raster 439 396 887 \;;
#X scalar raster 454 396 887 \;;
#X scalar raster 469 396 887 \;;
#X scalar raster 484 396 887 \;;
#X scalar raster 499 396 887 \;;
#X scalar raster 514 396 887 \;;
#X scalar raster 529 396 887 \;;
#X scalar raster 544 396 887 \;;
#X scalar raster 559 396 887 \;;
#X scalar raster 574 396 887 \;;
#X scalar raster 589 396 887 \;;
#X scalar raster 4 410 887 \;;
#X scalar raster 19 410 887 \;;
#X scalar raster 34 410 887 \;;
#X scalar raster 49 410 887 \;;
#X scalar raster 64 410 887 \;;
#X scalar raster 79 410 887 \;;
#X scalar raster 94 410 887 \;;
#X scalar raster 109 410 887 \;;
#X scalar raster 124 410 887 \;;
#X scalar raster 139 410 887 \;;
#X scalar raster 154 410 887 \;;
#X scalar raster 169 410 887 \;;
#X scalar raster 184 410 887 \;;
#X scalar raster 199 410 887 \;;
#X scalar raster 214 410 887 \;;
#X scalar raster 229 410 887 \;;
#X scalar raster 244 410 887 \;;
#X scalar raster 259 410 887 \;;
#X scalar raster 274 410 887 \;;
#X scalar raster 289 410 887 \;;
#X scalar raster 304 410 887 \;;
#X scalar raster 319 410 887 \;;
#X scalar raster 334 410 887 \;;
#X scalar raster 349 410 887 \;;
#X scalar raster 364 410 887 \;;
#X scalar raster 379 410 887 \;;
#X scalar raster 394 410 887 \;;
#X scalar raster 409 410 887 \;;
#X scalar raster 424 410 887 \;;
#X scalar raster 439 410 887 \;;
#X scalar raster 454 410 887 \;;
#X scalar raster 469 410 887 \;;
#X scalar raster 484 410 887 \;;
#X scalar raster 499 410 887 \;;
#X scalar raster 514 410 887 \;;
#X scalar raster 529 410 887 \;;
#X scalar raster 544 410 887 \;;
#X scalar raster 559 410 887 \;;
#X scalar raster 574 410 887 \;;
#X scalar raster 589 410 887 \;;
#X scalar raster 4 424 777 \;;
#X scalar raster 19 424 777 \;;
#X scalar raster 34 424 777 \;;
#X scalar raster 49 424 777 \;;
#X scalar raster 64 424 777 \;;
#X scalar raster 79 424 777 \;;
#X scalar raster 94 424 777 \;;
#X scalar raster 109 424 777 \;;
#X scalar raster 124 424 777 \;;
#X scalar raster 139 424 777 \;;
#X scalar raster 154 424 777 \;;
#X scalar raster 169 424 777 \;;
#X scalar raster 184 424 777 \;;
#X scalar raster 199 424 777 \;;
#X scalar raster 214 424 777 \;;
#X scalar raster 229 424 777 \;;
#X scalar raster 244 424 777 \;;
#X scalar raster 259 424 777 \;;
#X scalar raster 274 424 777 \;;
#X scalar raster 289 424 777 \;;
#X scalar raster 304 424 777 \;;
#X scalar raster 319 424 777 \;;
#X scalar raster 334 424 777 \;;
#X scalar raster 349 424 777 \;;
#X scalar raster 364 424 777 \;;
#X scalar raster 379 424 777 \;;
#X scalar raster 394 424 777 \;;
#X scalar raster 409 424 777 \;;
#X scalar raster 424 424 777 \;;
#X scalar raster 439 424 777 \;;
#X scalar raster 454 424 777 \;;
#X scalar raster 469 424 777 \;;
#X scalar raster 484 424 777 \;;
#X scalar raster 499 424 777 \;;
#X scalar raster 514 424 777 \;;
#X scalar raster 529 424 777 \;;
#X scalar raster 544 424 777 \;;
#X scalar raster 559 424 777 \;;
#X scalar raster 574 424 777 \;;
#X scalar raster 589 424 777 \;;
#X scalar raster 4 438 887 \;;
#X scalar raster 19 438 887 \;;
#X scalar raster 34 438 887 \;;
#X scalar raster 49 438 887 \;;
#X scalar raster 64 438 887 \;;
#X scalar raster 79 438 887 \;;
#X scalar raster 94 438 887 \;;
#X scalar raster 109 438 887 \;;
#X scalar raster 124 438 887 \;;
#X scalar raster 139 438 887 \;;
#X scalar raster 154 438 887 \;;
#X scalar raster 169 438 887 \;;
#X scalar raster 184 438 887 \;;
#X scalar raster 199 438 887 \;;
#X scalar raster 214 438 887 \;;
#X scalar raster 229 438 887 \;;
#X scalar raster 244 438 887 \;;
#X scalar raster 259 438 887 \;;
#X scalar raster 274 438 887 \;;
#X scalar raster 289 438 887 \;;
#X scalar raster 304 438 887 \;;
#X scalar raster 319 438 887 \;;
#X scalar raster 334 438 887 \;;
#X scalar raster 349 438 887 \;;
#X scalar raster 364 438 887 \;;
#X scalar raster 379 438 887 \;;
#X scalar raster 394 438 887 \;;
#X scalar raster 409 438 887 \;;
#X scalar raster 424 438 887 \;;
#X scalar raster 439 438 887 \;;
#X scalar raster 454 438 887 \;;
#X scalar raster 469 438 887 \;;
#X scalar raster 484 438 887 \;;
#X scalar raster 499 438 887 \;;
#X scalar raster 514 438 887 \;;
#X scalar raster 529 438 887 \;;
#X scalar raster 544 438 887 \;;
#X scalar raster 559 438 887 \;;
#X scalar raster 574 438 887 \;;
#X scalar raster 589 438 887 \;;
#X scalar raster 4 452 777 \;;
#X scalar raster 19 452 777 \;;
#X scalar raster 34 452 777 \;;
#X scalar raster 49 452 777 \;;
#X scalar raster 64 452 777 \;;
#X scalar raster 79 452 777 \;;
#X scalar raster 94 452 777 \;;
#X scalar raster 109 452 777 \;;
#X scalar raster 124 452 777 \;;
#X scalar raster 139 452 777 \;;
#X scalar raster 154 452 777 \;;
#X scalar raster 169 452 777 \;;
#X scalar raster 184 452 777 \;;
#X scalar raster 199 452 777 \;;
#X scalar raster 214 452 777 \;;
#X scalar raster 229 452 777 \;;
#X scalar raster 244 452 777 \;;
#X scalar raster 259 452 777 \;;
#X scalar raster 274 452 777 \;;
#X scalar raster 289 452 777 \;;
#X scalar raster 304 452 777 \;;
#X scalar raster 319 452 777 \;;
#X scalar raster 334 452 777 \;;
#X scalar raster 349 452 777 \;;
#X scalar raster 364 452 777 \;;
#X scalar raster 379 452 777 \;;
#X scalar raster 394 452 777 \;;
#X scalar raster 409 452 777 \;;
#X scalar raster 424 452 777 \;;
#X scalar raster 439 452 777 \;;
#X scalar raster 454 452 777 \;;
#X scalar raster 469 452 777 \;;
#X scalar raster 484 452 777 \;;
#X scalar raster 499 452 777 \;;
#X scalar raster 514 452 777 \;;
#X scalar raster 529 452 777 \;;
#X scalar raster 544 452 777 \;;
#X scalar raster 559 452 777 \;;
#X scalar raster 574 452 777 \;;
#X scalar raster 589 452 777 \;;
#X scalar raster 4 466 887 \;;
#X scalar raster 19 466 887 \;;
#X scalar raster 34 466 887 \;;
#X scalar raster 49 466 887 \;;
#X scalar raster 64 466 887 \;;
#X scalar raster 79 466 887 \;;
#X scalar raster 94 466 887 \;;
#X scalar raster 109 466 887 \;;
#X scalar raster 124 466 887 \;;
#X scalar raster 139 466 887 \;;
#X scalar raster 154 466 887 \;;
#X scalar raster 169 466 887 \;;
#X scalar raster 184 466 887 \;;
#X scalar raster 199 466 887 \;;
#X scalar raster 214 466 887 \;;
#X scalar raster 229 466 887 \;;
#X scalar raster 244 466 887 \;;
#X scalar raster 259 466 887 \;;
#X scalar raster 274 466 887 \;;
#X scalar raster 289 466 887 \;;
#X scalar raster 304 466 887 \;;
#X scalar raster 319 466 887 \;;
#X scalar raster 334 466 887 \;;
#X scalar raster 349 466 887 \;;
#X scalar raster 364 466 887 \;;
#X scalar raster 379 466 887 \;;
#X scalar raster 394 466 887 \;;
#X scalar raster 409 466 887 \;;
#X scalar raster 424 466 887 \;;
#X scalar raster 439 466 887 \;;
#X scalar raster 454 466 887 \;;
#X scalar raster 469 466 887 \;;
#X scalar raster 484 466 887 \;;
#X scalar raster 499 466 887 \;;
#X scalar raster 514 466 887 \;;
#X scalar raster 529 466 887 \;;
#X scalar raster 544 466 887 \;;
#X scalar raster 559 466 887 \;;
#X scalar raster 574 466 887 \;;
#X scalar raster 589 466 887 \;;
#X scalar raster 4 480 777 \;;
#X scalar raster 19 480 777 \;;
#X scalar raster 34 480 777 \;;
#X scalar raster 49 480 777 \;;
#X scalar raster 64 480 777 \;;
#X scalar raster 79 480 777 \;;
#X scalar raster 94 480 777 \;;
#X scalar raster 109 480 777 \;;
#X scalar raster 124 480 777 \;;
#X scalar raster 139 480 777 \;;
#X scalar raster 154 480 777 \;;
#X scalar raster 169 480 777 \;;
#X scalar raster 184 480 777 \;;
#X scalar raster 199 480 777 \;;
#X scalar raster 214 480 777 \;;
#X scalar raster 229 480 777 \;;
#X scalar raster 244 480 777 \;;
#X scalar raster 259 480 777 \;;
#X scalar raster 274 480 777 \;;
#X scalar raster 289 480 777 \;;
#X scalar raster 304 480 777 \;;
#X scalar raster 319 480 777 \;;
#X scalar raster 334 480 777 \;;
#X scalar raster 349 480 777 \;;
#X scalar raster 364 480 777 \;;
#X scalar raster 379 480 777 \;;
#X scalar raster 394 480 777 \;;
#X scalar raster 409 480 777 \;;
#X scalar raster 424 480 777 \;;
#X scalar raster 439 480 777 \;;
#X scalar raster 454 480 777 \;;
#X scalar raster 469 480 777 \;;
#X scalar raster 484 480 777 \;;
#X scalar raster 499 480 777 \;;
#X scalar raster 514 480 777 \;;
#X scalar raster 529 480 777 \;;
#X scalar raster 544 480 777 \;;
#X scalar raster 559 480 777 \;;
#X scalar raster 574 480 777 \;;
#X scalar raster 589 480 777 \;;
#X scalar raster 4 494 887 \;;
#X scalar raster 19 494 887 \;;
#X scalar raster 34 494 887 \;;
#X scalar raster 49 494 887 \;;
#X scalar raster 64 494 887 \;;
#X scalar raster 79 494 887 \;;
#X scalar raster 94 494 887 \;;
#X scalar raster 109 494 887 \;;
#X scalar raster 124 494 887 \;;
#X scalar raster 139 494 887 \;;
#X scalar raster 154 494 887 \;;
#X scalar raster 169 494 887 \;;
#X scalar raster 184 494 887 \;;
#X scalar raster 199 494 887 \;;
#X scalar raster 214 494 887 \;;
#X scalar raster 229 494 887 \;;
#X scalar raster 244 494 887 \;;
#X scalar raster 259 494 887 \;;
#X scalar raster 274 494 887 \;;
#X scalar raster 289 494 887 \;;
#X scalar raster 304 494 887 \;;
#X scalar raster 319 494 887 \;;
#X scalar raster 334 494 887 \;;
#X scalar raster 349 494 887 \;;
#X scalar raster 364 494 887 \;;
#X scalar raster 379 494 887 \;;
#X scalar raster 394 494 887 \;;
#X scalar raster 409 494 887 \;;
#X scalar raster 424 494 887 \;;
#X scalar raster 439 494 887 \;;
#X scalar raster 454 494 887 \;;
#X scalar raster 469 494 887 \;;
#X scalar raster 484 494 887 \;;
#X scalar raster 499 494 887 \;;
#X scalar raster 514 494 887 \;;
#X scalar raster 529 494 887 \;;
#X scalar raster 544 494 887 \;;
#X scalar raster 559 494 887 \;;
#X scalar raster 574 494 887 \;;
#X scalar raster 589 494 887 \;;
#X scalar raster 4 508 887 \;;
#X scalar raster 19 508 887 \;;
#X scalar raster 34 508 887 \;;
#X scalar raster 49 508 887 \;;
#X scalar raster 64 508 887 \;;
#X scalar raster 79 508 887 \;;
#X scalar raster 94 508 887 \;;
#X scalar raster 109 508 887 \;;
#X scalar raster 124 508 887 \;;
#X scalar raster 139 508 887 \;;
#X scalar raster 154 508 887 \;;
#X scalar raster 169 508 887 \;;
#X scalar raster 184 508 887 \;;
#X scalar raster 199 508 887 \;;
#X scalar raster 214 508 887 \;;
#X scalar raster 229 508 887 \;;
#X scalar raster 244 508 887 \;;
#X scalar raster 259 508 887 \;;
#X scalar raster 274 508 887 \;;
#X scalar raster 289 508 887 \;;
#X scalar raster 304 508 887 \;;
#X scalar raster 319 508 887 \;;
#X scalar raster 334 508 887 \;;
#X scalar raster 349 508 887 \;;
#X scalar raster 364 508 887 \;;
#X scalar raster 379 508 887 \;;
#X scalar raster 394 508 887 \;;
#X scalar raster 409 508 887 \;;
#X scalar raster 424 508 887 \;;
#X scalar raster 439 508 887 \;;
#X scalar raster 454 508 887 \;;
#X scalar raster 469 508 887 \;;
#X scalar raster 484 508 887 \;;
#X scalar raster 499 508 887 \;;
#X scalar raster 514 508 887 \;;
#X scalar raster 529 508 887 \;;
#X scalar raster 544 508 887 \;;
#X scalar raster 559 508 887 \;;
#X scalar raster 574 508 887 \;;
#X scalar raster 589 508 887 \;;
#X scalar raster 4 522 777 \;;
#X scalar raster 19 522 777 \;;
#X scalar raster 34 522 777 \;;
#X scalar raster 49 522 777 \;;
#X scalar raster 64 522 777 \;;
#X scalar raster 79 522 777 \;;
#X scalar raster 94 522 777 \;;
#X scalar raster 109 522 777 \;;
#X scalar raster 124 522 777 \;;
#X scalar raster 139 522 777 \;;
#X scalar raster 154 522 777 \;;
#X scalar raster 169 522 777 \;;
#X scalar raster 184 522 777 \;;
#X scalar raster 199 522 777 \;;
#X scalar raster 214 522 777 \;;
#X scalar raster 229 522 777 \;;
#X scalar raster 244 522 777 \;;
#X scalar raster 259 522 777 \;;
#X scalar raster 274 522 777 \;;
#X scalar raster 289 522 777 \;;
#X scalar raster 304 522 777 \;;
#X scalar raster 319 522 777 \;;
#X scalar raster 334 522 777 \;;
#X scalar raster 349 522 777 \;;
#X scalar raster 364 522 777 \;;
#X scalar raster 379 522 777 \;;
#X scalar raster 394 522 777 \;;
#X scalar raster 409 522 777 \;;
#X scalar raster 424 522 777 \;;
#X scalar raster 439 522 777 \;;
#X scalar raster 454 522 777 \;;
#X scalar raster 469 522 777 \;;
#X scalar raster 484 522 777 \;;
#X scalar raster 499 522 777 \;;
#X scalar raster 514 522 777 \;;
#X scalar raster 529 522 777 \;;
#X scalar raster 544 522 777 \;;
#X scalar raster 559 522 777 \;;
#X scalar raster 574 522 777 \;;
#X scalar raster 589 522 777 \;;
#X scalar raster 4 536 887 \;;
#X scalar raster 19 536 887 \;;
#X scalar raster 34 536 887 \;;
#X scalar raster 49 536 887 \;;
#X scalar raster 64 536 887 \;;
#X scalar raster 79 536 887 \;;
#X scalar raster 94 536 887 \;;
#X scalar raster 109 536 887 \;;
#X scalar raster 124 536 887 \;;
#X scalar raster 139 536 887 \;;
#X scalar raster 154 536 887 \;;
#X scalar raster 169 536 887 \;;
#X scalar raster 184 536 887 \;;
#X scalar raster 199 536 887 \;;
#X scalar raster 214 536 887 \;;
#X scalar raster 229 536 887 \;;
#X scalar raster 244 536 887 \;;
#X scalar raster 259 536 887 \;;
#X scalar raster 274 536 887 \;;
#X scalar raster 289 536 887 \;;
#X scalar raster 304 536 887 \;;
#X scalar raster 319 536 887 \;;
#X scalar raster 334 536 887 \;;
#X scalar raster 349 536 887 \;;
#X scalar raster 364 536 887 \;;
#X scalar raster 379 536 887 \;;
#X scalar raster 394 536 887 \;;
#X scalar raster 409 536 887 \;;
#X scalar raster 424 536 887 \;;
#X scalar raster 439 536 887 \;;
#X scalar raster 454 536 887 \;;
#X scalar raster 469 536 887 \;;
#X scalar raster 484 536 887 \;;
#X scalar raster 499 536 887 \;;
#X scalar raster 514 536 887 \;;
#X scalar raster 529 536 887 \;;
#X scalar raster 544 536 887 \;;
#X scalar raster 559 536 887 \;;
#X scalar raster 574 536 887 \;;
#X scalar raster 589 536 887 \;;
#X scalar raster 4 550 777 \;;
#X scalar raster 19 550 777 \;;
#X scalar raster 34 550 777 \;;
#X scalar raster 49 550 777 \;;
#X scalar raster 64 550 777 \;;
#X scalar raster 79 550 777 \;;
#X scalar raster 94 550 777 \;;
#X scalar raster 109 550 777 \;;
#X scalar raster 124 550 777 \;;
#X scalar raster 139 550 777 \;;
#X scalar raster 154 550 777 \;;
#X scalar raster 169 550 777 \;;
#X scalar raster 184 550 777 \;;
#X scalar raster 199 550 777 \;;
#X scalar raster 214 550 777 \;;
#X scalar raster 229 550 777 \;;
#X scalar raster 244 550 777 \;;
#X scalar raster 259 550 777 \;;
#X scalar raster 274 550 777 \;;
#X scalar raster 289 550 777 \;;
#X scalar raster 304 550 777 \;;
#X scalar raster 319 550 777 \;;
#X scalar raster 334 550 777 \;;
#X scalar raster 349 550 777 \;;
#X scalar raster 364 550 777 \;;
#X scalar raster 379 550 777 \;;
#X scalar raster 394 550 777 \;;
#X scalar raster 409 550 777 \;;
#X scalar raster 424 550 777 \;;
#X scalar raster 439 550 777 \;;
#X scalar raster 454 550 777 \;;
#X scalar raster 469 550 777 \;;
#X scalar raster 484 550 777 \;;
#X scalar raster 499 550 777 \;;
#X scalar raster 514 550 777 \;;
#X scalar raster 529 550 777 \;;
#X scalar raster 544 550 777 \;;
#X scalar raster 559 550 777 \;;
#X scalar raster 574 550 777 \;;
#X scalar raster 589 550 777 \;;
#X restore 39 55 pd testfeld;
#X obj 255 155 s pd-testfeld;
#X msg 441 102 clear;
#X msg 266 69 scalar rechteck 20 100 20 64 555;
#X obj 590 567 s pd-testfeld;
#X obj 571 218 t a b;
#X obj 571 241 until;
#X obj 571 264 f;
#X msg 617 246 0;
#X obj 645 284 + 1;
#X obj 571 287 t b a a;
#X obj 571 350 t a b;
#X obj 571 373 until;
#X obj 571 396 f;
#X msg 617 378 0;
#X obj 645 416 + 1;
#X obj 571 419 t b a a;
#X obj 67 607 s pd-testfeld;
#X obj 590 473 + 4;
#X obj 635 472 + 4;
#X msg 67 565 scalar rechteck \$1 \$2 20 64 400;
#N canvas 1083 335 554 421 rechteck-template 0;
#X obj 51 231 get rechteck x y len vel;
#X floatatom 51 330 5 0 0 0 - - -, f 5;
#X floatatom 98 330 5 0 0 0 - - -, f 5;
#X floatatom 145 330 5 0 0 0 - - -, f 5;
#X obj 51 198 t p p;
#X obj 32 105 struct rechteck float x float y float len float vel float
color;
#X obj 371 237 int;
#X obj 192 261 max 0;
#X obj 192 284 min 127;
#X obj 371 209 / 14.2;
#X obj 32 34 drawnumber vel 1 -14 0;
#X obj 51 175 route click change;
#X obj 32 54 filledpolygon color 555 1 0 0 0 13 len(0:1000)(12:1012)
13 len(0:1000)(12:1012) 0;
#X obj 307 296 set rechteck vel color;
#X obj 307 184 t a a;
#X obj 192 307 t a a;
#X floatatom 192 330 5 0 0 0 - - -, f 5;
#X obj 370 260 * 100;
#X obj 104 147 print rechteck;
#X obj 32 141 t a a a;
#X obj 32 375 outlet;
#X connect 0 0 1 0;
#X connect 0 1 2 0;
#X connect 0 2 3 0;
#X connect 0 3 7 0;
#X connect 4 0 0 0;
#X connect 4 1 13 2;
#X connect 5 0 19 0;
#X connect 6 0 17 0;
#X connect 7 0 8 0;
#X connect 8 0 15 0;
#X connect 9 0 6 0;
#X connect 11 0 4 0;
#X connect 11 1 4 0;
#X connect 14 0 13 0;
#X connect 14 1 9 0;
#X connect 15 0 16 0;
#X connect 15 1 14 0;
#X connect 17 0 13 1;
#X connect 19 0 20 0;
#X connect 19 1 11 0;
#X connect 19 2 18 0;
#X restore 252 253 pd rechteck-template;
#N canvas 903 688 450 300 raster-template 0;
#X obj 19 86 t a a;
#X obj 65 86 print raster;
#X obj 19 18 filledpolygon color color 1 0 0 0 13 13 13 13 0 0;
#X obj 19 44 struct raster float x float y float color;
#X obj 19 116 outlet;
#X connect 0 0 4 0;
#X connect 0 1 1 0;
#X connect 3 0 0 0;
#X restore 67 253 pd raster-template;
#X obj 635 446 * 14;
#X msg 590 534 scalar raster \$1 \$2 \$3;
#X text 678 550 x y color;
#X obj 590 502 pack f f f;
#X obj 635 344 t a a;
#X obj 704 348 mod 12;
#X msg 571 195 40;
#X msg 571 327 40;
#X obj 704 390 sel 0 2 4 5 7 9 11;
#X obj 809 413 b;
#X obj 590 447 * 15;
#X obj 713 478 f 887;
#X obj 780 475 f 777;
#X obj 376 529 t p p;
#X obj 376 560 get raster x y;
#X obj 376 589 pack f f;
#X obj 376 612 outlet;
#X obj 67 276 route click;
#X obj 252 276 route click;
#X obj 67 324 b;
#X obj 67 453 pointer;
#X obj 67 300 t a p;
#X obj 67 350 t b b;
#X obj 67 373 del 0;
#X obj 67 400 f;
#X msg 110 376 1;
#X msg 252 329 0;
#X obj 67 426 sel 1;
#X obj 67 481 get raster x y;
#X obj 67 504 pack f f;
#X obj 252 303 t b a;
#X obj 279 342 get rechteck x y;
#X obj 279 368 pack f f;
#X obj 279 391 t a a;
#N canvas 0 99 483 432 detect_double_click 0;
#X obj 47 137 -;
#X obj 46 86 unpack f f;
#X obj 46 110 t a a;
#X obj 104 137 -;
#X obj 103 110 t a a;
#X obj 19 23 inlet;
#X text 109 21 this detects two clicks on the same scalar within a
certain period.;
#X obj 47 171 == 0;
#X obj 104 174 == 0;
#X obj 47 207 +;
#X obj 47 237 sel 2;
#X obj 19 269 t b b;
#X obj 19 293 del 300;
#X msg 19 316 0;
#X msg 52 317 1;
#X obj 19 48 t b a;
#X obj 117 375 spigot 0;
#X obj 117 398 outlet;
#X connect 0 0 7 0;
#X connect 1 0 2 0;
#X connect 1 1 4 0;
#X connect 2 0 0 1;
#X connect 2 1 0 0;
#X connect 3 0 8 0;
#X connect 4 0 3 1;
#X connect 4 1 3 0;
#X connect 5 0 15 0;
#X connect 7 0 9 0;
#X connect 8 0 9 1;
#X connect 9 0 10 0;
#X connect 10 0 16 0;
#X connect 11 0 12 0;
#X connect 11 1 14 0;
#X connect 12 0 13 0;
#X connect 13 0 16 1;
#X connect 14 0 16 1;
#X connect 15 0 11 0;
#X connect 15 1 1 0;
#X connect 16 0 17 0;
#X restore 306 417 pd detect_double_click;
#X obj 306 447 bng 15 250 50 0 empty empty empty 17 7 0 10 -262144
-1 -1;
#X connect 2 0 1 0;
#X connect 3 0 1 0;
#X connect 5 0 6 0;
#X connect 5 1 8 0;
#X connect 6 0 7 0;
#X connect 7 0 10 0;
#X connect 8 0 7 1;
#X connect 9 0 7 1;
#X connect 10 0 30 0;
#X connect 10 1 27 0;
#X connect 10 2 9 0;
#X connect 11 0 12 0;
#X connect 11 1 14 0;
#X connect 12 0 13 0;
#X connect 13 0 16 0;
#X connect 14 0 13 1;
#X connect 15 0 13 1;
#X connect 16 1 33 0;
#X connect 16 2 15 0;
#X connect 18 0 26 0;
#X connect 19 0 26 1;
#X connect 20 0 17 0;
#X connect 21 0 41 0;
#X connect 22 0 40 0;
#X connect 23 0 19 0;
#X connect 24 0 4 0;
#X connect 26 0 24 0;
#X connect 27 0 23 0;
#X connect 27 1 28 0;
#X connect 28 0 31 0;
#X connect 29 0 5 0;
#X connect 30 0 11 0;
#X connect 31 0 34 0;
#X connect 31 1 34 0;
#X connect 31 2 34 0;
#X connect 31 3 34 0;
#X connect 31 4 34 0;
#X connect 31 5 34 0;
#X connect 31 6 34 0;
#X connect 31 7 32 0;
#X connect 32 0 35 0;
#X connect 33 0 18 0;
#X connect 34 0 26 2;
#X connect 35 0 26 2;
#X connect 36 0 37 0;
#X connect 37 0 38 0;
#X connect 37 1 38 1;
#X connect 38 0 39 0;
#X connect 40 0 44 0;
#X connect 41 0 53 0;
#X connect 42 0 45 0;
#X connect 43 0 51 0;
#X connect 44 0 42 0;
#X connect 44 1 43 1;
#X connect 45 0 46 0;
#X connect 45 1 48 0;
#X connect 46 0 47 0;
#X connect 47 0 50 0;
#X connect 48 0 47 1;
#X connect 49 0 47 1;
#X connect 50 0 43 0;
#X connect 51 0 52 0;
#X connect 51 1 52 1;
#X connect 52 0 20 0;
#X connect 53 0 49 0;
#X connect 53 1 54 0;
#X connect 54 0 55 0;
#X connect 54 1 55 1;
#X connect 55 0 56 0;
#X connect 56 1 57 0;
#X connect 57 0 58 0;
