#N canvas 0 99 842 511 10;
#X msg 524 105 clear;
#X obj 206 22 loadbang;
#X obj 206 45 \$0;
#X obj 185 21 bng 15 250 50 0 empty empty empty 17 7 0 10 -262144 -1
-1;
#N canvas 133 127 401 394 create_horizgrid 0;
#X obj 16 86 t a b;
#X obj 16 109 until;
#X obj 16 132 f;
#X msg 54 110 0;
#X obj 67 150 + 1;
#X obj 16 62 f;
#X obj 49 62 r \$0.pitchrange;
#X text 229 320 x y w h c;
#X obj 16 271 pack f f f f f;
#N canvas 0 99 387 189 x 0;
#X obj 18 12 inlet;
#X obj 18 97 +;
#X obj 33 70 r \$0.canvasleftmargin;
#X msg 18 46 0;
#X obj 18 120 outlet;
#X connect 0 0 3 0;
#X connect 1 0 4 0;
#X connect 2 0 1 1;
#X connect 3 0 1 0;
#X restore 16 233 pd x;
#N canvas 0 99 405 280 y 0;
#X obj 42 123 * 14;
#X obj 42 199 +;
#X obj 57 173 r \$0.canvastopmargin;
#X obj 63 96 r \$0.stepvisheight;
#X obj 42 35 inlet;
#X obj 42 239 outlet;
#X connect 0 0 1 0;
#X connect 1 0 5 0;
#X connect 2 0 1 1;
#X connect 3 0 0 1;
#X connect 4 0 0 0;
#X restore 55 234 pd y;
#N canvas 0 99 418 249 w 0;
#X obj 16 17 inlet;
#X obj 16 194 outlet;
#X obj 16 103 f;
#X obj 31 127 r \$0.stepviswidth;
#X obj 16 155 *;
#X obj 16 45 b;
#X obj 31 77 r \$0.stepsperpage;
#X connect 0 0 5 0;
#X connect 2 0 4 0;
#X connect 3 0 4 1;
#X connect 4 0 1 0;
#X connect 5 0 2 0;
#X connect 6 0 2 1;
#X restore 92 234 pd w;
#N canvas 0 99 395 171 h 0;
#X obj 23 14 inlet;
#X obj 23 37 b;
#X obj 23 110 f;
#X obj 23 133 outlet;
#X obj 38 65 r \$0.stepvisheight;
#X obj 38 88 - 1;
#X connect 0 0 1 0;
#X connect 1 0 2 0;
#X connect 2 0 3 0;
#X connect 4 0 5 0;
#X connect 5 0 2 1;
#X restore 135 235 pd h;
#X obj 16 156 t a a;
#X obj 16 185 t a a a a a;
#N canvas 570 378 422 271 c 0;
#X obj 20 56 mod 12;
#X obj 20 80 sel 0 2 4 5 7 9 11;
#X obj 125 102 b;
#X obj 20 130 f 887;
#X obj 125 177 f 777;
#X obj 20 32 + 5;
#X obj 64 129 r \$0.stepkeycolor1;
#X obj 132 152 r \$0.stepkeycolor2;
#X obj 20 211 t a;
#X obj 20 7 inlet;
#X obj 20 238 outlet;
#X connect 0 0 1 0;
#X connect 1 0 3 0;
#X connect 1 1 3 0;
#X connect 1 2 3 0;
#X connect 1 3 3 0;
#X connect 1 4 3 0;
#X connect 1 5 3 0;
#X connect 1 6 3 0;
#X connect 1 7 2 0;
#X connect 2 0 4 0;
#X connect 3 0 8 0;
#X connect 4 0 8 0;
#X connect 5 0 0 0;
#X connect 6 0 3 1;
#X connect 7 0 4 1;
#X connect 8 0 10 0;
#X connect 9 0 5 0;
#X restore 171 234 pd c;
#X obj 16 294 list prepend \$0;
#X obj 16 10 inlet;
#X obj 16 35 b;
#X obj 16 343 outlet;
#X msg 16 320 scalar \$1.horizgrid \$2 \$3 \$4 \$5 \$6;
#X connect 0 0 1 0;
#X connect 0 1 3 0;
#X connect 1 0 2 0;
#X connect 2 0 13 0;
#X connect 3 0 2 1;
#X connect 4 0 2 1;
#X connect 5 0 0 0;
#X connect 6 0 5 1;
#X connect 8 0 16 0;
#X connect 9 0 8 0;
#X connect 10 0 8 1;
#X connect 11 0 8 2;
#X connect 12 0 8 3;
#X connect 13 0 14 0;
#X connect 13 1 4 0;
#X connect 14 0 9 0;
#X connect 14 1 10 0;
#X connect 14 2 11 0;
#X connect 14 3 12 0;
#X connect 14 4 15 0;
#X connect 15 0 8 4;
#X connect 16 0 20 0;
#X connect 17 0 18 0;
#X connect 18 0 5 0;
#X connect 20 0 19 0;
#X restore 492 158 pd create_horizgrid;
#N canvas 54 126 618 459 horizgrid-template 0;
#X obj 19 18 filledpolygon c c 1 0 0 0 h w h w 0;
#X obj 20 44 struct \$0.horizgrid float x float y float w float h float
c;
#X obj 20 73 s \$0.horizgrid.send;
#X obj 22 126 route change;
#X obj 22 149 t p p, f 20;
#X obj 79 357 - 1;
#X obj 22 195 t b b, f 10;
#X obj 22 103 r \$0.horizgrid.send;
#X obj 22 388 set \$0.horizgrid w h;
#X obj 79 335 f;
#X obj 22 322 - 1;
#X obj 22 299 *;
#X obj 22 252 f;
#X obj 22 170 get \$0.horizgrid w;
#X obj 37 276 r \$0.stepviswidth;
#X obj 94 310 r \$0.stepvisheight;
#X obj 37 224 r \$0.stepsperpage;
#X connect 1 0 2 0;
#X connect 3 0 4 0;
#X connect 4 0 13 0;
#X connect 4 1 8 2;
#X connect 5 0 8 1;
#X connect 6 0 12 0;
#X connect 6 1 9 0;
#X connect 7 0 3 0;
#X connect 9 0 5 0;
#X connect 10 0 8 0;
#X connect 11 0 10 0;
#X connect 12 0 11 0;
#X connect 13 0 6 0;
#X connect 14 0 11 1;
#X connect 15 0 9 1;
#X connect 16 0 12 1;
#X restore 624 158 pd horizgrid-template;
#N canvas 60 99 426 427 vertgrid-template 0;
#X obj 19 18 filledpolygon 0 0 1 0 0 0 h w h w 0;
#X obj 19 42 struct \$0.vertgrid float x float y float w float h;
#X obj 19 66 s \$0.vertgrid.send;
#X obj 92 310 r \$0.stepvisheight;
#X obj 77 286 f;
#X obj 77 335 *;
#X obj 92 261 r \$0.pitchrange;
#X obj 22 103 r \$0.vertgrid.send;
#X obj 22 126 route change;
#X obj 22 170 get \$0.vertgrid w;
#X obj 22 149 t p p, f 19;
#X obj 77 358 - 1;
#X obj 22 388 set \$0.vertgrid w h;
#X obj 37 223 r \$0.stepviswidth;
#X obj 22 269 f;
#X obj 37 246 - 1;
#X obj 22 195 t b b, f 10;
#X connect 1 0 2 0;
#X connect 3 0 5 1;
#X connect 4 0 5 0;
#X connect 5 0 11 0;
#X connect 6 0 4 1;
#X connect 7 0 8 0;
#X connect 8 0 10 0;
#X connect 9 0 16 0;
#X connect 10 0 9 0;
#X connect 10 1 12 2;
#X connect 11 0 12 1;
#X connect 13 0 15 0;
#X connect 14 0 12 0;
#X connect 15 0 14 1;
#X connect 16 0 14 0;
#X connect 16 1 4 0;
#X restore 624 130 pd vertgrid-template;
#N canvas 113 111 401 394 create_vertgrid 0;
#X obj 16 86 t a b;
#X obj 16 109 until;
#X obj 16 132 f;
#X msg 54 110 0;
#X obj 67 150 + 1;
#X obj 16 62 f;
#N canvas 0 99 401 215 x 0;
#X obj 18 12 inlet;
#X obj 18 147 +;
#X obj 33 120 r \$0.canvasleftmargin;
#X obj 18 170 outlet;
#X obj 18 75 *;
#X obj 33 42 r \$0.stepviswidth;
#X connect 0 0 4 0;
#X connect 1 0 3 0;
#X connect 2 0 1 1;
#X connect 4 0 1 0;
#X connect 5 0 4 1;
#X restore 16 233 pd x;
#N canvas 0 99 405 280 y 0;
#X obj 42 199 +;
#X obj 57 173 r \$0.canvastopmargin;
#X obj 42 35 inlet;
#X obj 42 239 outlet;
#X msg 42 90 0;
#X connect 0 0 3 0;
#X connect 1 0 0 1;
#X connect 2 0 4 0;
#X connect 4 0 0 0;
#X restore 55 234 pd y;
#N canvas 0 99 418 249 w 0;
#X obj 16 17 inlet;
#X obj 16 194 outlet;
#X obj 31 90 r \$0.stepviswidth;
#X obj 16 45 b;
#X obj 16 155 f;
#X obj 31 113 - 1;
#X connect 0 0 3 0;
#X connect 2 0 5 0;
#X connect 3 0 4 0;
#X connect 4 0 1 0;
#X connect 5 0 4 1;
#X restore 92 234 pd w;
#N canvas 0 99 398 252 h 0;
#X obj 23 14 inlet;
#X obj 23 37 b;
#X obj 23 193 outlet;
#X obj 38 115 r \$0.stepvisheight;
#X obj 23 91 f;
#X obj 23 140 *;
#X obj 38 66 r \$0.pitchrange;
#X obj 23 163 - 1;
#X connect 0 0 1 0;
#X connect 1 0 4 0;
#X connect 3 0 5 1;
#X connect 4 0 5 0;
#X connect 5 0 7 0;
#X connect 6 0 4 1;
#X connect 7 0 2 0;
#X restore 135 235 pd h;
#X obj 16 156 t a a;
#X obj 16 294 list prepend \$0;
#X obj 16 10 inlet;
#X obj 16 35 b;
#X obj 16 343 outlet;
#X text 229 320 x y w h;
#X obj 16 271 pack f f f f;
#X obj 16 185 t a a a a;
#X msg 16 320 scalar \$1.vertgrid \$2 \$3 \$4 \$5;
#X obj 46 60 r \$0.stepsperpage;
#X connect 0 0 1 0;
#X connect 0 1 3 0;
#X connect 1 0 2 0;
#X connect 2 0 10 0;
#X connect 3 0 2 1;
#X connect 4 0 2 1;
#X connect 5 0 0 0;
#X connect 6 0 16 0;
#X connect 7 0 16 1;
#X connect 8 0 16 2;
#X connect 9 0 16 3;
#X connect 10 0 17 0;
#X connect 10 1 4 0;
#X connect 11 0 18 0;
#X connect 12 0 13 0;
#X connect 13 0 5 0;
#X connect 16 0 11 0;
#X connect 17 0 6 0;
#X connect 17 1 7 0;
#X connect 17 2 8 0;
#X connect 17 3 9 0;
#X connect 18 0 14 0;
#X connect 19 0 5 1;
#X restore 508 130 pd create_vertgrid;
#N canvas 107 99 446 109 vertline-template 0;
#X obj 18 20 drawpolygon c 1 0 0 0 h;
#X obj 19 79 s \$0.vertline.send;
#X obj 19 42 struct \$0.vertline float x float y float h float c float
n float nvis;
#X obj 165 20 drawnumber -v nvis n -3 -12 c;
#X connect 2 0 1 0;
#X restore 624 186 pd vertline-template;
#N canvas 23 99 400 432 create_vertline 0;
#X obj 16 116 t a b;
#X obj 16 139 until;
#X obj 16 162 f;
#X msg 54 140 0;
#X obj 67 180 + 1;
#X obj 16 62 f;
#N canvas 0 99 401 215 x 0;
#X obj 18 12 inlet;
#X obj 18 147 +;
#X obj 33 120 r \$0.canvasleftmargin;
#X obj 18 170 outlet;
#X obj 18 75 *;
#X obj 33 42 r \$0.stepviswidth;
#X connect 0 0 4 0;
#X connect 1 0 3 0;
#X connect 2 0 1 1;
#X connect 4 0 1 0;
#X connect 5 0 4 1;
#X restore 16 263 pd x;
#N canvas 0 99 405 280 y 0;
#X obj 42 199 +;
#X obj 57 173 r \$0.canvastopmargin;
#X obj 42 35 inlet;
#X obj 42 239 outlet;
#X msg 42 90 0;
#X connect 0 0 3 0;
#X connect 1 0 0 1;
#X connect 2 0 4 0;
#X connect 4 0 0 0;
#X restore 55 264 pd y;
#X obj 16 186 t a a;
#X obj 16 324 list prepend \$0;
#X obj 16 10 inlet;
#X obj 16 35 b;
#X obj 16 373 outlet;
#N canvas 0 99 398 252 h 0;
#X obj 23 14 inlet;
#X obj 23 37 b;
#X obj 23 163 outlet;
#X obj 38 115 r \$0.stepvisheight;
#X obj 23 91 f;
#X obj 23 140 *;
#X obj 38 66 r \$0.pitchrange;
#X connect 0 0 1 0;
#X connect 1 0 4 0;
#X connect 3 0 5 1;
#X connect 4 0 5 0;
#X connect 5 0 2 0;
#X connect 6 0 4 1;
#X restore 96 266 pd h;
#N canvas 0 99 500 410 c 0;
#X obj 16 17 inlet;
#X obj 16 326 outlet;
#X obj 87 53 r \$0.griddivision;
#X obj 103 80 r \$0.gridsubdivision;
#X obj 87 131 *;
#X obj 16 161 mod;
#X obj 16 198 sel 0;
#X obj 58 205 r \$0.gridsubdivision;
#X obj 43 232 mod;
#X obj 43 261 sel 0;
#X msg 70 288 888;
#X msg 16 289 0;
#X obj 103 103 t b a;
#X msg 43 288 666;
#X connect 0 0 5 0;
#X connect 2 0 4 0;
#X connect 3 0 12 0;
#X connect 4 0 5 1;
#X connect 5 0 6 0;
#X connect 6 0 11 0;
#X connect 6 1 8 0;
#X connect 7 0 8 1;
#X connect 8 0 9 0;
#X connect 9 0 13 0;
#X connect 9 1 10 0;
#X connect 10 0 1 0;
#X connect 11 0 1 0;
#X connect 12 0 4 0;
#X connect 12 1 4 1;
#X connect 13 0 1 0;
#X restore 133 267 pd c;
#X obj 16 89 + 1;
#X text 46 89 one more for end line;
#X obj 16 215 t a a a a a;
#N canvas 0 99 429 340 n 0;
#X obj 20 26 inlet;
#X obj 20 265 outlet;
#X obj 113 30 r \$0.griddivision;
#X obj 129 57 r \$0.gridsubdivision;
#X obj 113 108 *;
#X obj 129 80 t b a;
#X obj 20 161 div;
#X obj 20 109 t a a;
#X obj 109 197 mod;
#X obj 109 225 == 0;
#X obj 109 268 outlet;
#X obj 20 184 + 1;
#X obj 78 174 sel;
#X msg 78 200 0;
#X obj 170 115 r \$0.stepsperpage;
#X connect 0 0 7 0;
#X connect 2 0 4 0;
#X connect 3 0 5 0;
#X connect 4 0 6 1;
#X connect 4 0 8 1;
#X connect 5 0 4 0;
#X connect 5 1 4 1;
#X connect 6 0 11 0;
#X connect 7 0 6 0;
#X connect 7 1 12 0;
#X connect 8 0 9 0;
#X connect 9 0 10 0;
#X connect 11 0 1 0;
#X connect 12 0 13 0;
#X connect 12 1 8 0;
#X connect 13 0 10 0;
#X connect 14 0 12 1;
#X restore 170 267 pd n nvis;
#X obj 16 301 pack f f f f f f;
#X text 249 349 x y h c n nvis;
#X msg 16 350 scalar \$1.vertline \$2 \$3 \$4 \$5 \$6 \$7;
#X obj 46 60 r \$0.stepsperpage;
#X connect 0 0 1 0;
#X connect 0 1 3 0;
#X connect 1 0 2 0;
#X connect 2 0 8 0;
#X connect 3 0 2 1;
#X connect 4 0 2 1;
#X connect 5 0 15 0;
#X connect 6 0 19 0;
#X connect 7 0 19 1;
#X connect 8 0 17 0;
#X connect 8 1 4 0;
#X connect 9 0 21 0;
#X connect 10 0 11 0;
#X connect 11 0 5 0;
#X connect 13 0 19 2;
#X connect 14 0 19 3;
#X connect 15 0 0 0;
#X connect 17 0 6 0;
#X connect 17 1 7 0;
#X connect 17 2 13 0;
#X connect 17 3 14 0;
#X connect 17 4 18 0;
#X connect 18 0 19 4;
#X connect 18 1 19 5;
#X connect 19 0 9 0;
#X connect 21 0 12 0;
#X connect 22 0 5 1;
#X restore 476 186 pd create_vertline;
#N canvas 36 99 741 470 note-template 0;
#X obj 121 259 max 0;
#X obj 121 282 min 127;
#X obj 51 166 route click change;
#X obj 121 307 t a a;
#X obj 32 141 t a a a;
#X obj 32 429 s \$0.note.send;
#X obj 32 104 struct \$0.note float x float y float w float h float
id float gid float vel float c float vis;
#X obj 51 189 t p p, f 48;
#X obj 51 235 t a b, f 36;
#X obj 264 367 f;
#X obj 299 319 r \$0.stepvisheight;
#X obj 299 342 - 1;
#X obj 221 259 r \$0.stepviswidth;
#X obj 192 259 div;
#X obj 192 333 *;
#X obj 32 54 filledpolygon -v vis c 444 1 0 0 0 h w h w 0;
#N canvas 645 450 401 207 get.gid.clr 0;
#X obj 11 15 inlet;
#X obj 30 74 s \$0.gid2lr.get;
#X obj 30 98 r \$0.gid2lr.set;
#X obj 11 42 t b a b;
#X obj 11 131 list append;
#X obj 11 154 outlet;
#X connect 0 0 3 0;
#X connect 2 0 4 1;
#X connect 3 0 4 0;
#X connect 3 1 1 0;
#X connect 3 2 4 1;
#X connect 4 0 5 0;
#X restore 64 330 pd get.gid.clr;
#N canvas 320 203 446 363 clr.* 0;
#X obj 28 62 t a a a;
#X obj 28 112 div 100;
#X obj 78 113 mod 100;
#X obj 78 136 div 10;
#X obj 128 112 mod 10;
#X obj 28 165 *;
#X obj 28 188 int;
#X obj 78 165 *;
#X obj 78 188 int;
#X obj 128 165 *;
#X obj 128 188 int;
#X obj 230 103 inlet;
#X obj 28 212 min 9;
#X obj 78 212 min 9;
#X obj 128 212 min 9;
#X obj 28 235 * 100;
#X obj 78 235 * 10;
#X obj 128 235 * 1;
#X obj 28 262 +;
#X obj 28 285 +;
#X obj 28 311 outlet;
#X obj 28 24 inlet;
#X connect 0 0 1 0;
#X connect 0 1 2 0;
#X connect 0 2 4 0;
#X connect 1 0 5 0;
#X connect 2 0 3 0;
#X connect 3 0 7 0;
#X connect 4 0 9 0;
#X connect 5 0 6 0;
#X connect 6 0 12 0;
#X connect 7 0 8 0;
#X connect 8 0 13 0;
#X connect 9 0 10 0;
#X connect 10 0 14 0;
#X connect 11 0 9 1;
#X connect 11 0 7 1;
#X connect 11 0 5 1;
#X connect 12 0 15 0;
#X connect 13 0 16 0;
#X connect 14 0 17 0;
#X connect 15 0 18 0;
#X connect 16 0 18 1;
#X connect 17 0 19 1;
#X connect 18 0 19 0;
#X connect 19 0 20 0;
#X connect 21 0 0 0;
#X restore 64 364 pd clr.*;
#X obj 121 356 / 113;
#X obj 51 212 get \$0.note gid vel w, f 24;
#X obj 469 34 r \$0.default.show;
#X obj 469 163 == 1;
#X obj 496 93 == 2;
#X obj 469 57 t a a;
#X text 596 36 show note properties:;
#X text 609 53 0 = none;
#X text 609 68 1 = velocity;
#X text 609 83 2 = gid;
#X obj 478 260 hradio 20 1 0 3 empty empty empty 0 -8 0 10 -262144
-1 -1 0;
#X obj 478 291 s \$0.default.show;
#N canvas 149 210 387 235 range 0;
#X obj 33 104 min;
#X obj 86 64 r \$0.gidcolorlist;
#X obj 86 87 list length;
#X obj 86 110 - 1;
#X obj 33 22 inlet;
#X obj 33 45 max 0;
#X obj 33 127 outlet;
#X connect 0 0 6 0;
#X connect 1 0 2 0;
#X connect 2 0 3 0;
#X connect 3 0 0 1;
#X connect 4 0 5 0;
#X connect 5 0 0 0;
#X restore 51 274 pd range;
#X obj 51 406 set \$0.note gid c vel w h, f 48;
#X obj 51 297 t a a;
#X obj 496 120 drawnumber gid 3 1 999;
#X obj 469 190 drawnumber vel 3 1 999;
#X obj 192 284 min;
#X obj 192 307 max 1;
#X obj 225 283 r \$0.stepsperpage;
#X connect 0 0 1 0;
#X connect 1 0 3 0;
#X connect 2 0 7 0;
#X connect 2 1 7 0;
#X connect 3 0 18 0;
#X connect 3 1 31 2;
#X connect 4 0 5 0;
#X connect 4 1 2 0;
#X connect 6 0 4 0;
#X connect 7 0 19 0;
#X connect 7 1 31 5;
#X connect 8 0 30 0;
#X connect 8 1 9 0;
#X connect 9 0 31 4;
#X connect 10 0 11 0;
#X connect 11 0 9 1;
#X connect 12 0 13 1;
#X connect 12 0 14 1;
#X connect 13 0 35 0;
#X connect 14 0 31 3;
#X connect 16 0 17 0;
#X connect 17 0 31 1;
#X connect 18 0 17 1;
#X connect 19 0 8 0;
#X connect 19 1 0 0;
#X connect 19 2 13 0;
#X connect 20 0 23 0;
#X connect 21 0 34 0;
#X connect 22 0 33 0;
#X connect 23 0 21 0;
#X connect 23 1 22 0;
#X connect 28 0 29 0;
#X connect 30 0 32 0;
#X connect 32 0 31 0;
#X connect 32 1 16 0;
#X connect 35 0 36 0;
#X connect 36 0 14 0;
#X connect 37 0 35 1;
#X restore 624 101 pd note-template;
#X obj 481 314 r \$0.init;
#X msg 481 337 const 0;
#X obj 461 78 t b b b b b;
#N canvas 148 155 640 399 create_guis 0;
#X obj 355 32 inlet;
#X obj 404 294 outlet;
#X obj 16 346 list store;
#X msg 16 320 get \$1 1;
#X obj 16 371 s \$0.gid2lr.set;
#X obj 16 292 r \$0.gid2lr.get;
#X obj 80 318 r \$0.gidcolorlist;
#N canvas 633 422 439 518 create.gid.buttons 0;
#X obj 60 316 r \$0.canvasleftmargin;
#X obj 28 120 f;
#X obj 28 143 t a a;
#X obj 28 417 list prepend \$0;
#X msg 70 95 0;
#X obj 81 126 + 1;
#X obj 28 340 +;
#N canvas 645 450 401 207 get.gid.clr 0;
#X obj 11 15 inlet;
#X obj 30 74 s \$0.gid2lr.get;
#X obj 30 98 r \$0.gid2lr.set;
#X obj 11 42 t b a b;
#X obj 11 131 list append;
#X obj 11 154 outlet;
#X connect 0 0 3 0;
#X connect 2 0 4 1;
#X connect 3 0 4 0;
#X connect 3 1 1 0;
#X connect 3 2 4 1;
#X connect 4 0 5 0;
#X restore 45 241 pd get.gid.clr;
#X obj 109 41 r \$0.gidcolorlist;
#X obj 109 64 list length;
#X obj 28 65 t a b;
#X obj 28 39 f;
#X obj 28 91 until;
#X text 49 391 x clr hl gid;
#X obj 28 370 pack f f f f, f 23;
#X obj 28 468 outlet;
#X obj 28 12 inlet;
#X msg 28 445 scalar \$1.gid.button \$2 20 \$3 \$4 \$5;
#X obj 28 170 t a a b a;
#X obj 60 339 + 180;
#X obj 28 317 * 16;
#X obj 45 264 t a a;
#X connect 0 0 19 0;
#X connect 1 0 2 0;
#X connect 2 0 18 0;
#X connect 2 1 5 0;
#X connect 3 0 17 0;
#X connect 4 0 1 1;
#X connect 5 0 1 1;
#X connect 6 0 14 0;
#X connect 7 0 21 0;
#X connect 8 0 9 0;
#X connect 9 0 11 1;
#X connect 10 0 12 0;
#X connect 10 1 4 0;
#X connect 11 0 10 0;
#X connect 12 0 1 0;
#X connect 14 0 3 0;
#X connect 16 0 11 0;
#X connect 17 0 15 0;
#X connect 18 0 20 0;
#X connect 18 1 7 0;
#X connect 18 3 14 3;
#X connect 19 0 6 1;
#X connect 20 0 6 0;
#X connect 21 0 14 1;
#X connect 21 1 14 2;
#X restore 442 89 pd create.gid.buttons;
#N canvas 0 99 450 300 create.vel.number 0;
#X obj 24 21 inlet;
#X obj 24 201 outlet;
#X obj 68 23 r \$0.canvasleftmargin;
#X obj 24 90 f;
#X obj 68 46 + 0;
#X obj 69 96 r \$0.default.vel;
#X obj 24 125 pack f f;
#X obj 24 149 list prepend \$0;
#X msg 24 172 scalar \$1.vel \$2 20 \$3;
#X connect 0 0 3 0;
#X connect 2 0 4 0;
#X connect 3 0 6 0;
#X connect 4 0 3 1;
#X connect 5 0 6 1;
#X connect 6 0 7 0;
#X connect 7 0 8 0;
#X connect 8 0 1 0;
#X restore 427 120 pd create.vel.number;
#N canvas 0 99 450 300 create.dur.number 0;
#X obj 24 21 inlet;
#X obj 24 216 outlet;
#X obj 68 23 r \$0.canvasleftmargin;
#X obj 24 90 f;
#X obj 24 125 pack f f;
#X obj 24 149 list prepend \$0;
#X obj 69 96 r \$0.default.dur;
#X msg 24 172 scalar \$1.dur \$2 20 \$3;
#X obj 68 46 + 90;
#X connect 0 0 3 0;
#X connect 2 0 8 0;
#X connect 3 0 4 0;
#X connect 4 0 5 0;
#X connect 5 0 7 0;
#X connect 6 0 4 1;
#X connect 7 0 1 0;
#X connect 8 0 3 1;
#X restore 413 147 pd create.dur.number;
#N canvas 0 99 384 501 create.show.selector 0;
#X obj 7 7 inlet;
#X obj 8 433 outlet;
#X obj 8 372 list prepend \$0;
#X obj 7 61 f;
#X text 46 84 offset from left border;
#X obj 44 64 r \$0.canvasleftmargin;
#X obj 7 30 b;
#X obj 8 84 + 300;
#X obj 8 319 pack f f f f f f;
#X obj 27 173 +;
#X obj 8 123 t a a b;
#X msg 48 151 31;
#X obj 27 200 t a a b;
#X obj 74 241 +;
#X msg 89 218 55;
#X obj 74 264 t a b;
#X msg 109 291 37;
#X msg 8 346 \$1 \$2 0 none \, \$3 \$4 1 velocity \, \$5 \$6 2 group
;
#X msg 8 400 scalar \$1.show.selector \$2 20 \$3 555 \$4 \$5;
#X connect 0 0 6 0;
#X connect 2 0 18 0;
#X connect 3 0 7 0;
#X connect 5 0 3 1;
#X connect 6 0 3 0;
#X connect 7 0 10 0;
#X connect 8 0 17 0;
#X connect 9 0 12 0;
#X connect 10 0 8 0;
#X connect 10 1 9 0;
#X connect 10 2 11 0;
#X connect 11 0 9 1;
#X connect 11 0 8 1;
#X connect 12 0 8 2;
#X connect 12 1 13 0;
#X connect 12 2 14 0;
#X connect 13 0 15 0;
#X connect 14 0 13 1;
#X connect 14 0 8 3;
#X connect 15 0 8 4;
#X connect 15 1 16 0;
#X connect 16 0 8 5;
#X connect 17 0 2 0;
#X connect 18 0 1 0;
#X restore 384 204 pd create.show.selector;
#N canvas 164 241 550 482 gid.state 0;
#X obj 12 76 route click;
#X obj 12 99 t b p p b;
#X obj 63 145 pointer;
#X obj 12 52 r \$0.gid.button.send;
#X obj 12 324 set \$0.gid.button hl;
#N canvas 347 99 390 345 init.pointer 0;
#X obj 17 79 until;
#X msg 17 102 next;
#X obj 17 138 pointer \$0.gid.button;
#X obj 17 188 get \$0.gid.button gid;
#X obj 17 51 t b b;
#X obj 17 14 inlet;
#X obj 17 219 sel 0;
#X obj 63 219 r \$0.default.gid;
#X obj 17 294 outlet;
#X obj 17 242 t b b, f 23;
#X obj 17 161 t p p;
#X obj 17 265 pointer;
#X obj 68 54 symbol \$1;
#X msg 68 80 traverse \$1;
#X connect 0 0 1 0;
#X connect 1 0 2 0;
#X connect 2 0 10 0;
#X connect 2 2 0 1;
#X connect 3 0 6 0;
#X connect 4 0 0 0;
#X connect 4 1 12 0;
#X connect 5 0 4 0;
#X connect 6 0 9 0;
#X connect 7 0 6 1;
#X connect 9 0 11 0;
#X connect 9 1 0 1;
#X connect 10 0 3 0;
#X connect 10 1 11 1;
#X connect 11 0 8 0;
#X connect 12 0 13 0;
#X connect 13 0 2 0;
#X restore 181 93 pd init.pointer;
#X obj 181 66 inlet;
#X obj 181 116 t p b p;
#X obj 63 205 get \$0.gid.button clr;
#X obj 63 233 set \$0.gid.button hl;
#X msg 12 211 0;
#X obj 63 168 t p p;
#X connect 0 0 1 0;
#X connect 1 0 10 0;
#X connect 1 1 4 1;
#X connect 1 2 2 1;
#X connect 1 3 2 0;
#X connect 2 0 11 0;
#X connect 3 0 0 0;
#X connect 5 0 7 0;
#X connect 6 0 5 0;
#X connect 7 0 2 1;
#X connect 7 1 10 0;
#X connect 7 2 4 1;
#X connect 8 0 9 0;
#X connect 10 0 4 0;
#X connect 11 0 8 0;
#X connect 11 1 9 1;
#X restore 55 135 pd gid.state;
#N canvas 109 99 450 300 show.selector.state 0;
#X obj 12 76 route click;
#X obj 12 99 t b p p b;
#X obj 63 145 pointer;
#X obj 63 168 t b p;
#N canvas 246 399 398 338 init.pointer 0;
#X obj 17 79 until;
#X msg 17 102 next;
#X obj 17 51 t b b;
#X obj 17 14 inlet;
#X obj 17 217 sel 0;
#X obj 17 290 outlet;
#X obj 17 138 pointer \$0.show.selector;
#X obj 17 188 get \$0.show.selector id;
#X obj 58 215 r \$0.default.show;
#X obj 17 161 t p p;
#X obj 17 240 t b b, f 21;
#X obj 17 263 pointer;
#X obj 68 54 symbol \$1;
#X msg 68 80 traverse \$1;
#X connect 0 0 1 0;
#X connect 1 0 6 0;
#X connect 2 0 0 0;
#X connect 2 1 12 0;
#X connect 3 0 2 0;
#X connect 4 0 10 0;
#X connect 6 0 9 0;
#X connect 6 2 0 1;
#X connect 7 0 4 0;
#X connect 8 0 4 1;
#X connect 9 0 7 0;
#X connect 9 1 11 1;
#X connect 10 0 11 0;
#X connect 10 1 0 1;
#X connect 11 0 5 0;
#X connect 12 0 13 0;
#X connect 13 0 6 0;
#X restore 191 97 pd init.pointer;
#X obj 191 69 inlet;
#X obj 12 52 r \$0.show.selector.send;
#X msg 63 197 555;
#X msg 12 195 0;
#X obj 12 249 set \$0.show.selector hilite;
#X obj 191 120 t p b p;
#X connect 0 0 1 0;
#X connect 1 0 8 0;
#X connect 1 1 9 1;
#X connect 1 2 2 1;
#X connect 1 3 2 0;
#X connect 2 0 3 0;
#X connect 3 0 7 0;
#X connect 3 1 9 1;
#X connect 4 0 10 0;
#X connect 5 0 4 0;
#X connect 6 0 0 0;
#X connect 7 0 9 0;
#X connect 8 0 9 0;
#X connect 10 0 2 1;
#X connect 10 1 8 0;
#X connect 10 2 9 1;
#X restore 53 169 pd show.selector.state;
#N canvas 250 344 450 300 create.cursor 0;
#X obj 45 103 r \$0.canvastopmargin;
#X obj 22 139 f;
#X obj 22 26 inlet;
#X obj 22 223 list prepend \$0;
#X obj 22 274 outlet;
#N canvas 0 99 398 252 h 0;
#X obj 23 14 inlet;
#X obj 23 37 b;
#X obj 23 163 outlet;
#X obj 38 115 r \$0.stepvisheight;
#X obj 23 91 f;
#X obj 23 140 *;
#X obj 38 66 r \$0.pitchrange;
#X connect 0 0 1 0;
#X connect 1 0 4 0;
#X connect 3 0 5 1;
#X connect 4 0 5 0;
#X connect 5 0 2 0;
#X connect 6 0 4 1;
#X restore 68 128 pd h;
#X obj 22 49 t b b;
#X obj 22 192 pack f f f 1;
#X obj 37 79 r \$0.canvasleftmargin;
#X msg 22 251 scalar \$1.cursor \$2 \$3 \$4 \$5;
#X connect 0 0 7 1;
#X connect 1 0 7 0;
#X connect 2 0 6 0;
#X connect 3 0 9 0;
#X connect 5 0 7 2;
#X connect 6 0 1 0;
#X connect 6 1 5 0;
#X connect 7 0 3 0;
#X connect 8 0 1 1;
#X connect 9 0 4 0;
#X restore 369 228 pd create.cursor;
#N canvas 357 99 501 367 cursor.state 0;
#X obj 258 107 until;
#X msg 258 130 next;
#X obj 258 79 t b b;
#X obj 258 42 inlet;
#X obj 258 166 pointer \$0.cursor;
#X obj 258 189 t p b;
#X obj 171 238 set \$0.cursor x;
#X obj 44 238 set \$0.cursor vis;
#X obj 82 92 *;
#X obj 118 95 r \$0.stepviswidth;
#X obj 82 117 +;
#X obj 118 119 r \$0.canvasleftmargin;
#X obj 309 82 symbol \$1;
#X msg 309 108 traverse \$1;
#X obj 82 60 r \$0.cursor.pos;
#X obj 44 210 r \$0.cursor.show;
#X connect 0 0 1 0;
#X connect 1 0 4 0;
#X connect 2 0 0 0;
#X connect 2 1 12 0;
#X connect 3 0 2 0;
#X connect 4 0 5 0;
#X connect 4 2 0 1;
#X connect 5 0 6 1;
#X connect 5 0 7 1;
#X connect 5 1 0 1;
#X connect 8 0 10 0;
#X connect 9 0 8 1;
#X connect 10 0 6 0;
#X connect 11 0 10 1;
#X connect 12 0 13 0;
#X connect 13 0 4 0;
#X connect 14 0 8 0;
#X connect 15 0 7 0;
#X restore 52 204 pd cursor.state;
#N canvas 0 99 450 300 create.mode.button 0;
#X obj 24 21 inlet;
#X obj 24 206 outlet;
#X obj 110 93 r \$0.canvasleftmargin;
#X obj 24 159 list prepend \$0;
#X obj 24 91 +;
#X obj 24 69 unpack f f s;
#X obj 24 112 pack f f s;
#X msg 24 182 scalar \$1.mode.button \$2 \$3 \$4 \$5 \$6;
#X msg 24 138 \$1 11 \$2 666 \$3;
#X msg 24 46 0 72 velocity \, 90 72 duration \, 180 95 gid;
#X connect 0 0 9 0;
#X connect 2 0 4 1;
#X connect 3 0 7 0;
#X connect 4 0 6 0;
#X connect 5 0 4 0;
#X connect 5 1 6 1;
#X connect 5 2 6 2;
#X connect 6 0 8 0;
#X connect 7 0 1 0;
#X connect 8 0 3 0;
#X connect 9 0 5 0;
#X restore 398 175 pd create.mode.button;
#X obj 355 61 t b b b b b b b;
#X connect 0 0 16 0;
#X connect 2 0 4 0;
#X connect 3 0 2 0;
#X connect 5 0 3 0;
#X connect 6 0 2 1;
#X connect 7 0 1 0;
#X connect 8 0 1 0;
#X connect 9 0 1 0;
#X connect 10 0 1 0;
#X connect 13 0 1 0;
#X connect 15 0 1 0;
#X connect 16 0 11 0;
#X connect 16 0 12 0;
#X connect 16 0 14 0;
#X connect 16 1 13 0;
#X connect 16 2 10 0;
#X connect 16 3 15 0;
#X connect 16 4 9 0;
#X connect 16 5 8 0;
#X connect 16 6 7 0;
#X restore 461 215 pd create_guis;
#N canvas 0 99 804 221 gui-templates 0;
#N canvas 0 99 408 150 gid.button-template 0;
#X obj 16 99 s \$0.gid.button.send;
#X obj 16 60 struct \$0.gid.button float x float y float clr float
hl float gid;
#X obj 17 26 filledpolygon clr hl 1 0 0 0 15 15 15 15 0;
#X connect 1 0 0 0;
#X restore 8 78 pd gid.button-template;
#N canvas 195 247 417 284 vel-template 0;
#X obj 14 260 s \$0.vel.send;
#X obj 99 168 max 0;
#X obj 99 191 min 127;
#X obj 14 65 struct \$0.vel float x float y float value;
#X obj 14 88 t a a;
#X obj 99 144 get \$0.vel value;
#X obj 99 99 route change;
#X obj 99 122 t p p;
#X obj 99 216 set \$0.vel value;
#X obj 13 39 filledpolygon 886 886 1 0 0 0 15 72 15 72 0;
#X obj 14 11 drawnumber value 0 2 0 velocity=;
#X connect 1 0 2 0;
#X connect 2 0 8 0;
#X connect 3 0 4 0;
#X connect 4 0 0 0;
#X connect 4 1 6 0;
#X connect 5 0 1 0;
#X connect 6 0 7 0;
#X connect 7 0 5 0;
#X connect 7 1 8 1;
#X restore 8 48 pd vel-template;
#N canvas 0 99 414 335 dur-template 0;
#X obj 14 75 struct \$0.dur float x float y float value;
#X obj 99 201 min 127;
#X obj 14 98 t a a;
#X obj 99 109 route change;
#X obj 99 132 t p p;
#X obj 99 154 get \$0.dur value;
#X obj 99 226 set \$0.dur value;
#X obj 14 270 s \$0.dur.send;
#X obj 99 178 max 1;
#X obj 13 39 filledpolygon 886 886 1 0 0 0 15 72 15 72 0;
#X obj 14 11 drawnumber value 0 2 0 duration=;
#X obj 155 199 r \$0.stepsperpage;
#X connect 0 0 2 0;
#X connect 1 0 6 0;
#X connect 2 0 7 0;
#X connect 2 1 3 0;
#X connect 3 0 4 0;
#X connect 4 0 5 0;
#X connect 4 1 6 1;
#X connect 5 0 8 0;
#X connect 8 0 1 0;
#X connect 11 0 1 1;
#X restore 8 18 pd dur-template;
#N canvas 469 142 450 300 show.selector-template 0;
#X obj 22 149 s \$0.show.selector.send;
#X obj 22 108 struct \$0.show.selector float x float y float w float
hilite float id symbol label;
#X obj 21 25 filledpolygon 777 777 1 0 0 0 15 w 15 w 0;
#X obj 22 53 drawsymbol label 2 1 hilite;
#X connect 1 0 0 0;
#X restore 8 138 pd show.selector-template;
#X obj 464 59 route click;
#X obj 464 107 s \$0.default.gid;
#X obj 333 35 r \$0.vel.send;
#X obj 333 81 get \$0.vel value;
#X obj 333 106 s \$0.default.vel;
#X obj 333 58 route change;
#X obj 209 55 route change;
#X obj 209 32 r \$0.dur.send;
#X obj 209 78 get \$0.dur value;
#X obj 209 103 s \$0.default.dur;
#X obj 464 36 r \$0.gid.button.send;
#X obj 464 82 get \$0.gid.button gid;
#X obj 612 60 route click;
#X obj 612 37 r \$0.show.selector.send;
#X obj 612 83 get \$0.show.selector id;
#X obj 612 108 s \$0.default.show;
#N canvas 489 158 450 300 cursor-template 0;
#X obj 22 149 s \$0.cursor.send;
#X obj 22 108 struct \$0.cursor float x float y float h float vis;
#X obj 18 20 drawpolygon -v vis 900 1 0 0 0 h;
#X connect 1 0 0 0;
#X restore 8 168 pd cursor-template;
#N canvas 0 99 392 164 mode.button-template 0;
#X obj 16 99 s \$0.mode.button.send;
#X obj 17 26 filledpolygon c c 1 0 0 0 8 w 8 w 0;
#X obj 16 60 struct \$0.mode.button float x float y float w float c
symbol param;
#X connect 2 0 0 0;
#X restore 8 108 pd mode.button-template;
#N canvas 199 504 810 268 mode.button.logic 0;
#X obj 23 17 r \$0.mode.button.send;
#X msg 99 186 900;
#X msg 130 187 666;
#X obj 99 159 sel 666 900;
#X obj 23 63 t p p, f 26;
#X obj 23 88 get \$0.mode.button w c;
#X obj 23 217 set \$0.mode.button w c, f 26;
#X obj 23 148 f;
#X obj 75 121 b;
#X obj 23 40 route click change;
#X obj 243 17 r \$0.mode.button.send;
#X obj 243 40 route click;
#X obj 243 63 get \$0.mode.button c param;
#X obj 243 86 sel 666 900;
#X msg 243 109 1;
#X msg 274 109 0;
#X obj 243 152 list prepend;
#X obj 243 198 s \$0.edit.modes;
#X obj 243 175 list trim;
#X connect 0 0 9 0;
#X connect 1 0 6 1;
#X connect 2 0 6 1;
#X connect 3 0 1 0;
#X connect 3 1 2 0;
#X connect 4 0 5 0;
#X connect 4 1 6 2;
#X connect 5 0 7 0;
#X connect 5 1 3 0;
#X connect 7 0 6 0;
#X connect 8 0 7 0;
#X connect 9 0 4 0;
#X connect 9 1 8 0;
#X connect 10 0 11 0;
#X connect 11 0 12 0;
#X connect 12 0 13 0;
#X connect 12 1 16 1;
#X connect 13 0 14 0;
#X connect 13 1 15 0;
#X connect 14 0 16 0;
#X connect 15 0 16 0;
#X connect 16 0 18 0;
#X connect 18 0 17 0;
#X restore 212 143 pd mode.button.logic;
#X connect 4 0 15 0;
#X connect 6 0 9 0;
#X connect 7 0 8 0;
#X connect 9 0 7 0;
#X connect 10 0 12 0;
#X connect 11 0 10 0;
#X connect 12 0 13 0;
#X connect 14 0 4 0;
#X connect 15 0 5 0;
#X connect 16 0 18 0;
#X connect 17 0 16 0;
#X connect 18 0 19 0;
#X restore 624 215 pd gui-templates;
#X obj 20 448 r \$0.global.send;
#X obj 20 405 s \$0.global.receive;
#X text 20 63 generate events;
#X text 20 218 process events;
#N canvas 0 99 406 517 note.change.duration 0;
#X obj 14 19 r \$0.note.send;
#X obj 14 246 change -1;
#X obj 107 164 t a a;
#X obj 134 190 tabread \$0.duration;
#X msg 134 215 set \$1;
#X obj 14 376 list prepend;
#X obj 14 404 list prepend note change duration;
#X obj 14 427 list trim;
#X obj 14 455 s \$0.global.send;
#X obj 107 138 change -1;
#X obj 14 85 get \$0.note w;
#X obj 14 42 route change click;
#N canvas 83 99 398 214 id->step|pitch 0;
#X obj 13 14 inlet;
#X obj 13 37 t b a;
#X obj 13 114 list append;
#X obj 13 137 outlet;
#X obj 40 63 s \$0.convert.id->step|pitch.get;
#X obj 40 86 r \$0.convert.id->step|pitch;
#X connect 0 0 1 0;
#X connect 1 0 2 0;
#X connect 1 1 4 0;
#X connect 2 0 3 0;
#X connect 5 0 2 1;
#X restore 107 272 pd id->step|pitch;
#N canvas 83 99 398 214 pointer->id 0;
#X obj 13 14 inlet;
#X obj 13 37 t b a;
#X obj 13 114 list append;
#X obj 13 137 outlet;
#X obj 40 63 s \$0.convert.pointer->id.get;
#X obj 40 86 r \$0.convert.pointer->id;
#X connect 0 0 1 0;
#X connect 1 0 2 0;
#X connect 1 1 4 0;
#X connect 2 0 3 0;
#X connect 5 0 2 1;
#X restore 107 76 pd pointer->id;
#N canvas 0 99 405 189 w->duration 0;
#X obj 13 14 inlet;
#X obj 13 37 t b a;
#X obj 13 114 list append;
#X obj 13 137 outlet;
#X obj 40 85 r \$0.convert.w->duration;
#X obj 40 63 s \$0.convert.w->duration.get;
#X connect 0 0 1 0;
#X connect 1 0 2 0;
#X connect 1 1 5 0;
#X connect 2 0 3 0;
#X connect 4 0 2 1;
#X restore 14 114 pd w->duration;
#X connect 0 0 11 0;
#X connect 1 0 5 0;
#X connect 2 0 12 0;
#X connect 2 1 3 0;
#X connect 3 0 4 0;
#X connect 4 0 1 0;
#X connect 5 0 6 0;
#X connect 6 0 7 0;
#X connect 7 0 8 0;
#X connect 9 0 2 0;
#X connect 10 0 14 0;
#X connect 11 0 10 0;
#X connect 11 1 13 0;
#X connect 12 0 5 1;
#X connect 13 0 9 0;
#X connect 14 0 1 0;
#X restore 19 110 pd note.change.duration;
#N canvas 104 91 631 633 note.create/delete 0;
#X obj 29 235 del 0;
#X obj 29 262 f;
#X msg 72 238 1;
#X msg 254 191 0;
#X obj 29 288 sel 1;
#N canvas 0 99 483 432 detect_double_click 0;
#X obj 91 101 -;
#X obj 90 76 t a a;
#X obj 19 23 inlet;
#X text 109 21 this detects two clicks on the same scalar within a
certain period.;
#X obj 19 75 t b b;
#X obj 19 99 del 300;
#X msg 19 122 0;
#X msg 52 123 1;
#X obj 19 48 t b a;
#X obj 91 166 spigot 0;
#X obj 91 203 outlet;
#X obj 91 126 sel 0;
#X connect 0 0 11 0;
#X connect 1 0 0 1;
#X connect 1 1 0 0;
#X connect 2 0 8 0;
#X connect 4 0 5 0;
#X connect 4 1 7 0;
#X connect 5 0 6 0;
#X connect 6 0 9 1;
#X connect 7 0 9 1;
#X connect 8 0 4 0;
#X connect 8 1 1 0;
#X connect 9 0 10 0;
#X connect 11 0 9 0;
#X restore 281 255 pd detect_double_click;
#X obj 254 109 unpack s p f;
#X obj 254 132 sel click;
#X obj 254 154 t b b;
#X obj 281 178 pointer;
#X obj 29 14 r \$0.horizgrid.send;
#X obj 29 37 route click;
#X obj 29 60 get \$0.horizgrid y;
#X obj 74 105 route click;
#X obj 74 82 r \$0.vertgrid.send;
#X obj 29 153 pack f f;
#X obj 74 128 get \$0.vertgrid x;
#X obj 29 202 t b b a;
#X obj 29 315 list append;
#X msg 29 176 \$2 \$1;
#X obj 254 79 r \$0.note.send;
#X text 103 318 x y;
#X obj 281 301 f;
#X text 72 427 step pitch;
#N canvas 0 190 318 251 append.vel.dur.gid 0;
#X obj 12 18 inlet;
#X obj 12 199 outlet;
#X obj 95 55 r \$0.default.vel;
#X obj 95 85 r \$0.default.dur;
#X obj 95 115 r \$0.default.gid;
#X obj 12 73 list append;
#X obj 12 103 list append;
#X obj 12 133 list append;
#X connect 0 0 5 0;
#X connect 2 0 5 1;
#X connect 3 0 6 1;
#X connect 4 0 7 1;
#X connect 5 0 6 0;
#X connect 6 0 7 0;
#X connect 7 0 1 0;
#X restore 29 444 pd append.vel.dur.gid;
#X text 33 463 step pitch vel dur gid;
#X obj 29 479 list prepend note create;
#X obj 29 502 list trim;
#X obj 29 525 s \$0.global.send;
#X obj 281 278 b;
#X obj 281 232 t a a;
#X obj 281 387 list trim;
#X obj 281 410 s \$0.global.send;
#X obj 281 364 list prepend note delete;
#N canvas 0 99 405 189 x->step 0;
#X obj 40 63 s \$0.convert.x->step.get;
#X obj 40 85 r \$0.convert.x->step;
#X obj 13 14 inlet;
#X obj 13 37 t b a;
#X obj 13 114 list append;
#X obj 13 137 outlet;
#X connect 1 0 4 1;
#X connect 2 0 3 0;
#X connect 3 0 4 0;
#X connect 3 1 0 0;
#X connect 4 0 5 0;
#X restore 29 362 pd x->step;
#N canvas 0 99 405 189 y->pitch 0;
#X obj 13 14 inlet;
#X obj 13 37 t b a;
#X obj 13 114 list append;
#X obj 13 137 outlet;
#X obj 40 63 s \$0.convert.y->pitch.get;
#X obj 40 85 r \$0.convert.y->pitch;
#X connect 0 0 1 0;
#X connect 1 0 2 0;
#X connect 1 1 4 0;
#X connect 2 0 3 0;
#X connect 5 0 2 1;
#X restore 104 362 pd y->pitch;
#X obj 29 338 unpack f f, f 13;
#X obj 29 392 pack f f, f 13;
#N canvas 83 99 398 214 pointer->id 0;
#X obj 13 14 inlet;
#X obj 13 37 t b a;
#X obj 13 114 list append;
#X obj 13 137 outlet;
#X obj 40 63 s \$0.convert.pointer->id.get;
#X obj 40 86 r \$0.convert.pointer->id;
#X connect 0 0 1 0;
#X connect 1 0 2 0;
#X connect 1 1 4 0;
#X connect 2 0 3 0;
#X connect 5 0 2 1;
#X restore 281 203 pd pointer->id;
#N canvas 73 91 398 214 id->step|pitch 0;
#X obj 13 14 inlet;
#X obj 13 37 t b a;
#X obj 13 114 list append;
#X obj 13 137 outlet;
#X obj 40 63 s \$0.convert.id->step|pitch.get;
#X obj 40 86 r \$0.convert.id->step|pitch;
#X connect 0 0 1 0;
#X connect 1 0 2 0;
#X connect 1 1 4 0;
#X connect 2 0 3 0;
#X connect 5 0 2 1;
#X restore 281 332 pd id->step|pitch;
#X connect 0 0 1 0;
#X connect 1 0 4 0;
#X connect 2 0 1 1;
#X connect 3 0 1 1;
#X connect 4 0 18 0;
#X connect 5 0 29 0;
#X connect 6 0 7 0;
#X connect 6 1 9 1;
#X connect 7 0 8 0;
#X connect 8 0 3 0;
#X connect 8 1 9 0;
#X connect 9 0 38 0;
#X connect 10 0 11 0;
#X connect 11 0 12 0;
#X connect 12 0 15 0;
#X connect 13 0 16 0;
#X connect 14 0 13 0;
#X connect 15 0 19 0;
#X connect 16 0 15 1;
#X connect 17 0 0 0;
#X connect 17 1 2 0;
#X connect 17 2 18 1;
#X connect 18 0 36 0;
#X connect 19 0 17 0;
#X connect 20 0 6 0;
#X connect 22 0 39 0;
#X connect 24 0 26 0;
#X connect 26 0 27 0;
#X connect 27 0 28 0;
#X connect 29 0 22 0;
#X connect 30 0 5 0;
#X connect 30 1 22 1;
#X connect 31 0 32 0;
#X connect 33 0 31 0;
#X connect 34 0 37 0;
#X connect 35 0 37 1;
#X connect 36 0 34 0;
#X connect 36 1 35 0;
#X connect 37 0 24 0;
#X connect 38 0 30 0;
#X connect 39 0 33 0;
#X restore 19 85 pd note.create/delete;
#N canvas 0 99 406 517 note.change.velocity 0;
#X obj 14 19 r \$0.note.send;
#X obj 14 42 route change;
#X obj 14 226 change -1;
#X obj 120 144 t a a;
#X msg 147 195 set \$1;
#X obj 14 356 list prepend;
#X obj 14 407 list trim;
#X obj 14 435 s \$0.global.send;
#X obj 120 118 change -1;
#X obj 14 65 get \$0.note vel id;
#X obj 147 170 tabread \$0.velocity;
#X obj 14 384 list prepend note change velocity;
#N canvas 83 99 398 214 id->step|pitch 0;
#X obj 13 14 inlet;
#X obj 13 37 t b a;
#X obj 13 114 list append;
#X obj 13 137 outlet;
#X obj 40 63 s \$0.convert.id->step|pitch.get;
#X obj 40 86 r \$0.convert.id->step|pitch;
#X connect 0 0 1 0;
#X connect 1 0 2 0;
#X connect 1 1 4 0;
#X connect 2 0 3 0;
#X connect 5 0 2 1;
#X restore 120 242 pd id->step|pitch;
#X connect 0 0 1 0;
#X connect 1 0 9 0;
#X connect 2 0 5 0;
#X connect 3 0 12 0;
#X connect 3 1 10 0;
#X connect 4 0 2 0;
#X connect 5 0 11 0;
#X connect 6 0 7 0;
#X connect 8 0 3 0;
#X connect 9 0 2 0;
#X connect 9 1 8 0;
#X connect 10 0 4 0;
#X connect 11 0 6 0;
#X connect 12 0 5 1;
#X restore 19 135 pd note.change.velocity;
#N canvas 0 99 406 517 note.change.gid 0;
#X obj 14 19 r \$0.note.send;
#X obj 14 42 route change;
#X obj 14 226 change -1;
#X obj 119 144 t a a;
#X msg 146 195 set \$1;
#X obj 14 356 list prepend;
#X obj 14 407 list trim;
#X obj 14 435 s \$0.global.send;
#X obj 119 118 change -1;
#X obj 146 170 tabread \$0.gid;
#X obj 14 384 list prepend note change gid;
#X obj 14 65 get \$0.note gid id;
#N canvas 83 99 398 214 id->step|pitch 0;
#X obj 13 14 inlet;
#X obj 13 37 t b a;
#X obj 13 114 list append;
#X obj 13 137 outlet;
#X obj 40 63 s \$0.convert.id->step|pitch.get;
#X obj 40 86 r \$0.convert.id->step|pitch;
#X connect 0 0 1 0;
#X connect 1 0 2 0;
#X connect 1 1 4 0;
#X connect 2 0 3 0;
#X connect 5 0 2 1;
#X restore 119 247 pd id->step|pitch;
#X connect 0 0 1 0;
#X connect 1 0 11 0;
#X connect 2 0 5 0;
#X connect 3 0 12 0;
#X connect 3 1 9 0;
#X connect 4 0 2 0;
#X connect 5 0 10 0;
#X connect 6 0 7 0;
#X connect 8 0 3 0;
#X connect 9 0 4 0;
#X connect 10 0 6 0;
#X connect 11 0 2 0;
#X connect 11 1 8 0;
#X restore 19 159 pd note.change.gid;
#X obj 285 430 text define \$0.sequence;
#N canvas 392 150 545 360 sequencer 0;
#N canvas 0 281 404 347 note.create 0;
#X obj 24 16 r \$0.global.receive;
#X obj 24 39 route note;
#X obj 24 62 route create;
#X msg 165 178 \$1 \$2 \$3;
#X msg 24 123 \$1 \$4;
#X obj 24 146 +;
#X obj 24 85 t a a a;
#X obj 24 223 pack f f 0;
#X msg 68 125 \$2;
#X obj 24 285 s \$0.sequencer.event.add.pre;
#X obj 165 210 s \$0.sequencer.event.add.post;
#X obj 24 169 mod;
#X obj 50 169 r \$0.stepsperpage;
#X connect 0 0 1 0;
#X connect 1 0 2 0;
#X connect 2 0 6 0;
#X connect 3 0 10 0;
#X connect 4 0 5 0;
#X connect 5 0 11 0;
#X connect 6 0 4 0;
#X connect 6 1 8 0;
#X connect 6 2 3 0;
#X connect 7 0 9 0;
#X connect 8 0 7 1;
#X connect 11 0 7 0;
#X connect 12 0 11 1;
#X restore 13 19 pd note.create;
#N canvas 0 91 415 397 note.delete 0;
#X obj 24 16 r \$0.global.receive;
#X obj 24 39 route note;
#X obj 24 62 route delete;
#N canvas 126 411 388 279 resolve.note 0;
#X obj 39 95 r \$0.resolve.note.receive;
#X obj 39 72 s \$0.resolve.note.send;
#X obj 20 224 pointer;
#X obj 20 17 inlet;
#X obj 20 46 t b a b;
#X obj 20 174 f;
#X obj 20 197 sel 1;
#X obj 39 118 t b p;
#X msg 39 142 1;
#X msg 107 141 0;
#X obj 20 247 outlet;
#X connect 0 0 7 0;
#X connect 2 0 10 0;
#X connect 3 0 4 0;
#X connect 4 0 5 0;
#X connect 4 1 1 0;
#X connect 4 2 9 0;
#X connect 5 0 6 0;
#X connect 6 0 2 0;
#X connect 7 0 8 0;
#X connect 7 1 2 1;
#X connect 8 0 5 1;
#X connect 9 0 5 1;
#X restore 102 141 pd resolve.note;
#X obj 102 166 get \$0.note id;
#X obj 102 189 tabread \$0.duration;
#X msg 83 209 \$1;
#X obj 83 236 +;
#X obj 83 115 t a a a;
#X obj 83 284 pack f f;
#X msg 127 233 \$2;
#X obj 24 85 t a a;
#X obj 24 319 s \$0.sequencer.event.remove;
#X obj 83 260 mod;
#X obj 109 260 r \$0.stepsperpage;
#X connect 0 0 1 0;
#X connect 1 0 2 0;
#X connect 2 0 11 0;
#X connect 3 0 4 0;
#X connect 4 0 5 0;
#X connect 5 0 7 1;
#X connect 6 0 7 0;
#X connect 7 0 13 0;
#X connect 8 0 6 0;
#X connect 8 1 3 0;
#X connect 8 2 10 0;
#X connect 9 0 12 0;
#X connect 10 0 9 1;
#X connect 11 0 12 0;
#X connect 11 1 8 0;
#X connect 13 0 9 0;
#X connect 14 0 13 1;
#X restore 13 42 pd note.delete;
#N canvas 0 99 463 481 note.change.duration 0;
#X obj 24 16 r \$0.global.receive;
#X obj 24 39 route note;
#N canvas 126 411 388 279 resolve.note 0;
#X obj 39 95 r \$0.resolve.note.receive;
#X obj 39 72 s \$0.resolve.note.send;
#X obj 20 224 pointer;
#X obj 20 17 inlet;
#X obj 20 46 t b a b;
#X obj 20 174 f;
#X obj 20 197 sel 1;
#X obj 39 118 t b p;
#X msg 39 142 1;
#X msg 107 141 0;
#X obj 20 247 outlet;
#X connect 0 0 7 0;
#X connect 2 0 10 0;
#X connect 3 0 4 0;
#X connect 4 0 5 0;
#X connect 4 1 1 0;
#X connect 4 2 9 0;
#X connect 5 0 6 0;
#X connect 6 0 2 0;
#X connect 7 0 8 0;
#X connect 7 1 2 1;
#X connect 8 0 5 1;
#X connect 9 0 5 1;
#X restore 215 221 pd resolve.note;
#X obj 215 246 get \$0.note id;
#X obj 215 269 tabread \$0.duration;
#X msg 196 289 \$1;
#X obj 196 316 +;
#X obj 196 195 t a a a;
#X obj 196 372 pack f f;
#X msg 240 313 \$2;
#X obj 24 109 t a a;
#X obj 24 62 route change;
#X obj 24 85 route duration;
#X msg 196 163 \$1 \$2;
#X obj 24 173 t a a;
#X msg 24 196 \$1 \$3;
#X obj 24 219 +;
#X obj 24 270 pack f f 0;
#X msg 56 224 \$2;
#X obj 196 399 s \$0.sequencer.event.remove;
#X obj 24 298 s \$0.sequencer.event.add.pre;
#X obj 196 346 mod;
#X obj 24 246 mod;
#X obj 50 246 r \$0.stepsperpage;
#X obj 222 346 r \$0.stepsperpage;
#X connect 0 0 1 0;
#X connect 1 0 11 0;
#X connect 2 0 3 0;
#X connect 3 0 4 0;
#X connect 4 0 6 1;
#X connect 5 0 6 0;
#X connect 6 0 21 0;
#X connect 7 0 5 0;
#X connect 7 1 2 0;
#X connect 7 2 9 0;
#X connect 8 0 19 0;
#X connect 9 0 8 1;
#X connect 10 0 14 0;
#X connect 10 1 13 0;
#X connect 11 0 12 0;
#X connect 12 0 10 0;
#X connect 13 0 7 0;
#X connect 14 0 15 0;
#X connect 14 1 18 0;
#X connect 15 0 16 0;
#X connect 16 0 22 0;
#X connect 17 0 20 0;
#X connect 18 0 17 1;
#X connect 21 0 8 0;
#X connect 22 0 17 0;
#X connect 23 0 22 1;
#X connect 24 0 21 1;
#X restore 13 66 pd note.change.duration;
#N canvas 604 608 577 279 event.add 0;
#X obj 16 37 t a a;
#X msg 71 59 \$1;
#X obj 71 107 sel -1;
#X msg 71 132 1e+09;
#X obj 16 158 text insert \$0.sequence;
#X obj 71 84 text search \$0.sequence > 0;
#X obj 16 11 r \$0.sequencer.event.add.post;
#X obj 256 37 t a a;
#X msg 311 59 \$1;
#X obj 311 127 sel -1;
#X msg 311 152 1e+09;
#X obj 256 184 text insert \$0.sequence;
#X obj 256 11 r \$0.sequencer.event.add.pre;
#X obj 311 104 text search \$0.sequence > 0;
#X obj 311 82 - 1;
#X connect 0 0 4 0;
#X connect 0 1 1 0;
#X connect 1 0 5 0;
#X connect 2 0 3 0;
#X connect 2 1 4 1;
#X connect 3 0 4 1;
#X connect 5 0 2 0;
#X connect 6 0 0 0;
#X connect 7 0 11 0;
#X connect 7 1 8 0;
#X connect 8 0 14 0;
#X connect 9 0 10 0;
#X connect 9 1 11 1;
#X connect 10 0 11 1;
#X connect 12 0 7 0;
#X connect 13 0 9 0;
#X connect 14 0 13 0;
#X restore 15 132 pd event.add;
#N canvas 594 732 359 230 event.remove 0;
#X obj 14 57 text search \$0.sequence 0 1;
#X obj 47 110 text delete \$0.sequence;
#X obj 14 11 r \$0.sequencer.event.remove;
#X obj 14 80 sel -1;
#X obj 14 143 list append;
#X msg 14 166 sequencer: note (\$1 \$2) not found for deletion;
#X obj 14 34 t a a;
#X obj 14 189 s error;
#X connect 0 0 3 0;
#X connect 2 0 6 0;
#X connect 3 0 4 0;
#X connect 3 1 1 0;
#X connect 4 0 5 0;
#X connect 5 0 7 0;
#X connect 6 0 0 0;
#X connect 6 1 4 1;
#X restore 15 155 pd event.remove;
#X obj 17 207 r \$0.init;
#X msg 17 230 -1;
#X obj 17 253 text delete \$0.sequence;
#N canvas 0 99 463 327 note.change.velocity 0;
#X obj 24 16 r \$0.global.receive;
#X obj 24 39 route note;
#X obj 24 62 route change;
#X msg 63 157 \$1 \$2;
#X obj 24 85 route velocity;
#X obj 63 188 text search \$0.sequence 0 1;
#X obj 24 108 t a a;
#X msg 24 131 \$3;
#X obj 24 266 text set \$0.sequence;
#X obj 63 211 t a b;
#X msg 102 234 2;
#X connect 0 0 1 0;
#X connect 1 0 2 0;
#X connect 2 0 4 0;
#X connect 3 0 5 0;
#X connect 4 0 6 0;
#X connect 5 0 9 0;
#X connect 6 0 7 0;
#X connect 6 1 3 0;
#X connect 7 0 8 0;
#X connect 9 0 8 1;
#X connect 9 1 10 0;
#X connect 10 0 8 2;
#X restore 13 88 pd note.change.velocity;
#N canvas 0 99 415 481 play.notes.by.index 0;
#X obj 18 77 text search \$0.sequence 0;
#X obj 96 100 text search \$0.sequence > 0;
#X obj 18 52 t a a;
#X obj 18 98 sel -1;
#X obj 51 174 pack f f;
#X obj 51 200 t a a;
#X obj 51 248 -;
#X obj 51 271 until;
#X obj 51 297 f;
#X obj 51 320 t a a;
#X obj 112 302 + 1;
#X obj 90 344 loadbang;
#X msg 90 370 1;
#X msg 129 368 2;
#X obj 51 397 text get \$0.sequence;
#X obj 96 123 sel -1;
#X msg 51 225 \$2 \$1;
#X msg 120 240 \$1;
#X obj 96 147 text size \$0.sequence;
#X obj 18 17 inlet;
#X obj 51 420 outlet;
#X connect 0 0 3 0;
#X connect 1 0 15 0;
#X connect 2 0 0 0;
#X connect 2 1 1 0;
#X connect 3 1 4 0;
#X connect 4 0 5 0;
#X connect 5 0 16 0;
#X connect 5 1 17 0;
#X connect 6 0 7 0;
#X connect 7 0 8 0;
#X connect 8 0 9 0;
#X connect 9 0 14 0;
#X connect 9 1 10 0;
#X connect 10 0 8 1;
#X connect 11 0 12 0;
#X connect 11 0 13 0;
#X connect 12 0 14 1;
#X connect 13 0 14 2;
#X connect 14 0 20 0;
#X connect 15 0 18 0;
#X connect 15 1 4 1;
#X connect 16 0 6 0;
#X connect 17 0 8 1;
#X connect 18 0 4 1;
#X connect 19 0 2 0;
#X restore 248 159 pd play.notes.by.index;
#X obj 248 36 inlet;
#X obj 248 309 outlet;
#X obj 248 59 t a a;
#N canvas 0 157 370 260 cursor 0;
#X obj 23 15 inlet;
#X obj 23 54 moses 0;
#X obj 62 86 moses 0;
#X obj 62 109 t b a;
#X msg 62 153 1;
#X msg 23 153 0;
#X obj 23 191 change -1;
#X obj 23 214 s \$0.cursor.show;
#X obj 129 214 s \$0.cursor.pos;
#X obj 101 60 r \$0.stepsperpage;
#X connect 0 0 1 0;
#X connect 1 0 5 0;
#X connect 1 1 2 0;
#X connect 2 0 3 0;
#X connect 2 1 5 0;
#X connect 3 0 4 0;
#X connect 3 1 8 0;
#X connect 4 0 6 0;
#X connect 5 0 6 0;
#X connect 6 0 7 0;
#X connect 9 0 2 1;
#X restore 275 84 pd cursor;
#X connect 5 0 6 0;
#X connect 6 0 7 0;
#X connect 9 0 11 0;
#X connect 10 0 12 0;
#X connect 12 0 9 0;
#X connect 12 1 13 0;
#X restore 199 430 pd sequencer;
#X obj 20 471 outlet;
#X obj 20 377 inlet;
#X obj 199 461 outlet;
#X obj 199 367 inlet;
#X text 663 475 2018 \, Roman Haefeli;
#X obj 461 254 s \$1;
#N canvas 0 99 570 525 note.edit.modes 0;
#X obj 14 19 r \$0.note.send;
#X obj 14 435 s \$0.global.send;
#X obj 14 42 route click;
#X obj 14 65 get \$0.note id;
#N canvas 36 115 405 333 gid 0;
#X obj 40 173 tabread \$0.gid;
#X obj 29 120 r \$0.default.gid;
#X obj 14 143 f;
#X obj 14 203 sel;
#X obj 14 96 spigot 0;
#X obj 14 52 t b a;
#X obj 14 22 inlet;
#X obj 14 262 outlet;
#X obj 59 71 route gid;
#X msg 14 231 gid \$1;
#X obj 59 48 r \$0.edit.modes;
#X connect 0 0 3 1;
#X connect 1 0 2 1;
#X connect 2 0 3 0;
#X connect 3 1 9 0;
#X connect 4 0 2 0;
#X connect 5 0 4 0;
#X connect 5 1 0 0;
#X connect 6 0 5 0;
#X connect 8 0 4 1;
#X connect 9 0 7 0;
#X connect 10 0 8 0;
#X restore 14 179 pd gid;
#N canvas 36 115 406 316 dur 0;
#X obj 14 143 f;
#X obj 14 203 sel;
#X obj 59 48 r \$0.edit.modes;
#X obj 14 96 spigot 0;
#X obj 14 52 t b a;
#X obj 14 22 inlet;
#X obj 59 71 route duration;
#X obj 29 120 r \$0.default.dur;
#X obj 40 173 tabread \$0.duration;
#X obj 14 262 outlet;
#X msg 14 231 duration \$1;
#X connect 0 0 1 0;
#X connect 1 1 10 0;
#X connect 2 0 6 0;
#X connect 3 0 0 0;
#X connect 4 0 3 0;
#X connect 4 1 8 0;
#X connect 5 0 4 0;
#X connect 6 0 3 1;
#X connect 7 0 0 1;
#X connect 8 0 1 1;
#X connect 10 0 9 0;
#X restore 64 179 pd dur;
#N canvas 36 115 407 294 vel 0;
#X obj 14 143 f;
#X obj 14 203 sel;
#X obj 59 48 r \$0.edit.modes;
#X obj 14 96 spigot 0;
#X obj 14 52 t b a;
#X obj 14 22 inlet;
#X obj 59 71 route velocity;
#X obj 40 172 tabread \$0.velocity;
#X obj 14 262 outlet;
#X msg 14 231 velocity \$1;
#X obj 29 120 r \$0.default.vel;
#X connect 0 0 1 0;
#X connect 1 1 9 0;
#X connect 2 0 6 0;
#X connect 3 0 0 0;
#X connect 4 0 3 0;
#X connect 4 1 7 0;
#X connect 5 0 4 0;
#X connect 6 0 3 1;
#X connect 7 0 1 1;
#X connect 9 0 8 0;
#X connect 10 0 0 1;
#X restore 114 179 pd vel;
#X obj 164 183 tabread \$0.step;
#X obj 215 160 tabread \$0.pitch;
#X obj 14 114 t a a a a a, f 34;
#X obj 164 206 pack f f;
#X obj 14 228 list split 1;
#X obj 14 280 list prepend note change;
#X obj 14 303 list append;
#X obj 14 326 list append;
#X obj 14 349 list trim;
#X connect 0 0 2 0;
#X connect 2 0 3 0;
#X connect 3 0 9 0;
#X connect 4 0 11 0;
#X connect 5 0 11 0;
#X connect 6 0 11 0;
#X connect 7 0 10 0;
#X connect 8 0 10 1;
#X connect 9 0 4 0;
#X connect 9 1 5 0;
#X connect 9 2 6 0;
#X connect 9 3 7 0;
#X connect 9 4 8 0;
#X connect 10 0 13 1;
#X connect 11 0 12 0;
#X connect 11 1 14 1;
#X connect 12 0 13 0;
#X connect 13 0 14 0;
#X connect 14 0 15 0;
#X connect 15 0 1 0;
#X restore 19 184 pd note.edit.modes;
#X obj 564 17 r \$0.redraw;
#X floatatom 292 319 5 0 0 0 - - -, f 5;
#X obj 319 369 s \$0.page;
#X obj 292 342 t b a;
#X obj 564 40 t b b;
#X obj 292 391 s \$0.redraw;
#N canvas 294 116 748 530 redraw.notes 0;
#X obj 11 15 inlet;
#X obj 38 254 r \$0.page;
#X obj 80 282 r \$0.stepsperpage;
#X obj 38 307 *;
#X obj 38 330 t a a;
#X obj 65 356 +;
#X obj 11 386 moses;
#X obj 38 414 moses;
#X msg 11 41 1000;
#X obj 11 87 until;
#X obj 11 110 f;
#X obj 116 129 + 1;
#X obj 11 64 t a b;
#X msg 62 87 0;
#X obj 30 158 tabread \$0.active;
#X obj 11 133 t a a a;
#X obj 11 180 spigot;
#X obj 11 203 t a a;
#X obj 11 228 tabread \$0.step;
#X obj 38 437 b;
#X obj 38 460 f;
#X obj 216 287 t a;
#X obj 464 184 tabread \$0.step;
#X obj 479 164 tabread \$0.pitch;
#X obj 494 144 tabread \$0.velocity;
#X obj 509 124 tabread \$0.duration;
#X obj 524 104 tabread \$0.gid;
#X text 58 181 <- only active notes;
#X text 77 410 only notes that fit into current page;
#X obj 355 478 t a;
#X obj 449 76 t a a a a a a;
#X obj 449 210 pack f f f f f f;
#X text 574 236 id step pitch vel dur gid;
#X obj 449 247 s \$0.redraw.notes;
#X connect 0 0 8 0;
#X connect 1 0 3 0;
#X connect 2 0 3 1;
#X connect 2 0 5 1;
#X connect 3 0 4 0;
#X connect 4 0 6 1;
#X connect 4 1 5 0;
#X connect 5 0 7 1;
#X connect 6 1 7 0;
#X connect 7 0 19 0;
#X connect 8 0 12 0;
#X connect 9 0 10 0;
#X connect 10 0 15 0;
#X connect 11 0 10 1;
#X connect 12 0 9 0;
#X connect 12 1 13 0;
#X connect 13 0 10 1;
#X connect 14 0 16 1;
#X connect 15 0 16 0;
#X connect 15 1 14 0;
#X connect 15 2 11 0;
#X connect 16 0 17 0;
#X connect 17 0 18 0;
#X connect 17 1 21 0;
#X connect 18 0 6 0;
#X connect 19 0 20 0;
#X connect 20 0 29 0;
#X connect 21 0 20 1;
#X connect 22 0 31 1;
#X connect 23 0 31 2;
#X connect 24 0 31 3;
#X connect 25 0 31 4;
#X connect 26 0 31 5;
#X connect 29 0 30 0;
#X connect 30 0 31 0;
#X connect 30 1 22 0;
#X connect 30 2 23 0;
#X connect 30 3 24 0;
#X connect 30 4 25 0;
#X connect 30 5 26 0;
#X connect 31 0 33 0;
#X restore 564 65 pd redraw.notes;
#X obj 565 306 array define \$0.active 1000;
#X obj 565 328 array define \$0.step 1000;
#X obj 565 351 array define \$0.pitch 1000;
#X obj 565 374 array define \$0.duration 1000;
#X obj 565 397 array define \$0.velocity 1000;
#X obj 565 420 array define \$0.gid 1000;
#X obj 461 13 r \$0.init;
#X msg 206 68 \; \$1.page 0 \; \$1.stepsperpage 64 \; \$1.pitchrange
48 \; \$1.stepviswidth 15 \; \$1.stepvisheight 14 \; \$1.canvastopmargin
53 \; \$1.canvasleftmargin 30 \; \$1.stepkeycolor1 887 \; \$1.stepkeycolor2
777 \; \$1.griddivision 4 \; \$1.gridsubdivision 4 \; \$1.gidcolorlist
800 840 80 88 8 808 \; \$1.default.vel 64 \; \$1.default.gid 0 \; \$1.default.dur
4 \; \$1.default.show 0 \; \$1.init bang \;;
#N canvas 427 111 615 341 converters 0;
#N canvas 83 99 403 258 x->step 0;
#X obj 17 92 -;
#X obj 45 92 r \$0.canvasleftmargin;
#X obj 17 116 /;
#X obj 45 116 r \$0.stepviswidth;
#X obj 17 29 r \$0.convert.x->step.get;
#X obj 17 146 s \$0.convert.x->step;
#X connect 0 0 2 0;
#X connect 1 0 0 1;
#X connect 2 0 5 0;
#X connect 3 0 2 1;
#X connect 4 0 0 0;
#X restore 15 18 pd x->step;
#N canvas 83 99 403 210 y->pitch 0;
#X obj 15 46 -;
#X obj 15 70 /;
#X obj 43 46 r \$0.canvastopmargin;
#X obj 43 70 r \$0.stepvisheight;
#X msg 15 95 83 \$1;
#X obj 15 118 -;
#X obj 15 17 r \$0.convert.y->pitch.get;
#X obj 15 147 s \$0.convert.y->pitch;
#X connect 0 0 1 0;
#X connect 1 0 4 0;
#X connect 2 0 0 1;
#X connect 3 0 1 1;
#X connect 4 0 5 0;
#X connect 5 0 7 0;
#X connect 6 0 0 0;
#X restore 15 48 pd y->pitch;
#N canvas 0 99 405 189 x->step 0;
#X obj 40 63 s \$0.convert.x->step.get;
#X obj 40 85 r \$0.convert.x->step;
#X obj 13 14 inlet;
#X obj 13 37 t b a;
#X obj 13 114 list append;
#X obj 13 137 outlet;
#X connect 1 0 4 1;
#X connect 2 0 3 0;
#X connect 3 0 4 0;
#X connect 3 1 0 0;
#X connect 4 0 5 0;
#X restore 135 18 pd x->step;
#N canvas 0 99 405 189 y->pitch 0;
#X obj 13 14 inlet;
#X obj 13 37 t b a;
#X obj 13 114 list append;
#X obj 13 137 outlet;
#X obj 40 63 s \$0.convert.y->pitch.get;
#X obj 40 85 r \$0.convert.y->pitch;
#X connect 0 0 1 0;
#X connect 1 0 2 0;
#X connect 1 1 4 0;
#X connect 2 0 3 0;
#X connect 5 0 2 1;
#X restore 135 48 pd y->pitch;
#N canvas 83 99 403 258 step->x 0;
#X obj 51 77 r \$0.stepviswidth;
#X obj 17 78 *;
#X obj 17 111 +;
#X obj 50 111 r \$0.canvasleftmargin;
#X obj 17 29 r \$0.convert.step->x.get;
#X obj 17 146 s \$0.convert.step->x;
#X connect 0 0 1 1;
#X connect 1 0 2 0;
#X connect 2 0 5 0;
#X connect 3 0 2 1;
#X connect 4 0 1 0;
#X restore 285 18 pd step->x;
#N canvas 83 99 403 210 pitch->y 0;
#X obj 15 94 *;
#X obj 15 127 +;
#X obj 49 93 r \$0.stepvisheight;
#X obj 48 127 r \$0.canvastopmargin;
#X obj 15 66 -;
#X obj 15 17 r \$0.convert.pitch->y.get;
#X obj 15 157 s \$0.convert.pitch->y;
#X msg 15 41 83 \$1;
#X connect 0 0 1 0;
#X connect 1 0 6 0;
#X connect 2 0 0 1;
#X connect 3 0 1 1;
#X connect 4 0 0 0;
#X connect 5 0 7 0;
#X connect 7 0 4 0;
#X restore 285 48 pd pitch->y;
#N canvas 0 99 405 189 step->x 0;
#X obj 13 14 inlet;
#X obj 13 37 t b a;
#X obj 13 114 list append;
#X obj 13 137 outlet;
#X obj 40 63 s \$0.convert.step->x.get;
#X obj 40 85 r \$0.convert.step->x;
#X connect 0 0 1 0;
#X connect 1 0 2 0;
#X connect 1 1 4 0;
#X connect 2 0 3 0;
#X connect 5 0 2 1;
#X restore 415 18 pd step->x;
#N canvas 0 99 405 189 pitch->y 0;
#X obj 13 14 inlet;
#X obj 13 37 t b a;
#X obj 13 114 list append;
#X obj 13 137 outlet;
#X obj 40 63 s \$0.convert.pitch->y.get;
#X obj 40 85 r \$0.convert.pitch->y;
#X connect 0 0 1 0;
#X connect 1 0 2 0;
#X connect 1 1 4 0;
#X connect 2 0 3 0;
#X connect 5 0 2 1;
#X restore 415 48 pd pitch->y;
#N canvas 73 91 483 612 step|pitch->id 0;
#X obj 135 313 tabread \$0.step;
#X msg 135 94 1000;
#X obj 135 140 until;
#X obj 135 163 f;
#X obj 135 117 t a b;
#X msg 186 140 0;
#X obj 135 339 sel 0;
#X obj 135 364 f;
#X obj 135 409 tabread \$0.pitch;
#X obj 135 387 t a a;
#X obj 135 432 sel 0;
#X obj 135 480 f;
#X obj 135 455 t b b;
#X obj 275 349 b;
#X obj 135 71 t b a a;
#X msg 227 173 \$1;
#X msg 269 177 \$2;
#X obj 135 186 t a a a;
#X obj 192 175 + 1;
#X obj 135 289 t a a;
#X obj 135 262 f;
#X obj 135 213 tabread \$0.active;
#X obj 135 239 sel 1;
#X text 249 241 consider only 'active' notes;
#X obj 38 20 r \$0.convert.step|pitch->id.get;
#X obj 38 43 t b a b, f 33;
#X obj 38 566 s \$0.convert.step|pitch->id;
#X obj 38 527 f;
#X msg 233 494 -1;
#X text 262 492 -1: no such note;
#X connect 0 0 6 0;
#X connect 1 0 4 0;
#X connect 2 0 3 0;
#X connect 3 0 17 0;
#X connect 4 0 2 0;
#X connect 4 1 5 0;
#X connect 5 0 3 1;
#X connect 6 0 7 0;
#X connect 7 0 9 0;
#X connect 8 0 10 0;
#X connect 9 0 8 0;
#X connect 9 1 11 1;
#X connect 10 0 12 0;
#X connect 11 0 27 1;
#X connect 12 0 11 0;
#X connect 12 1 13 0;
#X connect 13 0 2 1;
#X connect 14 0 1 0;
#X connect 14 1 15 0;
#X connect 14 2 16 0;
#X connect 15 0 6 1;
#X connect 16 0 10 1;
#X connect 17 0 21 0;
#X connect 17 1 20 1;
#X connect 17 2 18 0;
#X connect 18 0 3 1;
#X connect 19 0 0 0;
#X connect 19 1 7 1;
#X connect 20 0 19 0;
#X connect 21 0 22 0;
#X connect 22 0 20 0;
#X connect 24 0 25 0;
#X connect 25 0 27 0;
#X connect 25 1 14 0;
#X connect 25 2 28 0;
#X connect 27 0 26 0;
#X connect 28 0 27 1;
#X restore 15 108 pd step|pitch->id;
#N canvas 83 99 410 208 step|pitch->id 0;
#X obj 40 63 s \$0.convert.step|pitch->id.get;
#X obj 40 86 r \$0.convert.step|pitch->id;
#X obj 13 14 inlet;
#X obj 13 37 t b a;
#X obj 13 114 list append;
#X obj 13 137 outlet;
#X connect 1 0 4 1;
#X connect 2 0 3 0;
#X connect 3 0 4 0;
#X connect 3 1 0 0;
#X connect 4 0 5 0;
#X restore 135 108 pd step|pitch->id;
#N canvas 73 91 403 345 id->step|pitch 0;
#X obj 17 29 r \$0.convert.id->step|pitch.get;
#X obj 17 302 s \$0.convert.id->step|pitch;
#X obj 34 79 tabread \$0.active;
#X obj 34 102 sel 1;
#X obj 34 126 f;
#X obj 17 52 t b a a b;
#X obj 34 149 t a a;
#X obj 34 194 tabread \$0.step;
#X obj 61 173 tabread \$0.pitch;
#X obj 34 234 pack f f;
#X obj 17 275 list append;
#X msg 137 238 -1 0;
#X connect 0 0 5 0;
#X connect 2 0 3 0;
#X connect 3 0 4 0;
#X connect 4 0 6 0;
#X connect 5 0 10 0;
#X connect 5 1 2 0;
#X connect 5 2 4 1;
#X connect 5 3 11 0;
#X connect 6 0 7 0;
#X connect 6 1 8 0;
#X connect 7 0 9 0;
#X connect 8 0 9 1;
#X connect 9 0 10 1;
#X connect 10 0 1 0;
#X connect 11 0 10 1;
#X restore 285 108 pd id->step|pitch;
#N canvas 83 99 398 214 id->step|pitch 0;
#X obj 13 14 inlet;
#X obj 13 37 t b a;
#X obj 13 114 list append;
#X obj 13 137 outlet;
#X obj 40 63 s \$0.convert.id->step|pitch.get;
#X obj 40 86 r \$0.convert.id->step|pitch;
#X connect 0 0 1 0;
#X connect 1 0 2 0;
#X connect 1 1 4 0;
#X connect 2 0 3 0;
#X connect 5 0 2 1;
#X restore 415 108 pd id->step|pitch;
#N canvas 73 91 434 455 id->pointer 0;
#X msg 125 330 -1;
#X obj 38 169 pointer \$0.note;
#X obj 38 107 until;
#X msg 38 130 next;
#X obj 38 192 t p p;
#X obj 88 111 symbol \$1;
#X msg 88 136 traverse \$1;
#X obj 38 248 get \$0.note id;
#X obj 38 273 select;
#X obj 184 187 t a;
#X obj 38 329 pointer;
#X obj 38 78 t b b a;
#X obj 38 20 r \$0.convert.id->pointer.get;
#X obj 38 376 s \$0.convert.id->pointer;
#X obj 125 202 t b b;
#X text 156 331 -1: no such scalar;
#X obj 38 296 t b b, f 23;
#X connect 0 0 13 0;
#X connect 1 0 4 0;
#X connect 1 2 14 0;
#X connect 2 0 3 0;
#X connect 3 0 1 0;
#X connect 4 0 7 0;
#X connect 4 1 10 1;
#X connect 5 0 6 0;
#X connect 6 0 1 0;
#X connect 7 0 8 0;
#X connect 8 0 16 0;
#X connect 9 0 8 1;
#X connect 10 0 13 0;
#X connect 11 0 2 0;
#X connect 11 1 5 0;
#X connect 11 2 9 0;
#X connect 12 0 11 0;
#X connect 14 0 0 0;
#X connect 14 1 2 1;
#X connect 16 0 10 0;
#X connect 16 1 2 1;
#X restore 15 138 pd id->pointer;
#N canvas 83 99 410 208 id->pointer 0;
#X obj 13 14 inlet;
#X obj 13 37 t b a;
#X obj 13 114 list append;
#X obj 13 137 outlet;
#X obj 40 63 s \$0.convert.id->pointer.get;
#X obj 40 86 r \$0.convert.id->pointer;
#X connect 0 0 1 0;
#X connect 1 0 2 0;
#X connect 1 1 4 0;
#X connect 2 0 3 0;
#X connect 5 0 2 1;
#X restore 135 138 pd id->pointer;
#N canvas 83 99 403 345 pointer->id 0;
#X obj 17 29 r \$0.convert.pointer->id.get;
#X obj 17 302 s \$0.convert.pointer->id;
#X obj 17 90 get \$0.note id;
#X connect 0 0 2 0;
#X connect 2 0 1 0;
#X restore 285 138 pd pointer->id;
#N canvas 83 99 398 214 pointer->id 0;
#X obj 13 14 inlet;
#X obj 13 37 t b a;
#X obj 13 114 list append;
#X obj 13 137 outlet;
#X obj 40 63 s \$0.convert.pointer->id.get;
#X obj 40 86 r \$0.convert.pointer->id;
#X connect 0 0 1 0;
#X connect 1 0 2 0;
#X connect 1 1 4 0;
#X connect 2 0 3 0;
#X connect 5 0 2 1;
#X restore 415 138 pd pointer->id;
#N canvas 83 99 403 210 w->duration 0;
#X obj 15 78 /;
#X obj 44 78 r \$0.stepviswidth;
#X obj 15 17 r \$0.convert.w->duration.get;
#X obj 15 147 s \$0.convert.w->duration;
#X connect 0 0 3 0;
#X connect 1 0 0 1;
#X connect 2 0 0 0;
#X restore 15 78 pd w->duration;
#N canvas 0 99 405 189 w->duration 0;
#X obj 13 14 inlet;
#X obj 13 37 t b a;
#X obj 13 114 list append;
#X obj 13 137 outlet;
#X obj 40 85 r \$0.convert.w->duration;
#X obj 40 63 s \$0.convert.w->duration.get;
#X connect 0 0 1 0;
#X connect 1 0 2 0;
#X connect 1 1 5 0;
#X connect 2 0 3 0;
#X connect 4 0 2 1;
#X restore 135 78 pd w->duration;
#N canvas 83 99 403 210 duration->w 0;
#X obj 47 78 r \$0.stepviswidth;
#X obj 15 77 *;
#X obj 15 17 r \$0.convert.duration->w.get;
#X obj 15 157 s \$0.convert.duration->w;
#X connect 0 0 1 1;
#X connect 1 0 3 0;
#X connect 2 0 1 0;
#X restore 285 78 pd duration->w;
#N canvas 0 99 405 189 duration->w 0;
#X obj 13 14 inlet;
#X obj 13 37 t b a;
#X obj 13 114 list append;
#X obj 13 137 outlet;
#X obj 40 63 s \$0.convert.duration->w.get;
#X obj 40 85 r \$0.convert.duration->w;
#X connect 0 0 1 0;
#X connect 1 0 2 0;
#X connect 1 1 4 0;
#X connect 2 0 3 0;
#X connect 5 0 2 1;
#X restore 415 78 pd duration->w;
#N canvas 83 99 403 254 gid->gclr 0;
#X obj 38 20 r \$0.convert.gid->gclr.get;
#X obj 77 189 s \$0.convert.gid->gclr;
#X obj 77 118 list store;
#X msg 77 72 get \$1 1;
#X obj 134 92 r \$0.gidcolorlist;
#X msg 134 142 -1;
#X obj 38 49 moses 0;
#X connect 0 0 6 0;
#X connect 2 0 1 0;
#X connect 2 1 5 0;
#X connect 3 0 2 0;
#X connect 4 0 2 1;
#X connect 5 0 1 0;
#X connect 6 0 5 0;
#X connect 6 1 3 0;
#X restore 15 168 pd gid->gclr;
#N canvas 83 99 410 208 gid->gclr 0;
#X obj 13 14 inlet;
#X obj 13 37 t b a;
#X obj 13 114 list append;
#X obj 13 137 outlet;
#X obj 40 63 s \$0.convert.gid->gclr.get;
#X obj 40 86 r \$0.convert.gid->gclr;
#X connect 0 0 1 0;
#X connect 1 0 2 0;
#X connect 1 1 4 0;
#X connect 2 0 3 0;
#X connect 5 0 2 1;
#X restore 135 168 pd gid->gclr;
#X restore 19 35 pd converters;
#X text 20 15 converters;
#N canvas 109 324 602 507 note.create 0;
#X obj 6 8 r \$0.global.receive;
#X obj 6 31 route note;
#X obj 6 54 route create;
#X text 95 56 step pitch vel dur gid;
#X obj 119 183 s \$0.active;
#X obj 196 183 s \$0.step;
#X obj 259 183 s \$0.pitch;
#X obj 417 183 s \$0.duration;
#X obj 328 183 s \$0.velocity;
#X obj 508 183 s \$0.gid;
#N canvas 0 99 391 254 prepend.id 0;
#X obj 32 58 t a b;
#X obj 113 86 array min \$0.active;
#X obj 113 109 sel 0;
#X obj 113 132 f;
#X msg 147 139 note buffer full!;
#X obj 147 163 print ERROR;
#X obj 32 22 inlet;
#X obj 32 190 outlet;
#X obj 32 156 list prepend 0;
#X connect 0 0 8 0;
#X connect 0 1 1 0;
#X connect 1 0 2 0;
#X connect 1 1 3 1;
#X connect 2 0 3 0;
#X connect 2 1 4 0;
#X connect 3 0 8 1;
#X connect 4 0 5 0;
#X connect 6 0 0 0;
#X connect 8 0 7 0;
#X restore 6 77 pd prepend.id;
#X msg 119 148 \$1 1;
#X obj 6 100 t a a;
#X msg 196 148 \$1 \$2;
#X msg 259 148 \$1 \$3;
#X msg 328 148 \$1 \$4;
#X msg 417 148 \$1 \$5;
#X msg 508 148 \$1 \$6;
#X text 20 389 x y w h id gid vel c vis;
#X obj 6 419 list prepend scalar \$0.note;
#X obj 6 442 list trim;
#N canvas 16 91 407 242 w 0;
#X obj 7 21 inlet;
#X obj 7 175 outlet;
#X msg 7 44 \$5;
#N canvas 0 99 405 189 duration->w 0;
#X obj 13 14 inlet;
#X obj 13 37 t b a;
#X obj 13 114 list append;
#X obj 13 137 outlet;
#X obj 40 63 s \$0.convert.duration->w.get;
#X obj 40 85 r \$0.convert.duration->w;
#X connect 0 0 1 0;
#X connect 1 0 2 0;
#X connect 1 1 4 0;
#X connect 2 0 3 0;
#X connect 5 0 2 1;
#X restore 7 87 pd duration->w;
#X connect 0 0 2 0;
#X connect 2 0 3 0;
#X connect 3 0 1 0;
#X restore 86 291 pd w;
#N canvas 6 83 432 235 h 0;
#X obj 7 21 inlet;
#X obj 7 159 outlet;
#X obj 42 79 r \$0.stepvisheight;
#X obj 42 102 - 1;
#X obj 7 88 f;
#X obj 7 44 b;
#X connect 0 0 5 0;
#X connect 2 0 3 0;
#X connect 3 0 4 1;
#X connect 4 0 1 0;
#X connect 5 0 4 0;
#X restore 126 291 pd h;
#N canvas 16 91 410 257 id 0;
#X obj 7 21 inlet;
#X obj 7 211 outlet;
#X msg 7 93 \$1;
#X connect 0 0 2 0;
#X connect 2 0 1 0;
#X restore 166 291 pd id;
#N canvas 125 91 416 204 gid 0;
#X obj 7 21 inlet;
#X obj 7 137 outlet;
#X msg 7 72 \$6;
#X connect 0 0 2 0;
#X connect 2 0 1 0;
#X restore 207 291 pd gid;
#N canvas 15 91 396 215 vel 0;
#X obj 20 21 inlet;
#X obj 20 162 outlet;
#X msg 20 76 \$4;
#X connect 0 0 2 0;
#X connect 2 0 1 0;
#X restore 257 291 pd vel;
#N canvas 16 91 427 356 c 0;
#X obj 7 21 inlet;
#X obj 7 262 outlet;
#N canvas 320 203 446 363 clr.* 0;
#X obj 28 62 t a a a;
#X obj 28 112 div 100;
#X obj 78 113 mod 100;
#X obj 78 136 div 10;
#X obj 128 112 mod 10;
#X obj 28 165 *;
#X obj 28 188 int;
#X obj 78 165 *;
#X obj 78 188 int;
#X obj 128 165 *;
#X obj 128 188 int;
#X obj 230 103 inlet;
#X obj 28 212 min 9;
#X obj 78 212 min 9;
#X obj 128 212 min 9;
#X obj 28 235 * 100;
#X obj 78 235 * 10;
#X obj 128 235 * 1;
#X obj 28 262 +;
#X obj 28 285 +;
#X obj 28 311 outlet;
#X obj 28 24 inlet;
#X connect 0 0 1 0;
#X connect 0 1 2 0;
#X connect 0 2 4 0;
#X connect 1 0 5 0;
#X connect 2 0 3 0;
#X connect 3 0 7 0;
#X connect 4 0 9 0;
#X connect 5 0 6 0;
#X connect 6 0 12 0;
#X connect 7 0 8 0;
#X connect 8 0 13 0;
#X connect 9 0 10 0;
#X connect 10 0 14 0;
#X connect 11 0 9 1;
#X connect 11 0 7 1;
#X connect 11 0 5 1;
#X connect 12 0 15 0;
#X connect 13 0 16 0;
#X connect 14 0 17 0;
#X connect 15 0 18 0;
#X connect 16 0 18 1;
#X connect 17 0 19 1;
#X connect 18 0 19 0;
#X connect 19 0 20 0;
#X connect 21 0 0 0;
#X restore 7 221 pd clr.*;
#X obj 109 120 / 113;
#X obj 7 44 t a a;
#X msg 7 82 \$6;
#X msg 109 94 \$4;
#N canvas 73 91 410 208 gid->gclr 0;
#X obj 13 14 inlet;
#X obj 13 37 t b a;
#X obj 13 114 list append;
#X obj 13 137 outlet;
#X obj 40 63 s \$0.convert.gid->gclr.get;
#X obj 40 86 r \$0.convert.gid->gclr;
#X connect 0 0 1 0;
#X connect 1 0 2 0;
#X connect 1 1 4 0;
#X connect 2 0 3 0;
#X connect 5 0 2 1;
#X restore 7 117 pd gid->gclr;
#X connect 0 0 4 0;
#X connect 2 0 1 0;
#X connect 3 0 2 1;
#X connect 4 0 5 0;
#X connect 4 1 6 0;
#X connect 5 0 7 0;
#X connect 6 0 3 0;
#X connect 7 0 2 0;
#X restore 307 291 pd c;
#N canvas 16 91 414 215 vis 0;
#X obj 7 21 inlet;
#X obj 7 126 outlet;
#X msg 7 74 1;
#X obj 7 44 b;
#X connect 0 0 3 0;
#X connect 2 0 1 0;
#X connect 3 0 2 0;
#X restore 347 291 pd vis;
#N canvas 16 91 407 242 x 0;
#X obj 7 21 inlet;
#X obj 7 185 outlet;
#X msg 7 44 \$2;
#N canvas 0 99 405 189 step->x 0;
#X obj 13 14 inlet;
#X obj 13 37 t b a;
#X obj 13 114 list append;
#X obj 13 137 outlet;
#X obj 40 63 s \$0.convert.step->x.get;
#X obj 40 85 r \$0.convert.step->x;
#X connect 0 0 1 0;
#X connect 1 0 2 0;
#X connect 1 1 4 0;
#X connect 2 0 3 0;
#X connect 5 0 2 1;
#X restore 7 95 pd step->x;
#X connect 0 0 2 0;
#X connect 2 0 3 0;
#X connect 3 0 1 0;
#X restore 6 291 pd x;
#N canvas 14 286 432 235 y 0;
#X obj 7 21 inlet;
#X obj 7 169 outlet;
#N canvas 0 99 405 189 pitch->y 0;
#X obj 13 14 inlet;
#X obj 13 37 t b a;
#X obj 13 114 list append;
#X obj 13 137 outlet;
#X obj 40 63 s \$0.convert.pitch->y.get;
#X obj 40 85 r \$0.convert.pitch->y;
#X connect 0 0 1 0;
#X connect 1 0 2 0;
#X connect 1 1 4 0;
#X connect 2 0 3 0;
#X connect 5 0 2 1;
#X restore 7 95 pd pitch->y;
#X msg 7 57 \$3;
#X connect 0 0 3 0;
#X connect 2 0 1 0;
#X connect 3 0 2 0;
#X restore 46 291 pd y;
#X obj 6 252 t a a a a a a a a a, f 57;
#X obj 6 355 pack f f f f f f f f f, f 57;
#X obj 6 473 s \$1;
#X obj 17 214 r \$0.redraw.notes;
#X connect 0 0 1 0;
#X connect 1 0 2 0;
#X connect 2 0 10 0;
#X connect 10 0 12 0;
#X connect 11 0 4 0;
#X connect 12 0 30 0;
#X connect 12 1 11 0;
#X connect 12 1 13 0;
#X connect 12 1 14 0;
#X connect 12 1 15 0;
#X connect 12 1 16 0;
#X connect 12 1 17 0;
#X connect 13 0 5 0;
#X connect 14 0 6 0;
#X connect 15 0 8 0;
#X connect 16 0 7 0;
#X connect 17 0 9 0;
#X connect 19 0 20 0;
#X connect 20 0 32 0;
#X connect 21 0 31 2;
#X connect 22 0 31 3;
#X connect 23 0 31 4;
#X connect 24 0 31 5;
#X connect 25 0 31 6;
#X connect 26 0 31 7;
#X connect 27 0 31 8;
#X connect 28 0 31 0;
#X connect 29 0 31 1;
#X connect 30 0 28 0;
#X connect 30 1 29 0;
#X connect 30 2 21 0;
#X connect 30 3 22 0;
#X connect 30 4 23 0;
#X connect 30 5 24 0;
#X connect 30 6 25 0;
#X connect 30 7 26 0;
#X connect 30 8 27 0;
#X connect 31 0 19 0;
#X connect 33 0 30 0;
#X restore 19 238 pd note.create;
#N canvas 157 483 353 503 note.delete 0;
#X obj 6 8 r \$0.global.receive;
#X obj 6 31 route note;
#X obj 6 54 route delete;
#X obj 51 462 s \$0.active;
#X msg 51 435 \$1 0;
#X msg 161 393 5;
#X msg 123 392 5;
#X obj 78 297 f;
#N canvas 83 99 410 208 step|pitch->id 0;
#X obj 40 63 s \$0.convert.step|pitch->id.get;
#X obj 40 86 r \$0.convert.step|pitch->id;
#X obj 13 14 inlet;
#X obj 13 37 t b a;
#X obj 13 114 list append;
#X obj 13 137 outlet;
#X connect 1 0 4 1;
#X connect 2 0 3 0;
#X connect 3 0 4 0;
#X connect 3 1 0 0;
#X connect 4 0 5 0;
#X restore 6 99 pd step|pitch->id;
#N canvas 73 91 410 208 id->pointer 0;
#X obj 13 14 inlet;
#X obj 13 37 t b a;
#X obj 13 114 list append;
#X obj 13 137 outlet;
#X obj 40 63 s \$0.convert.id->pointer.get;
#X obj 40 86 r \$0.convert.id->pointer;
#X connect 0 0 1 0;
#X connect 1 0 2 0;
#X connect 1 1 4 0;
#X connect 2 0 3 0;
#X connect 5 0 2 1;
#X restore 78 324 pd id->pointer;
#X obj 6 122 route -1;
#X obj 6 77 t a a;
#X obj 6 145 b;
#X msg 6 199 note delete: no such note (\$1 \$2);
#X obj 6 226 s error;
#X obj 6 168 list append;
#X obj 51 273 t a a;
#X obj 78 347 route -1;
#X obj 123 418 set \$0.note x y id vis, f 26;
#X obj 123 369 t b b b b p, f 26;
#X msg 199 392 -1;
#X msg 237 392 0;
#X connect 0 0 1 0;
#X connect 1 0 2 0;
#X connect 2 0 11 0;
#X connect 4 0 3 0;
#X connect 5 0 18 1;
#X connect 6 0 18 0;
#X connect 7 0 9 0;
#X connect 8 0 10 0;
#X connect 9 0 17 0;
#X connect 10 0 12 0;
#X connect 10 1 16 0;
#X connect 11 0 8 0;
#X connect 11 1 15 1;
#X connect 12 0 15 0;
#X connect 13 0 14 0;
#X connect 15 0 13 0;
#X connect 16 0 4 0;
#X connect 16 1 7 0;
#X connect 17 1 19 0;
#X connect 19 0 6 0;
#X connect 19 1 5 0;
#X connect 19 2 20 0;
#X connect 19 3 21 0;
#X connect 19 4 18 4;
#X connect 20 0 18 2;
#X connect 21 0 18 3;
#X restore 19 261 pd note.delete;
#N canvas 0 209 422 584 note.change.duration 0;
#X obj 6 8 r \$0.global.receive;
#X obj 6 31 route note;
#X obj 6 54 route change;
#X obj 6 77 route duration;
#X obj 6 100 t a a, f 49;
#X msg 297 155 \$3;
#X msg 6 123 \$1 \$2;
#X obj 51 392 pack f f;
#X obj 51 433 s \$0.duration;
#X obj 210 513 set \$0.note w;
#N canvas 83 99 410 208 step|pitch->id 0;
#X obj 40 63 s \$0.convert.step|pitch->id.get;
#X obj 40 86 r \$0.convert.step|pitch->id;
#X obj 13 14 inlet;
#X obj 13 37 t b a;
#X obj 13 114 list append;
#X obj 13 137 outlet;
#X connect 1 0 4 1;
#X connect 2 0 3 0;
#X connect 3 0 4 0;
#X connect 3 1 0 0;
#X connect 4 0 5 0;
#X restore 6 168 pd step|pitch->id;
#N canvas 83 99 410 208 id->pointer 0;
#X obj 13 14 inlet;
#X obj 13 37 t b a;
#X obj 13 114 list append;
#X obj 13 137 outlet;
#X obj 40 63 s \$0.convert.id->pointer.get;
#X obj 40 86 r \$0.convert.id->pointer;
#X connect 0 0 1 0;
#X connect 1 0 2 0;
#X connect 1 1 4 0;
#X connect 2 0 3 0;
#X connect 5 0 2 1;
#X restore 165 384 pd id->pointer;
#N canvas 0 99 405 189 duration->w 0;
#X obj 13 14 inlet;
#X obj 13 37 t b a;
#X obj 13 114 list append;
#X obj 13 137 outlet;
#X obj 40 63 s \$0.convert.duration->w.get;
#X obj 40 85 r \$0.convert.duration->w;
#X connect 0 0 1 0;
#X connect 1 0 2 0;
#X connect 1 1 4 0;
#X connect 2 0 3 0;
#X connect 5 0 2 1;
#X restore 210 480 pd duration->w;
#X obj 6 194 route -1;
#X obj 6 145 t a a;
#X obj 6 217 b;
#X obj 6 298 s error;
#X obj 6 240 list append;
#X msg 6 271 note change duration: no such note (\$1 \$2);
#X obj 165 407 route -1;
#X obj 210 456 f;
#X obj 210 433 t b p;
#X text 334 159 duration;
#X obj 51 329 t a a;
#X connect 0 0 1 0;
#X connect 1 0 2 0;
#X connect 2 0 3 0;
#X connect 3 0 4 0;
#X connect 4 0 6 0;
#X connect 4 1 5 0;
#X connect 5 0 20 1;
#X connect 5 0 7 1;
#X connect 6 0 14 0;
#X connect 7 0 8 0;
#X connect 10 0 13 0;
#X connect 11 0 19 0;
#X connect 12 0 9 0;
#X connect 13 0 15 0;
#X connect 13 1 23 0;
#X connect 14 0 10 0;
#X connect 14 1 17 1;
#X connect 15 0 17 0;
#X connect 17 0 18 0;
#X connect 18 0 16 0;
#X connect 19 1 21 0;
#X connect 20 0 12 0;
#X connect 21 0 20 0;
#X connect 21 1 9 1;
#X connect 23 0 7 0;
#X connect 23 1 11 0;
#X restore 19 284 pd note.change.duration;
#N canvas 103 248 385 658 note.change.velocity 0;
#X obj 6 8 r \$0.global.receive;
#X obj 6 31 route note;
#X obj 6 54 route change;
#X obj 51 410 pack f f;
#X obj 6 77 route velocity;
#X obj 51 450 s \$0.velocity;
#N canvas 320 203 446 363 clr.* 0;
#X obj 28 62 t a a a;
#X obj 28 112 div 100;
#X obj 78 113 mod 100;
#X obj 78 136 div 10;
#X obj 128 112 mod 10;
#X obj 28 165 *;
#X obj 28 188 int;
#X obj 78 165 *;
#X obj 78 188 int;
#X obj 128 165 *;
#X obj 128 188 int;
#X obj 230 103 inlet;
#X obj 28 212 min 9;
#X obj 78 212 min 9;
#X obj 128 212 min 9;
#X obj 28 235 * 100;
#X obj 78 235 * 10;
#X obj 128 235 * 1;
#X obj 28 262 +;
#X obj 28 285 +;
#X obj 28 311 outlet;
#X obj 28 24 inlet;
#X connect 0 0 1 0;
#X connect 0 1 2 0;
#X connect 0 2 4 0;
#X connect 1 0 5 0;
#X connect 2 0 3 0;
#X connect 3 0 7 0;
#X connect 4 0 9 0;
#X connect 5 0 6 0;
#X connect 6 0 12 0;
#X connect 7 0 8 0;
#X connect 8 0 13 0;
#X connect 9 0 10 0;
#X connect 10 0 14 0;
#X connect 11 0 9 1;
#X connect 11 0 7 1;
#X connect 11 0 5 1;
#X connect 12 0 15 0;
#X connect 13 0 16 0;
#X connect 14 0 17 0;
#X connect 15 0 18 0;
#X connect 16 0 18 1;
#X connect 17 0 19 1;
#X connect 18 0 19 0;
#X connect 19 0 20 0;
#X connect 21 0 0 0;
#X restore 271 569 pd clr.*;
#X obj 317 508 / 113;
#X obj 216 608 set \$0.note vel c, f 19;
#X obj 51 321 t a a;
#X obj 271 480 get \$0.note gid;
#N canvas 83 99 410 208 id->pointer 0;
#X obj 13 14 inlet;
#X obj 13 37 t b a;
#X obj 13 114 list append;
#X obj 13 137 outlet;
#X obj 40 63 s \$0.convert.id->pointer.get;
#X obj 40 86 r \$0.convert.id->pointer;
#X connect 0 0 1 0;
#X connect 1 0 2 0;
#X connect 1 1 4 0;
#X connect 2 0 3 0;
#X connect 5 0 2 1;
#X restore 171 353 pd id->pointer;
#N canvas 83 99 410 208 gid->gclr 0;
#X obj 13 14 inlet;
#X obj 13 37 t b a;
#X obj 13 114 list append;
#X obj 13 137 outlet;
#X obj 40 63 s \$0.convert.gid->gclr.get;
#X obj 40 86 r \$0.convert.gid->gclr;
#X connect 0 0 1 0;
#X connect 1 0 2 0;
#X connect 1 1 4 0;
#X connect 2 0 3 0;
#X connect 5 0 2 1;
#X restore 271 537 pd gid->gclr;
#X obj 6 100 t a a, f 38;
#X msg 6 123 \$1 \$2;
#N canvas 83 99 410 208 step|pitch->id 0;
#X obj 40 63 s \$0.convert.step|pitch->id.get;
#X obj 40 86 r \$0.convert.step|pitch->id;
#X obj 13 14 inlet;
#X obj 13 37 t b a;
#X obj 13 114 list append;
#X obj 13 137 outlet;
#X connect 1 0 4 1;
#X connect 2 0 3 0;
#X connect 3 0 4 0;
#X connect 3 1 0 0;
#X connect 4 0 5 0;
#X restore 6 168 pd step|pitch->id;
#X obj 6 194 route -1;
#X obj 6 145 t a a;
#X obj 6 217 b;
#X obj 6 298 s error;
#X obj 6 240 list append;
#X msg 6 271 note change velocity: no such note (\$1 \$2);
#X msg 231 135 \$3;
#X text 258 135 velocity;
#X obj 171 376 route -1;
#X obj 216 478 f;
#X obj 231 400 t a a;
#X obj 216 435 t b p p, f 19;
#X connect 0 0 1 0;
#X connect 1 0 2 0;
#X connect 2 0 4 0;
#X connect 3 0 5 0;
#X connect 4 0 13 0;
#X connect 6 0 8 1;
#X connect 7 0 6 1;
#X connect 9 0 3 0;
#X connect 9 1 11 0;
#X connect 10 0 12 0;
#X connect 11 0 24 0;
#X connect 12 0 6 0;
#X connect 13 0 14 0;
#X connect 13 1 22 0;
#X connect 14 0 17 0;
#X connect 15 0 16 0;
#X connect 16 0 18 0;
#X connect 16 1 9 0;
#X connect 17 0 15 0;
#X connect 17 1 20 1;
#X connect 18 0 20 0;
#X connect 20 0 21 0;
#X connect 21 0 19 0;
#X connect 22 0 3 1;
#X connect 22 0 26 0;
#X connect 24 1 27 0;
#X connect 25 0 8 0;
#X connect 26 0 25 1;
#X connect 26 1 7 0;
#X connect 27 0 25 0;
#X connect 27 1 10 0;
#X connect 27 2 8 2;
#X restore 19 307 pd note.change.velocity;
#N canvas 202 202 381 454 note.change.gid 0;
#X obj 6 8 r \$0.global.receive;
#X obj 6 31 route note;
#X obj 6 54 route change;
#X obj 6 100 t a a;
#X msg 6 162 \$3;
#X msg 51 143 \$1 \$2;
#X obj 6 317 pack f f;
#X msg 6 351 \$2 \$1;
#N canvas 320 203 446 363 clr.* 0;
#X obj 28 62 t a a a;
#X obj 28 112 div 100;
#X obj 78 113 mod 100;
#X obj 78 136 div 10;
#X obj 128 112 mod 10;
#X obj 28 165 *;
#X obj 28 188 int;
#X obj 78 165 *;
#X obj 78 188 int;
#X obj 128 165 *;
#X obj 128 188 int;
#X obj 230 103 inlet;
#X obj 28 212 min 9;
#X obj 78 212 min 9;
#X obj 128 212 min 9;
#X obj 28 235 * 100;
#X obj 78 235 * 10;
#X obj 128 235 * 1;
#X obj 28 262 +;
#X obj 28 285 +;
#X obj 28 311 outlet;
#X obj 28 24 inlet;
#X connect 0 0 1 0;
#X connect 0 1 2 0;
#X connect 0 2 4 0;
#X connect 1 0 5 0;
#X connect 2 0 3 0;
#X connect 3 0 7 0;
#X connect 4 0 9 0;
#X connect 5 0 6 0;
#X connect 6 0 12 0;
#X connect 7 0 8 0;
#X connect 8 0 13 0;
#X connect 9 0 10 0;
#X connect 10 0 14 0;
#X connect 11 0 9 1;
#X connect 11 0 7 1;
#X connect 11 0 5 1;
#X connect 12 0 15 0;
#X connect 13 0 16 0;
#X connect 14 0 17 0;
#X connect 15 0 18 0;
#X connect 16 0 18 1;
#X connect 17 0 19 1;
#X connect 18 0 19 0;
#X connect 19 0 20 0;
#X connect 21 0 0 0;
#X restore 141 379 pd clr.*;
#X obj 187 318 / 113;
#X obj 6 261 t a a a;
#X obj 6 77 route gid;
#X obj 6 417 s \$0.gid;
#X obj 92 416 set \$0.note gid c;
#N canvas 83 99 410 208 step|pitch->id 0;
#X obj 40 63 s \$0.convert.step|pitch->id.get;
#X obj 40 86 r \$0.convert.step|pitch->id;
#X obj 13 14 inlet;
#X obj 13 37 t b a;
#X obj 13 114 list append;
#X obj 13 137 outlet;
#X connect 1 0 4 1;
#X connect 2 0 3 0;
#X connect 3 0 4 0;
#X connect 3 1 0 0;
#X connect 4 0 5 0;
#X restore 51 167 pd step|pitch->id;
#X obj 51 197 t a a;
#N canvas 83 99 410 208 id->pointer 0;
#X obj 13 14 inlet;
#X obj 13 37 t b a;
#X obj 13 114 list append;
#X obj 13 137 outlet;
#X obj 40 63 s \$0.convert.id->pointer.get;
#X obj 40 86 r \$0.convert.id->pointer;
#X connect 0 0 1 0;
#X connect 1 0 2 0;
#X connect 1 1 4 0;
#X connect 2 0 3 0;
#X connect 5 0 2 1;
#X restore 78 221 pd id->pointer;
#X obj 78 269 get \$0.note vel;
#X obj 78 244 t p p, f 30;
#N canvas 83 99 410 208 gid->gclr 0;
#X obj 13 14 inlet;
#X obj 13 37 t b a;
#X obj 13 114 list append;
#X obj 13 137 outlet;
#X obj 40 63 s \$0.convert.gid->gclr.get;
#X obj 40 86 r \$0.convert.gid->gclr;
#X connect 0 0 1 0;
#X connect 1 0 2 0;
#X connect 1 1 4 0;
#X connect 2 0 3 0;
#X connect 5 0 2 1;
#X restore 141 351 pd gid->gclr;
#X connect 0 0 1 0;
#X connect 1 0 2 0;
#X connect 2 0 11 0;
#X connect 3 0 4 0;
#X connect 3 1 5 0;
#X connect 4 0 10 0;
#X connect 5 0 14 0;
#X connect 6 0 7 0;
#X connect 7 0 12 0;
#X connect 8 0 13 1;
#X connect 9 0 8 1;
#X connect 10 0 6 0;
#X connect 10 2 19 0;
#X connect 11 0 3 0;
#X connect 14 0 15 0;
#X connect 15 0 6 1;
#X connect 15 1 16 0;
#X connect 16 0 18 0;
#X connect 17 0 9 0;
#X connect 18 0 17 0;
#X connect 18 1 13 2;
#X connect 19 0 8 0;
#X restore 19 330 pd note.change.gid;
#N canvas 842 143 401 476 inspector 0;
#X obj 42 89 t a a a a a a;
#X obj 117 113 tabread \$0.active;
#X obj 102 158 tabread \$0.step;
#X obj 87 205 tabread \$0.pitch;
#X obj 72 252 tabread \$0.duration;
#X obj 57 299 tabread \$0.velocity;
#X obj 42 349 tabread \$0.gid;
#X msg 42 372 gid \$1;
#X msg 57 322 velocity \$1;
#X msg 72 275 duration \$1;
#X msg 87 228 pitch \$1;
#X msg 117 136 active \$1;
#X obj 42 59 t a a, f 30;
#X obj 117 435 print NOTE;
#X floatatom 42 19 5 0 0 0 - - -, f 5;
#X msg 219 290 -- ID \$1 ------------;
#X msg 102 181 step \$1;
#X connect 0 0 6 0;
#X connect 0 1 5 0;
#X connect 0 2 4 0;
#X connect 0 3 3 0;
#X connect 0 4 2 0;
#X connect 0 5 1 0;
#X connect 1 0 11 0;
#X connect 2 0 16 0;
#X connect 3 0 10 0;
#X connect 4 0 9 0;
#X connect 5 0 8 0;
#X connect 6 0 7 0;
#X connect 7 0 13 0;
#X connect 8 0 13 0;
#X connect 9 0 13 0;
#X connect 10 0 13 0;
#X connect 11 0 13 0;
#X connect 12 0 0 0;
#X connect 12 1 15 0;
#X connect 14 0 12 0;
#X connect 15 0 13 0;
#X connect 16 0 13 0;
#X restore 464 465 pd inspector;
#X connect 0 0 31 0;
#X connect 1 0 2 0;
#X connect 2 0 47 0;
#X connect 3 0 2 0;
#X connect 4 0 31 0;
#X connect 7 0 31 0;
#X connect 9 0 31 0;
#X connect 11 0 12 0;
#X connect 12 0 40 0;
#X connect 12 0 41 0;
#X connect 12 0 42 0;
#X connect 12 0 43 0;
#X connect 12 0 44 0;
#X connect 12 0 45 0;
#X connect 13 0 14 0;
#X connect 13 1 9 0;
#X connect 13 2 4 0;
#X connect 13 3 7 0;
#X connect 13 4 0 0;
#X connect 14 0 31 0;
#X connect 16 0 26 0;
#X connect 25 0 28 0;
#X connect 27 0 17 0;
#X connect 29 0 25 0;
#X connect 33 0 37 0;
#X connect 34 0 36 0;
#X connect 36 0 38 0;
#X connect 36 1 35 0;
#X connect 37 0 39 0;
#X connect 37 1 13 0;
#X connect 46 0 13 0;
